<svg id="A" xmlns="http://www.w3.org/2000/svg" viewBox="0 0 250.25 250.25"><defs><style>.cls-1,.cls-10{fill:none;}.cls-2{fill:#fefefe;}.cls-3{fill:#ccc;}.cls-4{fill:#333;}.cls-5{fill:#f2f2f2;}.cls-6{fill:#b3b3b3;}.cls-7{fill:#fff;}.cls-8{fill:#666;}.cls-9{fill:gray;}.cls-10{stroke:#000;stroke-miterlimit:10;stroke-width:0.25px;}</style></defs><title>FörtätaStaden KVADRAT_A</title><rect class="cls-1" x="0.13" y="0.13" width="250" height="62.25"/><polygon class="cls-2" points="0.76 102.24 43.69 87.75 43.69 147.11 66.27 154.41 66.27 197.5 154.28 197.5 155.8 194.93 163.72 194.93 171.65 194.93 173.18 197.5 188.72 197.5 190.25 194.93 198.17 194.93 206.1 194.93 207.63 197.5 232.2 197.5 232.2 189.62 220.85 189.62 220.85 163.37 247.1 163.37 247.1 189.62 235.76 189.62 235.76 197.5 250.13 197.5 250.13 62.63 0.13 62.63 0.13 130.26 0.76 130.42 0.76 102.24"/><path class="cls-3" d="M250,197.38H235.63v30.55h-3.56V197.38H207.5l1,1.73v-1.36h2a1.17,1.17,0,0,1,1.17,1.18v.25h1.19l7.57,46H69.7l12.13-9.8V227.6H83l1.78-3H81.52v-2A1.58,1.58,0,0,1,83.1,221h2.69v1.82l3.44-5.79h15.22l22.14-17.89H150v-.25a1.17,1.17,0,0,1,1.17-1.18h2v1.36l1-1.73h-88v46.93H0v5.44H250Z" transform="translate(0.13 0.13)"/><path class="cls-3" d="M174.08,197.75h2a1.17,1.17,0,0,1,1.17,1.18v.25h7.15v-.25a1.17,1.17,0,0,1,1.17-1.18h2v1.36l1-1.73H173.05l1,1.73Z" transform="translate(0.13 0.13)"/><polygon class="cls-4" points="184.96 202.75 185.61 202.75 186.93 200.52 185.89 200.52 184.96 202.75"/><path class="cls-4" d="M178,213.89l6.15-14.71h-6.93v1.22h-2.41l1.33,2.23H177v6.89a.65.65,0,0,1-.64.65h-.28v2.52h-3.86v-2.52H155v2.52H151.1v-2.52a.92.92,0,0,1-.84-.55l-3.47,4.27Z" transform="translate(0.13 0.13)"/><path class="cls-4" d="M209.29,200.4l1.33,2.23h.85v6.89a.65.65,0,0,1-.64.65h-.28v2.52h-3.86v-2.52H189.41v2.52h-3.86v-2.52a.92.92,0,0,1-.92-.92v-6.13l-4.51,10.77h33.77V216H179.24l-2.11,5.07.21,0H180v1.82l3.44-5.79H204.8l3.44,5.79V221h2.69a1.57,1.57,0,0,1,1.58,1.58v2h-3.24l1.78,3h1.15v9.27a.87.87,0,0,1-.87.87H211v3.41h-5.2v-3.41H182.5v3.41h-5.19v-3.41h0a1.23,1.23,0,0,1-1.24-1.23V227.6h1.15l1.78-3h-3.24v-.26l-8.55,20.46-1.78-.74L177.15,216H145.07l-.87,1.08h13.49l3.44,5.79V221h2.69a1.57,1.57,0,0,1,1.57,1.58v2h-3.24l1.78,3h1.16v9.27a.87.87,0,0,1-.88.87h-.36v3.41h-5.2v-3.41H135.38v3.41h-5.19v-3.41a1.23,1.23,0,0,1-1.24-1.23v-.69L121.52,245l-1.5-1.22,8.93-11V227.6h1.15l1.78-3h-3.24v-2a1.58,1.58,0,0,1,1.58-1.58h2.69v1.82l3.44-5.79h5.36l.88-1.08H109.24v-2.1H144.3l5.88-7.23v-4H151l1.33-2.23H150v-1.22H126.59l-22.14,17.89h6.12l3.44,5.79V221h2.69a1.58,1.58,0,0,1,1.58,1.58v2H115l1.79,3H118v9.27a.87.87,0,0,1-.87.87h-.37v3.41h-5.2v-3.41H88.27v3.41h-5.2v-3.41a1.23,1.23,0,0,1-1.24-1.23v-1.16l-12.13,9.8H220.46l-7.57-46H211.7v1.22Z" transform="translate(0.13 0.13)"/><polygon class="cls-4" points="184.52 199.39 184.52 199.31 184.33 199.31 184.52 199.39"/><polygon class="cls-5" points="141.84 217.2 144.32 217.2 145.2 216.12 142.71 216.12 141.84 217.2"/><polygon class="cls-5" points="120.15 243.87 121.64 245.08 129.07 235.95 129.07 232.89 120.15 243.87"/><path class="cls-5" d="M150.26,209.62a1,1,0,0,1-.08-.37v-2.59l-5.88,7.23h2.49Z" transform="translate(0.13 0.13)"/><path class="cls-6" d="M198.05,194.81h-7.93l-1.52,2.57-1,1.73v-1.36h-2a1.17,1.17,0,0,0-1.17,1.18v.34l1.56.65-.2.48h1l-1.32,2.23h-.65l-.2.49v6.13a.92.92,0,0,0,.92.92v2.52h3.86v-2.52h17.28v2.52h3.86v-2.52h.28a.65.65,0,0,0,.64-.65v-6.89h-.85l-1.33-2.23h2.41v-1.47a1.17,1.17,0,0,0-1.17-1.18h-2v1.36l-1-1.73L206,194.81Zm-11.14,9.28.2-2.44,2.91.69.49,1.75Zm17,.16-.55,1a.85.85,0,0,1-.74.44h-9.12a.85.85,0,0,1-.74-.44l-.55-1a.85.85,0,0,1,.25-1.1l.18-.13a.8.8,0,0,1,.49-.16H203a.81.81,0,0,1,.5.16l.18.13A.86.86,0,0,1,203.9,204.25Zm5.29-.16h-3.6l.49-1.75,2.91-.69Zm-3-5.3H189.9l1.58-2.36a.92.92,0,0,1,.79-.42h11.56a.93.93,0,0,1,.79.42Z" transform="translate(0.13 0.13)"/><path class="cls-7" d="M203.47,203a.81.81,0,0,0-.5-.16h-9.85a.8.8,0,0,0-.49.16l-.18.13a.85.85,0,0,0-.25,1.1l.55,1a.85.85,0,0,0,.74.44h9.12a.85.85,0,0,0,.74-.44l.55-1a.86.86,0,0,0-.25-1.1Z" transform="translate(0.13 0.13)"/><polygon class="cls-7" points="190.15 202.46 187.24 201.77 187.03 204.22 190.63 204.22 190.15 202.46"/><polygon class="cls-7" points="206.2 202.46 205.72 204.22 209.32 204.22 209.11 201.77 206.2 202.46"/><path class="cls-7" d="M203.83,196H192.27a.92.92,0,0,0-.79.42l-1.58,2.36h16.3l-1.58-2.36A.93.93,0,0,0,203.83,196Z" transform="translate(0.13 0.13)"/><path class="cls-6" d="M152.36,200.4,151,202.63h-.85v6.62a1,1,0,0,0,.08.37.92.92,0,0,0,.84.55v2.52H155v-2.52h17.28v2.52h3.86v-2.52h.28a.65.65,0,0,0,.64-.65v-6.89h-.85l-1.33-2.23h2.41v-1.47a1.17,1.17,0,0,0-1.17-1.18h-2v1.36l-1-1.73-1.52-2.57H155.67l-1.52,2.57-1,1.73v-1.36h-2a1.17,1.17,0,0,0-1.17,1.18v1.47Zm.1,3.69.2-2.44,2.91.69.49,1.75Zm17,.16-.55,1a.85.85,0,0,1-.74.44H159a.85.85,0,0,1-.74-.44l-.55-1a.85.85,0,0,1,.25-1.1l.18-.13a.81.81,0,0,1,.5-.16h9.85a.8.8,0,0,1,.49.16l.18.13A.85.85,0,0,1,169.45,204.25Zm5.29-.16h-3.6l.49-1.75,2.91-.69ZM157,196.43a.93.93,0,0,1,.79-.42h11.56a.93.93,0,0,1,.79.42l1.58,2.36h-16.3Z" transform="translate(0.13 0.13)"/><path class="cls-7" d="M169,203a.8.8,0,0,0-.49-.16h-9.85a.81.81,0,0,0-.5.16l-.18.13a.85.85,0,0,0-.25,1.1l.55,1a.85.85,0,0,0,.74.44h9.12a.85.85,0,0,0,.74-.44l.55-1a.85.85,0,0,0-.25-1.1Z" transform="translate(0.13 0.13)"/><polygon class="cls-7" points="155.7 202.46 152.79 201.77 152.58 204.22 156.18 204.22 155.7 202.46"/><polygon class="cls-7" points="171.75 202.46 171.27 204.22 174.87 204.22 174.66 201.77 171.75 202.46"/><path class="cls-7" d="M163.6,198.79h8.15l-1.58-2.36a.93.93,0,0,0-.79-.42H157.82a.93.93,0,0,0-.79.42l-1.58,2.36Z" transform="translate(0.13 0.13)"/><polygon class="cls-5" points="184.31 199.3 184.31 199.31 178.16 214.01 180.25 214.01 184.75 203.24 184.96 202.75 185.89 200.52 186.09 200.05 184.52 199.39 184.33 199.31 184.31 199.3"/><path class="cls-5" d="M165.43,244.05l1.78.74,8.55-20.46v-1.71a1.58,1.58,0,0,1,1.37-1.56l2.11-5.07h-2.09Z" transform="translate(0.13 0.13)"/><path class="cls-6" d="M83.07,237.74v3.41h5.2v-3.41h23.26v3.41h5.2v-3.41h.37a.87.87,0,0,0,.87-.87V227.6h-1.15l-1.79-3h3.25v-2A1.58,1.58,0,0,0,116.7,221H114v1.82l-3.44-5.79H89.23l-3.44,5.79V221H83.1a1.58,1.58,0,0,0-1.58,1.58v2h3.24l-1.78,3H81.83v8.91A1.23,1.23,0,0,0,83.07,237.74Zm24.7-8-.73,1.31a1.14,1.14,0,0,1-1,.59H93.76a1.12,1.12,0,0,1-1-.59L92,229.78a1.14,1.14,0,0,1,.33-1.48l.24-.18a1.16,1.16,0,0,1,.67-.21h13.26a1.16,1.16,0,0,1,.67.21l.24.18A1.14,1.14,0,0,1,107.77,229.78Zm6.85-3.5.28,3.29h-4.85l.65-2.36Zm-23.57-7a1.3,1.3,0,0,1,1.07-.56h15.56a1.26,1.26,0,0,1,1.06.56l2.13,3.18H88.93Zm-5.87,7,3.91.93.65,2.36H84.9Z" transform="translate(0.13 0.13)"/><path class="cls-7" d="M107.2,228.12a1.16,1.16,0,0,0-.67-.21H93.27a1.16,1.16,0,0,0-.67.21l-.24.18a1.14,1.14,0,0,0-.33,1.48l.73,1.31a1.12,1.12,0,0,0,1,.59H106a1.14,1.14,0,0,0,1-.59l.73-1.31a1.14,1.14,0,0,0-.33-1.48Z" transform="translate(0.13 0.13)"/><polygon class="cls-7" points="89.87 229.69 89.22 227.33 85.3 226.41 85.02 229.69 89.87 229.69"/><polygon class="cls-7" points="110.18 229.69 115.02 229.69 114.74 226.41 110.83 227.33 110.18 229.69"/><path class="cls-7" d="M99.9,222.43h11l-2.13-3.18a1.26,1.26,0,0,0-1.06-.56H92.12a1.3,1.3,0,0,0-1.07.56l-2.12,3.18Z" transform="translate(0.13 0.13)"/><path class="cls-6" d="M175.76,222.62v2H179l-1.78,3h-1.15v8.91a1.23,1.23,0,0,0,1.24,1.23h0v3.41h5.19v-3.41h23.27v3.41H211v-3.41h.36a.87.87,0,0,0,.87-.87V227.6h-1.15l-1.78-3h3.24v-2a1.57,1.57,0,0,0-1.58-1.58h-2.69v1.82l-3.44-5.79H183.47L180,222.86V221h-2.69l-.21,0A1.58,1.58,0,0,0,175.76,222.62ZM202,229.78l-.74,1.31a1.12,1.12,0,0,1-1,.59H188a1.12,1.12,0,0,1-1-.59l-.73-1.31a1.14,1.14,0,0,1,.32-1.48l.25-.18a1.13,1.13,0,0,1,.67-.21h13.26a1.1,1.1,0,0,1,.66.21l.25.18A1.14,1.14,0,0,1,202,229.78Zm6.85-3.5.27,3.29h-4.84l.65-2.36Zm-23.57-7a1.29,1.29,0,0,1,1.06-.56h15.57a1.29,1.29,0,0,1,1.06.56l2.13,3.18h-22Zm-5.87,7,3.91.93.65,2.36h-4.84Z" transform="translate(0.13 0.13)"/><path class="cls-7" d="M201.43,228.12a1.1,1.1,0,0,0-.66-.21H187.51a1.13,1.13,0,0,0-.67.21l-.25.18a1.14,1.14,0,0,0-.32,1.48l.73,1.31a1.12,1.12,0,0,0,1,.59h12.29a1.12,1.12,0,0,0,1-.59l.74-1.31a1.14,1.14,0,0,0-.33-1.48Z" transform="translate(0.13 0.13)"/><polygon class="cls-7" points="183.46 227.33 179.54 226.41 179.26 229.69 184.11 229.69 183.46 227.33"/><polygon class="cls-7" points="204.41 229.69 209.26 229.69 208.98 226.41 205.06 227.33 204.41 229.69"/><path class="cls-7" d="M205.11,222.43,203,219.25a1.29,1.29,0,0,0-1.06-.56H186.35a1.29,1.29,0,0,0-1.06.56l-2.13,3.18h22Z" transform="translate(0.13 0.13)"/><path class="cls-6" d="M136.35,217.07l-3.44,5.79V221h-2.69a1.58,1.58,0,0,0-1.58,1.58v2h3.24l-1.78,3H129v8.91a1.23,1.23,0,0,0,1.24,1.23v3.41h5.19v-3.41h23.27v3.41h5.2v-3.41h.36a.87.87,0,0,0,.88-.87V227.6h-1.16l-1.78-3h3.24v-2a1.57,1.57,0,0,0-1.57-1.58h-2.69v1.82l-3.44-5.79H136.35ZM132,229.57l.28-3.29,3.91.93.65,2.36Zm22.87.21-.73,1.31a1.15,1.15,0,0,1-1,.59H140.87a1.12,1.12,0,0,1-1-.59l-.73-1.31a1.15,1.15,0,0,1,.32-1.48l.25-.18a1.13,1.13,0,0,1,.67-.21h13.26a1.1,1.1,0,0,1,.66.21l.25.18A1.14,1.14,0,0,1,154.89,229.78Zm6.85-3.5.28,3.29h-4.85l.65-2.36ZM147,218.69h7.78a1.28,1.28,0,0,1,1.06.56l2.13,3.18H136l2.13-3.18a1.3,1.3,0,0,1,1.07-.56Z" transform="translate(0.13 0.13)"/><path class="cls-7" d="M154.31,228.12a1.1,1.1,0,0,0-.66-.21H140.39a1.13,1.13,0,0,0-.67.21l-.25.18a1.15,1.15,0,0,0-.32,1.48l.73,1.31a1.12,1.12,0,0,0,1,.59h12.29a1.15,1.15,0,0,0,1-.59l.73-1.31a1.14,1.14,0,0,0-.33-1.48Z" transform="translate(0.13 0.13)"/><polygon class="cls-7" points="132.42 226.41 132.14 229.69 136.99 229.69 136.34 227.33 132.42 226.41"/><polygon class="cls-7" points="157.3 229.69 162.14 229.69 161.86 226.41 157.95 227.33 157.3 229.69"/><path class="cls-7" d="M139.24,218.69a1.3,1.3,0,0,0-1.07.56L136,222.43h22l-2.13-3.18a1.28,1.28,0,0,0-1.06-.56H139.24Z" transform="translate(0.13 0.13)"/><polygon class="cls-5" points="146.91 214.01 144.43 214.01 109.36 214.01 109.36 216.12 142.71 216.12 145.2 216.12 177.28 216.12 179.37 216.12 214.02 216.12 214.02 214.01 180.25 214.01 178.16 214.01 146.91 214.01"/><polygon points="232.2 189.62 232.2 197.5 232.2 228.05 235.76 228.05 235.76 197.5 235.76 189.62 232.2 189.62"/><path class="cls-4" d="M247,189.49V163.24H220.73v26.25H247Zm-21.47-.78a4,4,0,0,1-4-4V168a4,4,0,0,1,4-4H242.2a4,4,0,0,1,4,4v16.68a4,4,0,0,1-4,4Z" transform="translate(0.13 0.13)"/><path class="cls-4" d="M242.2,186.71a2,2,0,0,0,2-2V168a2,2,0,0,0-2-2H225.51a2,2,0,0,0-2,2v16.68a2,2,0,0,0,2,2Zm-14.77-.81V166.84h7.78a4.64,4.64,0,0,1,3.8,1.52,6.61,6.61,0,0,1,1.26,4.33,6.81,6.81,0,0,1-1.37,4.51,5.21,5.21,0,0,1-4.21,1.63h-2.56v7.07Z" transform="translate(0.13 0.13)"/><path class="cls-4" d="M235.17,174.37a2.11,2.11,0,0,0,.55-1.51,2.46,2.46,0,0,0-.47-1.52,2.13,2.13,0,0,0-1.79-.63h-1.33V175h1.15A2.46,2.46,0,0,0,235.17,174.37Z" transform="translate(0.13 0.13)"/><path class="cls-7" d="M242.2,188.71a4,4,0,0,0,4-4V168a4,4,0,0,0-4-4H225.51a4,4,0,0,0-4,4v16.68a4,4,0,0,0,4,4Zm-16.69-2a2,2,0,0,1-2-2V168a2,2,0,0,1,2-2H242.2a2,2,0,0,1,2,2v16.68a2,2,0,0,1-2,2Z" transform="translate(0.13 0.13)"/><path class="cls-7" d="M232.13,178.83h2.56a5.21,5.21,0,0,0,4.21-1.63,6.81,6.81,0,0,0,1.37-4.51,6.61,6.61,0,0,0-1.26-4.33,4.64,4.64,0,0,0-3.8-1.52h-7.78V185.9h4.7Zm0-8.12h1.33a2.13,2.13,0,0,1,1.79.63,2.46,2.46,0,0,1,.47,1.52,2.11,2.11,0,0,1-.55,1.51,2.46,2.46,0,0,1-1.89.6h-1.15Z" transform="translate(0.13 0.13)"/><path class="cls-8" d="M38.05,218.16H49.3V240H61.85v-82.6l-22.58-7.3V93.6L4.93,105.2v26.18l23.33,5.91V240h9.79Zm9.28-40.48V163.05h9.9v16.5h-9.9Zm0,17.25V189.3h9.9v16.5h-9.9V194.93Zm-6.22-31.88v16.5h-9.9v-16.5ZM18.61,111.3v15H8.71V109.8h9.9Zm6.22,15V109.8h9.9v16.5Zm6.38,76.13V189.3h9.9v16.5h-9.9v-3.37Z" transform="translate(0.13 0.13)"/><polygon class="cls-7" points="43.69 147.11 43.69 87.75 0.76 102.24 0.76 130.42 5.05 131.51 5.05 105.33 39.39 93.73 39.39 150.24 61.98 157.53 61.98 240.14 49.42 240.14 49.42 240.79 38.17 240.79 38.17 240.14 28.38 240.14 28.38 244.43 66.27 244.43 66.27 197.5 66.27 154.41 43.69 147.11"/><path class="cls-9" d="M9.25,221.91V240H24V140.63L0,134.56v87.35ZM5.93,162.12V146.47H16.75v17.66H5.93Zm0,24.68V171.15H16.75v17.66H5.93Zm0,8.72H16.75v17.66H5.93V195.52Z" transform="translate(0.13 0.13)"/><polygon class="cls-7" points="28.38 244.43 28.38 240.14 28.38 137.41 5.05 131.51 0.76 130.42 0.13 130.26 0.13 134.69 24.09 140.75 24.09 240.14 9.38 240.14 9.38 240.79 0.13 240.79 0.13 244.43 0.76 244.43 28.38 244.43"/><polygon class="cls-7" points="38.17 218.29 38.17 240.14 38.17 240.79 49.42 240.79 49.42 240.14 49.42 218.29 38.17 218.29"/><polygon class="cls-7" points="9.38 240.79 9.38 240.14 9.38 222.04 0.13 222.04 0.13 240.79 9.38 240.79"/><rect class="cls-7" x="31.33" y="190.93" width="9.9" height="0.38"/><rect class="cls-7" x="31.33" y="192.8" width="9.9" height="2.25"/><rect class="cls-7" x="31.33" y="204.05" width="9.9" height="1.88"/><rect class="cls-7" x="31.33" y="200.3" width="9.9" height="2.25"/><rect class="cls-7" x="31.33" y="196.55" width="9.9" height="2.25"/><rect class="cls-7" x="47.45" y="190.93" width="9.9" height="0.38"/><rect class="cls-7" x="47.45" y="192.8" width="9.9" height="2.25"/><rect class="cls-7" x="47.45" y="204.05" width="9.9" height="1.88"/><rect class="cls-7" x="47.45" y="196.55" width="9.9" height="2.25"/><rect class="cls-7" x="47.45" y="200.3" width="9.9" height="2.25"/><rect class="cls-7" x="31.33" y="174.05" width="9.9" height="2.25"/><rect class="cls-7" x="31.33" y="177.8" width="9.9" height="0.38"/><rect class="cls-7" x="31.33" y="170.3" width="9.9" height="2.25"/><rect class="cls-7" x="31.33" y="164.68" width="9.9" height="0.38"/><rect class="cls-7" x="31.33" y="166.55" width="9.9" height="2.25"/><rect class="cls-7" x="31.33" y="178.18" width="9.9" height="1.5"/><rect class="cls-8" x="31.33" y="165.05" width="9.9" height="1.5"/><rect class="cls-7" x="31.33" y="163.18" width="9.9" height="1.5"/><rect class="cls-8" x="31.33" y="168.8" width="9.9" height="1.5"/><rect class="cls-8" x="31.33" y="172.55" width="9.9" height="1.5"/><rect class="cls-8" x="31.33" y="176.3" width="9.9" height="1.5"/><rect class="cls-8" x="31.33" y="191.3" width="9.9" height="1.5"/><rect class="cls-7" x="31.33" y="189.43" width="9.9" height="1.5"/><rect class="cls-8" x="31.33" y="195.05" width="9.9" height="1.5"/><rect class="cls-8" x="31.33" y="198.8" width="9.9" height="1.5"/><rect class="cls-8" x="31.33" y="202.55" width="9.9" height="1.5"/><rect class="cls-7" x="47.45" y="164.68" width="9.9" height="0.38"/><rect class="cls-7" x="47.45" y="170.3" width="9.9" height="2.25"/><rect class="cls-7" x="47.45" y="177.8" width="9.9" height="1.88"/><rect class="cls-7" x="47.45" y="166.55" width="9.9" height="2.25"/><rect class="cls-7" x="47.45" y="174.05" width="9.9" height="2.25"/><rect class="cls-8" x="47.45" y="165.05" width="9.9" height="1.5"/><rect class="cls-7" x="47.45" y="163.18" width="9.9" height="1.5"/><rect class="cls-8" x="47.45" y="168.8" width="9.9" height="1.5"/><rect class="cls-8" x="47.45" y="172.55" width="9.9" height="1.5"/><rect class="cls-8" x="47.45" y="176.3" width="9.9" height="1.5"/><rect class="cls-8" x="47.45" y="191.3" width="9.9" height="1.5"/><rect class="cls-7" x="47.45" y="189.43" width="9.9" height="1.5"/><rect class="cls-8" x="47.45" y="195.05" width="9.9" height="1.5"/><rect class="cls-8" x="47.45" y="198.8" width="9.9" height="1.5"/><rect class="cls-8" x="47.45" y="202.55" width="9.9" height="1.5"/><rect class="cls-7" x="8.83" y="113.3" width="9.9" height="2.25"/><rect class="cls-7" x="8.83" y="117.05" width="9.9" height="2.25"/><rect class="cls-7" x="8.83" y="124.55" width="9.9" height="0.38"/><rect class="cls-7" x="8.83" y="111.43" width="9.9" height="0.38"/><rect class="cls-7" x="8.83" y="120.8" width="9.9" height="2.25"/><rect class="cls-7" x="8.83" y="124.93" width="9.9" height="1.5"/><rect class="cls-8" x="8.83" y="111.8" width="9.9" height="1.5"/><rect class="cls-7" x="8.83" y="109.93" width="9.9" height="1.5"/><rect class="cls-8" x="8.83" y="115.55" width="9.9" height="1.5"/><rect class="cls-8" x="8.83" y="119.3" width="9.9" height="1.5"/><rect class="cls-8" x="8.83" y="123.05" width="9.9" height="1.5"/><rect class="cls-7" x="24.95" y="124.55" width="9.9" height="1.88"/><rect class="cls-7" x="24.95" y="117.05" width="9.9" height="2.25"/><rect class="cls-7" x="24.95" y="111.43" width="9.9" height="0.38"/><rect class="cls-7" x="24.95" y="113.3" width="9.9" height="2.25"/><rect class="cls-7" x="24.95" y="120.8" width="9.9" height="2.25"/><rect class="cls-8" x="24.95" y="111.8" width="9.9" height="1.5"/><rect class="cls-7" x="24.95" y="109.93" width="9.9" height="1.5"/><rect class="cls-8" x="24.95" y="115.55" width="9.9" height="1.5"/><rect class="cls-8" x="24.95" y="119.3" width="9.9" height="1.5"/><rect class="cls-8" x="24.95" y="123.05" width="9.9" height="1.5"/><rect class="cls-7" x="6.06" y="150.21" width="10.82" height="2.41"/><rect class="cls-7" x="6.06" y="162.25" width="10.82" height="2.01"/><rect class="cls-7" x="6.06" y="158.23" width="10.82" height="2.41"/><rect class="cls-7" x="6.06" y="148.2" width="10.82" height="0.4"/><rect class="cls-7" x="6.06" y="154.22" width="10.82" height="2.41"/><rect class="cls-8" x="6.06" y="148.6" width="10.82" height="1.61"/><rect class="cls-7" x="6.06" y="146.59" width="10.82" height="1.61"/><rect class="cls-8" x="6.06" y="152.61" width="10.82" height="1.61"/><rect class="cls-8" x="6.06" y="156.63" width="10.82" height="1.61"/><rect class="cls-8" x="6.06" y="160.64" width="10.82" height="1.61"/><rect class="cls-7" x="6.06" y="207.29" width="10.82" height="2.41"/><rect class="cls-7" x="6.06" y="203.28" width="10.82" height="2.41"/><rect class="cls-7" x="6.06" y="211.3" width="10.82" height="2.01"/><rect class="cls-7" x="6.06" y="197.26" width="10.82" height="0.4"/><rect class="cls-7" x="6.06" y="199.26" width="10.82" height="2.41"/><rect class="cls-8" x="6.06" y="197.66" width="10.82" height="1.61"/><rect class="cls-7" x="6.06" y="195.65" width="10.82" height="1.61"/><rect class="cls-8" x="6.06" y="201.67" width="10.82" height="1.61"/><rect class="cls-8" x="6.06" y="205.68" width="10.82" height="1.61"/><rect class="cls-8" x="6.06" y="209.7" width="10.82" height="1.61"/><rect class="cls-7" x="6.06" y="182.91" width="10.82" height="2.41"/><rect class="cls-7" x="6.06" y="178.9" width="10.82" height="2.41"/><rect class="cls-7" x="6.06" y="186.93" width="10.82" height="2.01"/><rect class="cls-7" x="6.06" y="174.89" width="10.82" height="2.41"/><rect class="cls-7" x="6.06" y="172.88" width="10.82" height="0.4"/><rect class="cls-8" x="6.06" y="173.28" width="10.82" height="1.61"/><rect class="cls-7" x="6.06" y="171.27" width="10.82" height="1.61"/><rect class="cls-8" x="6.06" y="177.3" width="10.82" height="1.61"/><rect class="cls-8" x="6.06" y="181.31" width="10.82" height="1.61"/><rect class="cls-8" x="6.06" y="185.32" width="10.82" height="1.61"/><rect x="0.13" y="249.88" width="250" height="0.25"/><rect class="cls-10" x="0.13" y="0.13" width="250" height="250"/></svg>