<svg id="A" xmlns="http://www.w3.org/2000/svg" viewBox="0 0 250.25 250.25"><defs><style>.cls-1,.cls-7{fill:none;}.cls-2{fill:#a4c621;}.cls-3{fill:#4cac33;}.cls-4{fill:#35a8e0;}.cls-5{fill:#ffea0f;}.cls-6{fill:#4aac33;}.cls-7{stroke:#000;stroke-miterlimit:10;stroke-width:0.25px;}</style></defs><title>AnpassaJordbruketTillTorka KVADRAT_A</title><polygon class="cls-1" points="194.32 138.25 194.32 138.25 194.32 138.2 194.32 138.2 194.32 138.25"/><polygon class="cls-1" points="238.16 126.82 238.16 126.82 234.13 187.84 234.13 187.84 238.16 126.82"/><polygon class="cls-1" points="195.62 128.35 195.62 128.35 195.78 127.15 195.78 127.15 195.62 128.35"/><polygon class="cls-1" points="187.85 139.92 187.69 140.91 187.69 140.91 187.85 139.92 187.85 139.92"/><polygon class="cls-1" points="150.08 249.88 178.88 86.65 178.88 86.65 150.08 249.88"/><polygon class="cls-1" points="179.66 249.88 184.49 213.13 184.49 213.13 179.66 249.88"/><polygon class="cls-1" points="169.92 249.88 175.92 213.07 175.92 213.07 169.92 249.88"/><polygon class="cls-1" points="201.05 86.99 201.05 86.99 196.91 118.55 196.91 118.55 201.05 86.99"/><polygon class="cls-1" points="181.4 86.63 181.04 89.06 181.4 86.63 181.4 86.63"/><polygon class="cls-1" points="233.71 194.14 233.71 194.14 233.6 195.84 233.6 195.84 233.71 194.14"/><polygon class="cls-1" points="188.51 182.48 192.94 148.72 192.94 148.72 188.51 182.48 188.51 182.48"/><polygon class="cls-1" points="223.18 88.7 223.18 88.7 217.99 149.1 217.99 149.1 223.18 88.7"/><polygon class="cls-1" points="139.89 249.88 156.37 171.89 156.37 171.89 139.89 249.88"/><polygon class="cls-1" points="191.22 119.25 196.5 86.83 196.5 86.83 191.22 119.25 191.22 119.25"/><polygon class="cls-1" points="137.23 86.28 137.21 86.37 137.21 86.37 137.23 86.28"/><polygon class="cls-1" points="109.86 249.88 137.23 144.4 137.23 144.4 109.86 249.88"/><polygon class="cls-1" points="134.62 86.56 134.65 86.47 134.62 86.56 134.62 86.56"/><polygon class="cls-1" points="158.59 161.38 158.59 161.38 158.79 160.41 158.79 160.41 158.59 161.38"/><polygon class="cls-1" points="151.97 87.58 151.97 87.58 137.7 142.6 137.7 142.6 151.97 87.58"/><polygon class="cls-1" points="184.84 158.38 184.84 158.38 182.59 172.19 182.59 172.19 184.84 158.38"/><polygon class="cls-1" points="179.04 193.94 178.91 194.76 178.91 194.76 179.04 193.94 179.04 193.94"/><polygon class="cls-1" points="160.64 151.68 160.64 151.68 169.14 111.44 169.14 111.44 160.64 151.68"/><polygon class="cls-1" points="171.41 100.71 171.41 100.71 171.47 100.41 171.47 100.41 171.41 100.71"/><polygon class="cls-1" points="173.5 90.78 174.36 86.71 174.36 86.71 173.5 90.78 173.5 90.78"/><polygon class="cls-1" points="63.68 104.24 2.16 249.88 63.68 104.24 63.68 104.24"/><polygon class="cls-1" points="30.16 109.02 0.13 169.25 0.13 169.25 30.16 109.02 30.16 109.02"/><path class="cls-1" d="M13.94,81.36a10.19,10.19,0,0,1,2.66-.76,10.69,10.69,0,0,1,1.59-.1A18.15,18.15,0,0,1,30.33,84a10.69,10.69,0,0,1,6.39-3.41c6-.86,11.64,3.53,12.82,9.86a10.94,10.94,0,0,1,3.91.94,10.83,10.83,0,0,1,7-4.14,11.43,11.43,0,0,1,11.84,6.79q3.92-.63,7.85-1.22l3-.47.11-.25,3.86-.56.4-.06,3.8-.52-.09.23c5.16-.7,10.32-1.37,15.5-2l.08-.22,3.73-.42.3,0,3.68-.4-.06.19q7.64-.84,15.31-1.51l0-.12,3.62-.29.22,0,.81-.06.79-.06,1-.07.78-.06h.19l0,.09q7-.53,14.06-.89L150.75,84a2.24,2.24,0,0,1,2-3.13l.26,0,3.11.35.58.06a8.09,8.09,0,0,1,3,1l-.13-.21-.3-.5a8.15,8.15,0,0,1-.17-8.11l.29-.51,1.51-2.74a2.22,2.22,0,0,1,3.86-.08l1.63,2.68.3.5a8.14,8.14,0,0,1,.17,8.1l-.29.52-.13.25a8.15,8.15,0,0,1,2.8-.86l.58-.06L173,80.9l.26,0h0a2.24,2.24,0,0,1,2,3.13l-.28.63q3.71,0,7.39,0c8.06.1,16.11.4,24.14,1s16,1.46,23.92,2.68c2.57.41,5.13.87,7.68,1.36a8,8,0,0,1,.52-1.21l.29-.51,1.51-2.74a2.22,2.22,0,0,1,3.86-.08l1.63,2.68.3.5a8,8,0,0,1,1.1,3.32c.9.21,1.8.44,2.69.66V0H0V93.76a7.53,7.53,0,0,1,1.79.85A19.08,19.08,0,0,1,13.94,81.36Z" transform="translate(0.13 0.13)"/><polygon class="cls-1" points="14.29 111.29 0.13 138.71 0.13 138.71 14.29 111.29 14.29 111.29"/><polygon class="cls-1" points="82.3 95.07 82.3 95.07 19.85 249.88 82.3 95.07"/><polygon class="cls-1" points="209.33 249.88 214.62 188.29 214.62 188.29 209.33 249.88"/><polygon class="cls-1" points="129.22 89.32 129.22 89.32 79.85 249.88 129.22 89.32"/><polygon class="cls-1" points="106.03 91.82 106.03 91.82 49.84 249.88 106.03 91.82"/><polygon class="cls-1" points="230.02 249.88 231.65 225.27 231.65 225.27 230.02 249.88"/><polygon class="cls-2" points="16.59 106.83 16.59 106.83 14.29 111.29 14.29 111.29 16.59 106.83"/><path class="cls-2" d="M8.26,106.19l4.38-1,.9-.2,4.28-.93-.09.18q8.11-1.74,16.29-3.35l.11-.23,4.19-.83.69-.14,4.1-.79-.11.24q7.24-1.36,14.53-2.64L59,96.27l.12-.27,4-.69.53-.09,3.94-.66-.11.26,4.84-.77a11.43,11.43,0,0,0-11.84-6.79,10.83,10.83,0,0,0-7,4.14,10.94,10.94,0,0,0-3.91-.94c-1.18-6.33-6.8-10.72-12.82-9.86A10.69,10.69,0,0,0,30.33,84,18.15,18.15,0,0,0,18.19,80.5a10.69,10.69,0,0,0-1.59.1,10.19,10.19,0,0,0-2.66.76A19.08,19.08,0,0,0,1.79,94.61,7.53,7.53,0,0,0,0,93.76v14.45c2.72-.63,5.44-1.24,8.17-1.85Z" transform="translate(0.13 0.13)"/><polygon class="cls-2" points="66.52 97.53 66.52 97.53 63.68 104.24 63.68 104.24 66.52 97.53"/><polygon class="cls-2" points="30.16 109.02 32.88 103.58 32.88 103.58 30.16 109.02 30.16 109.02"/><path class="cls-3" d="M82.17,95q-7.9,1.15-15.78,2.46l-2.83,6.7L2,249.75l-.1.25h17.7l.1-.25Z" transform="translate(0.13 0.13)"/><path class="cls-3" d="M67.48,94.82h0q6.33-1,12.69-2-3.93.58-7.85,1.22Z" transform="translate(0.13 0.13)"/><path class="cls-3" d="M129.1,89.2q-7.69.7-15.38,1.58l-52.09,159-.08.25h18.1l.07-.25Z" transform="translate(0.13 0.13)"/><path class="cls-3" d="M6.87,108.73c-2.29.49-4.58,1-6.87,1.5v11.08Z" transform="translate(0.13 0.13)"/><path class="cls-3" d="M137.11,144.27a2.19,2.19,0,0,1,.32-1.63c0-.06.1-.11.14-.17l14.28-55-5.55.34c-3.23.24-6.46.47-9.68.74L136,90.87,97.73,249.75l-.06.25h12l.07-.25Z" transform="translate(0.13 0.13)"/><path class="cls-3" d="M105.91,91.7q-7.8.94-15.58,2l-58.52,156-.09.25H49.63l.09-.25Z" transform="translate(0.13 0.13)"/><path class="cls-3" d="M171.34,100.28a5.34,5.34,0,0,1-.48.35l.42,0Z" transform="translate(0.13 0.13)"/><path class="cls-3" d="M163,95.33a8.22,8.22,0,0,1,2.61-2.91l-2.06.23-.25,0-.3,0-.3,0-.25,0-2.06-.23A8.22,8.22,0,0,1,163,95.33Z" transform="translate(0.13 0.13)"/><path class="cls-3" d="M163,105.08a8.22,8.22,0,0,1,2.61-2.91l-2.06.23-.25,0-.3,0-.3,0-.25,0-2.06-.23A8.22,8.22,0,0,1,163,105.08Z" transform="translate(0.13 0.13)"/><path class="cls-3" d="M156.24,171.76a7.66,7.66,0,0,1-2.5.72l-.58.07-.66.08V180a1.5,1.5,0,0,1-1.5,1.5h-3a1.5,1.5,0,0,1-1.5-1.5v-7.37l-.66-.08-.58-.07a8.06,8.06,0,0,1-2.82-.87l-15.33,78.14,0,.25h12.64l0-.25Z" transform="translate(0.13 0.13)"/><path class="cls-3" d="M151.28,130.87l1.63,2.68.3.5a8.14,8.14,0,0,1,.17,8.1l-.29.52-.13.25a8.15,8.15,0,0,1,2.8-.86l.58-.06,3.11-.35.26,0h0a2.24,2.24,0,0,1,2,3.13l-1.25,2.87-.24.54a8,8,0,0,1-2.9,3.46l2.09-.23.26,0a2.16,2.16,0,0,1,.8.17l8.5-40.24a7.61,7.61,0,0,1-1.77.42l-.58.07-.66.08v7.37a1.5,1.5,0,0,1-1.5,1.5h-3a1.5,1.5,0,0,1-1.5-1.5v-7.37l-.66-.08-.58-.07a8,8,0,0,1-4.23-1.8l-4,20.22A2.13,2.13,0,0,1,151.28,130.87Z" transform="translate(0.13 0.13)"/><path class="cls-3" d="M158.67,160.28a8,8,0,0,1-1.31,1.1l1.1-.12Z" transform="translate(0.13 0.13)"/><path class="cls-3" d="M149.5,165.83a8.22,8.22,0,0,1,2.61-2.91l-2.06.23-.25,0-.3,0-.3,0-.25,0-2.06-.23A8.22,8.22,0,0,1,149.5,165.83Z" transform="translate(0.13 0.13)"/><path class="cls-3" d="M173.76,87.42a8,8,0,0,1-2.9,3.46l2.09-.23.26,0,.17,0,.86-4.06h-.11l-.13.29Z" transform="translate(0.13 0.13)"/><path class="cls-3" d="M149.8,153.42l-.3,0-.3,0-.25,0-2.06-.23a8.22,8.22,0,0,1,2.61,2.91,8.22,8.22,0,0,1,2.61-2.91l-2.06.23Z" transform="translate(0.13 0.13)"/><path class="cls-3" d="M59,96.27h0l-1.46.26Z" transform="translate(0.13 0.13)"/><path class="cls-3" d="M57.82,98.85q-8,1.4-16,2.88L0,190.73V227Z" transform="translate(0.13 0.13)"/><path class="cls-3" d="M210.14,160l-.25,0c.08.05.15.12.23.18Z" transform="translate(0.13 0.13)"/><path class="cls-3" d="M207.93,179.18a8.12,8.12,0,0,1-6.19-4.76l-.24-.54L200.25,171a2.24,2.24,0,0,1,2-3.13l.26,0,2.09.23a8,8,0,0,1-2.9-3.46l-.24-.54-1.25-2.87a2.24,2.24,0,0,1,2-3.13l.26,0,2.09.23a8,8,0,0,1-2.9-3.46l-.24-.54-1.25-2.87a2.24,2.24,0,0,1,2-3.13l.26,0,3.11.35.58.06a8.09,8.09,0,0,1,3,1l-.13-.21-.3-.5a8.15,8.15,0,0,1-.17-8.11l.29-.51,1.51-2.74a2.22,2.22,0,0,1,2-1.16,2,2,0,0,1,.44.06l5.57-48.52q-6-.58-12-1l-2.9-.14L198,138.48a2.3,2.3,0,0,1,.35.41,2.23,2.23,0,0,1,.18,2.12l-1.06,2.43-5.24,49.31a1.49,1.49,0,0,1,.12.14,2.23,2.23,0,0,1,.18,2.12l-.71,1.63-.55,5.15a2.21,2.21,0,0,1,1.26,3l-1.25,2.87-.24.54a8.75,8.75,0,0,1-.55,1.05l-4.31,40.53,0,.25h13.7l0-.25Z" transform="translate(0.13 0.13)"/><path class="cls-3" d="M32.75,103.45q-8.14,1.58-16.28,3.26l-2.31,4.45L0,138.58v30.54L30,108.9Z" transform="translate(0.13 0.13)"/><path class="cls-3" d="M231.53,225.14a8.12,8.12,0,0,1-4.29-4.22l-.24-.54-1.25-2.87a2.24,2.24,0,0,1,2-3.13l.26,0,2.09.23a8,8,0,0,1-2.9-3.46l-.24-.54-1.25-2.87a2.24,2.24,0,0,1,2-3.13l.26,0,2.09.23a8,8,0,0,1-2.9-3.46l-.24-.54L225.75,198a2.24,2.24,0,0,1,2-3.13l.26,0,3.11.35.58.06a7.66,7.66,0,0,1,1.73.41l.12-1.7a8.11,8.11,0,0,1,.41-6.31l4-61a8.12,8.12,0,0,1-6.3-4.78l-.24-.54-1.25-2.87a2.24,2.24,0,0,1,2-3.13l.26,0,2.09.23a8,8,0,0,1-2.9-3.46l-.24-.54-1.25-2.87a2.24,2.24,0,0,1,2-3.13l.26,0,2.09.23a8,8,0,0,1-2.9-3.46l-.24-.54L230.25,99a2.24,2.24,0,0,1,2-3.13l.26,0,3.11.35.58.06a8.09,8.09,0,0,1,3,1l-.13-.21-.3-.5a8.06,8.06,0,0,1-1-5.92c-2.55-.43-5.11-.83-7.67-1.18-1.52-.21-3-.4-4.55-.58L222,148.45l.48,0,.26,0h0a2.24,2.24,0,0,1,2,3.13l-1.25,2.87-.24.54a8.11,8.11,0,0,1-1.84,2.63l0,.72,1.07-.12.26,0a2.24,2.24,0,0,1,2,3.13l-1.25,2.87-.24.54a8.06,8.06,0,0,1-2.47,3.15v.27l1.67-.19.26,0a2.24,2.24,0,0,1,2,3.13l-1.25,2.87-.24.54a8,8,0,0,1-3.09,3.58l-4.36,71.75,0,.25h14.09l0-.25Z" transform="translate(0.13 0.13)"/><path class="cls-3" d="M247.9,96.47a8.15,8.15,0,0,1,.86-.16l.58-.06.66-.08V93l-2-.44Z" transform="translate(0.13 0.13)"/><path class="cls-3" d="M249,220.38l-.24.54a8.11,8.11,0,0,1-2.82,3.41l-.39,25.42V250H250V218.09Z" transform="translate(0.13 0.13)"/><path class="cls-3" d="M248.76,211.17a8,8,0,0,1-2.67,3.31v.13l1.86-.21.26,0a2.21,2.21,0,0,1,1.79.93v-7l-1,2.29Z" transform="translate(0.13 0.13)"/><path class="cls-3" d="M246.39,195.07l1.56-.17.26,0h0a2.21,2.21,0,0,1,1.79.93v-70.2a8,8,0,0,1-2.56,1Z" transform="translate(0.13 0.13)"/><path class="cls-3" d="M248.76,201.42a8,8,0,0,1-2.51,3.19v.23l1.71-.19.26,0a2.21,2.21,0,0,1,1.79.93v-7l-1,2.29Z" transform="translate(0.13 0.13)"/><path class="cls-3" d="M186.8,139.9l-.25,0-.3,0-.3,0-.25,0-2.06-.23a8.22,8.22,0,0,1,2.61,2.91,8,8,0,0,1,1.31-1.79l.16-1Z" transform="translate(0.13 0.13)"/><path class="cls-3" d="M177.64,193.67a8,8,0,0,1,1.14,1l.14-.82Z" transform="translate(0.13 0.13)"/><path class="cls-3" d="M180,118.81a8.09,8.09,0,0,1,3,1l-.13-.21-.3-.5a8.15,8.15,0,0,1-.17-8.11l.29-.51,1.51-2.74a2.22,2.22,0,0,1,3.86-.08l1.63,2.68.3.5a8.14,8.14,0,0,1,.17,8.1l-.29.52-.13.25a8.27,8.27,0,0,1,1.38-.55l5.29-32.41q-7-.22-14.06-.21h-1l-.45,2.43-4.46,29.49,3,.33Z" transform="translate(0.13 0.13)"/><path class="cls-3" d="M186.55,130.17l-.3,0-.3,0-.25,0-2.06-.23a8.22,8.22,0,0,1,2.61,2.91,8.22,8.22,0,0,1,2.61-2.91l-2.06.23Z" transform="translate(0.13 0.13)"/><path class="cls-3" d="M176.3,128.15l2.09.23a8,8,0,0,1-2.9-3.46l0,0-.53,3.54a2.21,2.21,0,0,1,1.1-.3Z" transform="translate(0.13 0.13)"/><path class="cls-3" d="M175.8,213a8.12,8.12,0,0,1-6.31-4.78l-.24-.54L168,204.76a2.24,2.24,0,0,1,2-3.13l.26,0,2.09.23a8,8,0,0,1-2.9-3.46l-.24-.54L168,195a2.24,2.24,0,0,1,2-3.13l.26,0,2.09.23a8,8,0,0,1-2.9-3.46l-.24-.54L168,185.26a2.24,2.24,0,0,1,2-3.13l.26,0,3.11.35.58.06a8.09,8.09,0,0,1,3,1l-.13-.21-.3-.5a8.15,8.15,0,0,1-.17-8.11l.29-.51,1.51-2.74a2.22,2.22,0,0,1,3.86-.08l.43.7,2.25-13.82a1.5,1.5,0,0,1-1.46-1.5v-7.37l-.66-.08-.58-.07a8.1,8.1,0,0,1-6.52-4.81l-.24-.54L174,141a2.24,2.24,0,0,1,2-3.13l.26,0,2.09.23a8,8,0,0,1-2.9-3.46l-.24-.54-.87-2L156.59,249.75l0,.25h13.21l0-.25Z" transform="translate(0.13 0.13)"/><path class="cls-2" d="M183.66,174.05l.3.5a8.14,8.14,0,0,1,.17,8.1l-.29.52-.13.25a8.15,8.15,0,0,1,2.8-.86l.58-.06,1.3-.15,4.43-33.75a8,8,0,0,1-2.33.63l-.58.07-.66.08v7.37a1.5,1.5,0,0,1-1.5,1.5h-3l-2.25,13.82Z" transform="translate(0.13 0.13)"/><path class="cls-2" d="M180.55,193.92l-.3,0-.3,0-.25,0-.78-.09-.14.82a8.06,8.06,0,0,1,1.47,2,8.22,8.22,0,0,1,2.61-2.91l-2.06.23Z" transform="translate(0.13 0.13)"/><path class="cls-2" d="M238,219.08a8.05,8.05,0,0,1,2.29-2.66v-.22l-1.75.2-.25,0-.3,0-.3,0-.25,0-2.06-.23A8.22,8.22,0,0,1,238,219.08Z" transform="translate(0.13 0.13)"/><path class="cls-2" d="M247.35,92.07l.11,0,.51.13v.36l2,.44v-.74c-.89-.22-1.79-.45-2.69-.66A3.42,3.42,0,0,1,247.35,92.07Z" transform="translate(0.13 0.13)"/><path class="cls-2" d="M178.76,86.53h0L179,85l0-.24h.76l.95,0h.76l0,.24-.22,1.46h0l-.37,2.42.45-2.43h1q7,0,14.06.21h0l-5.29,32.41a8.34,8.34,0,0,1,1.42-.31l.58-.06,3.11-.35.26,0h0c.11,0,.21,0,.32,0l4.14-31.55h0l.14-1.05,0-.25.75.05,1,.07.74,0,0-.25,0,.25,0,.25-.11,1,2.9.14q6,.36,12,1l-5.57,48.52a2.18,2.18,0,0,1,1.47,1l1.63,2.68.3.5a8.14,8.14,0,0,1,.17,8.1l-.29.52-.13.25a8.15,8.15,0,0,1,1.9-.7l5.19-60.39h0l0-.62,0-.24.75.1,1,.14.52.07.22,0v.25l0,.57c1.52.18,3,.37,4.55.58,2.56.35,5.12.75,7.67,1.18a6.82,6.82,0,0,1,.28-1c-2.55-.49-5.11-1-7.68-1.36-7.9-1.22-15.9-2.08-23.92-2.68s-16.08-.87-24.14-1q-3.69,0-7.39,0l-.84,2h.11l-.86,4.06a2.22,2.22,0,0,1,1.87,3.11L174,96.63l-.24.54a8,8,0,0,1-2.42,3.11l-.06.31,1.67-.19.26,0a2.24,2.24,0,0,1,2,3.13L174,106.38l-.24.54a8.09,8.09,0,0,1-4.75,4.39l-8.5,40.24a2.2,2.2,0,0,1,1.24,3l-1.25,2.87-.24.54a8,8,0,0,1-1.59,2.36l-.21,1,1-.11.26,0a2.24,2.24,0,0,1,2,3.13l-1.25,2.87-.24.54a8.09,8.09,0,0,1-4,4.09l-16.48,78,0,.25h10.2l0-.25Z" transform="translate(0.13 0.13)"/><path class="cls-2" d="M184.36,213l-.45.05-.66.08v7.37a1.5,1.5,0,0,1-1.5,1.5h-3a1.5,1.5,0,0,1-1.5-1.5v-7.37l-.66-.08L176,213l-.21,0-6,36.8,0,.25h9.75l0-.25Z" transform="translate(0.13 0.13)"/><path class="cls-2" d="M134.46,86.59l0-.15h0l0-.1-.81.06-.22,0-3.62.29,0,.12q-7.67.67-15.31,1.51l.06-.19-3.68.4-.3,0-3.73.42-.08.22c-5.18.61-10.34,1.28-15.5,2l.09-.23-3.8.52-.4.06-3.86.56-.11.25-3,.47q-6.36,1-12.69,2h0l.11-.26-3.94.66-.53.09-4,.69-.12.27h0l-1.46.26Q50.26,97.81,43,99.17l.11-.24-4.1.79-.69.14-4.19.83-.11.23q-8.16,1.62-16.29,3.35l.09-.18-4.28.93-.9.2-4.38,1-.09.17c-2.73.61-5.45,1.22-8.17,1.85v2c2.29-.5,4.58-1,6.87-1.5L0,121.31v17.27l14.16-27.42,2.31-4.45h0q8.13-1.69,16.28-3.26h0L30,108.9,0,169.12v21.61l41.8-89q8-1.49,16-2.88L0,227v23H1.93l.1-.25L63.56,104.11l2.83-6.7h0q7.88-1.3,15.78-2.46h0L19.73,249.75l-.1.25H31.72l.09-.25,58.52-156q7.78-1.09,15.58-2h0L49.72,249.75l-.09.25H61.55l.08-.25,52.09-159q7.68-.87,15.38-1.58h0L79.72,249.75l-.07.25H90.94l.07-.25Z" transform="translate(0.13 0.13)"/><path class="cls-2" d="M138.66,167.49l-.16-.36-1.25-2.87a2.24,2.24,0,0,1,2-3.13l.26,0,.5,0,.22-1a8,8,0,0,1-1.53-2.3l-.24-.54-1.25-2.87a2.24,2.24,0,0,1,2-3.13l.26,0,2.09.23a8,8,0,0,1-2.9-3.46l-.24-.54-1.25-2.87a2.11,2.11,0,0,1-.14-.49L109.74,249.75l-.07.25h10.72l0-.25Z" transform="translate(0.13 0.13)"/><path class="cls-2" d="M137.57,142.47a2.23,2.23,0,0,1,1.72-.84l.26,0,3.11.35.58.06a8.56,8.56,0,0,1,1,.19l.56-2.5a8.08,8.08,0,0,1,.81-5.55l.29-.51.4-.73,5.82-26.28-.13-.3-1.25-2.87a2.24,2.24,0,0,1,2-3.13l.26,0,.46,0,.22-1a7.85,7.85,0,0,1-1.49-2.26l-.24-.54-1.25-2.87a2.24,2.24,0,0,1,2-3.13l.26,0,2.09.23a8,8,0,0,1-2.9-3.46l-.24-.54-.67-1.54q-7,.36-14.06.89l0-.09h-.19l0,.09h0l0,.16L136,90.87l.65-2.33c3.22-.27,6.45-.5,9.68-.74l5.55-.34h0Z" transform="translate(0.13 0.13)"/><path class="cls-2" d="M180.25,206.33a8.22,8.22,0,0,1,2.61-2.91l-2.06.23-.25,0-.3,0-.3,0-.25,0-2.06-.23A8.22,8.22,0,0,1,180.25,206.33Z" transform="translate(0.13 0.13)"/><path class="cls-2" d="M214.49,188.17a1.57,1.57,0,0,1-.49.08h-3a1.5,1.5,0,0,1-1.5-1.5v-7.37l-.66-.08-.58-.07-.33,0-8.09,70.57,0,.25h9.36l0-.25Z" transform="translate(0.13 0.13)"/><path class="cls-2" d="M242.5,120.08a8.09,8.09,0,0,1,1.77-2.25l0-.57-1.24.14-.25,0-.3,0-.3,0-.25,0-2.06-.23A8.22,8.22,0,0,1,242.5,120.08Z" transform="translate(0.13 0.13)"/><path class="cls-2" d="M234.29,195.56a7.61,7.61,0,0,1-.7-1.54l-.12,1.7a7.77,7.77,0,0,1,1.25.55l-.13-.21Z" transform="translate(0.13 0.13)"/><path class="cls-2" d="M194.11,138.13h.08v-.05Z" transform="translate(0.13 0.13)"/><path class="cls-2" d="M187.56,140.79a8.1,8.1,0,0,1,1.3-1.12l-1.14.13Z" transform="translate(0.13 0.13)"/><path class="cls-2" d="M239.55,234.75H236.5a1.5,1.5,0,0,1-1.5-1.5v-7.37l-.66-.08-.58-.07a7.65,7.65,0,0,1-2.23-.59l-1.63,24.61,0,.25h9.05v-.25Z" transform="translate(0.13 0.13)"/><path class="cls-2" d="M194.11,128.38l1.38-.15.16-1.2A7.9,7.9,0,0,1,194.11,128.38Z" transform="translate(0.13 0.13)"/><path class="cls-2" d="M242.5,110.33a8.18,8.18,0,0,1,2.17-2.57l0-.29-1.64.18-.25,0-.3,0-.3,0-.25,0-2.06-.23A8.22,8.22,0,0,1,242.5,110.33Z" transform="translate(0.13 0.13)"/><path class="cls-2" d="M212.5,172.58a8.22,8.22,0,0,1,2.61-2.91l-2.06.23-.25,0-.3,0-.3,0-.25,0-2.06-.23A8.22,8.22,0,0,1,212.5,172.58Z" transform="translate(0.13 0.13)"/><path class="cls-2" d="M234.12,187.45l.29-.51,1.51-2.74a2.22,2.22,0,0,1,3.86-.08l1.63,2.68.07.11,2.06-51.16H241a1.5,1.5,0,0,1-1.5-1.5v-7.37l-.66-.08-.58-.07a1.46,1.46,0,0,1-.22,0l-4,61A2.06,2.06,0,0,0,234.12,187.45Z" transform="translate(0.13 0.13)"/><path class="cls-2" d="M238,209.33a8.22,8.22,0,0,1,2.61-2.91l-2.06.23-.25,0-.3,0-.3,0-.25,0-2.06-.23A8.22,8.22,0,0,1,238,209.33Z" transform="translate(0.13 0.13)"/><path class="cls-2" d="M212.5,162.83a8.22,8.22,0,0,1,2.61-2.91l-2.06.23-.25,0-.3,0-.3,0-.25,0-1.81-.2,0,.15A8,8,0,0,1,212.5,162.83Z" transform="translate(0.13 0.13)"/><path class="cls-4" d="M246.25,204.61a4.56,4.56,0,0,1-.39.27l.38,0Z" transform="translate(0.13 0.13)"/><path class="cls-4" d="M246.09,214.48c-.07.06-.16.1-.23.15l.23,0Z" transform="translate(0.13 0.13)"/><path class="cls-4" d="M245.94,224.33a8.07,8.07,0,0,1-3.7,1.4l-.58.07-.66.08v7.37a1.5,1.5,0,0,1-1.45,1.5l-.61,15V250h6.62v-.25Z" transform="translate(0.13 0.13)"/><path class="cls-4" d="M245.11,107.42l-.42,0,0,.29C244.82,107.64,245,107.52,245.11,107.42Z" transform="translate(0.13 0.13)"/><path class="cls-4" d="M245.11,117.17l-.82.09,0,.57A7.62,7.62,0,0,1,245.11,117.17Z" transform="translate(0.13 0.13)"/><path class="cls-4" d="M241.71,187.3a8.14,8.14,0,0,1,.17,8.1l-.29.52-.13.25a8.15,8.15,0,0,1,2.8-.86l.58-.06,1.55-.18,1.05-68.46a5.38,5.38,0,0,1-.7.12l-.58.07-.66.08v7.37a1.5,1.5,0,0,1-1.5,1.5h-.46l-2.06,51.16Z" transform="translate(0.13 0.13)"/><path class="cls-4" d="M246.38,96.4l-.29.52-.13.25a7.75,7.75,0,0,1,1.94-.7l.06-3.89v-.36l-.51-.13-.11,0A8.13,8.13,0,0,1,246.38,96.4Z" transform="translate(0.13 0.13)"/><path class="cls-4" d="M240.61,216.17l-.31,0v.22Z" transform="translate(0.13 0.13)"/><path class="cls-4" d="M221.38,158.27l0-.72a8.42,8.42,0,0,1-1.06.83Z" transform="translate(0.13 0.13)"/><path class="cls-4" d="M220.78,168.09v-.27l-.43.31Z" transform="translate(0.13 0.13)"/><path class="cls-4" d="M220.17,178a8,8,0,0,1-3.43,1.23l-.58.07-.66.08v7.37a1.5,1.5,0,0,1-1,1.42l-5.29,61.58,0,.25h6.61l0-.25Z" transform="translate(0.13 0.13)"/><path class="cls-4" d="M225.65,88.06l-.22,0-.52-.07-1-.14-.75-.1,0,.24,0,.62L217.86,149c.29-.06.59-.12.9-.16l.58-.06,2.63-.3,3.63-59.57,0-.57Z" transform="translate(0.13 0.13)"/><path class="cls-4" d="M197,144.42a8.11,8.11,0,0,1-4.19,4.18l-4.43,33.75,1.81-.2.26,0h0a2.24,2.24,0,0,1,2,3.13l-1.25,2.87-.24.54a8,8,0,0,1-2.9,3.46l2.09-.23.26,0a2.2,2.2,0,0,1,1.74.87l5.24-49.31-.19.44Z" transform="translate(0.13 0.13)"/><path class="cls-4" d="M191,198.42a8,8,0,0,1-2.9,3.46l2.09-.23.26,0a2.31,2.31,0,0,1,.78.16l.55-5.15-.54,1.24Z" transform="translate(0.13 0.13)"/><path class="cls-4" d="M190.46,209.22a8.13,8.13,0,0,1-6,3.76l-.13,0-4.82,36.75,0,.25h6.61l0-.25Z" transform="translate(0.13 0.13)"/><path class="cls-4" d="M203.57,85.74l0-.25,0,.25-.74,0-1-.07-.75-.05,0,.25-.14,1.05-4.14,31.55a2.22,2.22,0,0,1,1.72,3.09l-1.25,2.87-.24.54a8.2,8.2,0,0,1-1.36,2.11l-.16,1.2.71-.08.26,0a2.24,2.24,0,0,1,2,3.13l-1.25,2.87-.24.54a7.93,7.93,0,0,1-2.81,3.4v.05l2-.22.26,0a2.23,2.23,0,0,1,1.51.6L203.43,87l.11-1Z" transform="translate(0.13 0.13)"/><path class="cls-4" d="M174.38,132.13l-.38-.87a2.22,2.22,0,0,1,.94-2.83l.53-3.54-.22-.51L174,121.51a2.24,2.24,0,0,1,2-3.13l.26,0,.15,0,4.46-29.49.37-2.42.22-1.46,0-.24h-.76l-.95,0h-.76l0,.24-.26,1.51L150,249.75l0,.25h6.64l0-.25Z" transform="translate(0.13 0.13)"/><path class="cls-4" d="M142.44,171.61a8.06,8.06,0,0,1-3.7-3.94l-.08-.18-18.22,82.26,0,.25h6.68l0-.25Z" transform="translate(0.13 0.13)"/><path class="cls-4" d="M145.79,142.31a8.08,8.08,0,0,1-1-2.56l-.56,2.5a8.15,8.15,0,0,1,2,.77l-.13-.21Z" transform="translate(0.13 0.13)"/><path class="cls-4" d="M141.64,161.38a7.94,7.94,0,0,1-1.37-1.16l-.22,1Z" transform="translate(0.13 0.13)"/><path class="cls-4" d="M155.14,100.63a8.45,8.45,0,0,1-1.41-1.2l-.22,1Z" transform="translate(0.13 0.13)"/><path class="cls-4" d="M147.42,131a2.22,2.22,0,0,1,2-1.16,2.17,2.17,0,0,1,1.2.36l4-20.22a8,8,0,0,1-2.29-3l-.11-.24L146.31,133Z" transform="translate(0.13 0.13)"/><path class="cls-4" d="M136,90.87,137,86.4l0-.16,0-.09-.78.06-1,.07-.79.06,0,.1,0,.15L91,249.75l-.07.25h6.73l.06-.25Z" transform="translate(0.13 0.13)"/><path class="cls-5" d="M173.82,184.06l-.58-.07-3.11-.35H170a.74.74,0,0,0-.67,1l1.26,2.87.23.54a6.6,6.6,0,0,0,5.32,3.92l.58.07,3.11.35H180a.68.68,0,0,1,.6,0h.08l3.11-.35.58-.07a6.6,6.6,0,0,0,5.32-3.92l.23-.54,1.26-2.87a.74.74,0,0,0-.67-1h-.09l-3.11.35-.58.07a6.6,6.6,0,0,0-5.32,3.92l-.23.54-.88,2-.88-2-.23-.54A6.6,6.6,0,0,0,173.82,184.06Z" transform="translate(0.13 0.13)"/><path class="cls-6" d="M174,192.31a8.14,8.14,0,0,1,3.65,1.36l1.28.14h0l.78.09.25,0,.3,0,.3,0,.25,0,2.06-.23a8.14,8.14,0,0,1,3.65-1.36l.58-.06,1-.12a8,8,0,0,0,2.9-3.46l.24-.54,1.25-2.87a2.24,2.24,0,0,0-2-3.13h0l-.26,0-1.81.2h0l-1.3.15-.58.06a8.15,8.15,0,0,0-2.8.86l-1.38,2.49a2.22,2.22,0,0,1-3.86.08l-1.5-2.47a8.09,8.09,0,0,0-3-1l-.58-.06-3.11-.35-.26,0a2.24,2.24,0,0,0-2,3.13l1.25,2.87.24.54a8,8,0,0,0,2.9,3.46l1,.12Zm5.15-4.33.23.54.88,2,.88-2,.23-.54a6.6,6.6,0,0,1,5.32-3.92l.58-.07,3.11-.35h.09a.74.74,0,0,1,.67,1l-1.26,2.87-.23.54a6.6,6.6,0,0,1-5.32,3.92l-.58.07-3.11.35h-.08a.68.68,0,0,0-.6,0h-.08l-3.11-.35-.58-.07a6.6,6.6,0,0,1-5.32-3.92l-.23-.54-1.26-2.87a.74.74,0,0,1,.67-1h.09l3.11.35.58.07A6.6,6.6,0,0,1,179.14,188Z" transform="translate(0.13 0.13)"/><path class="cls-5" d="M190.46,193.38h-.09l-3.11.35-.58.07a6.6,6.6,0,0,0-5.32,3.92l-.23.54-.88,2-.88-2-.23-.54a6.6,6.6,0,0,0-5.32-3.92l-.58-.07-3.11-.35H170a.74.74,0,0,0-.67,1l1.26,2.87.23.54a6.6,6.6,0,0,0,5.32,3.92l.58.07,3.11.35H180a.68.68,0,0,1,.6,0h.08l3.11-.35.58-.07a6.6,6.6,0,0,0,5.32-3.92l.23-.54,1.26-2.87A.74.74,0,0,0,190.46,193.38Z" transform="translate(0.13 0.13)"/><path class="cls-6" d="M190.46,191.88l-.26,0-2.09.23-1,.12-.58.06a8.14,8.14,0,0,0-3.65,1.36,8.22,8.22,0,0,0-2.61,2.91,8.06,8.06,0,0,0-1.47-2h0a8,8,0,0,0-1.14-1,8.14,8.14,0,0,0-3.65-1.36l-.58-.06-1-.12-2.09-.23-.26,0a2.24,2.24,0,0,0-2,3.13l1.25,2.87.24.54a8,8,0,0,0,2.9,3.46l1,.12.58.06a8.14,8.14,0,0,1,3.65,1.36l2.06.23.25,0,.3,0,.3,0,.25,0,2.06-.23a8.14,8.14,0,0,1,3.65-1.36l.58-.06,1-.12a8,8,0,0,0,2.9-3.46l.24-.54.54-1.24.71-1.63a2.23,2.23,0,0,0-.18-2.12,1.49,1.49,0,0,0-.12-.14A2.2,2.2,0,0,0,190.46,191.88Zm-.82,5.94a6.6,6.6,0,0,1-5.32,3.92l-.58.07-3.11.35h-.08a.68.68,0,0,0-.6,0h-.08l-3.11-.35-.58-.07a6.6,6.6,0,0,1-5.32-3.92l-.23-.54-1.26-2.87a.74.74,0,0,1,.67-1h.09l3.11.35.58.07a6.6,6.6,0,0,1,5.32,3.92l.23.54.88,2,.88-2,.23-.54a6.6,6.6,0,0,1,5.32-3.92l.58-.07,3.11-.35h.09a.74.74,0,0,1,.67,1l-1.26,2.87Z" transform="translate(0.13 0.13)"/><path class="cls-5" d="M190.46,203.13h-.09l-3.11.35-.58.07a6.6,6.6,0,0,0-5.32,3.92l-.23.54-.88,2-.88-2-.23-.54a6.6,6.6,0,0,0-5.32-3.92l-.58-.07-3.11-.35H170a.74.74,0,0,0-.67,1l1.26,2.87.23.54a6.6,6.6,0,0,0,5.32,3.92l.58.07,2,.23v8.71h3v-8.71l2-.23.58-.07a6.6,6.6,0,0,0,5.32-3.92l.23-.54,1.26-2.87A.74.74,0,0,0,190.46,203.13Z" transform="translate(0.13 0.13)"/><path class="cls-6" d="M190.2,201.65l-2.09.23-1,.12-.58.06a8.14,8.14,0,0,0-3.65,1.36,8.22,8.22,0,0,0-2.61,2.91,8.22,8.22,0,0,0-2.61-2.91,8.14,8.14,0,0,0-3.65-1.36l-.58-.06-1-.12-2.09-.23-.26,0a2.24,2.24,0,0,0-2,3.13l1.25,2.87.24.54A8.12,8.12,0,0,0,175.8,213h0l.21,0,.58.07.66.08v7.37a1.5,1.5,0,0,0,1.5,1.5h3a1.5,1.5,0,0,0,1.5-1.5v-7.37l.66-.08.45-.05h0l.13,0a8.13,8.13,0,0,0,6-3.76,8.75,8.75,0,0,0,.55-1.05l.24-.54,1.25-2.87a2.21,2.21,0,0,0-1.26-3,2.31,2.31,0,0,0-.78-.16Zm.93,2.51L189.87,207l-.23.54a6.6,6.6,0,0,1-5.32,3.92l-.58.07-2,.23v8.71h-3v-8.71l-2-.23-.58-.07a6.6,6.6,0,0,1-5.32-3.92l-.23-.54-1.26-2.87a.74.74,0,0,1,.67-1h.09l3.11.35.58.07a6.6,6.6,0,0,1,5.32,3.92l.23.54.88,2,.88-2,.23-.54a6.6,6.6,0,0,1,5.32-3.92l.58-.07,3.11-.35h.09A.74.74,0,0,1,191.13,204.16Z" transform="translate(0.13 0.13)"/><path class="cls-5" d="M180.38,185.57a.73.73,0,0,0,.64-.38l1.51-2.74.28-.52a6.61,6.61,0,0,0-.13-6.61l-.31-.5-1.62-2.68a.74.74,0,0,0-1.27,0L178,174.91l-.28.52a6.6,6.6,0,0,0,.13,6.6l.31.51,1.62,2.67A.72.72,0,0,0,180.38,185.57Z" transform="translate(0.13 0.13)"/><path class="cls-6" d="M178.47,186a2.22,2.22,0,0,0,3.86-.08l1.38-2.49.13-.25.29-.52a8.14,8.14,0,0,0-.17-8.1l-.3-.5-1.2-2h0l-.43-.7a2.22,2.22,0,0,0-3.86.08l-1.51,2.74-.29.51a8.15,8.15,0,0,0,.17,8.11l.3.5.13.21Zm-.65-4a6.6,6.6,0,0,1-.13-6.6l.28-.52,1.51-2.74a.74.74,0,0,1,1.27,0l1.62,2.68.31.5a6.61,6.61,0,0,1,.13,6.61l-.28.52L181,185.19a.73.73,0,0,1-.64.38.72.72,0,0,1-.63-.36l-1.62-2.67Z" transform="translate(0.13 0.13)"/><path class="cls-5" d="M206.07,150.31l-.58-.07-3.11-.35h-.09a.74.74,0,0,0-.67,1l1.26,2.87.23.54a6.6,6.6,0,0,0,5.32,3.92l.58.07,3.11.35h.08a.68.68,0,0,1,.6,0h.08l3.11-.35.58-.07a6.6,6.6,0,0,0,5.32-3.92l.23-.54,1.26-2.87a.74.74,0,0,0-.67-1h-.09l-3.11.35-.58.07a6.6,6.6,0,0,0-5.32,3.92l-.23.54-.88,2-.88-2-.23-.54A6.6,6.6,0,0,0,206.07,150.31Z" transform="translate(0.13 0.13)"/><path class="cls-6" d="M218.76,148.81c-.31,0-.61.1-.9.16h0a8.15,8.15,0,0,0-1.9.7l-1.38,2.49a2.22,2.22,0,0,1-3.86.08l-1.5-2.47a8.09,8.09,0,0,0-3-1l-.58-.06-3.11-.35-.26,0a2.24,2.24,0,0,0-2,3.13l1.25,2.87.24.54a8,8,0,0,0,2.9,3.46l1,.12.58.06a8.14,8.14,0,0,1,3.65,1.36l.25,0,1.81.2.25,0,.3,0,.3,0,.25,0,2.06-.23a8.14,8.14,0,0,1,3.65-1.36l.58-.06,1-.12a8.42,8.42,0,0,0,1.06-.83,8.11,8.11,0,0,0,1.84-2.63l.24-.54,1.25-2.87a2.24,2.24,0,0,0-2-3.13h0l-.26,0-.48,0-2.63.3Zm-7.37,5.42.23.54.88,2,.88-2,.23-.54a6.6,6.6,0,0,1,5.32-3.92l.58-.07,3.11-.35h.09a.74.74,0,0,1,.67,1l-1.26,2.87-.23.54a6.6,6.6,0,0,1-5.32,3.92l-.58.07-3.11.35h-.08a.68.68,0,0,0-.6,0h-.08l-3.11-.35-.58-.07a6.6,6.6,0,0,1-5.32-3.92l-.23-.54-1.26-2.87a.74.74,0,0,1,.67-1h.09l3.11.35.58.07A6.6,6.6,0,0,1,211.39,154.23Z" transform="translate(0.13 0.13)"/><path class="cls-5" d="M219.51,160l-.58.07a6.6,6.6,0,0,0-5.32,3.92l-.23.54-.88,2-.88-2-.23-.54a6.6,6.6,0,0,0-5.32-3.92l-.58-.07-3.11-.35h-.09a.74.74,0,0,0-.67,1l1.26,2.87.23.54a6.6,6.6,0,0,0,5.32,3.92l.58.07,3.11.35h.08a.68.68,0,0,1,.6,0h.08l3.11-.35.58-.07a6.6,6.6,0,0,0,5.32-3.92l.23-.54,1.26-2.87a.74.74,0,0,0-.67-1h-.09Z" transform="translate(0.13 0.13)"/><path class="cls-6" d="M219.34,158.5l-.58.06a8.14,8.14,0,0,0-3.65,1.36,8.22,8.22,0,0,0-2.61,2.91,8,8,0,0,0-2.38-2.73c-.08-.06-.15-.13-.23-.18a8.14,8.14,0,0,0-3.65-1.36l-.58-.06-1-.12-2.09-.23-.26,0a2.24,2.24,0,0,0-2,3.13l1.25,2.87.24.54a8,8,0,0,0,2.9,3.46l1,.12.58.06a8.14,8.14,0,0,1,3.65,1.36l2.06.23.25,0,.3,0,.3,0,.25,0,2.06-.23a8.14,8.14,0,0,1,3.65-1.36l.58-.06,1-.12.43-.31a8.06,8.06,0,0,0,2.47-3.15l.24-.54,1.25-2.87a2.24,2.24,0,0,0-2-3.13l-.26,0-1.07.12-1,.11Zm4,2.16-1.26,2.87-.23.54a6.6,6.6,0,0,1-5.32,3.92l-.58.07-3.11.35h-.08a.68.68,0,0,0-.6,0h-.08l-3.11-.35-.58-.07a6.6,6.6,0,0,1-5.32-3.92l-.23-.54-1.26-2.87a.74.74,0,0,1,.67-1h.09l3.11.35.58.07a6.6,6.6,0,0,1,5.32,3.92l.23.54.88,2,.88-2,.23-.54a6.6,6.6,0,0,1,5.32-3.92l.58-.07,3.11-.35h.09A.74.74,0,0,1,223.38,160.66Z" transform="translate(0.13 0.13)"/><path class="cls-5" d="M219.51,169.74l-.58.07a6.6,6.6,0,0,0-5.32,3.92l-.23.54-.88,2-.88-2-.23-.54a6.6,6.6,0,0,0-5.32-3.92l-.58-.07-3.11-.35h-.09a.74.74,0,0,0-.67,1l1.26,2.87.23.54a6.6,6.6,0,0,0,5.32,3.92l.58.07,2,.23v8.71h3V178l2-.23.58-.07a6.6,6.6,0,0,0,5.32-3.92l.23-.54,1.26-2.87a.74.74,0,0,0-.67-1h-.09Z" transform="translate(0.13 0.13)"/><path class="cls-6" d="M219.34,168.25l-.58.06a8.14,8.14,0,0,0-3.65,1.36,8.22,8.22,0,0,0-2.61,2.91,8.22,8.22,0,0,0-2.61-2.91,8.14,8.14,0,0,0-3.65-1.36l-.58-.06-1-.12-2.09-.23-.26,0a2.24,2.24,0,0,0-2,3.13l1.25,2.87.24.54a8.12,8.12,0,0,0,6.19,4.76l.33,0,.58.07.66.08v7.37a1.5,1.5,0,0,0,1.5,1.5h3a1.57,1.57,0,0,0,.49-.08h0a1.5,1.5,0,0,0,1-1.42v-7.37l.66-.08.58-.07a8.23,8.23,0,0,0,6.52-4.81l.24-.54,1.25-2.87a2.24,2.24,0,0,0-2-3.13l-.26,0-1.67.19-.42,0Zm4,2.16-1.26,2.87-.23.54a6.6,6.6,0,0,1-5.32,3.92l-.58.07-2,.23v8.71h-3V178l-2-.23-.58-.07a6.6,6.6,0,0,1-5.32-3.92l-.23-.54-1.26-2.87a.74.74,0,0,1,.67-1h.09l3.11.35.58.07a6.6,6.6,0,0,1,5.32,3.92l.23.54.88,2,.88-2,.23-.54a6.6,6.6,0,0,1,5.32-3.92l.58-.07,3.11-.35h.09A.74.74,0,0,1,223.38,170.41Z" transform="translate(0.13 0.13)"/><path class="cls-5" d="M212,151.46a.72.72,0,0,0,.63.36.73.73,0,0,0,.64-.38l1.51-2.74.28-.52a6.61,6.61,0,0,0-.13-6.61l-.31-.5L213,138.39a.74.74,0,0,0-1.27,0l-1.51,2.74-.28.52a6.6,6.6,0,0,0,.13,6.6l.31.51Z" transform="translate(0.13 0.13)"/><path class="cls-6" d="M210.72,152.24a2.22,2.22,0,0,0,3.86-.08l1.38-2.49.13-.25.29-.52a8.14,8.14,0,0,0-.17-8.1l-.3-.5-1.63-2.68a2.18,2.18,0,0,0-1.47-1,2,2,0,0,0-.44-.06,2.22,2.22,0,0,0-2,1.16l-1.51,2.74-.29.51a8.15,8.15,0,0,0,.17,8.11l.3.5.13.21Zm-.65-4a6.6,6.6,0,0,1-.13-6.6l.28-.52,1.51-2.74a.74.74,0,0,1,1.27,0l1.62,2.68.31.5a6.61,6.61,0,0,1,.13,6.61l-.28.52-1.51,2.74a.73.73,0,0,1-.64.38.72.72,0,0,1-.63-.36l-1.62-2.67Z" transform="translate(0.13 0.13)"/><path class="cls-5" d="M234.51,204.81l3.11.35h.08a.68.68,0,0,1,.6,0h.08l3.11-.35.58-.07a6.6,6.6,0,0,0,5.32-3.92l.23-.54,1.26-2.87a.74.74,0,0,0-.67-1h-.09l-3.11.35-.58.07a6.6,6.6,0,0,0-5.32,3.92l-.23.54-.88,2-.88-2-.23-.54a6.6,6.6,0,0,0-5.32-3.92l-.58-.07-3.11-.35h-.09a.74.74,0,0,0-.67,1l1.26,2.87.23.54a6.6,6.6,0,0,0,5.32,3.92Z" transform="translate(0.13 0.13)"/><path class="cls-6" d="M248.21,194.88h0l-.26,0-1.56.17-1.55.18-.58.06a8.15,8.15,0,0,0-2.8.86l-1.38,2.49a2.22,2.22,0,0,1-3.86.08l-1.5-2.47a7.77,7.77,0,0,0-1.25-.55h0a7.66,7.66,0,0,0-1.73-.41l-.58-.06-3.11-.35-.26,0a2.24,2.24,0,0,0-2,3.13l1.25,2.87.24.54a8,8,0,0,0,2.9,3.46l1,.12.58.06a8.14,8.14,0,0,1,3.65,1.36l2.06.23.25,0,.3,0,.3,0,.25,0,2.06-.23a8.14,8.14,0,0,1,3.65-1.36l.58-.06,1-.12a4.56,4.56,0,0,0,.39-.27,8,8,0,0,0,2.51-3.19l.24-.54,1-2.29v-2.78A2.21,2.21,0,0,0,248.21,194.88Zm-19.6,5.94-.23-.54-1.26-2.87a.74.74,0,0,1,.67-1h.09l3.11.35.58.07a6.6,6.6,0,0,1,5.32,3.92l.23.54.88,2,.88-2,.23-.54a6.6,6.6,0,0,1,5.32-3.92l.58-.07,3.11-.35h.09a.74.74,0,0,1,.67,1l-1.26,2.87-.23.54a6.6,6.6,0,0,1-5.32,3.92l-.58.07-3.11.35h-.08a.68.68,0,0,0-.6,0h-.08l-3.11-.35-.58-.07A6.6,6.6,0,0,1,228.61,200.82Z" transform="translate(0.13 0.13)"/><path class="cls-5" d="M248.21,206.13h-.09l-3.11.35-.58.07a6.6,6.6,0,0,0-5.32,3.92l-.23.54-.88,2-.88-2-.23-.54a6.6,6.6,0,0,0-5.32-3.92l-.58-.07-3.11-.35h-.09a.74.74,0,0,0-.67,1l1.26,2.87.23.54a6.6,6.6,0,0,0,5.32,3.92l.58.07,3.11.35h.08a.68.68,0,0,1,.6,0h.08l3.11-.35.58-.07a6.6,6.6,0,0,0,5.32-3.92l.23-.54,1.26-2.87A.74.74,0,0,0,248.21,206.13Z" transform="translate(0.13 0.13)"/><path class="cls-6" d="M248.21,204.63l-.26,0-1.71.19-.38,0-1,.12-.58.06a8.14,8.14,0,0,0-3.65,1.36,8.22,8.22,0,0,0-2.61,2.91,8.22,8.22,0,0,0-2.61-2.91,8.14,8.14,0,0,0-3.65-1.36l-.58-.06-1-.12-2.09-.23-.26,0a2.24,2.24,0,0,0-2,3.13l1.25,2.87.24.54a8,8,0,0,0,2.9,3.46l1,.12.58.06a8.14,8.14,0,0,1,3.65,1.36l2.06.23.25,0,.3,0,.3,0,.25,0,1.75-.2.31,0a8.14,8.14,0,0,1,3.65-1.36l.58-.06,1-.12c.07,0,.16-.09.23-.15a8,8,0,0,0,2.67-3.31l.24-.54,1-2.29v-2.78A2.21,2.21,0,0,0,248.21,204.63Zm-.82,5.94a6.6,6.6,0,0,1-5.32,3.92l-.58.07-3.11.35h-.08a.68.68,0,0,0-.6,0h-.08l-3.11-.35-.58-.07a6.6,6.6,0,0,1-5.32-3.92l-.23-.54-1.26-2.87a.74.74,0,0,1,.67-1h.09l3.11.35.58.07a6.6,6.6,0,0,1,5.32,3.92l.23.54.88,2,.88-2,.23-.54a6.6,6.6,0,0,1,5.32-3.92l.58-.07,3.11-.35h.09a.74.74,0,0,1,.67,1L247.62,210Z" transform="translate(0.13 0.13)"/><path class="cls-5" d="M248.21,215.88h-.09l-3.11.35-.58.07a6.6,6.6,0,0,0-5.32,3.92l-.23.54-.88,2-.88-2-.23-.54a6.6,6.6,0,0,0-5.32-3.92l-.58-.07-3.11-.35h-.09a.74.74,0,0,0-.67,1l1.26,2.87.23.54a6.6,6.6,0,0,0,5.32,3.92l.58.07,2,.23v8.71h3v-8.71l2-.23.58-.07a6.6,6.6,0,0,0,5.32-3.92l.23-.54,1.26-2.87A.74.74,0,0,0,248.21,215.88Z" transform="translate(0.13 0.13)"/><path class="cls-6" d="M248.21,214.38l-.26,0-1.86.21-.23,0-1,.12-.58.06a8.14,8.14,0,0,0-3.65,1.36l-.32.25a8.05,8.05,0,0,0-2.29,2.66,8.22,8.22,0,0,0-2.61-2.91,8.14,8.14,0,0,0-3.65-1.36l-.58-.06-1-.12-2.09-.23-.26,0a2.24,2.24,0,0,0-2,3.13l1.25,2.87.24.54a8.12,8.12,0,0,0,4.29,4.22h0a7.65,7.65,0,0,0,2.23.59l.58.07.66.08v7.37a1.5,1.5,0,0,0,1.5,1.5h3.05a1.5,1.5,0,0,0,1.45-1.5v-7.37l.66-.08.58-.07a8.18,8.18,0,0,0,6.52-4.81l.24-.54,1-2.29v-2.78A2.21,2.21,0,0,0,248.21,214.38Zm-.82,5.94a6.6,6.6,0,0,1-5.32,3.92l-.58.07-2,.23v8.71h-3v-8.71l-2-.23-.58-.07a6.6,6.6,0,0,1-5.32-3.92l-.23-.54-1.26-2.87a.74.74,0,0,1,.67-1h.09l3.11.35.58.07a6.6,6.6,0,0,1,5.32,3.92l.23.54.88,2,.88-2,.23-.54a6.6,6.6,0,0,1,5.32-3.92l.58-.07,3.11-.35h.09a.74.74,0,0,1,.67,1l-1.26,2.87Z" transform="translate(0.13 0.13)"/><path class="cls-5" d="M235.57,194.78l.31.51L237.5,198a.72.72,0,0,0,.63.36.73.73,0,0,0,.64-.38l1.51-2.74.28-.52a6.61,6.61,0,0,0-.13-6.61l-.31-.5-1.62-2.68a.74.74,0,0,0-1.27,0l-1.51,2.74-.28.52A6.6,6.6,0,0,0,235.57,194.78Z" transform="translate(0.13 0.13)"/><path class="cls-6" d="M234.29,195.56l.3.5.13.21,1.5,2.47a2.22,2.22,0,0,0,3.86-.08l1.38-2.49.13-.25.29-.52a8.14,8.14,0,0,0-.17-8.1l-.23-.39-.07-.11-1.63-2.68a2.22,2.22,0,0,0-3.86.08l-1.51,2.74-.29.51a2.06,2.06,0,0,1-.12.26h0a8.11,8.11,0,0,0-.41,6.31h0A7.61,7.61,0,0,0,234.29,195.56Zm1.43-7.9,1.51-2.74a.74.74,0,0,1,1.27,0l1.62,2.68.31.5a6.61,6.61,0,0,1,.13,6.61l-.28.52-1.51,2.74a.73.73,0,0,1-.64.38.72.72,0,0,1-.63-.36l-1.62-2.67-.31-.51a6.6,6.6,0,0,1-.13-6.6Z" transform="translate(0.13 0.13)"/><path class="cls-5" d="M248.93,97.81a6.6,6.6,0,0,0-5.32,3.92l-.23.54-.88,2-.88-2-.23-.54a6.6,6.6,0,0,0-5.32-3.92l-.58-.07-3.11-.35h-.09a.74.74,0,0,0-.67,1l1.26,2.87.23.54a6.6,6.6,0,0,0,5.32,3.92l.58.07,3.11.35h.08a.68.68,0,0,1,.6,0h.08l3.11-.35.58-.07a6.53,6.53,0,0,0,3.43-1.45V97.68l-.49.06Z" transform="translate(0.13 0.13)"/><path class="cls-6" d="M248.76,96.31a8.15,8.15,0,0,0-.86.16,7.75,7.75,0,0,0-1.94.7l-1.38,2.49a2.22,2.22,0,0,1-3.86.08l-1.5-2.47a8.09,8.09,0,0,0-3-1l-.58-.06-3.11-.35-.26,0a2.24,2.24,0,0,0-2,3.13l1.25,2.87.24.54a8,8,0,0,0,2.9,3.46l1,.12.58.06a8.14,8.14,0,0,1,3.65,1.36l2.06.23.25,0,.3,0,.3,0,.25,0,1.64-.18.42,0a8.14,8.14,0,0,1,3.65-1.36l.58-.06.66-.08v-1.63a6.53,6.53,0,0,1-3.43,1.45l-.58.07-3.11.35h-.08a.68.68,0,0,0-.6,0h-.08l-3.11-.35-.58-.07a6.6,6.6,0,0,1-5.32-3.92l-.23-.54-1.26-2.87a.74.74,0,0,1,.67-1h.09l3.11.35.58.07a6.6,6.6,0,0,1,5.32,3.92l.23.54.88,2,.88-2,.23-.54a6.6,6.6,0,0,1,5.32-3.92l.58-.07.49-.06V96.17l-.66.08Z" transform="translate(0.13 0.13)"/><path class="cls-5" d="M248.93,107.56a6.6,6.6,0,0,0-5.32,3.92l-.23.54-.88,2-.88-2-.23-.54a6.6,6.6,0,0,0-5.32-3.92l-.58-.07-3.11-.35h-.09a.74.74,0,0,0-.67,1l1.26,2.87.23.54a6.6,6.6,0,0,0,5.32,3.92l.58.07,3.11.35h.08a.68.68,0,0,1,.6,0h.08l3.11-.35.58-.07A6.53,6.53,0,0,0,250,114v-6.61l-.49.06Z" transform="translate(0.13 0.13)"/><path class="cls-6" d="M248.76,106.06a8.14,8.14,0,0,0-3.65,1.36c-.15.1-.29.22-.44.34a8.18,8.18,0,0,0-2.17,2.57,8.22,8.22,0,0,0-2.61-2.91,8.14,8.14,0,0,0-3.65-1.36l-.58-.06-1-.12-2.09-.23-.26,0a2.24,2.24,0,0,0-2,3.13l1.25,2.87.24.54a8,8,0,0,0,2.9,3.46l1,.12.58.06a8.14,8.14,0,0,1,3.65,1.36l2.06.23.25,0,.3,0,.3,0,.25,0,1.24-.14.82-.09a8.14,8.14,0,0,1,3.65-1.36l.58-.06.66-.08V114a6.53,6.53,0,0,1-3.43,1.45l-.58.07-3.11.35h-.08a.68.68,0,0,0-.6,0h-.08l-3.11-.35-.58-.07a6.6,6.6,0,0,1-5.32-3.92l-.23-.54-1.26-2.87a.74.74,0,0,1,.67-1h.09l3.11.35.58.07a6.6,6.6,0,0,1,5.32,3.92l.23.54.88,2,.88-2,.23-.54a6.6,6.6,0,0,1,5.32-3.92l.58-.07.49-.06v-1.51l-.66.08Z" transform="translate(0.13 0.13)"/><path class="cls-5" d="M248.93,117.31a6.6,6.6,0,0,0-5.32,3.92l-.23.54-.88,2-.88-2-.23-.54a6.6,6.6,0,0,0-5.32-3.92l-.58-.07-3.11-.35h-.09a.74.74,0,0,0-.67,1l1.26,2.87.23.54a6.6,6.6,0,0,0,5.32,3.92l.58.07,2,.23v8.71h3v-8.71l2-.23.58-.07a6.53,6.53,0,0,0,3.43-1.45v-6.61l-.49.06Z" transform="translate(0.13 0.13)"/><path class="cls-6" d="M248.76,115.81a8.14,8.14,0,0,0-3.65,1.36,7.62,7.62,0,0,0-.84.66,8.09,8.09,0,0,0-1.77,2.25,8.22,8.22,0,0,0-2.61-2.91,8.14,8.14,0,0,0-3.65-1.36l-.58-.06-1-.12-2.09-.23-.26,0a2.24,2.24,0,0,0-2,3.13l1.25,2.87.24.54a8.12,8.12,0,0,0,6.3,4.78h0a1.46,1.46,0,0,0,.22,0l.58.07.66.08v7.37a1.5,1.5,0,0,0,1.5,1.5h3a1.5,1.5,0,0,0,1.5-1.5v-7.37l.66-.08.58-.07a5.38,5.38,0,0,0,.7-.12,8,8,0,0,0,2.56-1v-1.82a6.53,6.53,0,0,1-3.43,1.45l-.58.07-2,.23v8.71h-3v-8.71l-2-.23-.58-.07a6.6,6.6,0,0,1-5.32-3.92l-.23-.54-1.26-2.87a.74.74,0,0,1,.67-1h.09l3.11.35.58.07a6.6,6.6,0,0,1,5.32,3.92l.23.54.88,2,.88-2,.23-.54a6.6,6.6,0,0,1,5.32-3.92l.58-.07.49-.06v-1.51l-.66.08Z" transform="translate(0.13 0.13)"/><path class="cls-5" d="M240.38,96.29,242,99a.72.72,0,0,0,.63.36.73.73,0,0,0,.64-.38l1.51-2.74.28-.52a6.61,6.61,0,0,0-.13-6.61l-.31-.5L243,85.89a.74.74,0,0,0-1.27,0l-1.51,2.74-.28.52a6.6,6.6,0,0,0,.13,6.6Z" transform="translate(0.13 0.13)"/><path class="cls-6" d="M240.72,99.74a2.22,2.22,0,0,0,3.86-.08L246,97.17l.13-.25.29-.52a8.13,8.13,0,0,0,1-4.33,3.42,3.42,0,0,0,0-.45,8,8,0,0,0-1.1-3.32l-.3-.5-1.63-2.68a2.22,2.22,0,0,0-3.86.08l-1.51,2.74-.29.51a8,8,0,0,0-.52,1.21,6.82,6.82,0,0,0-.28,1,8.06,8.06,0,0,0,1,5.92l.3.5.13.21Zm-.78-10.56.28-.52,1.51-2.74a.74.74,0,0,1,1.27,0l1.62,2.68.31.5a6.61,6.61,0,0,1,.13,6.61l-.28.52-1.51,2.74a.73.73,0,0,1-.64.38A.72.72,0,0,1,242,99l-1.62-2.67-.31-.51A6.6,6.6,0,0,1,239.94,89.18Z" transform="translate(0.13 0.13)"/><path class="cls-5" d="M179.82,120.31l-.58-.07-3.11-.35H176a.74.74,0,0,0-.67,1l1.26,2.87.23.54a6.6,6.6,0,0,0,5.32,3.92l.58.07,3.11.35H186a.68.68,0,0,1,.6,0h.08l3.11-.35.58-.07a6.6,6.6,0,0,0,5.32-3.92l.23-.54,1.26-2.87a.74.74,0,0,0-.67-1h-.09l-3.11.35-.58.07a6.6,6.6,0,0,0-5.32,3.92l-.23.54-.88,2-.88-2-.23-.54A6.6,6.6,0,0,0,179.82,120.31Z" transform="translate(0.13 0.13)"/><path class="cls-6" d="M178.39,128.38l1,.12.58.06a8.14,8.14,0,0,1,3.65,1.36l2.06.23.25,0,.3,0,.3,0,.25,0,2.06-.23a8.14,8.14,0,0,1,3.65-1.36l.58-.06,1-.12a7.9,7.9,0,0,0,1.54-1.35h0a8.2,8.2,0,0,0,1.36-2.11l.24-.54,1.25-2.87a2.22,2.22,0,0,0-1.72-3.09h0c-.11,0-.21,0-.32,0h0l-.26,0-3.11.35-.58.06a8.34,8.34,0,0,0-1.42.31h0a8.27,8.27,0,0,0-1.38.55l-1.38,2.49a2.22,2.22,0,0,1-3.86.08l-1.5-2.47a8.09,8.09,0,0,0-3-1l-.58-.06-3-.33-.15,0-.26,0a2.24,2.24,0,0,0-2,3.13l1.25,2.87.22.51,0,0A8,8,0,0,0,178.39,128.38Zm6.75-4.15.23.54.88,2,.88-2,.23-.54a6.6,6.6,0,0,1,5.32-3.92l.58-.07,3.11-.35h.09a.74.74,0,0,1,.67,1l-1.26,2.87-.23.54a6.6,6.6,0,0,1-5.32,3.92l-.58.07-3.11.35h-.08a.68.68,0,0,0-.6,0h-.08l-3.11-.35-.58-.07a6.6,6.6,0,0,1-5.32-3.92l-.23-.54-1.26-2.87a.74.74,0,0,1,.67-1h.09l3.11.35.58.07A6.6,6.6,0,0,1,185.14,124.23Z" transform="translate(0.13 0.13)"/><path class="cls-5" d="M182.18,138l.58.07,3.11.35H186a.68.68,0,0,1,.6,0h.08l3.11-.35.58-.07a6.6,6.6,0,0,0,5.32-3.92l.23-.54,1.26-2.87a.74.74,0,0,0-.67-1h-.09l-3.11.35-.58.07a6.6,6.6,0,0,0-5.32,3.92l-.23.54-.88,2-.88-2-.23-.54a6.6,6.6,0,0,0-5.32-3.92l-.58-.07-3.11-.35H176a.74.74,0,0,0-.67,1l1.26,2.87.23.54A6.6,6.6,0,0,0,182.18,138Z" transform="translate(0.13 0.13)"/><path class="cls-6" d="M180,138.31a8.14,8.14,0,0,1,3.65,1.36l2.06.23.25,0,.3,0,.3,0,.25,0,.92-.1h0l1.14-.13a8.14,8.14,0,0,1,3.65-1.36l.58-.06,1-.12.09-.06h0a7.93,7.93,0,0,0,2.81-3.4l.24-.54,1.25-2.87a2.24,2.24,0,0,0-2-3.13l-.26,0-.71.08h0l-1.38.15-1,.12-.58.06a8.14,8.14,0,0,0-3.65,1.36,8.22,8.22,0,0,0-2.61,2.91,8.22,8.22,0,0,0-2.61-2.91,8.14,8.14,0,0,0-3.65-1.36l-.58-.06-1-.12-2.09-.23-.26,0a2.21,2.21,0,0,0-1.1.3,2.22,2.22,0,0,0-.94,2.83l.38.87.87,2,.24.54a8,8,0,0,0,2.9,3.46l1,.12Zm-3.36-4.78-1.26-2.87a.74.74,0,0,1,.67-1h.09l3.11.35.58.07a6.6,6.6,0,0,1,5.32,3.92l.23.54.88,2,.88-2,.23-.54a6.6,6.6,0,0,1,5.32-3.92l.58-.07,3.11-.35h.09a.74.74,0,0,1,.67,1l-1.26,2.87-.23.54a6.6,6.6,0,0,1-5.32,3.92l-.58.07-3.11.35h-.08a.68.68,0,0,0-.6,0h-.08l-3.11-.35-.58-.07a6.6,6.6,0,0,1-5.32-3.92Z" transform="translate(0.13 0.13)"/><path class="cls-5" d="M196.46,139.38h-.09l-3.11.35-.58.07a6.6,6.6,0,0,0-5.32,3.92l-.23.54-.88,2-.88-2-.23-.54a6.6,6.6,0,0,0-5.32-3.92l-.58-.07-3.11-.35H176a.74.74,0,0,0-.67,1l1.26,2.87.23.54a6.6,6.6,0,0,0,5.32,3.92l.58.07,2,.23v8.71h3V148l2-.23.58-.07a6.6,6.6,0,0,0,5.32-3.92l.23-.54,1.26-2.87A.74.74,0,0,0,196.46,139.38Z" transform="translate(0.13 0.13)"/><path class="cls-6" d="M196.46,137.88l-.26,0-2,.22h-.08l-1,.12-.58.06a8,8,0,0,0-4.95,2.48h0a8,8,0,0,0-1.31,1.79,8.22,8.22,0,0,0-2.61-2.91,8.14,8.14,0,0,0-3.65-1.36l-.58-.06-1-.12-2.09-.23-.26,0a2.24,2.24,0,0,0-2,3.13l1.25,2.87.24.54a8.1,8.1,0,0,0,6.52,4.81l.58.07.66.08v7.37a1.5,1.5,0,0,0,1.46,1.5h3a1.5,1.5,0,0,0,1.5-1.5v-7.37l.66-.08.58-.07a8,8,0,0,0,2.33-.63h0a8.11,8.11,0,0,0,4.19-4.18l.24-.54.19-.44L198.5,141a2.23,2.23,0,0,0-.18-2.12,2.3,2.3,0,0,0-.35-.41A2.23,2.23,0,0,0,196.46,137.88Zm-.82,5.94a6.6,6.6,0,0,1-5.32,3.92l-.58.07-2,.23v8.71h-3V148l-2-.23-.58-.07a6.6,6.6,0,0,1-5.32-3.92l-.23-.54-1.26-2.87a.74.74,0,0,1,.67-1h.09l3.11.35.58.07a6.6,6.6,0,0,1,5.32,3.92l.23.54.88,2,.88-2,.23-.54a6.6,6.6,0,0,1,5.32-3.92l.58-.07,3.11-.35h.09a.74.74,0,0,1,.67,1l-1.26,2.87Z" transform="translate(0.13 0.13)"/><path class="cls-5" d="M188.81,118.18a6.61,6.61,0,0,0-.13-6.61l-.31-.5-1.62-2.68a.74.74,0,0,0-1.27,0L184,111.16l-.28.52a6.6,6.6,0,0,0,.13,6.6l.31.51,1.62,2.67a.72.72,0,0,0,.63.36.73.73,0,0,0,.64-.38l1.51-2.74Z" transform="translate(0.13 0.13)"/><path class="cls-6" d="M190.13,118.9a8.14,8.14,0,0,0-.17-8.1l-.3-.5L188,107.62a2.22,2.22,0,0,0-3.86.08l-1.51,2.74-.29.51a8.15,8.15,0,0,0,.17,8.11l.3.5.13.21,1.5,2.47a2.22,2.22,0,0,0,3.86-.08l1.38-2.49.13-.25ZM187,121.44a.73.73,0,0,1-.64.38.72.72,0,0,1-.63-.36l-1.62-2.67-.31-.51a6.6,6.6,0,0,1-.13-6.6l.28-.52,1.51-2.74a.74.74,0,0,1,1.27,0l1.62,2.68.31.5a6.61,6.61,0,0,1,.13,6.61l-.28.52Z" transform="translate(0.13 0.13)"/><path class="cls-5" d="M156.57,82.81l-.58-.07-3.11-.35h-.09a.74.74,0,0,0-.67,1l1.26,2.87.23.54a6.6,6.6,0,0,0,5.32,3.92l.58.07,3.11.35h.08a.68.68,0,0,1,.6,0h.08l3.11-.35.58-.07a6.6,6.6,0,0,0,5.32-3.92l.23-.54,1.26-2.87a.74.74,0,0,0-.67-1h-.09l-3.11.35-.58.07a6.6,6.6,0,0,0-5.32,3.92l-.23.54-.88,2-.88-2-.23-.54A6.6,6.6,0,0,0,156.57,82.81Z" transform="translate(0.13 0.13)"/><path class="cls-6" d="M175.07,81.89a2.22,2.22,0,0,0-1.86-1h0l-.26,0-3.11.35-.58.06a8.15,8.15,0,0,0-2.8.86l-1.38,2.49a2.22,2.22,0,0,1-3.86.08l-1.5-2.47a8.09,8.09,0,0,0-3-1l-.58-.06-3.11-.35-.26,0a2.24,2.24,0,0,0-2,3.13l.58,1.33.67,1.54.24.54a8,8,0,0,0,2.9,3.46l1,.12.58.06a8.14,8.14,0,0,1,3.65,1.36l2.06.23.25,0,.3,0,.3,0,.25,0,2.06-.23a8.14,8.14,0,0,1,3.65-1.36l.58-.06,1-.12a8,8,0,0,0,2.9-3.46l.24-.54.13-.29.84-2,.28-.63A2.23,2.23,0,0,0,175.07,81.89Zm-13.18,4.84.23.54.88,2,.88-2,.23-.54a6.6,6.6,0,0,1,5.32-3.92l.58-.07,3.11-.35h.09a.74.74,0,0,1,.67,1l-1.26,2.87-.23.54a6.6,6.6,0,0,1-5.32,3.92l-.58.07-3.11.35h-.08a.68.68,0,0,0-.6,0h-.08l-3.11-.35-.58-.07a6.6,6.6,0,0,1-5.32-3.92l-.23-.54-1.26-2.87a.74.74,0,0,1,.67-1h.09l3.11.35.58.07A6.6,6.6,0,0,1,161.89,86.73Z" transform="translate(0.13 0.13)"/><path class="cls-5" d="M170,92.49l-.58.07a6.6,6.6,0,0,0-5.32,3.92l-.23.54L163,99l-.88-2-.23-.54a6.6,6.6,0,0,0-5.32-3.92l-.58-.07-3.11-.35h-.09a.74.74,0,0,0-.67,1L153.38,96l.23.54a6.6,6.6,0,0,0,5.32,3.92l.58.07,3.11.35h.08a.68.68,0,0,1,.6,0h.08l3.11-.35.58-.07a6.6,6.6,0,0,0,5.32-3.92l.23-.54,1.26-2.87a.74.74,0,0,0-.67-1h-.09Z" transform="translate(0.13 0.13)"/><path class="cls-6" d="M173.21,90.63l-.26,0-2.09.23-1,.12-.58.06a8.14,8.14,0,0,0-3.65,1.36A8.22,8.22,0,0,0,163,95.33a8.22,8.22,0,0,0-2.61-2.91,8.14,8.14,0,0,0-3.65-1.36l-.58-.06-1-.12-2.09-.23-.26,0a2.24,2.24,0,0,0-2,3.13L152,96.63l.24.54a7.85,7.85,0,0,0,1.49,2.26,8.45,8.45,0,0,0,1.41,1.2l1,.12.58.06a8.14,8.14,0,0,1,3.65,1.36l2.06.23.25,0,.3,0,.3,0,.25,0,2.06-.23a8.14,8.14,0,0,1,3.65-1.36l.58-.06,1-.12a5.34,5.34,0,0,0,.48-.35h0a8,8,0,0,0,2.42-3.11l.24-.54,1.25-2.87a2.22,2.22,0,0,0-1.87-3.11h0Zm-.09,1.51h.09a.74.74,0,0,1,.67,1L172.62,96l-.23.54a6.6,6.6,0,0,1-5.32,3.92l-.58.07-3.11.35h-.08a.68.68,0,0,0-.6,0h-.08l-3.11-.35-.58-.07a6.6,6.6,0,0,1-5.32-3.92l-.23-.54-1.26-2.87a.74.74,0,0,1,.67-1h.09l3.11.35.58.07a6.6,6.6,0,0,1,5.32,3.92l.23.54.88,2,.88-2,.23-.54a6.6,6.6,0,0,1,5.32-3.92l.58-.07Z" transform="translate(0.13 0.13)"/><path class="cls-5" d="M170,102.24l-.58.07a6.6,6.6,0,0,0-5.32,3.92l-.23.54-.88,2-.88-2-.23-.54a6.6,6.6,0,0,0-5.32-3.92l-.58-.07-3.11-.35h-.09a.74.74,0,0,0-.67,1l1.26,2.87.23.54a6.6,6.6,0,0,0,5.32,3.92l.58.07,2,.23v8.71h3v-8.71l2-.23.58-.07a6.6,6.6,0,0,0,5.32-3.92l.23-.54,1.26-2.87a.74.74,0,0,0-.67-1h-.09Z" transform="translate(0.13 0.13)"/><path class="cls-6" d="M170.86,100.63l-1,.12-.58.06a8.14,8.14,0,0,0-3.65,1.36,8.22,8.22,0,0,0-2.61,2.91,8.22,8.22,0,0,0-2.61-2.91,8.14,8.14,0,0,0-3.65-1.36l-.58-.06-1-.12-1.63-.18-.46,0-.26,0a2.24,2.24,0,0,0-2,3.13l1.25,2.87.13.3.11.24a8.18,8.18,0,0,0,6.52,4.81l.58.07.66.08v7.37a1.5,1.5,0,0,0,1.5,1.5h3a1.5,1.5,0,0,0,1.5-1.5v-7.37l.66-.08.58-.07a7.61,7.61,0,0,0,1.77-.42h0a8.09,8.09,0,0,0,4.75-4.39l.24-.54,1.25-2.87a2.24,2.24,0,0,0-2-3.13l-.26,0-1.67.19h0Zm3,2.28-1.26,2.87-.23.54a6.6,6.6,0,0,1-5.32,3.92l-.58.07-2,.23v8.71h-3v-8.71l-2-.23-.58-.07a6.6,6.6,0,0,1-5.32-3.92l-.23-.54-1.26-2.87a.74.74,0,0,1,.67-1h.09l3.11.35.58.07a6.6,6.6,0,0,1,5.32,3.92l.23.54.88,2,.88-2,.23-.54a6.6,6.6,0,0,1,5.32-3.92l.58-.07,3.11-.35h.09A.74.74,0,0,1,173.88,102.91Z" transform="translate(0.13 0.13)"/><path class="cls-5" d="M163.13,84.32a.73.73,0,0,0,.64-.38l1.51-2.74.28-.52a6.61,6.61,0,0,0-.13-6.61l-.31-.5-1.62-2.68a.74.74,0,0,0-1.27,0l-1.51,2.74-.28.52a6.6,6.6,0,0,0,.13,6.6l.31.51L162.5,84A.72.72,0,0,0,163.13,84.32Z" transform="translate(0.13 0.13)"/><path class="cls-6" d="M161.22,84.74a2.22,2.22,0,0,0,3.86-.08l1.38-2.49.13-.25.29-.52a8.14,8.14,0,0,0-.17-8.1l-.3-.5-1.63-2.68a2.22,2.22,0,0,0-3.86.08l-1.51,2.74-.29.51a8.15,8.15,0,0,0,.17,8.11l.3.5.13.21Zm-.65-4a6.6,6.6,0,0,1-.13-6.6l.28-.52,1.51-2.74a.74.74,0,0,1,1.27,0l1.62,2.68.31.5a6.61,6.61,0,0,1,.13,6.61l-.28.52-1.51,2.74a.73.73,0,0,1-.64.38.72.72,0,0,1-.63-.36l-1.62-2.67Z" transform="translate(0.13 0.13)"/><path class="cls-5" d="M143.07,143.56l-.58-.07-3.11-.35h-.09a.74.74,0,0,0-.67,1l1.26,2.87.23.54a6.6,6.6,0,0,0,5.32,3.92l.58.07,3.11.35h.08a.68.68,0,0,1,.6,0h.08l3.11-.35.58-.07a6.6,6.6,0,0,0,5.32-3.92l.23-.54,1.26-2.87a.74.74,0,0,0-.67-1h-.09l-3.11.35-.58.07a6.6,6.6,0,0,0-5.32,3.92l-.23.54-.88,2-.88-2-.23-.54A6.6,6.6,0,0,0,143.07,143.56Z" transform="translate(0.13 0.13)"/><path class="cls-6" d="M142.66,151.75l.58.06a8.14,8.14,0,0,1,3.65,1.36l2.06.23.25,0,.3,0,.3,0,.25,0,2.06-.23a8.14,8.14,0,0,1,3.65-1.36l.58-.06,1-.12a8,8,0,0,0,2.9-3.46l.24-.54,1.25-2.87a2.24,2.24,0,0,0-2-3.13h0l-.26,0-3.11.35-.58.06a8.15,8.15,0,0,0-2.8.86l-1.38,2.49a2.22,2.22,0,0,1-3.86.08l-1.5-2.47a8.15,8.15,0,0,0-2-.77,8.56,8.56,0,0,0-1-.19l-.58-.06-3.11-.35-.26,0a2.23,2.23,0,0,0-1.72.84h0c0,.06-.1.11-.14.17a2.19,2.19,0,0,0-.32,1.63h0a2.11,2.11,0,0,0,.14.49l1.25,2.87.24.54a8,8,0,0,0,2.9,3.46Zm5.73-4.27.23.54.88,2,.88-2,.23-.54a6.6,6.6,0,0,1,5.32-3.92l.58-.07,3.11-.35h.09a.74.74,0,0,1,.67,1L159.12,147l-.23.54a6.6,6.6,0,0,1-5.32,3.92l-.58.07-3.11.35h-.08a.68.68,0,0,0-.6,0h-.08l-3.11-.35-.58-.07a6.6,6.6,0,0,1-5.32-3.92l-.23-.54-1.26-2.87a.74.74,0,0,1,.67-1h.09l3.11.35.58.07A6.6,6.6,0,0,1,148.39,147.48Z" transform="translate(0.13 0.13)"/><path class="cls-5" d="M146,161.31l3.11.35h.08a.68.68,0,0,1,.6,0h.08l3.11-.35.58-.07a6.6,6.6,0,0,0,5.32-3.92l.23-.54,1.26-2.87a.74.74,0,0,0-.67-1h-.09l-3.11.35-.58.07a6.6,6.6,0,0,0-5.32,3.92l-.23.54-.88,2-.88-2-.23-.54a6.6,6.6,0,0,0-5.32-3.92l-.58-.07-3.11-.35h-.09a.74.74,0,0,0-.67,1l1.26,2.87.23.54a6.6,6.6,0,0,0,5.32,3.92Z" transform="translate(0.13 0.13)"/><path class="cls-6" d="M159.71,151.38l-.26,0-2.09.23-1,.12-.58.06a8.14,8.14,0,0,0-3.65,1.36,8.22,8.22,0,0,0-2.61,2.91,8.22,8.22,0,0,0-2.61-2.91,8.14,8.14,0,0,0-3.65-1.36l-.58-.06-1-.12-2.09-.23-.26,0a2.24,2.24,0,0,0-2,3.13l1.25,2.87.24.54a8.13,8.13,0,0,0,2.9,3.46l1,.12.58.06a8.14,8.14,0,0,1,3.65,1.36l2.06.23.25,0,.3,0,.3,0,.25,0,2.06-.23a8.14,8.14,0,0,1,3.65-1.36l.58-.06,1-.12a8,8,0,0,0,1.31-1.1h0a8,8,0,0,0,1.59-2.36l.24-.54,1.25-2.87a2.2,2.2,0,0,0-1.24-3h0A2.16,2.16,0,0,0,159.71,151.38Zm-19.6,5.94-.23-.54-1.26-2.87a.74.74,0,0,1,.67-1h.09l3.11.35.58.07a6.6,6.6,0,0,1,5.32,3.92l.23.54.88,2,.88-2,.23-.54a6.6,6.6,0,0,1,5.32-3.92l.58-.07,3.11-.35h.09a.74.74,0,0,1,.67,1l-1.26,2.87-.23.54a6.6,6.6,0,0,1-5.32,3.92l-.58.07-3.11.35h-.08a.68.68,0,0,0-.6,0h-.08l-3.11-.35-.58-.07A6.6,6.6,0,0,1,140.11,157.32Z" transform="translate(0.13 0.13)"/><path class="cls-5" d="M156.51,163l-.58.07a6.6,6.6,0,0,0-5.32,3.92l-.23.54-.88,2-.88-2-.23-.54a6.6,6.6,0,0,0-5.32-3.92l-.58-.07-3.11-.35h-.09a.74.74,0,0,0-.67,1l1.26,2.87.23.54a6.6,6.6,0,0,0,5.32,3.92l.58.07,2,.23V180h3v-8.71l2-.23.58-.07a6.6,6.6,0,0,0,5.32-3.92l.23-.54,1.26-2.87a.74.74,0,0,0-.67-1h-.09Z" transform="translate(0.13 0.13)"/><path class="cls-6" d="M157.36,161.38l-1,.12-.58.06a8.14,8.14,0,0,0-3.65,1.36,8.22,8.22,0,0,0-2.61,2.91,8.22,8.22,0,0,0-2.61-2.91,8.14,8.14,0,0,0-3.65-1.36l-.58-.06-1-.12-1.59-.18-.5,0-.26,0a2.24,2.24,0,0,0-2,3.13l1.25,2.87.16.36.08.18a8.19,8.19,0,0,0,6.52,4.81l.58.07.66.08V180a1.5,1.5,0,0,0,1.5,1.5h3a1.5,1.5,0,0,0,1.5-1.5v-7.37l.66-.08.58-.07a7.66,7.66,0,0,0,2.5-.72h0a8.09,8.09,0,0,0,4-4.09l.24-.54,1.25-2.87a2.24,2.24,0,0,0-2-3.13l-.26,0-1,.11h0Zm3,2.28-1.26,2.87-.23.54a6.6,6.6,0,0,1-5.32,3.92l-.58.07-2,.23V180h-3v-8.71l-2-.23-.58-.07a6.6,6.6,0,0,1-5.32-3.92l-.23-.54-1.26-2.87a.74.74,0,0,1,.67-1h.09l3.11.35.58.07a6.6,6.6,0,0,1,5.32,3.92l.23.54.88,2,.88-2,.23-.54a6.6,6.6,0,0,1,5.32-3.92l.58-.07,3.11-.35h.09A.74.74,0,0,1,160.38,163.66Z" transform="translate(0.13 0.13)"/><path class="cls-5" d="M152.06,141.43a6.61,6.61,0,0,0-.13-6.61l-.31-.5L150,131.64a.74.74,0,0,0-1.27,0l-1.51,2.74-.28.52a6.6,6.6,0,0,0,.13,6.6l.31.51,1.62,2.67a.72.72,0,0,0,.63.36.73.73,0,0,0,.64-.38l1.51-2.74Z" transform="translate(0.13 0.13)"/><path class="cls-6" d="M153.38,142.15a8.14,8.14,0,0,0-.17-8.1l-.3-.5-1.63-2.68a2.13,2.13,0,0,0-.71-.72,2.17,2.17,0,0,0-1.2-.36,2.22,2.22,0,0,0-2,1.16l-1.11,2-.4.73-.29.51a8.3,8.3,0,0,0,.17,8.11l.3.5.13.21,1.5,2.47a2.22,2.22,0,0,0,3.86-.08l1.38-2.49.13-.25Zm-3.11,2.54a.73.73,0,0,1-.64.38.72.72,0,0,1-.63-.36L147.38,142l-.31-.51a6.6,6.6,0,0,1-.13-6.6l.28-.52,1.51-2.74a.74.74,0,0,1,1.27,0l1.62,2.68.31.5a6.61,6.61,0,0,1,.13,6.61l-.28.52Z" transform="translate(0.13 0.13)"/><rect class="cls-7" x="0.13" y="0.13" width="250" height="250"/></svg>