<?xml version="1.0" encoding="utf-8"?>
<!-- Generator: Adobe Illustrator 23.0.0, SVG Export Plug-In . SVG Version: 6.00 Build 0)  -->
<svg version="1.1" id="B" xmlns="http://www.w3.org/2000/svg" xmlns:xlink="http://www.w3.org/1999/xlink" x="0px" y="0px"
	 viewBox="0 0 250.3 250.3" style="enable-background:new 0 0 250.3 250.3;" xml:space="preserve">
<style type="text/css">
	.st0{fill:none;}
	.st1{fill:#FEFEFE;}
	.st2{fill:#E6E6E6;}
	.st3{fill:#999999;}
	.st4{fill:#CCCCCC;}
	.st5{fill:#B3B3B3;}
	.st6{fill:#808080;}
	.st7{fill:#666666;}
	.st8{fill:#A6C71E;}
	.st9{fill:#FFFFFF;}
	.st10{fill:#51C1EB;}
	.st11{fill:#7AB829;}
	.st12{fill:#4AAC33;}
	.st13{fill:none;stroke:#000000;stroke-width:0.25;stroke-miterlimit:10;}
</style>
<title>FörtätaStaden KVADRAT_B</title>
<rect x="0.1" y="0.1" class="st0" width="250" height="62.5"/>
<path class="st1" d="M21.4,123l17.7,4.5V99.3l42.9-14.5v59.4l22.6,7.3v46.1h9.5c1.8-1.9,4.2-3.1,6.7-3.5c0-0.1,0-0.2,0-0.3
	c0-7.9,5.6-14.3,12.6-14.3c4.4,0.1,8.4,2.5,10.5,6.3c3.7-6.5,10.2-10.7,17.5-10.7c10.6,0,19.4,8.9,20.8,20.6
	c2.1-4.7,6.3-7.9,11.3-7.9c5.6,0,10.3,4.1,12,9.9h13.3c0-0.1,0-0.1,0-0.1c-0.1-4.3,3.2-7.9,7.6-8.1c1.7,0,3.4,0.7,4.7,1.8
	c2.4-5.9,7.7-10.2,13.9-11.4c0.9-0.2,1.8-0.4,2.8-0.4c0.5,0,1.1,0,1.6,0.1c0.3,0,0.5,0.1,0.8,0.1V62.6H0.1v0.8l21.3,12.1V123z"/>
<path class="st2" d="M244.2,226c0-4.2,2.3-8,5.9-10v-3.3h-15.6l0,0c0,2.7-1.8,5.1-4.3,5.9h1.4v1.4l1.4-0.4l1.6,6l-1.5,0.4l-1.5-5.5
	v7.5h-1.8v5.3h-1.6v-5.3h-2.7v5.3H224v-5.3h-1.8v-7.5l-1.5,5.5l-1.5-0.4l1.6-6l1.4,0.4v-1.3h1.4c-2.6-0.8-4.3-3.2-4.3-5.9l0,0h-11
	c-1.1,0.1-2-0.7-2.1-1.8c-0.1-1.1,0.7-2,1.8-2.1c0.1,0,0.2,0,0.3,0h0.1c-0.1-0.5-0.1-1-0.1-1.4c-0.1-4.3,3.2-7.9,7.5-8.1
	c1.3,0,2.5,0.4,3.6,1c-0.3-0.9-0.5-1.8-0.5-2.7h-13.3c0.4,1.4,0.6,2.9,0.6,4.4c0,0.2,0,0.4,0,0.6c0.5,0.4,0.8,0.9,0.8,1.6
	c0,1.1-0.9,1.9-1.9,1.9c0,0,0,0-0.1,0H202c0,0.7-0.1,1.4-0.3,2c0,0,2.4,2.8-0.3,4.4l0,0v1.6c0,2.5-1.6,4.8-4,5.6h1.3v1.3l1.3-0.4
	l1.5,5.6l-1.4,0.4l-1.4-5.1v7h-1.7v4.9h-1.5v-4.9H193v4.9h-1.5v-4.9h-1.7v-7l-1.4,5.1l-1.4-0.4l1.5-5.6l1.3,0.4v-1.3h1.3
	c-2.4-0.8-4.1-3-4.1-5.6v-1.6c-0.4-0.6-2.3-3.6,0.8-5.3c-0.1-0.4-0.1-0.8-0.1-1.1h-76.2c-1.1,0-1.9-0.9-1.9-2c0-0.8,0.6-1.6,1.4-1.8
	c0.7-1.8,1.8-3.4,3.1-4.8h-9.4v43.9H66.9v3h-4.2v-3H21v3h-4.2v-3H0.1v8.5h250V236C246.5,234,244.2,230.2,244.2,226z M103.7,245.8
	l31.2-38.7h47.3l4.1,38.7H103.7z M218.8,223.9v7.9h-3c-0.6,0.6-1.2,1-2,1.3h0.9v1.2l1.2-0.3l1.4,5.2l-1.3,0.4l-1.3-4.7v6.4h-1.5v4.6
	h-1.4v-4.6h-2.3v4.6h-1.3v-4.6h-1.5v-6.4l-1.3,4.7l-1.3-0.4l1.4-5.2l1.2,0.3v-1.1h0.9c-0.8-0.3-1.4-0.7-2-1.3h-3v-6.8
	c-0.1-0.4-0.1-0.8-0.1-1.1c0-0.4,0-0.8,0.1-1.1v-0.2l0,0c0.8-3.6,4.3-5.8,7.8-5.1c0.9,0.2,1.8,0.6,2.6,1.2l0.1,0.1
	c0.2,0.1,0.3,0.3,0.5,0.4c0.4-0.1,0.9-0.2,1.3-0.2c2.2,0,4.1,1.8,4.1,4c0,0,0,0,0,0C218.9,223.3,218.8,223.6,218.8,223.9
	L218.8,223.9z"/>
<path class="st3" d="M66.8,195.9c1,0.1,2,0.4,3,0.7v-10.1h9.9l2.5,5.9v2.1h-2.5v8.4h-2.8c3.2,6.4,0.6,14.1-5.8,17.2
	c-1.3,0.6-2.6,1-4,1.2v15.7h9.6v-21.9h11.3v21.9h12.6v-82.6l-22.6-7.3V90.8l-34.3,11.6v26.2l23.3,5.9V195.9z M85.8,160.3h9.9
	l2.6,5.9v2.1h-2.6v8.4h-9.9V160.3z M95.7,186.5l2.6,5.9v2.1h-2.6v8.4h-9.9v-16.5H95.7z M79.6,160.3l2.5,5.9v2.1h-2.5v8.4h-9.9v-16.5
	H79.6z M59.1,116.1h-2.8v9.2H45.6v-18h10.8l2.8,6.4V116.1z M63.1,125.3v-18h10.8l2.8,6.4v2.4h-2.8v9.2H63.1z"/>
<path class="st4" d="M52.5,210.4h-8.1v-18h10.8l2.5,5.8c1.4-1,3.1-1.8,4.8-2.1v-58.2l-41-10.4V196c1.9,0.3,3.8,1.1,5.4,2.2v-5.8
	h10.8l2.8,6.4v2.3h-2.8v9.2h-5.5c-0.8,5.6-5.1,10.1-10.7,11v15.8h15.1V219h11.3v18.2h14.7v-15.9C57.2,220.2,53.2,215.8,52.5,210.4z
	 M44.4,143.7h10.8l2.8,6.4v2.3h-2.8v9.2H44.4V143.7z M44.4,168.1h10.8l2.8,6.4v2.3h-2.8v9.2H44.4V168.1z M40.4,176.8h-2.8v9.2H26.8
	v-18h10.8l2.8,6.4V176.8z M40.4,152.5h-2.8v9.2H26.8v-18h10.8l2.8,6.4V152.5z"/>
<path class="st5" d="M16.8,237.2v-15.9c-7-1.4-11.5-8.1-10.2-15.1c0.1-0.7,0.3-1.4,0.6-2.1H3.6v-16.5h9.9l2.6,5.9v2.1h-2.6v1.4
	c1.1-0.6,2.3-1,3.6-1.2V78l-17-9.7v168.9H16.8z M3.6,83h9.9l2.6,5.9v2.2h-2.6v8.4H3.6V83z M3.6,109.3h9.9l2.6,5.9v2.2h-2.6v8.4H3.6
	V109.3z M3.6,135.5h9.9l2.6,5.9v2.1h-2.6v8.4H3.6V135.5z M3.6,161.8h9.9l2.6,5.9v2.1h-2.6v8.4H3.6V161.8z"/>
<polygon class="st6" points="40.4,150.1 37.6,143.7 26.8,143.7 29.3,150.1 "/>
<polygon class="st7" points="29.3,150.1 29.3,152.5 37.6,152.5 40.4,152.5 40.4,150.1 "/>
<polygon class="st6" points="57.9,150.1 55.2,143.7 44.4,143.7 46.8,150.1 "/>
<polygon class="st7" points="46.8,150.1 46.8,152.5 55.2,152.5 57.9,152.5 57.9,150.1 "/>
<polygon class="st6" points="40.4,174.5 37.6,168.1 26.8,168.1 29.3,174.5 "/>
<polygon class="st7" points="29.3,174.5 29.3,176.8 37.6,176.8 40.4,176.8 40.4,174.5 "/>
<polygon class="st6" points="57.9,174.5 55.2,168.1 44.4,168.1 46.8,174.5 "/>
<polygon class="st7" points="46.8,174.5 46.8,176.8 55.2,176.8 57.9,176.8 57.9,174.5 "/>
<polygon class="st6" points="45.6,107.3 48,113.8 59.1,113.8 56.3,107.3 "/>
<polygon class="st7" points="48,113.8 48,116.1 56.3,116.1 59.1,116.1 59.1,113.8 "/>
<polygon class="st6" points="76.7,113.8 73.9,107.3 63.1,107.3 65.6,113.8 "/>
<polygon class="st7" points="65.6,113.8 65.6,116.1 73.9,116.1 76.7,116.1 76.7,113.8 "/>
<polygon class="st6" points="29.3,198.9 40.4,198.9 37.6,192.4 26.8,192.4 "/>
<path class="st7" d="M40.4,201.2v-2.3H29.3v1.7c0.2,0.2,0.3,0.4,0.5,0.7H40.4z"/>
<path class="st6" d="M46.9,198.9h10c0.3-0.2,0.5-0.4,0.8-0.6l-2.5-5.8H44.4L46.9,198.9z"/>
<path class="st7" d="M46.9,198.9v2.3h7.9c0.6-0.9,1.3-1.7,2.2-2.3H46.9z"/>
<polygon class="st6" points="82.2,192.4 79.6,186.5 69.7,186.5 72,192.4 "/>
<polygon class="st7" points="72,192.4 72,194.6 79.6,194.6 82.2,194.6 82.2,192.4 "/>
<polygon class="st6" points="98.3,192.4 95.7,186.5 85.8,186.5 88.1,192.4 "/>
<polygon class="st7" points="88.1,192.4 88.1,194.6 95.7,194.6 98.3,194.6 98.3,192.4 "/>
<polygon class="st6" points="72,166.2 82.2,166.2 79.6,160.3 69.7,160.3 "/>
<polygon class="st7" points="72,166.2 72,168.3 79.6,168.3 82.2,168.3 82.2,166.2 "/>
<polygon class="st6" points="98.3,166.2 95.7,160.3 85.8,160.3 88.1,166.2 "/>
<polygon class="st7" points="88.1,166.2 88.1,168.3 95.7,168.3 98.3,168.3 98.3,166.2 "/>
<polygon class="st6" points="16.1,115.2 13.5,109.3 3.6,109.3 5.9,115.2 "/>
<polygon class="st7" points="5.9,115.2 5.9,117.3 13.5,117.3 16.1,117.3 16.1,115.2 "/>
<polygon class="st6" points="16.1,88.9 13.5,83 3.6,83 5.9,88.9 "/>
<polygon class="st7" points="5.9,88.9 5.9,91.1 13.5,91.1 16.1,91.1 16.1,88.9 "/>
<polygon class="st6" points="16.1,193.6 13.5,187.7 3.6,187.7 5.9,193.6 "/>
<polygon class="st7" points="5.9,193.6 5.9,195.8 13.5,195.8 16.1,195.8 16.1,193.6 "/>
<polygon class="st6" points="16.1,167.7 13.5,161.8 3.6,161.8 5.9,167.7 "/>
<polygon class="st7" points="5.9,167.7 5.9,169.8 13.5,169.8 16.1,169.8 16.1,167.7 "/>
<polygon class="st6" points="16.1,141.4 13.5,135.5 3.6,135.5 5.9,141.4 "/>
<polygon class="st7" points="5.9,141.4 5.9,143.6 13.5,143.6 16.1,143.6 16.1,141.4 "/>
<path class="st8" d="M193.5,187.8c-4.9,0-9.2,3.2-11.3,7.9c-1.4-11.6-10.1-20.5-20.8-20.5c-7.4,0-13.8,4.3-17.6,10.8
	c-2.1-3.8-6.1-6.2-10.5-6.3c-7,0-12.6,6.4-12.6,14.3c0,0.1,0,0.2,0,0.3c-2.6,0.4-4.9,1.6-6.7,3.5c-1.3,1.4-2.4,3-3.1,4.8
	c0.2-0.1,0.4-0.1,0.6-0.1h81.5c1.5-1.2,3.4-1.4,5.1-0.5c0.1,0.1,0.1,0.2,0.1,0.3c0,0,0,0.1-0.1,0.1l-0.2,0.1h6.9
	c0.4,0,0.8,0.1,1.1,0.4c0-0.2,0-0.4,0-0.6c0-1.5-0.2-3-0.6-4.4C203.9,191.9,199.1,187.8,193.5,187.8z"/>
<path class="st7" d="M134.9,207l-31.2,38.7h82.5l-4.1-38.7H134.9z M176.1,219.9h-4l2.2,3.7h1.4V235c0,0.6-0.5,1.1-1.1,1.1h0h-0.4
	v4.2h-6.4v-4.2h-28.5v4.2H133v-4.2c-0.8,0-1.5-0.7-1.5-1.5c0,0,0,0,0,0v-10.9h1.4l2.2-3.7h-4v-2.4c0-1.1,0.9-1.9,1.9-1.9
	c0,0,0,0,0,0h3.3v2.2l4.2-7.1h26.2l4.2,7.1v-2.2h3.3c1.1,0,1.9,0.9,1.9,1.9c0,0,0,0,0,0L176.1,219.9z"/>
<path class="st5" d="M174.2,215.6h-3.3v2.2l-4.2-7.1h-26.2l-4.2,7.1v-2.2H133c-1.1,0-1.9,0.9-1.9,1.9c0,0,0,0,0,0v2.4h4l-2.2,3.7
	h-1.4v10.9c0,0.8,0.7,1.5,1.5,1.5c0,0,0,0,0,0v4.2h6.4v-4.2h28.5v4.2h6.4v-4.2h0.4c0.6,0,1.1-0.5,1.1-1.1v0v-11.4h-1.4l-2.2-3.7h4
	v-2.4C176.2,216.4,175.3,215.6,174.2,215.6C174.3,215.6,174.2,215.6,174.2,215.6z M142.8,213.4c0.3-0.4,0.8-0.7,1.3-0.7h19
	c0.5,0,1,0.3,1.3,0.7l2.6,3.9h-26.9L142.8,213.4z M135.2,226l0.3-4l4.8,1.1l0.8,2.9L135.2,226z M163.2,226.3l-0.9,1.6
	c-0.2,0.4-0.7,0.7-1.2,0.7h-15c-0.5,0-1-0.3-1.2-0.7l-0.9-1.6c-0.3-0.6-0.2-1.4,0.4-1.8l0.3-0.2c0.2-0.2,0.5-0.3,0.8-0.3h16.3
	c0.3,0,0.6,0.1,0.8,0.3l0.3,0.2C163.5,224.9,163.6,225.7,163.2,226.3L163.2,226.3z M166,226l0.8-2.9l4.8-1.1l0.3,4L166,226z"/>
<g>
	<polygon class="st9" points="82.1,84.8 39.1,99.3 39.1,127.5 43.4,128.6 43.4,102.4 77.8,90.8 77.8,147.3 100.4,154.6 100.4,237.2 
		87.8,237.2 87.8,215.4 76.5,215.4 76.5,237.2 66.9,237.2 66.9,241.5 104.7,241.5 104.7,197.6 104.7,151.5 82.1,144.2 	"/>
	<path class="st9" d="M21.4,123V75.6L0.1,63.4v4.9l17,9.7v118c0.7-0.1,1.5-0.2,2.2-0.2c0.7,0,1.4,0.1,2.1,0.2v-68.5l41,10.4v58.3
		c0.9-0.2,1.8-0.3,2.7-0.3c0.5,0,1,0,1.6,0.1v-61.4l-23.3-5.9l-4.3-1.1L21.4,123z"/>
	<polygon class="st9" points="62.5,237.2 47.8,237.2 47.8,237.8 36.5,237.8 36.5,237.8 47.8,237.8 47.8,237.2 47.8,219 36.5,219 
		36.5,237.2 21.4,237.2 21.4,221.4 21,221.5 21,241.5 21.4,241.5 21.4,241.5 62.7,241.5 62.7,221.4 62.5,221.3 	"/>
	<polygon class="st9" points="0.1,241.5 16.3,241.5 16.8,241.5 16.8,237.2 0.1,237.2 	"/>
	<polygon class="st9" points="26.8,143.7 26.8,161.7 37.6,161.7 37.6,152.5 29.3,152.5 29.3,150.1 	"/>
	<polygon class="st9" points="44.4,143.7 44.4,161.7 55.2,161.7 55.2,152.5 46.8,152.5 46.8,150.1 	"/>
	<polygon class="st9" points="26.8,186 37.6,186 37.6,176.8 29.3,176.8 29.3,174.5 26.8,168.1 	"/>
	<polygon class="st9" points="44.4,186 55.2,186 55.2,176.8 46.8,176.8 46.8,174.5 44.4,168.1 	"/>
	<polygon class="st9" points="45.6,107.3 45.6,125.3 56.3,125.3 56.3,116.1 48,116.1 48,113.8 	"/>
	<polygon class="st9" points="63.1,107.3 63.1,125.3 73.9,125.3 73.9,116.1 65.6,116.1 65.6,113.8 	"/>
	<path class="st9" d="M37.6,210.4v-9.2h-7.8c1.6,2.2,2.4,4.8,2.4,7.5c0,0.6,0,1.1-0.1,1.7H37.6z"/>
	<path class="st9" d="M26.8,198.3c0.9,0.7,1.8,1.4,2.5,2.3v-1.7l-2.5-6.4V198.3z"/>
	<path class="st9" d="M44.4,210.5h8.1c-0.1-0.6-0.1-1.1-0.1-1.7c0-2.7,0.8-5.3,2.4-7.5h-7.9v-2.3l-2.5-6.4V210.5z"/>
	<path class="st9" d="M69.7,186.5v10.1c3.1,1.2,5.6,3.4,7.1,6.4h2.8v-8.4H72v-2.1L69.7,186.5z"/>
	<polygon class="st9" points="85.8,203 95.7,203 95.7,194.6 88.1,194.6 88.1,192.4 85.8,186.5 	"/>
	<polygon class="st9" points="72,166.2 69.7,160.3 69.7,176.8 79.6,176.8 79.6,168.3 72,168.3 	"/>
	<polygon class="st9" points="85.8,160.3 85.8,176.8 95.7,176.8 95.7,168.3 88.1,168.3 88.1,166.2 	"/>
	<polygon class="st9" points="3.6,125.8 13.5,125.8 13.5,117.3 5.9,117.3 5.9,115.2 3.6,109.3 	"/>
	<polygon class="st9" points="3.6,83 3.6,99.5 13.5,99.5 13.5,91.1 5.9,91.1 5.9,88.9 	"/>
	<path class="st9" d="M3.6,187.7v16.5h3.6c1.2-3,3.4-5.5,6.3-7v-1.5H5.9v-2.2L3.6,187.7z"/>
	<polygon class="st9" points="3.6,178.3 13.5,178.3 13.5,169.8 5.9,169.8 5.9,167.7 3.6,161.8 	"/>
	<polygon class="st9" points="3.6,152 13.5,152 13.5,143.6 5.9,143.6 5.9,141.4 3.6,135.5 	"/>
	<path class="st9" d="M162.6,224.3c-0.2-0.2-0.5-0.3-0.8-0.3h-16.3c-0.3,0-0.6,0.1-0.8,0.3l-0.3,0.2c-0.6,0.4-0.7,1.2-0.4,1.8
		l0.9,1.6c0.3,0.4,0.7,0.7,1.2,0.7h15c0.5,0,1-0.3,1.2-0.7l0.9-1.6c0.3-0.6,0.2-1.4-0.4-1.8L162.6,224.3z"/>
	<polygon class="st9" points="135.6,222 135.2,226 141.2,226 140.4,223.1 	"/>
	<polygon class="st9" points="171.7,222 166.9,223.1 166.1,226 172,226 	"/>
	<path class="st9" d="M164.5,213.4c-0.3-0.4-0.8-0.7-1.3-0.7h-19.1c-0.5,0-1,0.3-1.3,0.7l-2.6,3.9h26.9L164.5,213.4z"/>
</g>
<path class="st8" d="M247.8,179.5c-0.9,0-1.9,0.1-2.8,0.4c-6.2,1.2-11.5,5.5-13.9,11.4c-1.3-1.2-3-1.8-4.7-1.8
	c-4.3,0.1-7.7,3.8-7.6,8.1c0,0,0,0.1,0,0.1c0,0.9,0.2,1.8,0.5,2.7c-1.1-0.6-2.3-1-3.6-1c-4.3,0.2-7.7,3.8-7.5,8.1
	c0,0.5,0.1,1,0.1,1.4h11c0.3-1.8,1.4-3.3,2.9-4.3c-0.1-0.2-0.2-0.3-0.2-0.5c-0.6-1.8,2.4-2.5,2.4-2.5s6.1-1.9,7.9,3.5
	c1.2,1,1.9,2.3,2.2,3.8h15.7v-29.2c-0.3,0-0.5-0.1-0.8-0.1C248.8,179.5,248.3,179.5,247.8,179.5z"/>
<path class="st8" d="M231.7,204.7c-0.2-0.1-0.4-0.3-0.6-0.3C231.3,204.5,231.5,204.6,231.7,204.7L231.7,204.7z"/>
<path class="st10" d="M219.3,208.9h-11.1c-1.1-0.1-2,0.7-2.1,1.8c-0.1,1.1,0.7,2,1.8,2.1c0.1,0,0.2,0,0.3,0h11V210
	C219.2,209.6,219.2,209.2,219.3,208.9z"/>
<path class="st10" d="M234.6,210v2.8h15.6v-3.9h-15.7C234.5,209.2,234.5,209.6,234.6,210z"/>
<path class="st10" d="M190.5,202.5c0.1,0,0.2,0.1,0.3,0.2c0,0,0,0.1,0,0.1c-0.3,0.5-0.4,1.1-0.3,1.7c0.1,0.5,1.1-1,2.6-2.1h-81.6
	c-0.2,0-0.4,0-0.6,0.1c-1,0.3-1.6,1.4-1.3,2.4c0.3,0.8,1,1.4,1.8,1.4h76.2C187.7,204.9,188.1,202.8,190.5,202.5z"/>
<path class="st10" d="M198,202.3c-0.6,0.4-1.5,1.1-1.5,1.4s5.5-1.7,5.5,2.5h2.9c1.1,0,2-0.8,2-1.9c0,0,0,0,0-0.1
	c0-0.6-0.3-1.2-0.8-1.6c-0.3-0.2-0.7-0.4-1.1-0.4L198,202.3z"/>
<path class="st11" d="M244.2,226c0,4.2,2.3,8,5.9,9.9v-5.4c-3-2.4-3.4-6.9-1-9.9c0.3-0.4,0.6-0.7,1-1v-3.6
	C246.5,218,244.2,221.9,244.2,226z"/>
<path class="st11" d="M247.5,225.1c0,2.1,1,4.1,2.6,5.4v-10.8C248.5,221,247.5,223,247.5,225.1z"/>
<path class="st8" d="M19.3,217.4c4.8,0,8.7-3.9,8.7-8.7c0-4.8-3.9-8.7-8.7-8.7s-8.7,3.9-8.7,8.7S14.5,217.4,19.3,217.4
	C19.3,217.4,19.3,217.4,19.3,217.4z"/>
<path class="st8" d="M65.2,217.4c4.8,0,8.7-3.9,8.7-8.7S70,200,65.2,200c-4.8,0-8.7,3.9-8.7,8.7c0,0,0,0,0,0
	C56.5,213.5,60.4,217.4,65.2,217.4z"/>
<g>
	<path class="st12" d="M29.3,200.6c-0.7-0.9-1.6-1.7-2.5-2.3c-1.6-1.2-3.5-1.9-5.4-2.2c-0.7-0.1-1.4-0.2-2.1-0.2
		c-0.7,0-1.5,0.1-2.2,0.2c-1.3,0.2-2.5,0.6-3.6,1.2c-2.9,1.5-5.1,4-6.3,7c-2.5,6.7,0.9,14.1,7.5,16.6c0.7,0.3,1.4,0.5,2.1,0.6v15.8
		v4.3v3H21v-3v-20l0.4-0.1c5.6-0.9,9.9-5.4,10.7-11c0.1-0.6,0.1-1.1,0.1-1.7c0-2.7-0.8-5.3-2.4-7.5
		C29.6,201.1,29.5,200.8,29.3,200.6z M19.3,217.4c-4.8,0-8.7-3.9-8.7-8.7c0,0,0,0,0,0c0-4.8,3.9-8.7,8.7-8.7c4.8,0,8.7,3.9,8.7,8.7
		C28,213.5,24.1,217.4,19.3,217.4z"/>
	<path class="st12" d="M78.1,208.7c0-5.4-3.4-10.2-8.4-12.1c-1.4-0.5-3-0.8-4.5-0.8c-0.9,0-1.8,0.1-2.7,0.3
		c-1.7,0.4-3.4,1.1-4.8,2.1c-0.3,0.2-0.5,0.4-0.8,0.6c-2.9,2.4-4.6,6-4.6,9.8c0,0.6,0,1.1,0.1,1.7c0.7,5.4,4.7,9.7,10,10.9l0.3,0.1
		v-1.9h0v1.9v20.1v3h4.2v-3v-4.3v-15.7C73.3,220.7,78.1,215.2,78.1,208.7z M65.2,217.4c-4.8,0-8.7-3.9-8.7-8.7c0,0,0,0,0,0
		c0-4.8,3.9-8.7,8.7-8.7h0c4.8,0,8.7,3.9,8.7,8.7C73.9,213.5,70.1,217.4,65.2,217.4z"/>
</g>
<polygon class="st6" points="188.5,220.7 187,226.3 188.4,226.7 189.8,221.6 189.8,221 "/>
<polygon class="st6" points="200,226.7 201.4,226.3 199.9,220.7 198.6,221 198.6,221.6 "/>
<path class="st6" d="M196.6,203.8c0-0.3,0.9-1,1.5-1.4l0.2-0.1c0.1-0.1,0.1-0.2,0.1-0.3c0,0,0-0.1-0.1-0.1c-1.7-0.8-3.7-0.6-5.1,0.5
	c-1.6,1.1-2.5,2.6-2.6,2.1c-0.1-0.6,0-1.1,0.3-1.7c0.1-0.1,0-0.2-0.1-0.3c0,0-0.1,0-0.1,0c-2.4,0.3-2.8,2.4-2.8,3.8
	c0,0.4,0,0.8,0.1,1.1c-3,1.6-1.2,4.6-0.8,5.3v1.6c0,2.5,1.6,4.8,4.1,5.6h-1.3v8.8h1.7v4.9h1.5v-4.9h2.5v4.9h1.5v-4.9h1.7v-8.8h-1.3
	c2.4-0.8,4-3,4-5.6v-1.6l0,0c2.7-1.6,0.3-4.4,0.3-4.4c0.2-0.6,0.3-1.3,0.3-2C202,202,196.6,204.1,196.6,203.8z"/>
<polygon class="st6" points="205.4,233.9 204,239.1 205.3,239.5 206.6,234.8 206.6,234.3 "/>
<polygon class="st6" points="215.9,239.5 217.3,239.1 215.9,233.9 214.7,234.3 214.7,234.8 "/>
<path class="st6" d="M214.8,218.9c-0.4,0-0.9,0.1-1.3,0.2c-0.1-0.1-0.3-0.3-0.5-0.4l-0.1-0.1c-2.9-2.2-7-1.6-9.2,1.3
	c-0.6,0.8-1,1.6-1.2,2.6l0,0v0.2c-0.1,0.4-0.1,0.8-0.1,1.1c0,0.4,0,0.8,0.1,1.1v6.8h3c0.6,0.6,1.2,1,2,1.3h-0.9v8.1h1.5v4.6h1.4
	v-4.6h2.3v4.6h1.3v-4.6h1.5v-8.1h-0.9c0.8-0.3,1.4-0.7,2-1.3h3v-7.9c0.1-0.3,0.1-0.6,0.1-0.9C218.9,220.8,217.1,218.9,214.8,218.9
	C214.9,218.9,214.8,218.9,214.8,218.9z"/>
<polygon class="st6" points="220.8,219.7 219.2,225.8 220.7,226.2 222.2,220.7 222.2,220.1 "/>
<polygon class="st6" points="233.1,226.2 234.6,225.8 233,219.7 231.6,220.1 231.6,220.7 "/>
<path class="st6" d="M234.5,208.9c-0.3-1.5-1-2.8-2.2-3.8c-1.7-5.4-7.9-3.5-7.9-3.5s-3,0.8-2.4,2.5c0.1,0.2,0.1,0.4,0.2,0.5
	c-1.5,0.9-2.6,2.5-2.9,4.3c-0.1,0.4-0.1,0.7-0.1,1.1v2.9c0,2.7,1.8,5.1,4.3,5.9h-1.4v9.4h1.8v5.3h1.6v-5.3h2.7v5.3h1.6v-5.3h1.8
	v-9.4h-1.4c2.6-0.8,4.3-3.2,4.3-5.9V210C234.5,209.6,234.5,209.2,234.5,208.9z M231.7,204.7l0.1,0.1c-0.2-0.1-0.5-0.3-0.7-0.4
	C231.3,204.4,231.5,204.5,231.7,204.7L231.7,204.7z"/>
<rect x="0.1" y="0.1" class="st13" width="250" height="250"/>
</svg>
