<svg id="B" xmlns="http://www.w3.org/2000/svg" viewBox="0 0 250.25 250.25"><defs><style>.cls-1,.cls-9{fill:none;}.cls-2{fill:#a4c621;}.cls-3{fill:#4cac33;}.cls-4{fill:#35a8e0;}.cls-5{fill:#ffea0f;}.cls-6{fill:#4aac33;}.cls-7{fill:#74cdef;}.cls-8{fill:#0071bc;}.cls-9{stroke:#000;stroke-miterlimit:10;stroke-width:0.25px;}</style></defs><title>AnpassaJordbruketTillTorka KVADRAT_B</title><polygon class="cls-1" points="124.26 118.48 133.22 89.32 133.22 89.32 124.26 118.48 124.26 118.48"/><polygon class="cls-1" points="67.63 104.36 46.21 155.07 46.21 155.07 67.63 104.36 67.63 104.36"/><polygon class="cls-1" points="23.85 249.88 27.14 241.73 27.14 241.73 23.85 249.88"/><polygon class="cls-1" points="87.17 156.15 110.03 91.82 110.03 91.82 87.17 156.15 87.17 156.15"/><polygon class="cls-1" points="6.16 249.88 9.65 241.62 9.65 241.62 6.16 249.88"/><polygon class="cls-1" points="53.84 249.88 56.68 241.91 56.68 241.91 53.84 249.88"/><polygon class="cls-1" points="175.41 100.71 175.41 100.71 175.47 100.41 175.47 100.41 175.41 100.71"/><polygon class="cls-1" points="177.5 90.78 178.36 86.71 178.36 86.71 177.5 90.78 177.5 90.78"/><polygon class="cls-1" points="86.3 95.07 61.93 155.48 61.93 155.48 86.3 95.07 86.3 95.07"/><polygon class="cls-1" points="164.64 151.68 164.64 151.68 173.14 111.44 173.14 111.44 164.64 151.68"/><polygon class="cls-1" points="242.16 126.82 242.16 126.82 238.13 187.84 238.13 187.84 242.16 126.82"/><polygon class="cls-1" points="141.21 86.37 141.23 86.28 141.21 86.37 141.21 86.37"/><polygon class="cls-1" points="155.97 87.58 155.97 87.58 154.36 93.79 154.36 93.79 155.97 87.58"/><polygon class="cls-1" points="153.2 98.25 153.2 98.25 141.7 142.6 141.7 142.6 153.2 98.25"/><polygon class="cls-1" points="162.59 161.38 162.59 161.38 162.79 160.41 162.79 160.41 162.59 161.38"/><polygon class="cls-1" points="191.85 139.92 191.69 140.91 191.69 140.91 191.85 139.92 191.85 139.92"/><polygon class="cls-1" points="192.51 182.48 196.94 148.72 196.94 148.72 192.51 182.48 192.51 182.48"/><polygon class="cls-1" points="237.71 194.14 237.71 194.14 237.6 195.84 237.6 195.84 237.71 194.14"/><polygon class="cls-1" points="203.74 96.97 203.74 96.97 200.91 118.55 200.91 118.55 203.74 96.97"/><polygon class="cls-1" points="205.05 86.99 205.05 86.99 204.27 92.92 204.27 92.92 205.05 86.99"/><polygon class="cls-1" points="154.08 249.88 182.12 90.97 182.12 90.97 154.08 249.88"/><polygon class="cls-1" points="183.04 193.94 182.91 194.76 182.91 194.76 183.04 193.94 183.04 193.94"/><polygon class="cls-1" points="182.88 86.65 182.88 86.65 182.58 88.39 182.58 88.39 182.88 86.65"/><polygon class="cls-1" points="199.62 128.35 199.62 128.35 199.78 127.15 199.78 127.15 199.62 128.35"/><polygon class="cls-1" points="188.84 158.38 188.84 158.38 186.59 172.19 186.59 172.19 188.84 158.38"/><polygon class="cls-1" points="198.32 138.25 198.32 138.25 198.32 138.2 198.32 138.2 198.32 138.25"/><polygon class="cls-1" points="227.18 88.7 227.18 88.7 225.02 113.8 225.02 113.8 227.18 88.7"/><polygon class="cls-1" points="113.86 249.88 141.23 144.4 141.23 144.4 113.86 249.88"/><polygon class="cls-1" points="173.92 249.88 179.92 213.07 179.92 213.07 173.92 249.88"/><polygon class="cls-1" points="138.62 86.56 138.62 86.56 138.65 86.47 138.62 86.56"/><polygon class="cls-1" points="221.99 149.1 221.99 149.1 224.69 117.61 224.69 117.61 221.99 149.1"/><polygon class="cls-1" points="143.89 249.88 160.16 172.88 160.16 172.88 143.89 249.88"/><polygon class="cls-1" points="213.33 249.88 218.62 188.29 218.62 188.29 213.33 249.88"/><polygon class="cls-1" points="83.85 249.88 122.69 123.56 122.69 123.56 83.85 249.88"/><polygon class="cls-1" points="183.66 249.88 188.49 213.13 188.49 213.13 183.66 249.88"/><polygon class="cls-1" points="234.02 249.88 235.65 225.27 235.65 225.27 234.02 249.88"/><polygon class="cls-1" points="195.22 119.25 200.5 86.83 200.5 86.83 195.22 119.25 195.22 119.25"/><path class="cls-1" d="M5.79,94.61A19.08,19.08,0,0,1,17.94,81.36a10.19,10.19,0,0,1,2.66-.76,10.69,10.69,0,0,1,1.59-.1A18.15,18.15,0,0,1,34.33,84a10.69,10.69,0,0,1,6.39-3.41c6-.86,11.64,3.53,12.82,9.86a10.94,10.94,0,0,1,3.91.94,10.83,10.83,0,0,1,7-4.14h.16A37.42,37.42,0,0,1,68,85h0a1.32,1.32,0,0,1,1.82.47,1.33,1.33,0,0,1-.47,1.82l-.16.08-.46.21a11.83,11.83,0,0,1,7.54,6.51q3.92-.63,7.85-1.22l3-.47.11-.25,3.86-.56.4-.06,3.8-.52-.09.23,5-.66a2.57,2.57,0,0,1,3.06-4.11,38.72,38.72,0,0,1,3.73,2.77,2.38,2.38,0,0,1,.41.43l3.33-.41.08-.22,3.73-.42.3,0,3.68-.4-.06.19q7.64-.84,15.31-1.51l0-.12,3.62-.29.22,0,.81-.06.79-.06,1-.07.78-.06h.19l0,.09.43,0a2.66,2.66,0,0,1,.42-1.9q1.32-1.92,2.67-3.83a2.61,2.61,0,0,1,4.29,3l-.1.16-1.53,2.19c2.62-.17,5.25-.33,7.88-.46L154.75,84a2.24,2.24,0,0,1,2-3.13l.26,0,3.11.35.58.06a8.09,8.09,0,0,1,3,1l-.13-.21-.3-.5a8.15,8.15,0,0,1-.17-8.11l.29-.51,1.51-2.74h0l0,0a2.33,2.33,0,0,1-1.8-4.3l.11,0h0a29.36,29.36,0,0,1,4.7-1.26,2.21,2.21,0,0,1,.9,4.33h0c-.36.09-.7.2-1.05.3a2.16,2.16,0,0,1,1.05.89l1.63,2.68.3.5a8.14,8.14,0,0,1,.17,8.1l-.29.52-.13.25a8.15,8.15,0,0,1,2.8-.86l.58-.06L177,80.9l.26,0h0a2.24,2.24,0,0,1,2,3.13l-.28.63q3.71,0,7.39,0c8.06.1,16.11.4,24.14,1s16,1.46,23.92,2.68q3.22.53,6.43,1.11c.68-.77,1.4-1.53,2.16-2.25a2.16,2.16,0,0,1,.52-.35l.89-1.61a2.22,2.22,0,0,1,3.86-.08l1.63,2.68L250,88V85a1.56,1.56,0,0,1-.16-.28,2,2,0,0,1,.16-1.88V0H0V93.65a7.34,7.34,0,0,1,.84-.18A7.18,7.18,0,0,1,5.79,94.61ZM199,80.86a.23.23,0,0,1,.32,0s0,0,0,0c.41.65.8,1.3,1.19,2L199,81.18h0A.22.22,0,0,1,199,80.86ZM188.44,71a1.22,1.22,0,0,1,1.68-.41l.12.08h0a40.36,40.36,0,0,1,3.43,3.09.93.93,0,0,1-1.23,1.39,37.85,37.85,0,0,0-3.6-2.49A1.22,1.22,0,0,1,188.44,71Zm-13.13-4.7a1.89,1.89,0,0,1,2.1-1.66l.12,0h0a25.78,25.78,0,0,1,4.6,1.32,1.7,1.7,0,0,1-1.06,3.22h0a29,29,0,0,0-4.09-.8A1.89,1.89,0,0,1,175.31,66.32ZM151,73.5l0,0a41.29,41.29,0,0,1,3.67-3,2.51,2.51,0,0,1,3,4h0a37.75,37.75,0,0,0-3.18,2.75A2.56,2.56,0,0,1,151,73.5ZM87.73,82.77a2.34,2.34,0,0,1,2.69-1.71A30.91,30.91,0,0,1,95,82.28h0a2.44,2.44,0,0,1-1.6,4.6l-.08,0a34.68,34.68,0,0,0-3.86-1.24h0A2.33,2.33,0,0,1,87.73,82.77ZM76.51,81.46a33.61,33.61,0,0,1,4.57-.8h0a2,2,0,1,1,.42,4h-.17a29.46,29.46,0,0,0-4.09.37h0a1.82,1.82,0,0,1-.73-3.57Z" transform="translate(0.13 0.13)"/><polygon class="cls-1" points="18.29 111.29 0.13 146.45 0.13 146.45 18.29 111.29 18.29 111.29"/><polygon class="cls-1" points="185.04 89.04 185.4 86.63 185.4 86.63 185.04 89.04 185.04 89.04"/><polygon class="cls-1" points="34.16 109.02 0.13 177.27 0.13 177.27 34.16 109.02 34.16 109.02"/><polygon class="cls-2" points="70.52 97.53 70.52 97.53 68.58 102.11 68.58 102.11 70.52 97.53"/><polygon class="cls-2" points="20.59 106.83 20.59 106.83 18.29 111.29 18.29 111.29 20.59 106.83"/><polygon class="cls-2" points="34.16 109.02 36.88 103.58 36.88 103.58 34.16 109.02 34.16 109.02"/><path class="cls-2" d="M12.26,106.19l4.38-1,.9-.2,4.28-.93-.09.18q8.11-1.74,16.29-3.35l.11-.23,4.19-.83.69-.14,4.1-.79-.11.24q7.24-1.36,14.53-2.64L63,96.27l.12-.27,4-.69.53-.09,3.94-.66-.11.26,4.84-.77a11.83,11.83,0,0,0-7.54-6.51,37.36,37.36,0,0,0-3.37,1.64A1,1,0,0,1,64,88.8a1,1,0,0,1,.27-1.31l.34-.24h-.16a10.83,10.83,0,0,0-7,4.14,10.94,10.94,0,0,0-3.91-.94c-1.18-6.33-6.8-10.72-12.82-9.86A10.69,10.69,0,0,0,34.33,84,18.15,18.15,0,0,0,22.19,80.5a10.69,10.69,0,0,0-1.59.1,10.19,10.19,0,0,0-2.66.76A19.08,19.08,0,0,0,5.79,94.61,7.18,7.18,0,0,0,.84,93.47a7.34,7.34,0,0,0-.84.18v15.49q6.07-1.41,12.17-2.78ZM57.91,93.7a.25.25,0,1,1,.4.31l0,0h0c-.58.49-1.16,1-1.76,1.46C57,94.9,57.44,94.3,57.91,93.7Z" transform="translate(0.13 0.13)"/><path class="cls-3" d="M27,241.6l-17.5-.11L6,249.75l-.1.25h17.7l.1-.25Z" transform="translate(0.13 0.13)"/><path class="cls-3" d="M70.39,97.41,68.46,102l.54-.26a1,1,0,1,1,.83,1.71l-.11,0-.07,0-2.14.73L46.09,154.94l15.71.42L86.17,95Q78.27,96.1,70.39,97.41Zm10,4.14h-.21l-3.54.39h-.11a1.3,1.3,0,0,1-.37-2.57l3.72-.67a1.43,1.43,0,0,1,.51,2.82Z" transform="translate(0.13 0.13)"/><path class="cls-3" d="M71.48,94.82h0q6.33-1,12.69-2-3.93.58-7.85,1.22Z" transform="translate(0.13 0.13)"/><path class="cls-3" d="M122.57,123.44l-.4-.68-.06-.1a1.45,1.45,0,0,1-.07-1.28l-.11-.32,0-.1a2,2,0,0,1,1.26-2.53,1.83,1.83,0,0,1,1-.07l9-29.16q-7.69.7-15.38,1.58l-2.39,7.3c.32.43.66.86,1,1.3a2.55,2.55,0,0,1-2.72,4l-1.23,3.76a1.82,1.82,0,0,1-1.07,3.26L94.84,160.61a7.45,7.45,0,0,1,.47,4.41l-20.13,63.5a16.45,16.45,0,0,1-5.72,9.55l-3.83,11.68-.08.25h18.1l.07-.25ZM115.45,112a1.74,1.74,0,0,1,2.45.07l0,.06.15.17c-.49-.94-1-1.88-1.46-2.83l-.07-.13a2.43,2.43,0,0,1,4.33-2.2l0,.08c.64,1.36,1.27,2.74,1.88,4.11a2.32,2.32,0,0,1-1.17,3.06,2.28,2.28,0,0,1-1.64.09l.45.52a1.65,1.65,0,0,1-2.45,2.22l-.09-.1-2.43-2.56-.1-.1A1.76,1.76,0,0,1,115.45,112Z" transform="translate(0.13 0.13)"/><path class="cls-3" d="M10.87,108.73Q5.43,109.9,0,111.1v17.53Z" transform="translate(0.13 0.13)"/><path class="cls-3" d="M141.11,144.27a2.19,2.19,0,0,1,.32-1.63c0-.06.1-.11.14-.17l11.51-44.34-1.3,1-.12.09a1.87,1.87,0,0,1-2.21-3l3.06-2.24a1.86,1.86,0,0,1,1.73-.26l1.61-6.2-5.55.34-5,.38a2.57,2.57,0,0,1-1.64.13l-3,.23L140,90.87v0a2.45,2.45,0,0,1,1,.22,2.54,2.54,0,0,1,1.29,3.37l0,.05-.06.12-1.87,3.94,0,.11a2.51,2.51,0,0,1-2.56,1.41l-1,4.31a2.31,2.31,0,0,1,.45,2.1l0,.11,0,.09-1.41,4.17,0,.08a2.23,2.23,0,0,1-.78,1.07l-1.58,6.58a2.18,2.18,0,0,1,0,.57.5.5,0,0,1,0,.12v.06c-.08.33-.16.65-.23,1a1.32,1.32,0,0,1,1.49-.52,1.34,1.34,0,0,1,.89,1.68.64.64,0,0,0,0,.07l0,.07c-.41,1.12-.84,2.23-1.28,3.34l0,.06a1.21,1.21,0,0,1-1.56.68,1.18,1.18,0,0,1-.72-.86l-1.56,6.48a1.13,1.13,0,0,1,.12.18.87.87,0,0,1,1.73.19s0,.06,0,.09v.05l-.77,3.52v0a.66.66,0,0,1-.79.5.64.64,0,0,1-.42-.33l-.2,1.24v0a.92.92,0,0,1-1.06.77l-.07,0-27,112.15-.06.25h12l.07-.25Zm.43-40,2.42-2.88a1.81,1.81,0,0,1,2.57-.23,1.83,1.83,0,0,1,.23,2.57l0,0-.09.11-2.31,2.64-.09.1a1.79,1.79,0,0,1-2.71-2.33Zm-5.9,9.57,1.74-3.32a1.66,1.66,0,0,1,2.94,1.55l0,.06-.05.09-1.79,3.06-.06.08a1.57,1.57,0,0,1-2.74-1.52ZM130,142.37a.16.16,0,0,1,.17.15v0h0l-.19,1.87-.13-1.88A.16.16,0,0,1,130,142.37Zm-.49.37a.17.17,0,0,1,.19.15v0l-.13,1.89-.22-1.87h0A.17.17,0,0,1,129.54,142.74Zm-1,2.73a.22.22,0,0,1,.24.2v.05l-.24,2.27-.2-2.28A.23.23,0,0,1,128.51,145.47ZM128,146a.25.25,0,0,1,.28.22v.05c-.07.76-.14,1.52-.22,2.28-.1-.76-.19-1.52-.28-2.27h0A.25.25,0,0,1,128,146Z" transform="translate(0.13 0.13)"/><path class="cls-3" d="M56.55,241.79l-17.71-.11-3,8.07-.09.25H53.63l.09-.25Z" transform="translate(0.13 0.13)"/><path class="cls-3" d="M103.73,93.21h0l-.77-.62q-4.31.57-8.61,1.17l-2,5.38a1.73,1.73,0,0,1-1.11,3L71.13,155.61,87,156,109.91,91.7l-2,.25a2.65,2.65,0,0,1-.49.92A2.6,2.6,0,0,1,103.73,93.21Zm-.3,10.63a1.87,1.87,0,0,1-2.38,1.14h0l-.15-.06-3.3-1.21-.14,0a1.84,1.84,0,0,1,1.24-3.46l3.6,1.27A1.86,1.86,0,0,1,103.43,103.84Z" transform="translate(0.13 0.13)"/><path class="cls-3" d="M167,95.33a8.22,8.22,0,0,1,2.61-2.91l-2.06.23-.25,0-.3,0-.3,0-.25,0-2.06-.23A8.22,8.22,0,0,1,167,95.33Z" transform="translate(0.13 0.13)"/><path class="cls-3" d="M155.28,130.87l1.63,2.68.3.5a8.14,8.14,0,0,1,.17,8.1l-.29.52-.13.25a8.15,8.15,0,0,1,2.8-.86l.58-.06,3.11-.35.26,0h0a2.24,2.24,0,0,1,2,3.13l-1.25,2.87-.24.54a8,8,0,0,1-2.9,3.46l2.09-.23.26,0a2.16,2.16,0,0,1,.8.17l8.5-40.24a7.61,7.61,0,0,1-1.77.42l-.58.07-.66.08v7.37a1.5,1.5,0,0,1-1.5,1.5h-3a1.5,1.5,0,0,1-1.5-1.5v-7.37l-.66-.08-.58-.07a8,8,0,0,1-4.23-1.8l-4,20.22A2.13,2.13,0,0,1,155.28,130.87Z" transform="translate(0.13 0.13)"/><path class="cls-3" d="M153.8,153.42l-.3,0-.3,0-.25,0-2.06-.23a8.22,8.22,0,0,1,2.61,2.91,8.22,8.22,0,0,1,2.61-2.91l-2.06.23Z" transform="translate(0.13 0.13)"/><path class="cls-3" d="M177.76,87.42a8,8,0,0,1-2.9,3.46l2.09-.23.26,0,.17,0,.86-4.06h-.11l-.13.29Z" transform="translate(0.13 0.13)"/><path class="cls-3" d="M167,105.08a8.22,8.22,0,0,1,2.61-2.91l-2.06.23-.25,0-.3,0-.3,0-.25,0-2.06-.23A8.22,8.22,0,0,1,167,105.08Z" transform="translate(0.13 0.13)"/><path class="cls-3" d="M153.5,165.83a8.22,8.22,0,0,1,2.61-2.91l-2.06.23-.25,0-.3,0-.3,0-.25,0-2.06-.23A8.22,8.22,0,0,1,153.5,165.83Z" transform="translate(0.13 0.13)"/><path class="cls-3" d="M175.34,100.28a5.34,5.34,0,0,1-.48.35l.42,0Z" transform="translate(0.13 0.13)"/><path class="cls-3" d="M160,172.76a27.25,27.25,0,0,0-3,.87h0a1.27,1.27,0,0,1-.54.08V180a1.5,1.5,0,0,1-1.5,1.5h-3a1.5,1.5,0,0,1-1.5-1.5v-7.37l-.66-.08-.58-.07a8.06,8.06,0,0,1-2.82-.87l-15.33,78.14,0,.25h12.64l0-.25Zm-12.07,5a.35.35,0,0,1,.55.43l-.06.06h0c-.65.48-1.29,1-2,1.45C147,179,147.46,178.36,148,177.71Z" transform="translate(0.13 0.13)"/><path class="cls-3" d="M162.67,160.28a8,8,0,0,1-1.31,1.1l1.1-.12Z" transform="translate(0.13 0.13)"/><path class="cls-3" d="M61.82,98.85q-8,1.4-16,2.88l-26,55.42a16.53,16.53,0,0,1,9.45-2.66l7.41.2Z" transform="translate(0.13 0.13)"/><path class="cls-3" d="M63,96.27h0l-1.46.26Z" transform="translate(0.13 0.13)"/><path class="cls-3" d="M214.14,160l-.25,0c.08.05.15.12.23.18Z" transform="translate(0.13 0.13)"/><path class="cls-3" d="M211.7,181.26a2.53,2.53,0,0,1-3.13-3.42,8.16,8.16,0,0,1-2.83-3.42l-.24-.54L204.25,171a2.24,2.24,0,0,1,2-3.13l.26,0,2.09.23a8,8,0,0,1-2.9-3.46l-.24-.54-1.25-2.87a2.24,2.24,0,0,1,2-3.13l.26,0,2.09.23a8,8,0,0,1-2.9-3.46l-.24-.54-1.25-2.87a2.24,2.24,0,0,1,2-3.13l.26,0,3.11.35.58.06a8.09,8.09,0,0,1,3,1l-.13-.21-.3-.5a8.15,8.15,0,0,1-.17-8.11l.29-.51,1.51-2.74a2.22,2.22,0,0,1,2-1.16,2,2,0,0,1,.44.06l2.86-24.92a2,2,0,0,1,.07-.59l2.64-23q-6-.58-12-1l-2.9-.14-.7,6.59.94.37h0a2.11,2.11,0,0,1,1.11,2.77,2.09,2.09,0,0,1-2.51,1.18L202,138.48a2.3,2.3,0,0,1,.35.41,2.23,2.23,0,0,1,.18,2.12l-1.06,2.43-4.7,44.3c.67,1.29,1.29,2.6,1.84,3.94a2.29,2.29,0,0,1-1.25,3,2.19,2.19,0,0,1-.77.17,1.39,1.39,0,0,1-.06.19l-.71,1.63-.55,5.15a2.21,2.21,0,0,1,1.26,3l-1.25,2.87-.24.54a8.75,8.75,0,0,1-.55,1.05l-4.31,40.53,0,.25h13.7l0-.25Zm.8-81.9a2.23,2.23,0,0,1,3.14-.06,31,31,0,0,1,3.18,3.51,2.23,2.23,0,0,1-.37,3.14,2.26,2.26,0,0,1-3.13-.35,35.4,35.4,0,0,0-2.79-3.08A2.24,2.24,0,0,1,212.5,99.36Zm-8.74,92.55q.62-2.41,1.27-4.83a2.3,2.3,0,0,1,4.44,1.21.93.93,0,0,1,0,.13l0,.13q-.76,2.23-1.56,4.48l-.05.12a2.11,2.11,0,0,1-4-1.24Zm-1.06,24.62h0c-.11.81-.21,1.61-.33,2.41-.05-.38-.09-.76-.13-1.14-.06.52-.12,1-.19,1.56-.14-.8-.26-1.6-.38-2.4h0a.34.34,0,0,1,.28-.39.38.38,0,0,1,.15,0v0a.3.3,0,0,1,.27-.33.3.3,0,0,1,.33.27Zm.1-8.58a1.31,1.31,0,0,1-.65-.39,1.38,1.38,0,0,1-2.53-.23l0-.11c-.49-1.57-1-3.14-1.43-4.7l0-.12a1.76,1.76,0,0,1,3.38-1,1.55,1.55,0,0,1,.05.23c.15,1,.28,1.92.43,2.88l.18-2.78a1.59,1.59,0,0,1,3.18.23l0,.21,0,.07-1,4.71V207A1.24,1.24,0,0,1,202.8,208Z" transform="translate(0.13 0.13)"/><path class="cls-3" d="M36.75,103.45q-8.14,1.58-16.28,3.26l-2.31,4.45L0,146.32v30.82L34,108.9Z" transform="translate(0.13 0.13)"/><path class="cls-3" d="M235.53,225.14a8.12,8.12,0,0,1-4.29-4.22l-.24-.54-1.25-2.87a2.24,2.24,0,0,1,2-3.13l.26,0,2.09.23a8,8,0,0,1-2.9-3.46l-.24-.54-1.25-2.87a2.24,2.24,0,0,1,2-3.13l.26,0,2.09.23a8,8,0,0,1-2.9-3.46l-.24-.54L229.75,198a2.24,2.24,0,0,1,2-3.13l.26,0,3.11.35.58.06a7.66,7.66,0,0,1,1.73.41l.12-1.7a8.11,8.11,0,0,1,.41-6.31l4-61a8.12,8.12,0,0,1-6.3-4.78l-.24-.54-1.25-2.87a2.24,2.24,0,0,1,2-3.13l.26,0,2.09.23a8,8,0,0,1-2.9-3.46l-.24-.54-1.25-2.87a2.24,2.24,0,0,1,2-3.13l.26,0,2.09.23a8.12,8.12,0,0,1-1.74-1.57,2.17,2.17,0,0,1-3.85-2l1.36-2.95-.16-.36a2.24,2.24,0,0,1,2-3.13l.26,0,3.11.35.58.06a8.09,8.09,0,0,1,3,1l-.13-.21-.3-.5a8.18,8.18,0,0,1-.95-2.39,2.2,2.2,0,0,1-1.62-.47,2.23,2.23,0,0,1-.36-3.14h0c.06-.08.13-.15.19-.22q-2.94-.48-5.9-.88c-1.52-.21-3-.4-4.55-.58l-2.09,34.41a1.6,1.6,0,0,1,.2.44c0,.06,0,.13,0,.19.06.47.11.93.17,1.39,0-.47,0-.94.07-1.41a1.36,1.36,0,1,1,2.72.16,1,1,0,0,1,0,.17v.06c-.27,1.41-.53,2.82-.83,4.23v0a1.06,1.06,0,0,1-1.25.82,1.09,1.09,0,0,1-.45-.24,1.18,1.18,0,0,1-.88.61h-.15L226,148.45l.48,0,.26,0h0a2.24,2.24,0,0,1,2,3.13l-1.25,2.87-.24.54a8.11,8.11,0,0,1-1.84,2.63l0,.72,1.07-.12.26,0a2.24,2.24,0,0,1,2,3.13l-1.25,2.87-.24.54a8.06,8.06,0,0,1-2.47,3.15v.27l1.67-.19.26,0a2.24,2.24,0,0,1,2,3.13l-1.25,2.87-.24.54a8,8,0,0,1-3.09,3.58l-4.36,71.75,0,.25h14.09l0-.25Zm-7-88h0c-.09.7-.17,1.41-.27,2.12-.05-.32-.08-.65-.11-1,0,.45-.1.91-.17,1.36-.12-.71-.21-1.42-.32-2.12h0a.29.29,0,0,1,.25-.33s.08,0,.12,0v-.09a.27.27,0,0,1,.23-.29.26.26,0,0,1,.28.23Zm1.89-19.84a1.83,1.83,0,0,1-1.22-2.12c.32-1.44.65-2.89,1-4.33a2,2,0,0,1,3.83.91l0,.11,0,.1c-.4,1.35-.82,2.71-1.25,4.06l0,.09A1.82,1.82,0,0,1,230.43,117.25Zm-1.61,42.24a2.3,2.3,0,0,1,1.4-2.94l.14,0h0a21.28,21.28,0,0,1,5.32-.81,2.12,2.12,0,0,1,.32,4.22h0a19.71,19.71,0,0,0-4.23,1A2.31,2.31,0,0,1,228.82,159.49Z" transform="translate(0.13 0.13)"/><path class="cls-3" d="M249.94,224.33l-.39,25.42V250H250V224.29Z" transform="translate(0.13 0.13)"/><path class="cls-3" d="M184,118.81a8.09,8.09,0,0,1,3,1l-.13-.21-.3-.5a8.15,8.15,0,0,1-.17-8.11l.29-.51,1.51-2.74a2.22,2.22,0,0,1,3.86-.08l1.63,2.68.3.5a8.14,8.14,0,0,1,.17,8.1l-.29.52-.13.25a8.27,8.27,0,0,1,1.38-.55l5.29-32.41q-7-.22-14.06-.21h-1l-.45,2.42.24.06a1.2,1.2,0,0,1-.52,2.35h-.08l-4.1,27.1,3,.33Zm5.08-23.7a21.23,21.23,0,0,1,2.66-1.32l-.51-.25-.07,0a.88.88,0,1,1,.76-1.58l.09,0,1.78,1.12a1.52,1.52,0,0,1,1.52,1,.64.64,0,0,1,.07.7,1.52,1.52,0,0,1-1,1.25l-.2,0a21.67,21.67,0,0,0-4,1.14h0a1.19,1.19,0,0,1-1-2.14Z" transform="translate(0.13 0.13)"/><path class="cls-3" d="M181.64,193.67a8,8,0,0,1,1.14,1l.14-.82Z" transform="translate(0.13 0.13)"/><path class="cls-3" d="M190.8,139.9l-.25,0-.3,0-.3,0-.25,0-2.06-.23a8.22,8.22,0,0,1,2.61,2.91,8,8,0,0,1,1.31-1.79l.16-1Z" transform="translate(0.13 0.13)"/><path class="cls-3" d="M179.8,213a8.12,8.12,0,0,1-6.31-4.78l-.24-.54L172,204.76a2.24,2.24,0,0,1,2-3.13l.26,0,2.09.23a8,8,0,0,1-2.9-3.46l-.24-.54L172,195a2.24,2.24,0,0,1,2-3.13l.26,0,2.09.23a8,8,0,0,1-2.9-3.46l-.24-.54L172,185.26a2.24,2.24,0,0,1,2-3.13l.26,0,3.11.35.58.06a8.09,8.09,0,0,1,3,1l-.13-.21-.3-.5a8.15,8.15,0,0,1-.17-8.11l.29-.51,1.51-2.74a2.22,2.22,0,0,1,3.86-.08l.43.7,2.25-13.82a1.5,1.5,0,0,1-1.46-1.5v-7.37l-.66-.08-.58-.07a8.1,8.1,0,0,1-6.52-4.81l-.24-.54L178,141a2.24,2.24,0,0,1,2-3.13l.26,0,2.09.23a8,8,0,0,1-2.9-3.46l-.24-.54-.87-2-5.47,36.12a26.78,26.78,0,0,1,4,1h0a2.45,2.45,0,0,1-1.6,4.64l-.11,0a26.24,26.24,0,0,0-3-1l-11.62,76.83,0,.25h13.21l0-.25Z" transform="translate(0.13 0.13)"/><path class="cls-3" d="M190.55,130.17l-.3,0-.3,0-.25,0-2.06-.23a8.22,8.22,0,0,1,2.61,2.91,8.22,8.22,0,0,1,2.61-2.91l-2.06.23Z" transform="translate(0.13 0.13)"/><path class="cls-3" d="M180.3,128.15l2.09.23a8,8,0,0,1-2.9-3.46l0,0-.53,3.54a2.21,2.21,0,0,1,1.1-.3Z" transform="translate(0.13 0.13)"/><path class="cls-2" d="M191.56,140.79a8.1,8.1,0,0,1,1.3-1.12l-1.14.13Z" transform="translate(0.13 0.13)"/><path class="cls-2" d="M198.11,128.38l1.38-.15.16-1.2A7.9,7.9,0,0,1,198.11,128.38Z" transform="translate(0.13 0.13)"/><path class="cls-2" d="M198.11,138.13h.08v-.05Z" transform="translate(0.13 0.13)"/><path class="cls-2" d="M238.29,195.56a7.61,7.61,0,0,1-.7-1.54l-.12,1.7a7.77,7.77,0,0,1,1.25.55l-.13-.21Z" transform="translate(0.13 0.13)"/><path class="cls-2" d="M242,219.08a8.05,8.05,0,0,1,2.29-2.66v-.22l-1.75.2-.25,0-.3,0-.3,0-.25,0-2.06-.23A8.22,8.22,0,0,1,242,219.08Z" transform="translate(0.13 0.13)"/><path class="cls-2" d="M238.12,187.45l.29-.51,1.51-2.74a2.22,2.22,0,0,1,3.86-.08l1.63,2.68.07.11,1-25.34c-.58-.25-1.17-.48-1.76-.68a1.59,1.59,0,0,1,1-3l.19.08h0c.23.11.44.23.66.35l.91-22.56H245a1.5,1.5,0,0,1-1.5-1.5v-7.37l-.66-.08-.58-.07a1.46,1.46,0,0,1-.22,0l-4,61A2.06,2.06,0,0,0,238.12,187.45Z" transform="translate(0.13 0.13)"/><path class="cls-2" d="M242,209.33a8.22,8.22,0,0,1,2.61-2.91l-2.06.23-.25,0-.3,0-.3,0-.25,0-2.06-.23A8.22,8.22,0,0,1,242,209.33Z" transform="translate(0.13 0.13)"/><path class="cls-2" d="M184.25,206.33a8.22,8.22,0,0,1,2.61-2.91l-2.06.23-.25,0-.3,0-.3,0-.25,0-2.06-.23A8.22,8.22,0,0,1,184.25,206.33Z" transform="translate(0.13 0.13)"/><path class="cls-2" d="M9.52,241.49,0,241.43V250H5.93l.1-.25Z" transform="translate(0.13 0.13)"/><path class="cls-2" d="M19.77,157.15l26-55.42q8-1.49,16-2.88L36.63,154.69l9.46.25,21.42-50.71-1.28.44h-.06a.72.72,0,0,1-.91-.45.73.73,0,0,1,.37-.88L68.46,102l1.93-4.57h0q7.88-1.3,15.78-2.46h0L61.8,155.36l9.33.25,20.08-53.52h-.46l-3.5-.43h-.14a1.66,1.66,0,0,1,.33-3.3l3.79.3a1.71,1.71,0,0,1,1.09.5l2-5.38q4.31-.6,8.61-1.17c-.81-.65-1.64-1.28-2.5-1.88h0c-.07,0-.12-.11-.18-.16l-5,.66.09-.23-3.8.52-.4.06-3.86.56-.11.25-3,.47q-6.36,1-12.69,2h0l.11-.26-3.94.66-.53.09-4,.69-.12.27h0l-1.46.26Q54.26,97.81,47,99.17l.11-.24-4.1.79-.69.14-4.19.83-.11.23q-8.16,1.62-16.29,3.35l.09-.18-4.28.93-.9.2-4.38,1-.09.17Q6.07,107.73,0,109.14v2q5.43-1.2,10.87-2.37L0,128.63v17.69l18.16-35.16,2.31-4.45h0q8.13-1.69,16.28-3.26h0L34,108.9,0,177.14V178c6.74-7.4,12.62-13.83,16.54-18.12A16.31,16.31,0,0,1,19.77,157.15Zm39.9-49.41s0,0,0,0h0L58,108.7l1.43-1.23a.18.18,0,0,1,.25,0A.17.17,0,0,1,59.67,107.74Z" transform="translate(0.13 0.13)"/><path class="cls-2" d="M216.5,172.58a8.22,8.22,0,0,1,2.61-2.91l-2.06.23-.25,0-.3,0-.3,0-.25,0-2.06-.23A8.22,8.22,0,0,1,216.5,172.58Z" transform="translate(0.13 0.13)"/><path class="cls-2" d="M246.5,110.33a8.18,8.18,0,0,1,2.17-2.57l0-.29-1.64.18-.25,0-.3,0-.3,0-.25,0-2.06-.23A8.22,8.22,0,0,1,246.5,110.33Z" transform="translate(0.13 0.13)"/><path class="cls-2" d="M187.66,174.05l.3.5a7.92,7.92,0,0,1,.95,2.41c.44.44.89.88,1.3,1.33a2.6,2.6,0,0,1-2.08,4.36h0l-.29.52-.13.25a8.15,8.15,0,0,1,2.8-.86l.58-.06,1.3-.15,4.43-33.75a8,8,0,0,1-2.33.63l-.58.07-.66.08v7.37a1.5,1.5,0,0,1-1.5,1.5h-3l-2.25,13.82Z" transform="translate(0.13 0.13)"/><path class="cls-2" d="M218.28,137.62l1.63,2.68.3.5a8.14,8.14,0,0,1,.17,8.1l-.29.52-.13.25a8.15,8.15,0,0,1,1.9-.7l2.71-31.49a.93.93,0,0,1-.2.1,1.94,1.94,0,0,1-2.46-.93l-.09-.16c-.64-1.28-1.26-2.56-1.87-3.84l-.08-.16a2.15,2.15,0,0,1-.2-.81l-2.86,24.92A2.18,2.18,0,0,1,218.28,137.62Z" transform="translate(0.13 0.13)"/><path class="cls-2" d="M154.24,93.66a1.66,1.66,0,0,1,.63.39l-.12-.29a2.24,2.24,0,0,1,2-3.13l.26,0,1.39.16a1.48,1.48,0,0,1,.26-.24,8,8,0,0,1-2.46-3.15l-.24-.54-.67-1.54c-2.63.13-5.26.29-7.88.46l-.93,1.34-.1.15a2.63,2.63,0,0,1-1.13.89l5-.38,5.55-.34h0Z" transform="translate(0.13 0.13)"/><path class="cls-2" d="M154.72,96.93h0l-.13.09-1.51,1.11-11.51,44.34a2.23,2.23,0,0,1,1.72-.84l.26,0,3.11.35.58.06a8.56,8.56,0,0,1,1,.19l.56-2.5a8.08,8.08,0,0,1,.81-5.55l.29-.51.4-.73,5.82-26.28-.13-.3-1.25-2.87a2.24,2.24,0,0,1,2-3.13l.26,0,.46,0,.22-1a7.85,7.85,0,0,1-1.49-2.26l-.24-.54-.53-1.21A1.85,1.85,0,0,1,154.72,96.93Z" transform="translate(0.13 0.13)"/><path class="cls-2" d="M246.5,120.08a8.09,8.09,0,0,1,1.77-2.25l0-.57-1.24.14-.25,0-.3,0-.3,0-.25,0-2.06-.23A8.22,8.22,0,0,1,246.5,120.08Z" transform="translate(0.13 0.13)"/><path class="cls-2" d="M182,90.84c-.32-.06-.64-.11-.95-.18l-.13,0a1.34,1.34,0,0,1-1.06-1.58A1.35,1.35,0,0,1,181.44,88l.07,0,.94.25.31-1.73h0L183,85l0-.24h.76l.95,0h.76l0,.24-.22,1.46h0l-.37,2.4h0l.45-2.42h1q7,0,14.06.21h0l-5.29,32.41a8.34,8.34,0,0,1,1.42-.31l.58-.06,3.11-.35.26,0h0c.11,0,.21,0,.32,0l2.83-21.57c-.47-.17-1-.33-1.43-.46h0a2,2,0,0,1,.83-3.84c.39.07.77.15,1.16.24l.77-5.92h0l.14-1.05,0-.25.75.05,1,.07.74,0,0-.25,0,.25,0,.25-.11,1,2.9.14q6,.36,12,1l-2.64,23a2.09,2.09,0,0,1,3.92-.4.2.2,0,0,1,0,.08c.41,1,.8,1.93,1.19,2.9l2.16-25.09h0l0-.62,0-.24.75.1,1,.14.52.07.22,0v.25l0,.57c1.52.18,3,.37,4.55.58q3,.41,5.9.88c.26-.32.53-.62.8-.93q-3.21-.59-6.43-1.11c-7.9-1.22-15.9-2.08-23.92-2.68s-16.08-.87-24.14-1q-3.69,0-7.39,0l-.84,2h.11l-.86,4.06a2.22,2.22,0,0,1,1.87,3.11L178,96.63l-.24.54a8,8,0,0,1-2.42,3.11l-.06.31,1.67-.19.26,0a2.24,2.24,0,0,1,2,3.13L178,106.38l-.24.54a8.09,8.09,0,0,1-4.75,4.39l-8.5,40.24a2.2,2.2,0,0,1,1.24,3l-1.25,2.87-.24.54a8,8,0,0,1-1.59,2.36l-.21,1,1-.11.26,0a2.24,2.24,0,0,1,2,3.13l-1.25,2.87-.24.54a7.8,7.8,0,0,1-1.39,2.14,1.3,1.3,0,0,1,.15.34,1.76,1.76,0,0,1-1.15,2.22l-.24.06c-.54.09-1.07.2-1.6.33l-16.27,77,0,.25h10.2l0-.25Zm18.73,7.85s0,0,0,0l1.28,1.37L200.54,99h0a.16.16,0,0,1,0-.22A.16.16,0,0,1,200.73,98.69Z" transform="translate(0.13 0.13)"/><path class="cls-2" d="M142.66,167.49l-.16-.36-1.25-2.87a2.24,2.24,0,0,1,2-3.13l.26,0,.5,0,.22-1a8,8,0,0,1-1.53-2.3l-.24-.54-1.25-2.87a2.24,2.24,0,0,1,2-3.13l.26,0,2.09.23a8,8,0,0,1-2.9-3.46l-.24-.54-1.25-2.87a2.11,2.11,0,0,1-.14-.49L113.74,249.75l-.07.25h10.72l0-.25Z" transform="translate(0.13 0.13)"/><path class="cls-2" d="M218.49,188.17a1.57,1.57,0,0,1-.49.08h-3a1.5,1.5,0,0,1-1.5-1.5v-7.37c-.1.19-.21.37-.31.55l-.1.18a2.56,2.56,0,0,1-1.39,1.15l-7.86,68.49,0,.25h9.36l0-.25Z" transform="translate(0.13 0.13)"/><path class="cls-2" d="M188.36,213l-.45.05-.66.08v7.37a1.5,1.5,0,0,1-1.5,1.5h-3a1.5,1.5,0,0,1-1.5-1.5v-7.37l-.66-.08L180,213l-.21,0-6,36.8,0,.25h9.75l0-.25Z" transform="translate(0.13 0.13)"/><path class="cls-2" d="M243.55,234.75H240.5a1.5,1.5,0,0,1-1.5-1.5v-7.37l-.66-.08-.58-.07a7.65,7.65,0,0,1-2.23-.59l-1.63,24.61,0,.25h9.05v-.25Z" transform="translate(0.13 0.13)"/><path class="cls-2" d="M125.75,134.29l-.18-.87v-.06a1.32,1.32,0,0,1,.85-1.52l2.74-10.3c.14-1,.27-2,.43-2.92a1.91,1.91,0,0,1,.65-1.15l1.57-5.89a2.23,2.23,0,0,1-.36-1.9l1.23-4.4a2.35,2.35,0,0,1,1.19-1.45l1.68-6.27a2.42,2.42,0,0,1,.21-.94l.09-.2,2.62-9.83,0-.15h0l0-.1-.81.06-.22,0-3.62.29,0,.12q-7.67.67-15.31,1.51l.06-.19-3.68.4-.3,0-3.73.42-.08.22-3.33.41a2.62,2.62,0,0,1,.43,2.32l2-.25h0L87,156l1.14,0a7.49,7.49,0,0,1,6.66,4.55l16.45-50.21a1.84,1.84,0,0,1-1.08-.29l-.12-.09-2.93-1.93L107,108a1.86,1.86,0,1,1,2-3.1h0l3.16,2.15.1.08,1.23-3.76a2.5,2.5,0,0,1-1.34-.86l-.13-.16c-.87-1.09-1.72-2.19-2.58-3.29l-.12-.16a2.6,2.6,0,0,1,4.12-3.18h0l1.79,2.35,2.39-7.3q7.68-.87,15.38-1.58h0l-9,29.16a2,2,0,0,1,1.55,1.32.75.75,0,0,1,0,.16l1.08,4.34a1.81,1.81,0,0,1-.67,1.89,1.17,1.17,0,0,1-.43.36,1.3,1.3,0,0,1-1.38-.15,1.82,1.82,0,0,1-1-1.07l0-.1-.34-1-.39-.66L83.72,249.75l-.07.25H94.94l.07-.25Z" transform="translate(0.13 0.13)"/><path class="cls-2" d="M184.55,193.92l-.3,0-.3,0-.25,0-.78-.09-.14.82a8.06,8.06,0,0,1,1.47,2,8.22,8.22,0,0,1,2.61-2.91l-2.06.23Z" transform="translate(0.13 0.13)"/><path class="cls-2" d="M69.46,238.07A16.43,16.43,0,0,1,58.9,241.8H56.55l-2.83,8-.09.25H65.55l.08-.25Z" transform="translate(0.13 0.13)"/><path class="cls-2" d="M141.7,86.2l-.43,0,0-.09h-.19l0,.09h0l0,.16L140,90.87l.65-2.33,3-.23a2.76,2.76,0,0,1-.88-.39A2.64,2.64,0,0,1,141.7,86.2Z" transform="translate(0.13 0.13)"/><path class="cls-2" d="M38.84,241.68,27,241.6l-3.29,8.15-.1.25H35.72l.09-.25Z" transform="translate(0.13 0.13)"/><path class="cls-2" d="M216.5,162.83a8.22,8.22,0,0,1,2.61-2.91l-2.06.23-.25,0-.3,0-.3,0-.25,0-1.81-.2,0,.15A8,8,0,0,1,216.5,162.83Z" transform="translate(0.13 0.13)"/><path class="cls-4" d="M249.5,134.25a1.5,1.5,0,0,1-1.5,1.5h-.46l-.91,22.56a24.46,24.46,0,0,1,3.37,2.16V126.82l-.5.06Z" transform="translate(0.13 0.13)"/><path class="cls-4" d="M250,214.62v-.08l-.14.09Z" transform="translate(0.13 0.13)"/><path class="cls-4" d="M250,97.15v-.06l0,.08Z" transform="translate(0.13 0.13)"/><path class="cls-4" d="M250,204.87v-.08l-.14.09Z" transform="translate(0.13 0.13)"/><path class="cls-4" d="M249.94,224.33a8.07,8.07,0,0,1-3.7,1.4l-.58.07-.66.08v7.37a1.5,1.5,0,0,1-1.45,1.5l-.61,15V250h6.62v-.25Z" transform="translate(0.13 0.13)"/><path class="cls-4" d="M249,162.78h0c-.8-.44-1.61-.84-2.44-1.2l-1,25.34.23.39a8.14,8.14,0,0,1,.17,8.1l-.29.52-.13.25a8.15,8.15,0,0,1,2.8-.86l.58-.06,1.16-.13V162.83A1.25,1.25,0,0,1,249,162.78Z" transform="translate(0.13 0.13)"/><path class="cls-4" d="M249.11,107.42l-.42,0,0,.29C248.82,107.64,249,107.52,249.11,107.42Z" transform="translate(0.13 0.13)"/><path class="cls-4" d="M249.11,117.17l-.82.09,0,.57A7.62,7.62,0,0,1,249.11,117.17Z" transform="translate(0.13 0.13)"/><path class="cls-4" d="M244.61,216.17l-.31,0v.22Z" transform="translate(0.13 0.13)"/><path class="cls-4" d="M224.78,168.09v-.27l-.43.31Z" transform="translate(0.13 0.13)"/><path class="cls-4" d="M224.17,178a8,8,0,0,1-3.43,1.23l-.58.07-.66.08v7.37a1.5,1.5,0,0,1-1,1.42l-5.29,61.58,0,.25h6.61l0-.25Z" transform="translate(0.13 0.13)"/><path class="cls-4" d="M225.38,158.27l0-.72a8.42,8.42,0,0,1-1.06.83Z" transform="translate(0.13 0.13)"/><path class="cls-4" d="M229.65,88.06l-.22,0-.52-.07-1-.14-.75-.1,0,.24,0,.62-2.16,25.09c.19.46.39.92.57,1.38a1.94,1.94,0,0,1-.89,2.43L221.86,149c.29-.06.59-.12.9-.16l.58-.06,2.63-.3,1.14-18.71a1.19,1.19,0,0,1-1.13-.84l0-.09c-.4-1.4-.78-2.81-1.15-4.21l0-.1a1.51,1.51,0,0,1,2.72-1.21l2.09-34.41,0-.57Z" transform="translate(0.13 0.13)"/><path class="cls-4" d="M195,198.42a8,8,0,0,1-2.9,3.46l2.09-.23.26,0a2.31,2.31,0,0,1,.78.16l.55-5.15-.54,1.24Z" transform="translate(0.13 0.13)"/><path class="cls-4" d="M193.57,192l-.38-.69a7.34,7.34,0,0,1-1.08.85Z" transform="translate(0.13 0.13)"/><path class="cls-4" d="M194.46,209.22a8.13,8.13,0,0,1-6,3.76l-.13,0-4.82,36.75,0,.25h6.61l0-.25Z" transform="translate(0.13 0.13)"/><path class="cls-4" d="M205.94,97.79a20.26,20.26,0,0,0-2.33-.94l-2.83,21.57a2.22,2.22,0,0,1,1.72,3.09l-1.25,2.87-.24.54a8.2,8.2,0,0,1-1.36,2.11l-.16,1.2.71-.08.26,0a2.24,2.24,0,0,1,2,3.13l-1.25,2.87-.24.54a7.93,7.93,0,0,1-2.81,3.4v.05l2-.22.26,0a2.23,2.23,0,0,1,1.51.6l4.31-40.58-.25-.07Z" transform="translate(0.13 0.13)"/><path class="cls-4" d="M201,144.42a8.11,8.11,0,0,1-4.19,4.18l-4.43,33.75,1.81-.2.26,0h0a2.24,2.24,0,0,1,2,3.13l-.52,1.19a2.72,2.72,0,0,1,.29.38l0,.09v0c.14.26.27.53.41.8l4.7-44.3-.19.44Z" transform="translate(0.13 0.13)"/><path class="cls-4" d="M207.57,85.74l0-.25,0,.25-.74,0-1-.07-.75-.05,0,.25-.14,1.05-.77,5.92a22.63,22.63,0,0,1,2.58.79l.7-6.59.11-1Z" transform="translate(0.13 0.13)"/><path class="cls-4" d="M184.91,88.91l.37-2.4.22-1.46,0-.24h-.76l-.95,0h-.76l0,.24-.26,1.51-.31,1.73Z" transform="translate(0.13 0.13)"/><path class="cls-4" d="M172.21,172.92c-.47-.12-.93-.26-1.4-.35h0a2.29,2.29,0,0,1,.75-4.51c.46,0,.92.12,1.37.2l5.47-36.12-.38-.87a2.22,2.22,0,0,1,.94-2.83l.53-3.54-.22-.51L178,121.51a2.24,2.24,0,0,1,2-3.13l.26,0,.15,0,4.1-27.1h-.05l-2.5-.47L154,249.75l0,.25h6.64l0-.25Zm10-71.72a.29.29,0,0,1,.48.34l-.05.06h0c-.55.45-1.09.91-1.66,1.36C181.41,102.37,181.84,101.79,182.26,101.2Z" transform="translate(0.13 0.13)"/><path class="cls-4" d="M145.64,161.38a7.94,7.94,0,0,1-1.37-1.16l-.22,1Z" transform="translate(0.13 0.13)"/><path class="cls-4" d="M146.44,171.61a8.06,8.06,0,0,1-3.7-3.94l-.08-.18-18.22,82.26,0,.25h6.68l0-.25Z" transform="translate(0.13 0.13)"/><path class="cls-4" d="M149.79,142.31a8.08,8.08,0,0,1-1-2.56l-.56,2.5a8.15,8.15,0,0,1,2,.77l-.13-.21Z" transform="translate(0.13 0.13)"/><path class="cls-4" d="M159.14,100.63a8.45,8.45,0,0,1-1.41-1.2l-.22,1Z" transform="translate(0.13 0.13)"/><path class="cls-4" d="M151.42,131a2.22,2.22,0,0,1,2-1.16,2.17,2.17,0,0,1,1.2.36l4-20.22a8,8,0,0,1-2.29-3l-.11-.24L150.31,133Z" transform="translate(0.13 0.13)"/><path class="cls-4" d="M131.76,124.55a1.7,1.7,0,0,1-1.58.43,1.68,1.68,0,0,1-1.26-1.86c.07-.53.15-1.05.23-1.58l-2.74,10.3.17-.05.27,0a.92.92,0,0,1,.61-.66,1,1,0,0,1,1,.28,1.19,1.19,0,0,1,.92-.4,1.21,1.21,0,0,1,.84.37l1.56-6.48A1.13,1.13,0,0,1,131.76,124.55Z" transform="translate(0.13 0.13)"/><path class="cls-4" d="M132.86,112.36a2.21,2.21,0,0,1-1.06-.78l-1.57,5.89a1.87,1.87,0,0,1,3.06,1.16l1.58-6.58A2.2,2.2,0,0,1,132.86,112.36Z" transform="translate(0.13 0.13)"/><path class="cls-4" d="M128.72,137.6a1.14,1.14,0,0,1-.26-.09,1,1,0,0,1-.92,1,1,1,0,0,1-1.06-.79v-.05l-.72-3.37L95,249.75l-.07.25h6.73l.06-.25Z" transform="translate(0.13 0.13)"/><path class="cls-4" d="M135.54,97.56l-1.68,6.27a2.29,2.29,0,0,1,2.84.6l1-4.31a2.54,2.54,0,0,1-.78-.22A2.48,2.48,0,0,1,135.54,97.56Z" transform="translate(0.13 0.13)"/><path class="cls-4" d="M141.08,86.24l0-.09-.78.06-1,.07-.79.06,0,.1,0,.15-2.62,9.83,1.79-4A2.54,2.54,0,0,1,140,90.9v0L141,86.4Z" transform="translate(0.13 0.13)"/><path class="cls-5" d="M194.46,183.63h-.09l-3.11.35-.58.07a6.6,6.6,0,0,0-5.32,3.92l-.23.54-.88,2-.88-2-.23-.54a6.6,6.6,0,0,0-5.32-3.92l-.58-.07-3.11-.35H174a.74.74,0,0,0-.67,1l1.26,2.87.23.54a6.6,6.6,0,0,0,5.32,3.92l.58.07,3.11.35H184a.68.68,0,0,1,.6,0h.08l3.11-.35.58-.07a6.53,6.53,0,0,0,4.08-2.06l-.31-.55a2.45,2.45,0,0,1,2.58-3.67l.46-1.05A.74.74,0,0,0,194.46,183.63Z" transform="translate(0.13 0.13)"/><path class="cls-6" d="M178,192.31a8.14,8.14,0,0,1,3.65,1.36l1.28.14h0l.78.09.25,0,.3,0,.3,0,.25,0,2.06-.23a8.14,8.14,0,0,1,3.65-1.36l.58-.06,1-.12a7.34,7.34,0,0,0,1.08-.85c-.25-.46-.52-.91-.79-1.35a6.53,6.53,0,0,1-4.08,2.06l-.58.07-3.11.35h-.08a.68.68,0,0,0-.6,0h-.08l-3.11-.35-.58-.07a6.6,6.6,0,0,1-5.32-3.92l-.23-.54-1.26-2.87a.74.74,0,0,1,.67-1h.09l3.11.35.58.07a6.6,6.6,0,0,1,5.32,3.92l.23.54.88,2,.88-2,.23-.54a6.6,6.6,0,0,1,5.32-3.92l.58-.07,3.11-.35h.09a.74.74,0,0,1,.67,1l-.46,1.05a2.47,2.47,0,0,1,1.31.74l.52-1.19a2.24,2.24,0,0,0-2-3.13h0l-.26,0-1.81.2h0l-1.3.15-.58.06a8.15,8.15,0,0,0-2.8.86l-1.38,2.49a2.22,2.22,0,0,1-3.86.08l-1.5-2.47a8.09,8.09,0,0,0-3-1l-.58-.06-3.11-.35-.26,0a2.24,2.24,0,0,0-2,3.13l1.25,2.87.24.54a8,8,0,0,0,2.9,3.46l1,.12Z" transform="translate(0.13 0.13)"/><path class="cls-5" d="M190.68,193.81a6.6,6.6,0,0,0-5.32,3.92l-.23.54-.88,2-.88-2-.23-.54a6.6,6.6,0,0,0-5.32-3.92l-.58-.07-3.11-.35H174a.74.74,0,0,0-.67,1l1.26,2.87.23.54a6.6,6.6,0,0,0,5.32,3.92l.58.07,3.11.35H184a.68.68,0,0,1,.6,0h.08l3.11-.35.58-.07a6.6,6.6,0,0,0,5.32-3.92l.23-.54,1.26-2.87v0a2.27,2.27,0,0,1-.7-.8h0l-.09-.18-3.07.35Z" transform="translate(0.13 0.13)"/><path class="cls-6" d="M195.13,194.38v0l-1.26,2.87-.23.54a6.6,6.6,0,0,1-5.32,3.92l-.58.07-3.11.35h-.08a.68.68,0,0,0-.6,0h-.08l-3.11-.35-.58-.07a6.6,6.6,0,0,1-5.32-3.92l-.23-.54-1.26-2.87a.74.74,0,0,1,.67-1h.09l3.11.35.58.07a6.6,6.6,0,0,1,5.32,3.92l.23.54.88,2,.88-2,.23-.54a6.6,6.6,0,0,1,5.32-3.92l.58-.07,3.07-.35c-.25-.48-.5-.95-.76-1.42l-1.46.16-1,.12-.58.06a8.14,8.14,0,0,0-3.65,1.36,8.22,8.22,0,0,0-2.61,2.91,8.06,8.06,0,0,0-1.47-2h0a8,8,0,0,0-1.14-1,8.14,8.14,0,0,0-3.65-1.36l-.58-.06-1-.12-2.09-.23-.26,0a2.24,2.24,0,0,0-2,3.13l1.25,2.87.24.54a8,8,0,0,0,2.9,3.46l1,.12.58.06a8.14,8.14,0,0,1,3.65,1.36l2.06.23.25,0,.3,0,.3,0,.25,0,2.06-.23a8.14,8.14,0,0,1,3.65-1.36l.58-.06,1-.12a8,8,0,0,0,2.9-3.46l.24-.54.54-1.24.71-1.63a1.39,1.39,0,0,0,.06-.19A2.27,2.27,0,0,1,195.13,194.38Z" transform="translate(0.13 0.13)"/><path class="cls-5" d="M194.46,203.13h-.09l-3.11.35-.58.07a6.6,6.6,0,0,0-5.32,3.92l-.23.54-.88,2-.88-2-.23-.54a6.6,6.6,0,0,0-5.32-3.92l-.58-.07-3.11-.35H174a.74.74,0,0,0-.67,1l1.26,2.87.23.54a6.6,6.6,0,0,0,5.32,3.92l.58.07,2,.23v8.71h3v-8.71l2-.23.58-.07a6.6,6.6,0,0,0,5.32-3.92l.23-.54,1.26-2.87A.74.74,0,0,0,194.46,203.13Z" transform="translate(0.13 0.13)"/><path class="cls-6" d="M194.2,201.65l-2.09.23-1,.12-.58.06a8.14,8.14,0,0,0-3.65,1.36,8.22,8.22,0,0,0-2.61,2.91,8.22,8.22,0,0,0-2.61-2.91,8.14,8.14,0,0,0-3.65-1.36l-.58-.06-1-.12-2.09-.23-.26,0a2.24,2.24,0,0,0-2,3.13l1.25,2.87.24.54A8.12,8.12,0,0,0,179.8,213h0l.21,0,.58.07.66.08v7.37a1.5,1.5,0,0,0,1.5,1.5h3a1.5,1.5,0,0,0,1.5-1.5v-7.37l.66-.08.45-.05h0l.13,0a8.13,8.13,0,0,0,6-3.76,8.75,8.75,0,0,0,.55-1.05l.24-.54,1.25-2.87a2.21,2.21,0,0,0-1.26-3,2.31,2.31,0,0,0-.78-.16Zm.93,2.51L193.87,207l-.23.54a6.6,6.6,0,0,1-5.32,3.92l-.58.07-2,.23v8.71h-3v-8.71l-2-.23-.58-.07a6.6,6.6,0,0,1-5.32-3.92l-.23-.54-1.26-2.87a.74.74,0,0,1,.67-1h.09l3.11.35.58.07a6.6,6.6,0,0,1,5.32,3.92l.23.54.88,2,.88-2,.23-.54a6.6,6.6,0,0,1,5.32-3.92l.58-.07,3.11-.35h.09A.74.74,0,0,1,195.13,204.16Z" transform="translate(0.13 0.13)"/><path class="cls-5" d="M183,178.64h0a2.61,2.61,0,0,1,3.2-4.12l-1.44-2.38a.74.74,0,0,0-1.27,0L182,174.91l-.28.52a6.6,6.6,0,0,0,.13,6.6l.31.51,1.62,2.67a.72.72,0,0,0,.63.36.73.73,0,0,0,.64-.38l1.51-2.74.18-.33a2.13,2.13,0,0,1-.33-.28A39.16,39.16,0,0,0,183,178.64Z" transform="translate(0.13 0.13)"/><path class="cls-6" d="M182.47,186a2.22,2.22,0,0,0,3.86-.08l1.38-2.49.13-.25.29-.52h0a2.58,2.58,0,0,1-1.42-.53l-.18.33L185,185.19a.73.73,0,0,1-.64.38.72.72,0,0,1-.63-.36l-1.62-2.67-.31-.51a6.6,6.6,0,0,1-.13-6.6l.28-.52,1.51-2.74a.74.74,0,0,1,1.27,0l1.44,2.38.12.08a34.35,34.35,0,0,1,2.6,2.36,7.92,7.92,0,0,0-.95-2.41l-.3-.5-1.2-2h0l-.43-.7a2.22,2.22,0,0,0-3.86.08l-1.51,2.74-.29.51a8.15,8.15,0,0,0,.17,8.11l.3.5.13.21Z" transform="translate(0.13 0.13)"/><path class="cls-5" d="M210.07,150.31l-.58-.07-3.11-.35h-.09a.74.74,0,0,0-.67,1l1.26,2.87.23.54a6.6,6.6,0,0,0,5.32,3.92l.58.07,3.11.35h.08a.68.68,0,0,1,.6,0h.08l3.11-.35.58-.07a6.6,6.6,0,0,0,5.32-3.92l.23-.54,1.26-2.87a.74.74,0,0,0-.67-1h-.09l-3.11.35-.58.07a6.6,6.6,0,0,0-5.32,3.92l-.23.54-.88,2-.88-2-.23-.54A6.6,6.6,0,0,0,210.07,150.31Z" transform="translate(0.13 0.13)"/><path class="cls-6" d="M222.76,148.81c-.31,0-.61.1-.9.16h0a8.15,8.15,0,0,0-1.9.7l-1.38,2.49a2.22,2.22,0,0,1-3.86.08l-1.5-2.47a8.09,8.09,0,0,0-3-1l-.58-.06-3.11-.35-.26,0a2.24,2.24,0,0,0-2,3.13l1.25,2.87.24.54a8,8,0,0,0,2.9,3.46l1,.12.58.06a8.14,8.14,0,0,1,3.65,1.36l.25,0,1.81.2.25,0,.3,0,.3,0,.25,0,2.06-.23a8.14,8.14,0,0,1,3.65-1.36l.58-.06,1-.12a8.42,8.42,0,0,0,1.06-.83,8.11,8.11,0,0,0,1.84-2.63l.24-.54,1.25-2.87a2.24,2.24,0,0,0-2-3.13h0l-.26,0-.48,0-2.63.3Zm-7.37,5.42.23.54.88,2,.88-2,.23-.54a6.6,6.6,0,0,1,5.32-3.92l.58-.07,3.11-.35h.09a.74.74,0,0,1,.67,1l-1.26,2.87-.23.54a6.6,6.6,0,0,1-5.32,3.92l-.58.07-3.11.35h-.08a.68.68,0,0,0-.6,0h-.08l-3.11-.35-.58-.07a6.6,6.6,0,0,1-5.32-3.92l-.23-.54-1.26-2.87a.74.74,0,0,1,.67-1h.09l3.11.35.58.07A6.6,6.6,0,0,1,215.39,154.23Z" transform="translate(0.13 0.13)"/><path class="cls-5" d="M221,161.41a2.54,2.54,0,0,1,3.21,3.94h0a30.33,30.33,0,0,0-2.54,2.41,6.6,6.6,0,0,0,4.23-3.7l.23-.54,1.26-2.87a.74.74,0,0,0-.67-1h-.09l-3.11.35-.58.07a6.6,6.6,0,0,0-5.32,3.92l-.23.54-.16.35A35.39,35.39,0,0,1,221,161.41Z" transform="translate(0.13 0.13)"/><path class="cls-5" d="M216.47,166.45l-.85-1.93-.23-.54a6.6,6.6,0,0,0-5.32-3.92l-.58-.07-3.11-.35h-.09a.74.74,0,0,0-.67,1l1.26,2.87.23.54a6.6,6.6,0,0,0,5.32,3.92l.58.07,3.11.35h.08a.68.68,0,0,1,.6,0h.08l.19,0A2.57,2.57,0,0,1,216.47,166.45Z" transform="translate(0.13 0.13)"/><path class="cls-6" d="M223.34,158.5l-.58.06a8.14,8.14,0,0,0-3.65,1.36,8.22,8.22,0,0,0-2.61,2.91,8,8,0,0,0-2.38-2.73c-.08-.06-.15-.13-.23-.18a8.14,8.14,0,0,0-3.65-1.36l-.58-.06-1-.12-2.09-.23-.26,0a2.24,2.24,0,0,0-2,3.13l1.25,2.87.24.54a8,8,0,0,0,2.9,3.46l1,.12.58.06a8.14,8.14,0,0,1,3.65,1.36l2.06.23.25,0,.3,0,.3,0,.25,0,2.06-.23a8.14,8.14,0,0,1,3.65-1.36l.58-.06,1-.12.43-.31a8.06,8.06,0,0,0,2.47-3.15l.24-.54,1.25-2.87a2.24,2.24,0,0,0-2-3.13l-.26,0-1.07.12-1,.11Zm-6.07,10.13-.2-.24-.19,0h-.08a.68.68,0,0,0-.6,0h-.08l-3.11-.35-.58-.07a6.6,6.6,0,0,1-5.32-3.92l-.23-.54-1.26-2.87a.74.74,0,0,1,.67-1h.09l3.11.35.58.07a6.6,6.6,0,0,1,5.32,3.92l.23.54.85,1.93a2.54,2.54,0,0,1,.67-1.5h0l.08-.08.16-.35.23-.54a6.6,6.6,0,0,1,5.32-3.92l.58-.07,3.11-.35h.09a.74.74,0,0,1,.67,1l-1.26,2.87-.23.54a6.6,6.6,0,0,1-4.23,3.7l-.71.72A2.6,2.6,0,0,1,217.27,168.63Z" transform="translate(0.13 0.13)"/><path class="cls-5" d="M214.33,172.06a6.56,6.56,0,0,0-4.26-2.25l-.58-.07-3.11-.35h-.09a.74.74,0,0,0-.67,1l1.26,2.87.23.54a6.62,6.62,0,0,0,2.15,2.69c.58-1.11,1.16-2.22,1.76-3.32A2.59,2.59,0,0,1,214.33,172.06Z" transform="translate(0.13 0.13)"/><path class="cls-5" d="M215.58,175.68l-.1.19L214.3,178l.7.08v8.71h3V178l2-.23.58-.07a6.6,6.6,0,0,0,5.32-3.92l.23-.54,1.26-2.87a.74.74,0,0,0-.67-1h-.09l-3.11.35-.58.07a6.6,6.6,0,0,0-5.32,3.92l-.23.54-.88,2-.64-1.47a2.53,2.53,0,0,1-.28.87Z" transform="translate(0.13 0.13)"/><path class="cls-6" d="M223.34,168.25l-.58.06a8.14,8.14,0,0,0-3.65,1.36,8.22,8.22,0,0,0-2.61,2.91,8.22,8.22,0,0,0-2.61-2.91,8.14,8.14,0,0,0-3.65-1.36l-.58-.06-1-.12-2.09-.23-.26,0a2.24,2.24,0,0,0-2,3.13l1.25,2.87.24.54a8.16,8.16,0,0,0,2.83,3.42c0-.05,0-.11.07-.16.21-.39.42-.78.62-1.17a6.62,6.62,0,0,1-2.15-2.69l-.23-.54-1.26-2.87a.74.74,0,0,1,.67-1h.09l3.11.35.58.07a6.56,6.56,0,0,1,4.26,2.25l.21.09a2.58,2.58,0,0,1,1.32,2.66l.64,1.47.88-2,.23-.54a6.6,6.6,0,0,1,5.32-3.92l.58-.07,3.11-.35h.09a.74.74,0,0,1,.67,1l-1.26,2.87-.23.54a6.6,6.6,0,0,1-5.32,3.92l-.58.07-2,.23v8.71h-3V178l-.7-.08-.8,1.42v7.37a1.5,1.5,0,0,0,1.5,1.5h3a1.57,1.57,0,0,0,.49-.08h0a1.5,1.5,0,0,0,1-1.42v-7.37l.66-.08.58-.07a8.23,8.23,0,0,0,6.52-4.81l.24-.54,1.25-2.87a2.24,2.24,0,0,0-2-3.13l-.26,0-1.67.19-.42,0Z" transform="translate(0.13 0.13)"/><path class="cls-5" d="M216,151.46a.72.72,0,0,0,.63.36.73.73,0,0,0,.64-.38l1.51-2.74.28-.52a6.61,6.61,0,0,0-.13-6.61l-.31-.5L217,138.39a.74.74,0,0,0-1.27,0l-1.51,2.74-.28.52a6.6,6.6,0,0,0,.13,6.6l.31.51Z" transform="translate(0.13 0.13)"/><path class="cls-6" d="M214.72,152.24a2.22,2.22,0,0,0,3.86-.08l1.38-2.49.13-.25.29-.52a8.14,8.14,0,0,0-.17-8.1l-.3-.5-1.63-2.68a2.18,2.18,0,0,0-1.47-1,2,2,0,0,0-.44-.06,2.22,2.22,0,0,0-2,1.16l-1.51,2.74-.29.51a8.15,8.15,0,0,0,.17,8.11l.3.5.13.21Zm-.65-4a6.6,6.6,0,0,1-.13-6.6l.28-.52,1.51-2.74a.74.74,0,0,1,1.27,0l1.62,2.68.31.5a6.61,6.61,0,0,1,.13,6.61l-.28.52-1.51,2.74a.73.73,0,0,1-.64.38.72.72,0,0,1-.63-.36l-1.62-2.67Z" transform="translate(0.13 0.13)"/><path class="cls-5" d="M248.43,196.81a6.6,6.6,0,0,0-5.32,3.92l-.23.54-.88,2-.88-2-.23-.54a6.6,6.6,0,0,0-5.32-3.92l-.58-.07-3.11-.35h-.09a.74.74,0,0,0-.67,1l1.26,2.87.23.54a6.6,6.6,0,0,0,5.32,3.92l.58.07,3.11.35h.08a.68.68,0,0,1,.6,0h.08l3.11-.35.58-.07a6.6,6.6,0,0,0,3.93-1.89v-6.22l-1,.11Z" transform="translate(0.13 0.13)"/><path class="cls-6" d="M248.26,195.31a8.15,8.15,0,0,0-2.8.86l-1.38,2.49a2.22,2.22,0,0,1-3.86.08l-1.5-2.47a7.77,7.77,0,0,0-1.25-.55h0a7.66,7.66,0,0,0-1.73-.41l-.58-.06-3.11-.35-.26,0a2.24,2.24,0,0,0-2,3.13l1.25,2.87.24.54a8,8,0,0,0,2.9,3.46l1,.12.58.06a8.14,8.14,0,0,1,3.65,1.36l2.06.23.25,0,.3,0,.3,0,.25,0,2.06-.23a8.14,8.14,0,0,1,3.65-1.36l.58-.06,1-.12.14-.09v-1.94a6.6,6.6,0,0,1-3.93,1.89l-.58.07-3.11.35h-.08a.68.68,0,0,0-.6,0h-.08l-3.11-.35-.58-.07a6.6,6.6,0,0,1-5.32-3.92l-.23-.54-1.26-2.87a.74.74,0,0,1,.67-1h.09l3.11.35.58.07a6.6,6.6,0,0,1,5.32,3.92l.23.54.88,2,.88-2,.23-.54a6.6,6.6,0,0,1,5.32-3.92l.58-.07,1-.11v-1.51l-1.16.13Z" transform="translate(0.13 0.13)"/><path class="cls-5" d="M248.43,206.56a6.6,6.6,0,0,0-5.32,3.92l-.23.54-.88,2-.88-2-.23-.54a6.6,6.6,0,0,0-5.32-3.92l-.58-.07-3.11-.35h-.09a.74.74,0,0,0-.67,1l1.26,2.87.23.54a6.6,6.6,0,0,0,5.32,3.92l.58.07,3.11.35h.08a.68.68,0,0,1,.6,0h.08l3.11-.35.58-.07A6.6,6.6,0,0,0,250,212.6v-6.22l-1,.11Z" transform="translate(0.13 0.13)"/><path class="cls-6" d="M248.84,205l-.58.06a8.14,8.14,0,0,0-3.65,1.36,8.22,8.22,0,0,0-2.61,2.91,8.22,8.22,0,0,0-2.61-2.91,8.14,8.14,0,0,0-3.65-1.36l-.58-.06-1-.12-2.09-.23-.26,0a2.24,2.24,0,0,0-2,3.13l1.25,2.87.24.54a8,8,0,0,0,2.9,3.46l1,.12.58.06a8.14,8.14,0,0,1,3.65,1.36l2.06.23.25,0,.3,0,.3,0,.25,0,1.75-.2.31,0a8.14,8.14,0,0,1,3.65-1.36l.58-.06,1-.12.14-.09V212.6a6.6,6.6,0,0,1-3.93,1.89l-.58.07-3.11.35h-.08a.68.68,0,0,0-.6,0h-.08l-3.11-.35-.58-.07a6.6,6.6,0,0,1-5.32-3.92l-.23-.54-1.26-2.87a.74.74,0,0,1,.67-1h.09l3.11.35.58.07a6.6,6.6,0,0,1,5.32,3.92l.23.54.88,2,.88-2,.23-.54a6.6,6.6,0,0,1,5.32-3.92l.58-.07,1-.11v-1.51h-.14Z" transform="translate(0.13 0.13)"/><path class="cls-5" d="M248.43,216.31a6.6,6.6,0,0,0-5.32,3.92l-.23.54-.88,2-.88-2-.23-.54a6.6,6.6,0,0,0-5.32-3.92l-.58-.07-3.11-.35h-.09a.74.74,0,0,0-.67,1l1.26,2.87.23.54a6.6,6.6,0,0,0,5.32,3.92l.58.07,2,.23v8.71h3v-8.71l2-.23.58-.07a6.6,6.6,0,0,0,3.93-1.89v-6.22l-1,.11Z" transform="translate(0.13 0.13)"/><path class="cls-6" d="M248.84,214.75l-.58.06a8.14,8.14,0,0,0-3.65,1.36l-.32.25a8.05,8.05,0,0,0-2.29,2.66,8.22,8.22,0,0,0-2.61-2.91,8.14,8.14,0,0,0-3.65-1.36l-.58-.06-1-.12-2.09-.23-.26,0a2.24,2.24,0,0,0-2,3.13l1.25,2.87.24.54a8.12,8.12,0,0,0,4.29,4.22h0a7.65,7.65,0,0,0,2.23.59l.58.07.66.08v7.37a1.5,1.5,0,0,0,1.5,1.5h3.05a1.5,1.5,0,0,0,1.45-1.5v-7.37l.66-.08.58-.07a8.07,8.07,0,0,0,3.7-1.4l.06,0v-1.94a6.6,6.6,0,0,1-3.93,1.89l-.58.07-2,.23v8.71h-3v-8.71l-2-.23-.58-.07a6.6,6.6,0,0,1-5.32-3.92l-.23-.54-1.26-2.87a.74.74,0,0,1,.67-1h.09l3.11.35.58.07a6.6,6.6,0,0,1,5.32,3.92l.23.54.88,2,.88-2,.23-.54a6.6,6.6,0,0,1,5.32-3.92l.58-.07,1-.11v-1.51h-.14Z" transform="translate(0.13 0.13)"/><path class="cls-5" d="M239.57,194.78l.31.51L241.5,198a.72.72,0,0,0,.63.36.73.73,0,0,0,.64-.38l1.51-2.74.28-.52a6.61,6.61,0,0,0-.13-6.61l-.31-.5-1.62-2.68a.74.74,0,0,0-1.27,0l-1.51,2.74-.28.52A6.6,6.6,0,0,0,239.57,194.78Z" transform="translate(0.13 0.13)"/><path class="cls-6" d="M238.29,195.56l.3.5.13.21,1.5,2.47a2.22,2.22,0,0,0,3.86-.08l1.38-2.49.13-.25.29-.52a8.14,8.14,0,0,0-.17-8.1l-.23-.39-.07-.11-1.63-2.68a2.22,2.22,0,0,0-3.86.08l-1.51,2.74-.29.51a2.06,2.06,0,0,1-.12.26h0a8.11,8.11,0,0,0-.41,6.31h0A7.61,7.61,0,0,0,238.29,195.56Zm1.43-7.9,1.51-2.74a.74.74,0,0,1,1.27,0l1.62,2.68.31.5a6.61,6.61,0,0,1,.13,6.61l-.28.52-1.51,2.74a.73.73,0,0,1-.64.38.72.72,0,0,1-.63-.36l-1.62-2.67-.31-.51a6.6,6.6,0,0,1-.13-6.6Z" transform="translate(0.13 0.13)"/><path class="cls-5" d="M247.61,101.73l-.23.54-.88,2-.88-2-.23-.54a6.6,6.6,0,0,0-5.32-3.92l-.58-.07-.91-.1a2.19,2.19,0,0,1,.4,2.45v0l-.08.16-1.24,2.51a6.62,6.62,0,0,0,4.78,2.94l.58.07,3.11.35h.08a.68.68,0,0,1,.6,0h.08l3.11-.35h0V98.89A6.57,6.57,0,0,0,247.61,101.73Z" transform="translate(0.13 0.13)"/><path class="cls-6" d="M248.58,99.66a2.22,2.22,0,0,1-3.86.08l-1.5-2.47a8.09,8.09,0,0,0-3-1l-.58-.06-3.11-.35-.26,0a2.24,2.24,0,0,0-2,3.13l.16.36.53-1.14a2.22,2.22,0,0,1,2.95-1.09,2,2,0,0,1,.69.5l.91.1.58.07a6.6,6.6,0,0,1,5.32,3.92l.23.54.88,2,.88-2,.23-.54A6.57,6.57,0,0,1,250,98.89V97.15l0,0Z" transform="translate(0.13 0.13)"/><path class="cls-6" d="M246.88,106.16h-.08a.68.68,0,0,0-.6,0h-.08l-3.11-.35-.58-.07a6.62,6.62,0,0,1-4.78-2.94l-.61,1.25-.07.14-.07.12a8.12,8.12,0,0,0,1.74,1.57l1,.12.58.06a8.14,8.14,0,0,1,3.65,1.36l2.06.23.25,0,.3,0,.3,0,.25,0,1.64-.18.42,0a7.94,7.94,0,0,1,.89-.52v-1.09h0Z" transform="translate(0.13 0.13)"/><path class="cls-5" d="M247.61,111.48l-.23.54-.88,2-.88-2-.23-.54a6.6,6.6,0,0,0-5.32-3.92l-.58-.07-3.11-.35h-.09a.74.74,0,0,0-.67,1l1.26,2.87.23.54a6.6,6.6,0,0,0,5.32,3.92l.58.07,3.11.35h.08a.68.68,0,0,1,.6,0h.08l3.11-.35h0v-6.92A6.57,6.57,0,0,0,247.61,111.48Z" transform="translate(0.13 0.13)"/><path class="cls-6" d="M248.67,107.76a8.18,8.18,0,0,0-2.17,2.57,8.22,8.22,0,0,0-2.61-2.91,8.14,8.14,0,0,0-3.65-1.36l-.58-.06-1-.12-2.09-.23-.26,0a2.24,2.24,0,0,0-2,3.13l1.25,2.87.24.54a8,8,0,0,0,2.9,3.46l1,.12.58.06a8.14,8.14,0,0,1,3.65,1.36l2.06.23.25,0,.3,0,.3,0,.25,0,1.24-.14.82-.09a7.94,7.94,0,0,1,.89-.52v-1.09h0l-3.11.35h-.08a.68.68,0,0,0-.6,0h-.08l-3.11-.35-.58-.07a6.6,6.6,0,0,1-5.32-3.92l-.23-.54-1.26-2.87a.74.74,0,0,1,.67-1h.09l3.11.35.58.07a6.6,6.6,0,0,1,5.32,3.92l.23.54.88,2,.88-2,.23-.54a6.57,6.57,0,0,1,2.39-2.84V106.9a7.94,7.94,0,0,0-.89.52C249,107.52,248.82,107.64,248.67,107.76Z" transform="translate(0.13 0.13)"/><path class="cls-5" d="M247.61,121.23l-.23.54-.88,2-.88-2-.23-.54a6.6,6.6,0,0,0-5.32-3.92l-.58-.07-3.11-.35h-.09a.74.74,0,0,0-.67,1l1.26,2.87.23.54a6.6,6.6,0,0,0,5.32,3.92l.58.07,2,.23v8.71h3v-8.71l2-.23h0v-6.92A6.57,6.57,0,0,0,247.61,121.23Z" transform="translate(0.13 0.13)"/><path class="cls-6" d="M248.27,117.83a8.09,8.09,0,0,0-1.77,2.25,8.22,8.22,0,0,0-2.61-2.91,8.14,8.14,0,0,0-3.65-1.36l-.58-.06-1-.12-2.09-.23-.26,0a2.24,2.24,0,0,0-2,3.13l1.25,2.87.24.54a8.12,8.12,0,0,0,6.3,4.78h0a1.46,1.46,0,0,0,.22,0l.58.07.66.08v7.37a1.5,1.5,0,0,0,1.5,1.5h3a1.5,1.5,0,0,0,1.5-1.5v-7.37l.5-.06v-1.51h0l-2,.23v8.71h-3v-8.71l-2-.23-.58-.07a6.6,6.6,0,0,1-5.32-3.92l-.23-.54-1.26-2.87a.74.74,0,0,1,.67-1h.09l3.11.35.58.07a6.6,6.6,0,0,1,5.32,3.92l.23.54.88,2,.88-2,.23-.54a6.57,6.57,0,0,1,2.39-2.84v-1.74a7.94,7.94,0,0,0-.89.52A7.62,7.62,0,0,0,248.27,117.83Z" transform="translate(0.13 0.13)"/><path class="cls-5" d="M246,90.29h0a34,34,0,0,0-2.68,3,1.59,1.59,0,0,1-.13.13,6.72,6.72,0,0,0,.85,2.31l.31.51L246,99a.72.72,0,0,0,.63.36.73.73,0,0,0,.64-.38l1.51-2.74.28-.52a6.61,6.61,0,0,0-.13-6.61l-.31-.5L247,85.89a.74.74,0,0,0-1.27,0l-.44.8a2,2,0,0,1,.8.53A2.17,2.17,0,0,1,246,90.29Z" transform="translate(0.13 0.13)"/><path class="cls-6" d="M248.28,85.12a2.22,2.22,0,0,0-3.86.08l-.89,1.61a2.16,2.16,0,0,1,1.76-.09l.44-.8a.74.74,0,0,1,1.27,0l1.62,2.68.31.5a6.61,6.61,0,0,1,.13,6.61l-.28.52-1.51,2.74a.73.73,0,0,1-.64.38A.72.72,0,0,1,246,99l-1.62-2.67-.31-.51a6.72,6.72,0,0,1-.85-2.31,2.25,2.25,0,0,1-1.38.7,8.18,8.18,0,0,0,.95,2.39l.3.5.13.21,1.5,2.47a2.22,2.22,0,0,0,3.86-.08L250,97.17l0-.08V88l-.09-.15Z" transform="translate(0.13 0.13)"/><path class="cls-5" d="M183.82,120.31l-.58-.07-3.11-.35H180a.74.74,0,0,0-.67,1l1.26,2.87.23.54a6.6,6.6,0,0,0,5.32,3.92l.58.07,3.11.35H190a.68.68,0,0,1,.6,0h.08l3.11-.35.58-.07a6.6,6.6,0,0,0,5.32-3.92l.23-.54,1.26-2.87a.74.74,0,0,0-.67-1h-.09l-3.11.35-.58.07a6.6,6.6,0,0,0-5.32,3.92l-.23.54-.88,2-.88-2-.23-.54A6.6,6.6,0,0,0,183.82,120.31Z" transform="translate(0.13 0.13)"/><path class="cls-6" d="M182.39,128.38l1,.12.58.06a8.14,8.14,0,0,1,3.65,1.36l2.06.23.25,0,.3,0,.3,0,.25,0,2.06-.23a8.14,8.14,0,0,1,3.65-1.36l.58-.06,1-.12a7.9,7.9,0,0,0,1.54-1.35h0a8.2,8.2,0,0,0,1.36-2.11l.24-.54,1.25-2.87a2.22,2.22,0,0,0-1.72-3.09h0c-.11,0-.21,0-.32,0h0l-.26,0-3.11.35-.58.06a8.34,8.34,0,0,0-1.42.31h0a8.27,8.27,0,0,0-1.38.55l-1.38,2.49a2.22,2.22,0,0,1-3.86.08l-1.5-2.47a8.09,8.09,0,0,0-3-1l-.58-.06-3-.33-.15,0-.26,0a2.24,2.24,0,0,0-2,3.13l1.25,2.87.22.51,0,0A8,8,0,0,0,182.39,128.38Zm6.75-4.15.23.54.88,2,.88-2,.23-.54a6.6,6.6,0,0,1,5.32-3.92l.58-.07,3.11-.35h.09a.74.74,0,0,1,.67,1l-1.26,2.87-.23.54a6.6,6.6,0,0,1-5.32,3.92l-.58.07-3.11.35h-.08a.68.68,0,0,0-.6,0h-.08l-3.11-.35-.58-.07a6.6,6.6,0,0,1-5.32-3.92l-.23-.54-1.26-2.87a.74.74,0,0,1,.67-1h.09l3.11.35.58.07A6.6,6.6,0,0,1,189.14,124.23Z" transform="translate(0.13 0.13)"/><path class="cls-5" d="M186.18,138l.58.07,3.11.35H190a.68.68,0,0,1,.6,0h.08l3.11-.35.58-.07a6.6,6.6,0,0,0,5.32-3.92l.23-.54,1.26-2.87a.74.74,0,0,0-.67-1h-.09l-3.11.35-.58.07a6.6,6.6,0,0,0-5.32,3.92l-.23.54-.88,2-.88-2-.23-.54a6.6,6.6,0,0,0-5.32-3.92l-.58-.07-3.11-.35H180a.74.74,0,0,0-.67,1l1.26,2.87.23.54A6.6,6.6,0,0,0,186.18,138Z" transform="translate(0.13 0.13)"/><path class="cls-6" d="M184,138.31a8.14,8.14,0,0,1,3.65,1.36l2.06.23.25,0,.3,0,.3,0,.25,0,.92-.1h0l1.14-.13a8.14,8.14,0,0,1,3.65-1.36l.58-.06,1-.12.09-.06h0a7.93,7.93,0,0,0,2.81-3.4l.24-.54,1.25-2.87a2.24,2.24,0,0,0-2-3.13l-.26,0-.71.08h0l-1.38.15-1,.12-.58.06a8.14,8.14,0,0,0-3.65,1.36,8.22,8.22,0,0,0-2.61,2.91,8.22,8.22,0,0,0-2.61-2.91,8.14,8.14,0,0,0-3.65-1.36l-.58-.06-1-.12-2.09-.23-.26,0a2.21,2.21,0,0,0-1.1.3,2.22,2.22,0,0,0-.94,2.83l.38.87.87,2,.24.54a8,8,0,0,0,2.9,3.46l1,.12Zm-3.36-4.78-1.26-2.87a.74.74,0,0,1,.67-1h.09l3.11.35.58.07a6.6,6.6,0,0,1,5.32,3.92l.23.54.88,2,.88-2,.23-.54a6.6,6.6,0,0,1,5.32-3.92l.58-.07,3.11-.35h.09a.74.74,0,0,1,.67,1l-1.26,2.87-.23.54a6.6,6.6,0,0,1-5.32,3.92l-.58.07-3.11.35h-.08a.68.68,0,0,0-.6,0h-.08l-3.11-.35-.58-.07a6.6,6.6,0,0,1-5.32-3.92Z" transform="translate(0.13 0.13)"/><path class="cls-5" d="M200.46,139.38h-.09l-3.11.35-.58.07a6.6,6.6,0,0,0-5.32,3.92l-.23.54-.88,2-.88-2-.23-.54a6.6,6.6,0,0,0-5.32-3.92l-.58-.07-3.11-.35H180a.74.74,0,0,0-.67,1l1.26,2.87.23.54a6.6,6.6,0,0,0,5.32,3.92l.58.07,2,.23v8.71h3V148l2-.23.58-.07a6.6,6.6,0,0,0,5.32-3.92l.23-.54,1.26-2.87A.74.74,0,0,0,200.46,139.38Z" transform="translate(0.13 0.13)"/><path class="cls-6" d="M200.46,137.88l-.26,0-2,.22h-.08l-1,.12-.58.06a8,8,0,0,0-4.95,2.48h0a8,8,0,0,0-1.31,1.79,8.22,8.22,0,0,0-2.61-2.91,8.14,8.14,0,0,0-3.65-1.36l-.58-.06-1-.12-2.09-.23-.26,0a2.24,2.24,0,0,0-2,3.13l1.25,2.87.24.54a8.1,8.1,0,0,0,6.52,4.81l.58.07.66.08v7.37a1.5,1.5,0,0,0,1.46,1.5h3a1.5,1.5,0,0,0,1.5-1.5v-7.37l.66-.08.58-.07a8,8,0,0,0,2.33-.63h0a8.11,8.11,0,0,0,4.19-4.18l.24-.54.19-.44L202.5,141a2.23,2.23,0,0,0-.18-2.12,2.3,2.3,0,0,0-.35-.41A2.23,2.23,0,0,0,200.46,137.88Zm-.82,5.94a6.6,6.6,0,0,1-5.32,3.92l-.58.07-2,.23v8.71h-3V148l-2-.23-.58-.07a6.6,6.6,0,0,1-5.32-3.92l-.23-.54-1.26-2.87a.74.74,0,0,1,.67-1h.09l3.11.35.58.07a6.6,6.6,0,0,1,5.32,3.92l.23.54.88,2,.88-2,.23-.54a6.6,6.6,0,0,1,5.32-3.92l.58-.07,3.11-.35h.09a.74.74,0,0,1,.67,1l-1.26,2.87Z" transform="translate(0.13 0.13)"/><path class="cls-5" d="M192.81,118.18a6.61,6.61,0,0,0-.13-6.61l-.31-.5-1.62-2.68a.74.74,0,0,0-1.27,0L188,111.16l-.28.52a6.6,6.6,0,0,0,.13,6.6l.31.51,1.62,2.67a.72.72,0,0,0,.63.36.73.73,0,0,0,.64-.38l1.51-2.74Z" transform="translate(0.13 0.13)"/><path class="cls-6" d="M194.13,118.9a8.14,8.14,0,0,0-.17-8.1l-.3-.5L192,107.62a2.22,2.22,0,0,0-3.86.08l-1.51,2.74-.29.51a8.15,8.15,0,0,0,.17,8.11l.3.5.13.21,1.5,2.47a2.22,2.22,0,0,0,3.86-.08l1.38-2.49.13-.25ZM191,121.44a.73.73,0,0,1-.64.38.72.72,0,0,1-.63-.36l-1.62-2.67-.31-.51a6.6,6.6,0,0,1-.13-6.6l.28-.52,1.51-2.74a.74.74,0,0,1,1.27,0l1.62,2.68.31.5a6.61,6.61,0,0,1,.13,6.61l-.28.52Z" transform="translate(0.13 0.13)"/><path class="cls-5" d="M162.75,89a1.79,1.79,0,0,1,2.38,2l1.49.17h.08a.68.68,0,0,1,.6,0h.08l3.11-.35.58-.07a6.93,6.93,0,0,0,.91-.16l-1.37.13h-.16a1.66,1.66,0,1,1-.33-3.31h.08l3.8-.2a1.56,1.56,0,0,1,1.54,1,6.3,6.3,0,0,0,.85-1.41l.23-.54,1.26-2.87a.74.74,0,0,0-.67-1h-.09l-3.11.35-.58.07a6.6,6.6,0,0,0-5.32,3.92l-.23.54-.88,2-.88-2-.23-.54a6.6,6.6,0,0,0-5.32-3.92l-.58-.07-3.11-.35h-.09a.74.74,0,0,0-.67,1l1.26,2.87.23.54a6.61,6.61,0,0,0,2.7,3Z" transform="translate(0.13 0.13)"/><path class="cls-6" d="M179.07,81.89a2.22,2.22,0,0,0-1.86-1h0l-.26,0-3.11.35-.58.06a8.15,8.15,0,0,0-2.8.86l-1.38,2.49a2.22,2.22,0,0,1-3.86.08l-1.5-2.47a8.09,8.09,0,0,0-3-1l-.58-.06-3.11-.35-.26,0a2.24,2.24,0,0,0-2,3.13l.58,1.33.67,1.54.24.54a8,8,0,0,0,2.46,3.15,1.46,1.46,0,0,1,.45-.27l0,0,1.13-.42a6.61,6.61,0,0,1-2.7-3l-.23-.54-1.26-2.87a.74.74,0,0,1,.67-1h.09l3.11.35.58.07a6.6,6.6,0,0,1,5.32,3.92l.23.54.88,2,.88-2,.23-.54a6.6,6.6,0,0,1,5.32-3.92l.58-.07,3.11-.35h.09a.74.74,0,0,1,.67,1l-1.26,2.87-.23.54a6.3,6.3,0,0,1-.85,1.41,1.53,1.53,0,0,1,.11.48,1.58,1.58,0,0,1-1.42,1.65h-.16l-2.09.21a6.93,6.93,0,0,1-.91.16l-.58.07-3.11.35h-.08a.68.68,0,0,0-.6,0h-.08L165.13,91a1.78,1.78,0,0,1-1,1.26l.28.17,2.06.23.25,0,.3,0,.3,0,.25,0,2.06-.23a8.14,8.14,0,0,1,3.65-1.36l.58-.06,1-.12a8,8,0,0,0,2.9-3.46l.24-.54.13-.29.84-2,.28-.63A2.23,2.23,0,0,0,179.07,81.89Z" transform="translate(0.13 0.13)"/><path class="cls-5" d="M160.65,93.63l-.16.07a1.83,1.83,0,0,1-2.37-1,2,2,0,0,1-.1-.4l-1.14-.13h-.09a.74.74,0,0,0-.67,1L157.38,96l.23.54a6.6,6.6,0,0,0,5.32,3.92l.58.07,3.11.35h.08a.68.68,0,0,1,.6,0h.08l3.11-.35.58-.07a6.6,6.6,0,0,0,5.32-3.92l.23-.54,1.26-2.87a.74.74,0,0,0-.67-1h-.09l-3.11.35-.58.07a6.6,6.6,0,0,0-5.32,3.92l-.23.54L167,99l-.88-2-.23-.54A6.57,6.57,0,0,0,162.28,93Z" transform="translate(0.13 0.13)"/><path class="cls-6" d="M177.21,90.63l-.26,0-2.09.23-1,.12-.58.06a8.14,8.14,0,0,0-3.65,1.36A8.22,8.22,0,0,0,167,95.33a8.22,8.22,0,0,0-2.61-2.91l-.28-.17-.07,0-.16.07-1.6.63a6.57,6.57,0,0,1,3.61,3.49l.23.54.88,2,.88-2,.23-.54a6.6,6.6,0,0,1,5.32-3.92l.58-.07,3.11-.35h.09a.74.74,0,0,1,.67,1L176.62,96l-.23.54a6.6,6.6,0,0,1-5.32,3.92l-.58.07-3.11.35h-.08a.68.68,0,0,0-.6,0h-.08l-3.11-.35-.58-.07a6.6,6.6,0,0,1-5.32-3.92l-.23-.54-1.26-2.87a.74.74,0,0,1,.67-1h.09l1.14.13a1.81,1.81,0,0,1,.42-1.46l-1.39-.16-.26,0a2.24,2.24,0,0,0-2,3.13l.12.29a2.16,2.16,0,0,1,.25.27,1.8,1.8,0,0,1,.35,1.1l.53,1.21.24.54a7.85,7.85,0,0,0,1.49,2.26,8.45,8.45,0,0,0,1.41,1.2l1,.12.58.06a8.14,8.14,0,0,1,3.65,1.36l2.06.23.25,0,.3,0,.3,0,.25,0,2.06-.23a8.14,8.14,0,0,1,3.65-1.36l.58-.06,1-.12a5.34,5.34,0,0,0,.48-.35h0a8,8,0,0,0,2.42-3.11l.24-.54,1.25-2.87a2.22,2.22,0,0,0-1.87-3.11h0Z" transform="translate(0.13 0.13)"/><path class="cls-5" d="M174,102.24l-.58.07a6.6,6.6,0,0,0-5.32,3.92l-.23.54-.88,2-.88-2-.23-.54a6.6,6.6,0,0,0-5.32-3.92l-.58-.07-3.11-.35h-.09a.74.74,0,0,0-.67,1l1.26,2.87.23.54a6.6,6.6,0,0,0,5.32,3.92l.58.07,2,.23v8.71h3v-8.71l2-.23.58-.07a6.6,6.6,0,0,0,5.32-3.92l.23-.54,1.26-2.87a.74.74,0,0,0-.67-1h-.09Z" transform="translate(0.13 0.13)"/><path class="cls-6" d="M174.86,100.63l-1,.12-.58.06a8.14,8.14,0,0,0-3.65,1.36,8.22,8.22,0,0,0-2.61,2.91,8.22,8.22,0,0,0-2.61-2.91,8.14,8.14,0,0,0-3.65-1.36l-.58-.06-1-.12-1.63-.18-.46,0-.26,0a2.24,2.24,0,0,0-2,3.13l1.25,2.87.13.3.11.24a8.18,8.18,0,0,0,6.52,4.81l.58.07.66.08v7.37a1.5,1.5,0,0,0,1.5,1.5h3a1.5,1.5,0,0,0,1.5-1.5v-7.37l.66-.08.58-.07a7.61,7.61,0,0,0,1.77-.42h0a8.09,8.09,0,0,0,4.75-4.39l.24-.54,1.25-2.87a2.24,2.24,0,0,0-2-3.13l-.26,0-1.67.19h0Zm3,2.28-1.26,2.87-.23.54a6.6,6.6,0,0,1-5.32,3.92l-.58.07-2,.23v8.71h-3v-8.71l-2-.23-.58-.07a6.6,6.6,0,0,1-5.32-3.92l-.23-.54-1.26-2.87a.74.74,0,0,1,.67-1h.09l3.11.35.58.07a6.6,6.6,0,0,1,5.32,3.92l.23.54.88,2,.88-2,.23-.54a6.6,6.6,0,0,1,5.32-3.92l.58-.07,3.11-.35h.09A.74.74,0,0,1,177.88,102.91Z" transform="translate(0.13 0.13)"/><path class="cls-5" d="M167.13,84.32a.73.73,0,0,0,.64-.38l1.51-2.74.28-.52a6.61,6.61,0,0,0-.13-6.61l-.31-.5-1.62-2.68a.74.74,0,0,0-1.27,0l-1.51,2.74-.28.52a6.6,6.6,0,0,0,.13,6.6l.31.51L166.5,84A.72.72,0,0,0,167.13,84.32Z" transform="translate(0.13 0.13)"/><path class="cls-6" d="M165.22,84.74a2.22,2.22,0,0,0,3.86-.08l1.38-2.49.13-.25.29-.52a8.14,8.14,0,0,0-.17-8.1l-.3-.5-1.63-2.68a2.16,2.16,0,0,0-1.05-.89,25.85,25.85,0,0,0-2.81,1h0l-1.51,2.74-.29.51a8.15,8.15,0,0,0,.17,8.11l.3.5.13.21Zm-.65-4a6.6,6.6,0,0,1-.13-6.6l.28-.52,1.51-2.74a.74.74,0,0,1,1.27,0l1.62,2.68.31.5a6.61,6.61,0,0,1,.13,6.61l-.28.52-1.51,2.74a.73.73,0,0,1-.64.38.72.72,0,0,1-.63-.36l-1.62-2.67Z" transform="translate(0.13 0.13)"/><path class="cls-5" d="M147.07,143.56l-.58-.07-3.11-.35h-.09a.74.74,0,0,0-.67,1l1.26,2.87.23.54a6.6,6.6,0,0,0,5.32,3.92l.58.07,3.11.35h.08a.68.68,0,0,1,.6,0h.08l3.11-.35.58-.07a6.6,6.6,0,0,0,5.32-3.92l.23-.54,1.26-2.87a.74.74,0,0,0-.67-1h-.09l-3.11.35-.58.07a6.6,6.6,0,0,0-5.32,3.92l-.23.54-.88,2-.88-2-.23-.54A6.6,6.6,0,0,0,147.07,143.56Z" transform="translate(0.13 0.13)"/><path class="cls-6" d="M146.66,151.75l.58.06a8.14,8.14,0,0,1,3.65,1.36l2.06.23.25,0,.3,0,.3,0,.25,0,2.06-.23a8.14,8.14,0,0,1,3.65-1.36l.58-.06,1-.12a8,8,0,0,0,2.9-3.46l.24-.54,1.25-2.87a2.24,2.24,0,0,0-2-3.13h0l-.26,0-3.11.35-.58.06a8.15,8.15,0,0,0-2.8.86l-1.38,2.49a2.22,2.22,0,0,1-3.86.08l-1.5-2.47a8.15,8.15,0,0,0-2-.77,8.56,8.56,0,0,0-1-.19l-.58-.06-3.11-.35-.26,0a2.23,2.23,0,0,0-1.72.84h0c0,.06-.1.11-.14.17a2.19,2.19,0,0,0-.32,1.63h0a2.11,2.11,0,0,0,.14.49l1.25,2.87.24.54a8,8,0,0,0,2.9,3.46Zm5.73-4.27.23.54.88,2,.88-2,.23-.54a6.6,6.6,0,0,1,5.32-3.92l.58-.07,3.11-.35h.09a.74.74,0,0,1,.67,1L163.12,147l-.23.54a6.6,6.6,0,0,1-5.32,3.92l-.58.07-3.11.35h-.08a.68.68,0,0,0-.6,0h-.08l-3.11-.35-.58-.07a6.6,6.6,0,0,1-5.32-3.92l-.23-.54-1.26-2.87a.74.74,0,0,1,.67-1h.09l3.11.35.58.07A6.6,6.6,0,0,1,152.39,147.48Z" transform="translate(0.13 0.13)"/><path class="cls-5" d="M150,161.31l3.11.35h.08a.68.68,0,0,1,.6,0h.08l3.11-.35.58-.07a6.6,6.6,0,0,0,5.32-3.92l.23-.54,1.26-2.87a.74.74,0,0,0-.67-1h-.09l-3.11.35-.58.07a6.6,6.6,0,0,0-5.32,3.92l-.23.54-.88,2-.88-2-.23-.54a6.6,6.6,0,0,0-5.32-3.92l-.58-.07-3.11-.35h-.09a.74.74,0,0,0-.67,1l1.26,2.87.23.54a6.6,6.6,0,0,0,5.32,3.92Z" transform="translate(0.13 0.13)"/><path class="cls-6" d="M163.71,151.38l-.26,0-2.09.23-1,.12-.58.06a8.14,8.14,0,0,0-3.65,1.36,8.22,8.22,0,0,0-2.61,2.91,8.22,8.22,0,0,0-2.61-2.91,8.14,8.14,0,0,0-3.65-1.36l-.58-.06-1-.12-2.09-.23-.26,0a2.24,2.24,0,0,0-2,3.13l1.25,2.87.24.54a8.13,8.13,0,0,0,2.9,3.46l1,.12.58.06a8.14,8.14,0,0,1,3.65,1.36l2.06.23.25,0,.3,0,.3,0,.25,0,2.06-.23a8.14,8.14,0,0,1,3.65-1.36l.58-.06,1-.12a8,8,0,0,0,1.31-1.1h0a8,8,0,0,0,1.59-2.36l.24-.54,1.25-2.87a2.2,2.2,0,0,0-1.24-3h0A2.16,2.16,0,0,0,163.71,151.38Zm-19.6,5.94-.23-.54-1.26-2.87a.74.74,0,0,1,.67-1h.09l3.11.35.58.07a6.6,6.6,0,0,1,5.32,3.92l.23.54.88,2,.88-2,.23-.54a6.6,6.6,0,0,1,5.32-3.92l.58-.07,3.11-.35h.09a.74.74,0,0,1,.67,1l-1.26,2.87-.23.54a6.6,6.6,0,0,1-5.32,3.92l-.58.07-3.11.35h-.08a.68.68,0,0,0-.6,0h-.08l-3.11-.35-.58-.07A6.6,6.6,0,0,1,144.11,157.32Z" transform="translate(0.13 0.13)"/><path class="cls-5" d="M160.79,169h0a1.85,1.85,0,0,1,.84,0,6.71,6.71,0,0,0,1.25-1.88l.23-.54,1.26-2.87a.74.74,0,0,0-.67-1h-.09l-3.11.35-.58.07a6.6,6.6,0,0,0-5.32,3.92l-.23.54-.88,2-.88-2-.23-.54a6.6,6.6,0,0,0-5.32-3.92l-.58-.07-3.11-.35h-.09a.74.74,0,0,0-.67,1l1.26,2.87.23.54a6.6,6.6,0,0,0,5.32,3.92l.58.07,2,.23V180h3v-8.71l.79-.09s.06-.07.11-.09A25.6,25.6,0,0,1,160.79,169Z" transform="translate(0.13 0.13)"/><path class="cls-6" d="M161.36,161.38l-1,.12-.58.06a8.14,8.14,0,0,0-3.65,1.36,8.22,8.22,0,0,0-2.61,2.91,8.22,8.22,0,0,0-2.61-2.91,8.14,8.14,0,0,0-3.65-1.36l-.58-.06-1-.12-1.59-.18-.5,0-.26,0a2.24,2.24,0,0,0-2,3.13l1.25,2.87.16.36.08.18a8.19,8.19,0,0,0,6.52,4.81l.58.07.66.08V180a1.5,1.5,0,0,0,1.5,1.5h3a1.5,1.5,0,0,0,1.5-1.5v-6.29a1.41,1.41,0,0,1-1.24-.93,1.37,1.37,0,0,1,.53-1.58l-.79.09V180h-3v-8.71l-2-.23-.58-.07a6.6,6.6,0,0,1-5.32-3.92l-.23-.54-1.26-2.87a.74.74,0,0,1,.67-1h.09l3.11.35.58.07a6.6,6.6,0,0,1,5.32,3.92l.23.54.88,2,.88-2,.23-.54a6.6,6.6,0,0,1,5.32-3.92l.58-.07,3.11-.35h.09a.74.74,0,0,1,.67,1l-1.26,2.87-.23.54a6.71,6.71,0,0,1-1.25,1.88,1.74,1.74,0,0,1,1.23.86,7.8,7.8,0,0,0,1.39-2.14l.24-.54,1.25-2.87a2.24,2.24,0,0,0-2-3.13l-.26,0-1,.11h0Z" transform="translate(0.13 0.13)"/><path class="cls-5" d="M156.06,141.43a6.61,6.61,0,0,0-.13-6.61l-.31-.5L154,131.64a.74.74,0,0,0-1.27,0l-1.51,2.74-.28.52a6.6,6.6,0,0,0,.13,6.6l.31.51,1.62,2.67a.72.72,0,0,0,.63.36.73.73,0,0,0,.64-.38l1.51-2.74Z" transform="translate(0.13 0.13)"/><path class="cls-6" d="M157.38,142.15a8.14,8.14,0,0,0-.17-8.1l-.3-.5-1.63-2.68a2.13,2.13,0,0,0-.71-.72,2.17,2.17,0,0,0-1.2-.36,2.22,2.22,0,0,0-2,1.16l-1.11,2-.4.73-.29.51a8.3,8.3,0,0,0,.17,8.11l.3.5.13.21,1.5,2.47a2.22,2.22,0,0,0,3.86-.08l1.38-2.49.13-.25Zm-3.11,2.54a.73.73,0,0,1-.64.38.72.72,0,0,1-.63-.36L151.38,142l-.31-.51a6.6,6.6,0,0,1-.13-6.6l.28-.52,1.51-2.74a.74.74,0,0,1,1.27,0l1.62,2.68.31.5a6.61,6.61,0,0,1,.13,6.61l-.28.52Z" transform="translate(0.13 0.13)"/><path class="cls-7" d="M9.52,241.49l17.5.11h0l11.82.08,17.71.11H58.9a16.47,16.47,0,0,0,16.28-13.28L95.31,165a7.52,7.52,0,0,0-7.13-9L87,156h0l-15.91-.42-9.33-.25h0l-15.71-.42h0l-9.46-.25-7.41-.2a16.53,16.53,0,0,0-9.45,2.66,16.31,16.31,0,0,0-3.23,2.71C12.62,164.15,6.74,170.58,0,178v63.45l9.52.06Z" transform="translate(0.13 0.13)"/><path class="cls-8" d="M128.1,148.56c.08-.76.15-1.52.22-2.28v-.05a.25.25,0,0,0-.5.05h0C127.91,147,128,147.8,128.1,148.56Z" transform="translate(0.13 0.13)"/><path class="cls-8" d="M128,136.69l0-.73,0-.1,0-.06-1.09-3.44,0-.07a1,1,0,0,1,0-.53l-.27,0-.17.05a1.32,1.32,0,0,0-.85,1.52v.06l.18.87.72,3.37v.05a1,1,0,0,0,1.06.79,1,1,0,0,0,.92-1A.93.93,0,0,1,128,136.69Z" transform="translate(0.13 0.13)"/><path class="cls-8" d="M123.15,118.43a2,2,0,0,0-1.26,2.53l0,.1.11.32a1.36,1.36,0,0,1,.59-.67,1.42,1.42,0,0,1,2,.51l0,.09,1.67,3.39a1.28,1.28,0,0,1-.16,1.37,1.81,1.81,0,0,0,.67-1.89l-1.08-4.34a.75.75,0,0,0,0-.16,2,2,0,0,0-1.55-1.32h0A1.83,1.83,0,0,0,123.15,118.43Z" transform="translate(0.13 0.13)"/><path class="cls-8" d="M124,125.83l-1-1.73.34,1,0,.1a1.82,1.82,0,0,0,1,1.07,1.3,1.3,0,0,1-.31-.35Z" transform="translate(0.13 0.13)"/><path class="cls-8" d="M121.64,114.38a2.32,2.32,0,0,0,1.17-3.06c-.61-1.37-1.24-2.75-1.88-4.11l0-.08a2.43,2.43,0,0,0-4.33,2.2l.07.13c.48,1,1,1.89,1.46,2.83l1.9,2.18A2.28,2.28,0,0,0,121.64,114.38Z" transform="translate(0.13 0.13)"/><path class="cls-8" d="M115.79,103a2.57,2.57,0,0,0,.52-3.59c-.32-.44-.66-.87-1-1.3l-1.79-2.35h0a2.6,2.6,0,0,0-4.12,3.18l.12.16c.86,1.1,1.71,2.2,2.58,3.29l.13.16a2.5,2.5,0,0,0,1.34.86A2.54,2.54,0,0,0,115.79,103Z" transform="translate(0.13 0.13)"/><path class="cls-8" d="M103.32,86.43a2.57,2.57,0,0,0-3.06,4.11c.06,0,.11.11.18.16h0c.86.6,1.69,1.23,2.5,1.88l.77.62h0a2.6,2.6,0,0,0,3.67-.34,2.6,2.6,0,0,0,.06-3.24,2.38,2.38,0,0,0-.41-.43A38.72,38.72,0,0,0,103.32,86.43Z" transform="translate(0.13 0.13)"/><path class="cls-8" d="M89.4,85.6h0a34.68,34.68,0,0,1,3.86,1.24l.08,0a2.44,2.44,0,0,0,1.6-4.6h0a30.91,30.91,0,0,0-4.53-1.22,2.33,2.33,0,0,0-1,4.54Z" transform="translate(0.13 0.13)"/><path class="cls-8" d="M77.24,85h0a29.46,29.46,0,0,1,4.09-.37h.17a2,2,0,1,0-.42-4h0a33.61,33.61,0,0,0-4.57.8A1.82,1.82,0,0,0,77.24,85Z" transform="translate(0.13 0.13)"/><path class="cls-8" d="M69.4,87.25a1.33,1.33,0,0,0,.47-1.82A1.32,1.32,0,0,0,68.05,85h0a37.42,37.42,0,0,0-3.4,2.29l-.34.24A1,1,0,0,0,64,88.8a1,1,0,0,0,1.38.38,37.36,37.36,0,0,1,3.37-1.64l.46-.21Z" transform="translate(0.13 0.13)"/><path class="cls-8" d="M58.27,94l0,0a.25.25,0,1,0-.4-.31c-.47.6-.94,1.2-1.4,1.81.6-.48,1.18-1,1.76-1.46Z" transform="translate(0.13 0.13)"/><path class="cls-8" d="M128.75,145.72v-.05a.22.22,0,0,0-.24-.2.23.23,0,0,0-.2.24l.2,2.28Z" transform="translate(0.13 0.13)"/><path class="cls-8" d="M128.46,131.38a1,1,0,0,1,.19.34l0,.11.69,3.68a.73.73,0,0,1-.58.84A.72.72,0,0,1,128,136l0,.73a.93.93,0,0,0,.45.82,1.14,1.14,0,0,0,.26.09l.07,0a.92.92,0,0,0,1.06-.77v0l.2-1.24a.56.56,0,0,1-.09-.38l.38-3.67h0a1.13,1.13,0,0,0-.12-.18,1.21,1.21,0,0,0-.84-.37A1.19,1.19,0,0,0,128.46,131.38Z" transform="translate(0.13 0.13)"/><path class="cls-8" d="M131.73,117.05a1.89,1.89,0,0,0-2.15,1.57c-.16,1-.29,1.95-.43,2.92-.08.53-.16,1-.23,1.58a1.68,1.68,0,0,0,1.26,1.86,1.7,1.7,0,0,0,1.58-.43,1.23,1.23,0,0,1,0-.27c.34-1.19.7-2.38,1.06-3.56a1.43,1.43,0,0,1,.19-.37c.07-.32.15-.64.23-1v-.06a.5.5,0,0,0,0-.12,2.18,2.18,0,0,0,0-.57A1.88,1.88,0,0,0,131.73,117.05Z" transform="translate(0.13 0.13)"/><path class="cls-8" d="M135.54,103.66a2.34,2.34,0,0,0-2.87,1.62l-1.23,4.4a2.23,2.23,0,0,0,.36,1.9,2.19,2.19,0,0,0,3.07.47,2.23,2.23,0,0,0,.78-1.07l0-.08,1.41-4.17,0-.09,0-.11a2.31,2.31,0,0,0-.45-2.1A2.34,2.34,0,0,0,135.54,103.66Z" transform="translate(0.13 0.13)"/><path class="cls-8" d="M137.63,92.41l-1.79,4-.09.2a2.42,2.42,0,0,0-.21.94A2.48,2.48,0,0,0,137,99.9a2.54,2.54,0,0,0,.78.22,2.51,2.51,0,0,0,2.56-1.41l0-.11,1.87-3.94.06-.12,0-.05A2.54,2.54,0,0,0,141,91.12a2.45,2.45,0,0,0-1-.22A2.54,2.54,0,0,0,137.63,92.41Z" transform="translate(0.13 0.13)"/><path class="cls-8" d="M146.42,87.29l.1-.15.93-1.34L149,83.61l.1-.16a2.61,2.61,0,0,0-4.29-3q-1.35,1.91-2.67,3.83a2.63,2.63,0,0,0,.65,3.62,2.76,2.76,0,0,0,.88.39,2.57,2.57,0,0,0,1.64-.13A2.63,2.63,0,0,0,146.42,87.29Z" transform="translate(0.13 0.13)"/><path class="cls-8" d="M154.58,77.19a37.75,37.75,0,0,1,3.18-2.75h0a2.51,2.51,0,0,0-3-4,41.29,41.29,0,0,0-3.67,3l0,0a2.56,2.56,0,0,0,3.56,3.69Z" transform="translate(0.13 0.13)"/><path class="cls-8" d="M168.78,68.93h0a2.21,2.21,0,0,0-.9-4.33,29.36,29.36,0,0,0-4.7,1.26h0l-.11,0a2.33,2.33,0,0,0,1.8,4.3l0,0a25.85,25.85,0,0,1,2.81-1C168.08,69.13,168.42,69,168.78,68.93Z" transform="translate(0.13 0.13)"/><path class="cls-8" d="M177,68.41a29,29,0,0,1,4.09.8h0A1.7,1.7,0,0,0,182.14,66a25.78,25.78,0,0,0-4.6-1.32h0l-.12,0a1.89,1.89,0,1,0-.44,3.75Z" transform="translate(0.13 0.13)"/><path class="cls-8" d="M188.85,72.69a37.85,37.85,0,0,1,3.6,2.49.93.93,0,0,0,1.23-1.39,40.36,40.36,0,0,0-3.43-3.09h0l-.12-.08a1.22,1.22,0,1,0-1.27,2.08Z" transform="translate(0.13 0.13)"/><path class="cls-8" d="M199,81.18l1.54,1.68c-.39-.66-.78-1.31-1.19-2,0,0,0,0,0,0a.23.23,0,0,0-.32,0,.22.22,0,0,0,0,.31Z" transform="translate(0.13 0.13)"/><path class="cls-8" d="M129.6,144.81l.13-1.89v0a.17.17,0,0,0-.19-.15.17.17,0,0,0-.16.19h0Z" transform="translate(0.13 0.13)"/><path class="cls-8" d="M126.84,132.29l0,.07L128,135.8l0,.06,0,.1a.72.72,0,0,0,.76.39.73.73,0,0,0,.58-.84l-.69-3.68,0-.11a1,1,0,0,0-.19-.34,1,1,0,0,0-1-.28.92.92,0,0,0-.61.66A1,1,0,0,0,126.84,132.29Z" transform="translate(0.13 0.13)"/><path class="cls-8" d="M126.3,124.7l-1.67-3.39,0-.09a1.42,1.42,0,0,0-2-.51,1.36,1.36,0,0,0-.59.67,1.45,1.45,0,0,0,.07,1.28l.06.1.4.68h0l.39.66,1,1.73.06.1a1.31,1.31,0,0,0,1.69.5,1.17,1.17,0,0,0,.43-.36A1.28,1.28,0,0,0,126.3,124.7Z" transform="translate(0.13 0.13)"/><path class="cls-8" d="M115.48,114.55l2.43,2.56.09.1a1.65,1.65,0,0,0,2.45-2.22l-.45-.52-1.9-2.18-.15-.17,0-.06a1.74,1.74,0,0,0-2.45-.07,1.76,1.76,0,0,0-.07,2.46Z" transform="translate(0.13 0.13)"/><path class="cls-8" d="M112.74,109.61a1.84,1.84,0,0,0-.38-2.47l-.1-.08-3.16-2.15h0a1.86,1.86,0,1,0-2,3.1l.13.09,2.93,1.93.12.09a1.87,1.87,0,0,0,2.53-.5Z" transform="translate(0.13 0.13)"/><path class="cls-8" d="M102.29,101.47l-3.6-1.27a1.84,1.84,0,0,0-1.24,3.46l.14,0,3.3,1.21.15.06h0a1.86,1.86,0,1,0,1.24-3.51Z" transform="translate(0.13 0.13)"/><path class="cls-8" d="M92.83,100.49a1.73,1.73,0,0,0-.51-1.36,1.71,1.71,0,0,0-1.09-.5l-3.79-.3a1.66,1.66,0,0,0-.33,3.3h.14l3.5.43h.46A1.74,1.74,0,0,0,92.83,100.49Z" transform="translate(0.13 0.13)"/><path class="cls-8" d="M81.53,99.88a1.42,1.42,0,0,0-1.66-1.15l-3.72.67a1.3,1.3,0,0,0,.37,2.57h.11l3.54-.39h.21A1.43,1.43,0,0,0,81.53,99.88Z" transform="translate(0.13 0.13)"/><path class="cls-8" d="M69.65,103.5l.07,0,.11,0a1,1,0,1,0-.83-1.71l-.54.26h0l-2.83,1.37a.73.73,0,0,0-.37.88.72.72,0,0,0,.91.45h.06l1.28-.44h0Z" transform="translate(0.13 0.13)"/><path class="cls-8" d="M59.44,107.47,58,108.7l1.63-.94h0s0,0,0,0a.17.17,0,0,0,0-.25A.18.18,0,0,0,59.44,107.47Z" transform="translate(0.13 0.13)"/><path class="cls-8" d="M130.2,142.55h0v0a.16.16,0,0,0-.17-.15.16.16,0,0,0-.15.17l.13,1.88Z" transform="translate(0.13 0.13)"/><path class="cls-8" d="M130,135.21a.56.56,0,0,0,.09.38.64.64,0,0,0,.42.33.66.66,0,0,0,.79-.5v0l.77-3.52v-.05s0-.06,0-.09a.87.87,0,0,0-1.73-.19h0Z" transform="translate(0.13 0.13)"/><path class="cls-8" d="M131.78,124.28a1.23,1.23,0,0,0,0,.27,1.13,1.13,0,0,0,0,.32,1.18,1.18,0,0,0,.72.86,1.21,1.21,0,0,0,1.56-.68l0-.06c.44-1.11.87-2.22,1.28-3.34l0-.07a.64.64,0,0,1,0-.07,1.34,1.34,0,0,0-.89-1.68,1.32,1.32,0,0,0-1.49.52,1.43,1.43,0,0,0-.19.37C132.48,121.9,132.12,123.09,131.78,124.28Z" transform="translate(0.13 0.13)"/><path class="cls-8" d="M136.23,115.9a1.58,1.58,0,0,0,2.15-.57l.06-.08,1.79-3.06.05-.09,0-.06a1.66,1.66,0,0,0-2.94-1.55l-1.74,3.32A1.57,1.57,0,0,0,136.23,115.9Z" transform="translate(0.13 0.13)"/><path class="cls-8" d="M144.25,106.57l.09-.1,2.31-2.64.09-.11,0,0a1.83,1.83,0,0,0-.23-2.57,1.81,1.81,0,0,0-2.57.23l-2.42,2.88a1.79,1.79,0,0,0,2.71,2.33Z" transform="translate(0.13 0.13)"/><path class="cls-8" d="M154.59,97l.13-.09h0a1.85,1.85,0,0,0,.75-1.51,1.8,1.8,0,0,0-.35-1.1,2.16,2.16,0,0,0-.25-.27,1.66,1.66,0,0,0-.63-.39h0a1.86,1.86,0,0,0-1.73.26l-3.06,2.24a1.87,1.87,0,0,0,2.21,3l.12-.09,1.3-1h0Z" transform="translate(0.13 0.13)"/><path class="cls-8" d="M158.44,90.81a1.81,1.81,0,0,0-.42,1.46,2,2,0,0,0,.1.4,1.83,1.83,0,0,0,2.37,1l.16-.07,1.63-.64,1.6-.63.16-.07.07,0a1.79,1.79,0,0,0-1.36-3.3l-2.44.91-1.13.42,0,0a1.46,1.46,0,0,0-.45.27A1.48,1.48,0,0,0,158.44,90.81Z" transform="translate(0.13 0.13)"/><path class="cls-8" d="M174,87.21l-3.8.2h-.08a1.66,1.66,0,1,0,.33,3.31h.16l1.37-.13,2.09-.21h.16a1.58,1.58,0,0,0,1.42-1.65,1.53,1.53,0,0,0-.11-.48A1.56,1.56,0,0,0,174,87.21Z" transform="translate(0.13 0.13)"/><path class="cls-8" d="M186,90.47a1.2,1.2,0,0,0-.84-1.49l-.24-.06h0l-2.46-.65h0l-.94-.25-.07,0a1.35,1.35,0,0,0-1.58,1.07,1.34,1.34,0,0,0,1.06,1.58l.13,0c.31.07.63.12.95.18h0l2.5.47h.13A1.2,1.2,0,0,0,186,90.47Z" transform="translate(0.13 0.13)"/><path class="cls-8" d="M195.37,94.81a.64.64,0,0,0-.07-.7s0,0,0,0A1.49,1.49,0,0,1,195.37,94.81Z" transform="translate(0.13 0.13)"/><path class="cls-8" d="M193.41,93.17a1.61,1.61,0,0,1,.37-.07L192,92l-.09,0a.88.88,0,1,0-.76,1.58l.07,0,.51.25c.55-.23,1.1-.44,1.67-.62Z" transform="translate(0.13 0.13)"/><path class="cls-8" d="M200.53,98.94h0l1.49,1.13-1.28-1.37s0,0,0,0a.16.16,0,0,0-.23,0A.16.16,0,0,0,200.53,98.94Z" transform="translate(0.13 0.13)"/><path class="cls-8" d="M202,216.56a.34.34,0,0,0-.28.39h0c.12.8.24,1.6.38,2.4.07-.52.13-1,.19-1.56s-.09-.82-.14-1.23A.38.38,0,0,0,202,216.56Z" transform="translate(0.13 0.13)"/><path class="cls-8" d="M201.83,206.67c0-.72.1-1.44.15-2.16-.15-1-.28-1.92-.43-2.88a1.55,1.55,0,0,0-.05-.23,1.76,1.76,0,0,0-3.38,1l0,.12c.47,1.56.94,3.13,1.43,4.7l0,.11a1.38,1.38,0,0,0,2.53.23A1.24,1.24,0,0,1,201.83,206.67Z" transform="translate(0.13 0.13)"/><path class="cls-8" d="M196.32,186.92l0-.09a2.72,2.72,0,0,0-.29-.38,2.47,2.47,0,0,0-1.31-.74,2.45,2.45,0,0,0-2.58,3.67l.31.55c.27.44.54.89.79,1.35l.38.69c.26.47.51.94.76,1.42l.09.18h0a2.34,2.34,0,0,0,2.13,1.24,2.19,2.19,0,0,0,.77-.17,2.29,2.29,0,0,0,1.25-3c-.55-1.34-1.17-2.65-1.84-3.94-.14-.27-.27-.54-.41-.8Z" transform="translate(0.13 0.13)"/><path class="cls-8" d="M190.05,182a2.61,2.61,0,0,0,.16-3.69c-.41-.45-.86-.89-1.3-1.33a34.35,34.35,0,0,0-2.6-2.36l-.12-.08a2.61,2.61,0,0,0-3.2,4.12h0a39.16,39.16,0,0,1,3.38,3.2,2.13,2.13,0,0,0,.33.28,2.62,2.62,0,0,0,3.34-.14Z" transform="translate(0.13 0.13)"/><path class="cls-8" d="M169,169.85a2.29,2.29,0,0,0,1.77,2.71h0c.47.09.93.23,1.4.35a26.24,26.24,0,0,1,3,1l.11,0a2.45,2.45,0,0,0,1.6-4.64h0a26.78,26.78,0,0,0-4-1c-.45-.08-.91-.15-1.37-.2A2.29,2.29,0,0,0,169,169.85Z" transform="translate(0.13 0.13)"/><path class="cls-8" d="M161.64,169a1.85,1.85,0,0,0-.84,0h0a25.6,25.6,0,0,0-4.89,2.11c-.05,0-.07.06-.11.09a1.37,1.37,0,0,0-.53,1.58,1.41,1.41,0,0,0,1.24.93,1.27,1.27,0,0,0,.54-.08h0a27.25,27.25,0,0,1,3-.87h0c.53-.13,1.06-.24,1.6-.33l.24-.06a1.76,1.76,0,0,0,1.15-2.22,1.3,1.3,0,0,0-.15-.34A1.74,1.74,0,0,0,161.64,169Z" transform="translate(0.13 0.13)"/><path class="cls-8" d="M148.45,178.2l.06-.06a.35.35,0,0,0-.55-.43c-.5.65-1,1.29-1.48,1.95.66-.48,1.3-1,2-1.45Z" transform="translate(0.13 0.13)"/><path class="cls-8" d="M202.37,216.19a.3.3,0,0,0-.27.33v0c.05.41.1.82.14,1.23s.08.76.13,1.14c.12-.8.22-1.6.33-2.41h0v-.07A.3.3,0,0,0,202.37,216.19Z" transform="translate(0.13 0.13)"/><path class="cls-8" d="M204.27,207V207l1-4.71,0-.07,0-.21a1.59,1.59,0,0,0-3.18-.23l-.18,2.78c0,.72-.11,1.44-.15,2.16a1.24,1.24,0,0,0,.32.89,1.31,1.31,0,0,0,.65.39A1.24,1.24,0,0,0,204.27,207Z" transform="translate(0.13 0.13)"/><path class="cls-8" d="M205.09,194.42a2.11,2.11,0,0,0,2.69-1.27l.05-.12q.79-2.25,1.56-4.48l0-.13a.93.93,0,0,0,0-.13,2.3,2.3,0,0,0-4.44-1.21q-.66,2.41-1.27,4.83A2.12,2.12,0,0,0,205.09,194.42Z" transform="translate(0.13 0.13)"/><path class="cls-8" d="M214.3,178l1.18-2.09.1-.19h0a2.53,2.53,0,0,0,.28-.87,2.58,2.58,0,0,0-1.32-2.66l-.21-.09a2.59,2.59,0,0,0-3.31,1.13c-.6,1.1-1.18,2.21-1.76,3.32-.2.39-.41.78-.62,1.17,0,0,0,.11-.07.16a2.53,2.53,0,0,0,3.13,3.42,2.56,2.56,0,0,0,1.39-1.15l.1-.18c.1-.18.21-.36.31-.55Z" transform="translate(0.13 0.13)"/><path class="cls-8" d="M221.66,167.77a30.33,30.33,0,0,1,2.54-2.41h0a2.54,2.54,0,0,0-3.21-3.94,35.39,35.39,0,0,0-3.77,3.46l-.08.08h0a2.54,2.54,0,0,0-.67,1.5,2.57,2.57,0,0,0,.6,1.94l.2.24a2.6,2.6,0,0,0,3.68-.14Z" transform="translate(0.13 0.13)"/><path class="cls-8" d="M231.76,160.9a19.71,19.71,0,0,1,4.23-1h0a2.12,2.12,0,0,0-.32-4.22,21.28,21.28,0,0,0-5.32.81h0l-.14,0a2.31,2.31,0,0,0,1.54,4.35Z" transform="translate(0.13 0.13)"/><path class="cls-8" d="M246.63,158.31c-.22-.12-.43-.24-.66-.35h0l-.19-.08a1.59,1.59,0,0,0-1,3c.59.2,1.18.43,1.76.68.83.36,1.64.76,2.44,1.2h0a1.25,1.25,0,0,0,1.05.05v-2.36A24.46,24.46,0,0,0,246.63,158.31Z" transform="translate(0.13 0.13)"/><path class="cls-8" d="M227.92,137.15a.29.29,0,0,0-.25.33h0c.11.7.2,1.41.32,2.12.07-.45.12-.91.17-1.36l-.12-1.07S228,137.14,227.92,137.15Z" transform="translate(0.13 0.13)"/><path class="cls-8" d="M225.86,122.66a1.49,1.49,0,0,0-1.07,1.84l0,.1c.37,1.4.75,2.81,1.15,4.21l0,.09a1.19,1.19,0,0,0,1.13.84h.15a1.18,1.18,0,0,0,.88-.61,1,1,0,0,1-.38-.83c0-1,.1-2,.16-3-.06-.46-.11-.92-.17-1.39,0-.06,0-.13,0-.19a1.6,1.6,0,0,0-.2-.44A1.5,1.5,0,0,0,225.86,122.66Z" transform="translate(0.13 0.13)"/><path class="cls-8" d="M219.87,112.49l.08.16c.61,1.28,1.23,2.56,1.87,3.84l.09.16a1.94,1.94,0,0,0,2.46.93.93.93,0,0,0,.2-.1h0a1.94,1.94,0,0,0,.89-2.43c-.18-.46-.38-.92-.57-1.38h0c-.39-1-.78-1.94-1.19-2.9a.2.2,0,0,0,0-.08,2.09,2.09,0,0,0-3.92.4,2,2,0,0,0-.07.59A2.15,2.15,0,0,0,219.87,112.49Z" transform="translate(0.13 0.13)"/><path class="cls-8" d="M215.32,105.6a2.26,2.26,0,0,0,3.13.35,2.23,2.23,0,0,0,.37-3.14,31,31,0,0,0-3.18-3.51,2.24,2.24,0,0,0-3.11,3.22A35.4,35.4,0,0,1,215.32,105.6Z" transform="translate(0.13 0.13)"/><path class="cls-8" d="M204.15,92.79c-.39-.09-.77-.17-1.16-.24a2,2,0,0,0-.83,3.84h0c.48.13,1,.29,1.43.46h0a20.26,20.26,0,0,1,2.33.94l.09,0,.25.07a2.09,2.09,0,0,0,2.51-1.18A2.11,2.11,0,0,0,207.68,94h0l-.94-.37a22.63,22.63,0,0,0-2.58-.79Z" transform="translate(0.13 0.13)"/><path class="cls-8" d="M190.11,97.25h0a21.67,21.67,0,0,1,4-1.14l.2,0a1.52,1.52,0,0,0,1-1.25,1.49,1.49,0,0,0-.05-.66s0,0,0,0a1.52,1.52,0,0,0-1.52-1,1.61,1.61,0,0,0-.37.07h0c-.57.18-1.12.39-1.67.62a21.23,21.23,0,0,0-2.66,1.32,1.19,1.19,0,0,0,1,2.14Z" transform="translate(0.13 0.13)"/><path class="cls-8" d="M182.69,101.6l.05-.06a.29.29,0,0,0-.48-.34c-.42.59-.85,1.17-1.25,1.77.57-.45,1.11-.91,1.66-1.36Z" transform="translate(0.13 0.13)"/><path class="cls-8" d="M228.26,136.8a.27.27,0,0,0-.23.29v.09l.12,1.07c0,.32.06.65.11,1,.1-.71.18-1.42.27-2.12h0V137A.26.26,0,0,0,228.26,136.8Z" transform="translate(0.13 0.13)"/><path class="cls-8" d="M228.14,129.14a1.09,1.09,0,0,0,.45.24,1.06,1.06,0,0,0,1.25-.82v0c.3-1.41.56-2.82.83-4.23v-.06a1,1,0,0,0,0-.17,1.36,1.36,0,1,0-2.72-.16c0,.47-.05.94-.07,1.41-.06,1-.12,2-.16,3A1,1,0,0,0,228.14,129.14Z" transform="translate(0.13 0.13)"/><path class="cls-8" d="M232.7,116.07l0-.09c.43-1.35.85-2.71,1.25-4.06l0-.1,0-.11a2,2,0,0,0-3.83-.91c-.35,1.44-.68,2.89-1,4.33a1.81,1.81,0,0,0,3.49.94Z" transform="translate(0.13 0.13)"/><path class="cls-8" d="M237,104.05l.61-1.25,1.24-2.51.08-.16v0a2.19,2.19,0,0,0-.4-2.45,2,2,0,0,0-.69-.5,2.22,2.22,0,0,0-2.95,1.09l-.53,1.14-1.36,2.95a2.17,2.17,0,0,0,3.85,2l.07-.12Z" transform="translate(0.13 0.13)"/><path class="cls-8" d="M243.22,93.47a1.59,1.59,0,0,0,.13-.13,34,34,0,0,1,2.68-3h0a2.17,2.17,0,0,0,.05-3,2,2,0,0,0-.8-.53,2.25,2.25,0,0,0-2.28.44c-.76.72-1.48,1.48-2.16,2.25-.27.31-.54.61-.8.93-.06.07-.13.14-.19.22h0a2.23,2.23,0,0,0,.36,3.14,2.2,2.2,0,0,0,1.62.47A2.25,2.25,0,0,0,243.22,93.47Z" transform="translate(0.13 0.13)"/><path class="cls-8" d="M249.84,84.75A1.56,1.56,0,0,0,250,85V82.87A2,2,0,0,0,249.84,84.75Z" transform="translate(0.13 0.13)"/><rect class="cls-9" x="0.13" y="0.13" width="250" height="250"/></svg>