<?xml version="1.0" encoding="utf-8"?>
<!-- Generator: Adobe Illustrator 23.0.0, SVG Export Plug-In . SVG Version: 6.00 Build 0)  -->
<svg version="1.1" id="C" xmlns="http://www.w3.org/2000/svg" xmlns:xlink="http://www.w3.org/1999/xlink" x="0px" y="0px"
	 viewBox="0 0 250.3 250.3" style="enable-background:new 0 0 250.3 250.3;" xml:space="preserve">
<style type="text/css">
	.st0{fill:none;}
	.st1{fill:#FEFEFE;}
	.st2{fill:#E6E6E6;}
	.st3{fill:#CCCCCC;}
	.st4{fill:#808080;}
	.st5{fill:#666666;}
	.st6{fill:#B3B3B3;}
	.st7{fill:#FFFFFF;}
	.st8{fill:#51C1EB;}
	.st9{fill:#7AB829;}
	.st10{fill:#A6C71E;}
	.st11{fill:#4AAC33;}
	.st12{fill:none;stroke:#000000;stroke-width:0.25;stroke-miterlimit:10;}
</style>
<title>FörtätaStaden KVADRAT_C</title>
<rect x="0.1" y="0.1" class="st0" width="250" height="62.5"/>
<path class="st1" d="M6,68.1l3.8,2.2c0.7-0.3,1.6-0.4,2.4-0.4c1.8,0,3.3,1.9,4.1,4.1l3.5,2v47.5l19.1,4.8V99.8l5.7-1.9
	c-0.1-0.2-0.2-0.3-0.2-0.5c-0.5-1.6,0.3-3.4,2-3.9c0.7-0.2,1.4-0.2,2,0c0.3-2.5,1.8-4.7,4-5.9c0.3-0.2,0.6-0.4,1-0.5
	c0.2-0.1,0.4-0.1,0.6-0.2c1.7-0.5,3.5-0.4,5.1,0.3c0.6-0.8,1.4-1.5,2.3-1.8c2.3-0.8,4.9,0.4,5.8,2.7c0.5-0.1,1.1-0.1,1.6,0
	c1.3-2.2,4.1-3,6.4-1.8c0.4,0.2,0.7,0.5,1.1,0.8l4.2-1.4v58.9L103,152v45.6h10.2c1.8-1.9,4.2-3.1,6.7-3.5c0-0.1,0-0.2,0-0.3
	c0-7.9,5.6-14.3,12.6-14.3c4.4,0.1,8.4,2.5,10.5,6.3c3.7-6.5,10.2-10.7,17.5-10.7c10.6,0,19.4,8.9,20.8,20.6
	c2.1-4.7,6.3-7.9,11.3-7.9c5.6,0,10.3,4.1,12,9.9h13.3c0-0.1,0-0.1,0-0.1c-0.1-4.3,3.2-7.9,7.6-8.1c1.7,0,3.4,0.7,4.7,1.8
	c2.4-5.9,7.7-10.2,13.9-11.4c0.9-0.2,1.8-0.4,2.8-0.4c0.5,0,1.1,0,1.6,0.1c0.6,0,1.2,0.1,1.8,0.2V62.6H0.1v2.1l3.7,2.1
	C4.7,67.2,5.4,67.6,6,68.1z"/>
<polygon class="st2" points="238.8,209.4 250.1,209.4 250.1,209.4 238.8,209.4 "/>
<path class="st2" d="M243.2,226c0-4.6,2.7-8.7,6.9-10.4v-3.3h-11.3v0.5c0,2.7-1.8,5.1-4.3,5.9h1.4v1.4l1.4-0.4l1.6,6l-1.5,0.4
	l-1.5-5.5v7.5h-1.8v5.3h-1.6v-5.3h-2.7v5.3h-1.6v-5.3h-1.8v-7.5l-1.5,5.5l-1.5-0.4l1.6-6l1.4,0.4v-1.3h1.4c-2.6-0.8-4.3-3.2-4.3-5.9
	v-0.5h-16.3c-0.3,0-0.6-0.1-0.8-0.3c-0.2,0.2-0.5,0.4-0.7,0.6l0,0v1.6c0,2.5-1.6,4.8-4,5.6h1.3v1.3l1.3-0.4l1.5,5.6l-1.4,0.4
	l-1.4-5.1v7h-1.7v4.9h-1.5v-4.9h-2.5v4.9h-1.5v-4.9h-1.7v-7l-1.4,5.1l-1.4-0.4l1.5-5.6l1.3,0.4v-1.3h1.3c-2.4-0.8-4.1-3-4.1-5.6
	v-1.6c-0.4-0.6-2.3-3.6,0.8-5.3c-0.1-0.5-0.1-1.1-0.1-1.6h-81.5c-0.8,0-1.5-0.7-1.5-1.5c0-0.5,0.2-0.9,0.7-1.2
	c0.7-2,1.8-3.9,3.4-5.5H103v43.2H65.3v3.6h-3V241H19.4v3.5h-3V241h-0.6v-0.1H0.1v9.3h250v-13.7C245.9,234.7,243.2,230.6,243.2,226z
	 M102.7,245.8l31.2-38.7h47.3l4.1,38.7H102.7z M223,223.9v7.9h-3c-0.6,0.6-1.2,1-2,1.3h0.9v1.2l1.2-0.3l1.4,5.2l-1.3,0.4l-1.3-4.7
	v6.4h-1.5v4.6H216v-4.6h-2.3v4.6h-1.4v-4.6h-1.5v-6.4l-1.3,4.7l-1.3-0.4l1.4-5.2l1.2,0.3v-1.1h0.9c-0.8-0.3-1.4-0.7-2-1.3h-3v-6.8
	c-0.1-0.4-0.1-0.8-0.1-1.1c0-0.4,0-0.8,0.1-1.1v-0.2l0,0c0.7-3.6,4.2-5.8,7.8-5.1c1,0.2,1.8,0.6,2.6,1.2l0.1,0.1
	c0.2,0.1,0.3,0.3,0.5,0.4c0.4-0.1,0.9-0.2,1.3-0.2c2.2,0,4.1,1.8,4.1,4c0,0,0,0,0,0C223.1,223.3,223.1,223.6,223,223.9z"/>
<path class="st2" d="M205.1,203.3c0.2,0.2,0.3,0.5,0.3,0.8c0.8,0.6,1.2,1.8,0.6,4.1c0.3,0.4,0.5,0.8,0.7,1.2
	c0.2-0.1,0.3-0.1,0.5-0.1h0.2c-0.2-0.6-0.2-1.3-0.2-1.9c-0.1-4.3,3.2-7.9,7.5-8.1c1.3,0,2.5,0.4,3.6,1c-0.3-0.9-0.5-1.8-0.5-2.7
	h-13.3c0.4,1.4,0.6,2.9,0.6,4.4C205.1,202.5,205.1,202.9,205.1,203.3z"/>
<path class="st3" d="M52,210.4h-8.7v-18h10.8l2.8,6.4c1.5-1.1,3.3-1.9,5.1-2.2v-59.1l-42.3-10.7v69.8c2.2,0.3,4.3,1.1,6.1,2.5v-6.6
	h10.8l2.8,6.4v2.3h-2.8v9.2h-6.1c-0.8,5.5-5.2,9.9-10.8,10.5v16.8H62v-17C56.8,219.8,52.8,215.7,52,210.4z M43.4,143.7h10.8l2.8,6.4
	v2.3h-2.8v9.2H43.4L43.4,143.7z M43.4,168.1h10.8l2.8,6.4v2.4h-2.8v9.2H43.4L43.4,168.1z M25.8,143.7h10.8l2.8,6.4v2.3h-2.8v9.2
	H25.8V143.7z M36.6,186H25.8v-18h10.8l2.8,6.4v2.4h-2.8V186z M46.8,237.8H35.5V219h11.3V237.8z"/>
<path class="st3" d="M54.1,201.7l0.3-0.4h-0.3V201.7z"/>
<polygon class="st4" points="39.4,150.1 36.6,143.7 25.8,143.7 28.3,150.1 "/>
<polygon class="st5" points="28.3,150.1 28.3,152.5 36.6,152.5 39.4,152.5 39.4,150.1 "/>
<polygon class="st4" points="56.9,150.1 54.2,143.7 43.4,143.7 45.8,150.1 "/>
<polygon class="st5" points="45.8,150.1 45.8,152.5 54.2,152.5 56.9,152.5 56.9,150.1 "/>
<polygon class="st4" points="39.4,174.5 36.6,168.1 25.8,168.1 28.3,174.5 "/>
<polygon class="st5" points="39.4,176.8 39.4,174.5 28.3,174.5 28.3,176.8 36.6,176.8 "/>
<polygon class="st4" points="56.9,174.5 54.2,168.1 43.4,168.1 45.8,174.5 "/>
<polygon class="st5" points="45.8,174.5 45.8,176.8 54.2,176.8 56.9,176.8 56.9,174.5 "/>
<polygon class="st4" points="44.6,107.3 47,113.8 58.1,113.8 55.3,107.3 "/>
<polygon class="st5" points="47,113.8 47,116.1 55.3,116.1 58.1,116.1 58.1,113.8 "/>
<polygon class="st4" points="75.7,113.8 72.9,107.3 62.1,107.3 64.6,113.8 "/>
<polygon class="st5" points="64.6,113.8 64.6,116.1 72.9,116.1 75.7,116.1 75.7,113.8 "/>
<polygon class="st4" points="28.3,198.9 39.4,198.9 36.6,192.4 25.8,192.4 "/>
<polygon class="st5" points="28.3,198.9 28.3,201.2 36.6,201.2 39.4,201.2 39.4,198.9 "/>
<path class="st4" d="M54.1,192.5H43.4l2.5,6.4h11h0L54.1,192.5z"/>
<path class="st5" d="M45.9,198.9v2.3h8.6c0.7-0.9,1.5-1.7,2.4-2.3H45.9z"/>
<polygon class="st4" points="81.2,192.4 78.6,186.5 68.7,186.5 71,192.4 "/>
<polygon class="st5" points="71,192.4 71,194.6 78.6,194.6 81.2,194.6 81.2,192.4 "/>
<polygon class="st4" points="97.3,192.4 94.7,186.5 84.8,186.5 87.1,192.4 "/>
<polygon class="st5" points="87.1,192.4 87.1,194.6 94.7,194.6 97.3,194.6 97.3,192.4 "/>
<polygon class="st4" points="71,166.2 81.2,166.2 78.6,160.3 68.7,160.3 "/>
<polygon class="st5" points="71,166.2 71,168.3 78.6,168.3 81.2,168.3 81.2,166.2 "/>
<polygon class="st4" points="97.3,166.2 94.7,160.3 84.8,160.3 87.1,166.2 "/>
<polygon class="st5" points="87.1,166.2 87.1,168.3 94.7,168.3 97.3,168.3 97.3,166.2 "/>
<polygon class="st4" points="15.1,115.2 12.5,109.3 2.6,109.3 4.9,115.2 "/>
<polygon class="st5" points="4.9,115.2 4.9,117.3 12.5,117.3 15.1,117.3 15.1,115.2 "/>
<polygon class="st4" points="15.1,88.9 12.5,83 2.6,83 4.9,88.9 "/>
<polygon class="st5" points="4.9,88.9 4.9,91.1 12.5,91.1 15.1,91.1 15.1,88.9 "/>
<polygon class="st4" points="15.1,193.6 12.5,187.7 2.6,187.7 4.9,193.6 "/>
<polygon class="st5" points="4.9,193.6 4.9,195.8 12.5,195.8 15.1,195.8 15.1,193.6 "/>
<polygon class="st4" points="15.1,167.7 12.5,161.8 2.6,161.8 4.9,167.7 "/>
<polygon class="st5" points="4.9,167.7 4.9,169.8 12.5,169.8 15.1,169.8 15.1,167.7 "/>
<polygon class="st4" points="15.1,141.4 12.5,135.5 2.6,135.5 4.9,141.4 "/>
<polygon class="st5" points="4.9,141.4 4.9,143.6 12.5,143.6 15.1,143.6 15.1,141.4 "/>
<path class="st5" d="M133.9,207l-31.2,38.7h82.5l-4.1-38.7H133.9z M175.1,219.9h-4l2.2,3.7h1.4V235c0,0.6-0.5,1.1-1.1,1.1h0h-0.4
	v4.2h-6.4v-4.2h-28.5v4.2H132v-4.2c-0.8,0-1.5-0.7-1.5-1.5c0,0,0,0,0,0v-10.9h1.4l2.2-3.7h-4v-2.4c0-1.1,0.9-1.9,1.9-1.9
	c0,0,0,0,0,0h3.3v2.2l4.2-7.1h26.2l4.2,7.1v-2.2h3.3c1.1,0,1.9,0.9,1.9,1.9c0,0,0,0,0,0L175.1,219.9z"/>
<path class="st6" d="M173.2,215.6h-3.3v2.2l-4.2-7.1h-26.2l-4.2,7.1v-2.2H132c-1.1,0-1.9,0.9-1.9,1.9c0,0,0,0,0,0v2.4h4l-2.2,3.7
	h-1.4v10.9c0,0.8,0.7,1.5,1.5,1.5c0,0,0,0,0,0v4.2h6.4v-4.2h28.5v4.2h6.4v-4.2h0.4c0.6,0,1.1-0.5,1.1-1.1v0v-11.4h-1.4l-2.2-3.7h4
	v-2.4C175.2,216.4,174.3,215.6,173.2,215.6C173.3,215.6,173.2,215.6,173.2,215.6z M141.8,213.4c0.3-0.4,0.8-0.7,1.3-0.7h19
	c0.5,0,1,0.3,1.3,0.7l2.6,3.9h-26.9L141.8,213.4z M134.2,226l0.3-4l4.8,1.1l0.8,2.9L134.2,226z M162.2,226.3l-0.9,1.6
	c-0.2,0.4-0.7,0.7-1.2,0.7h-15c-0.5,0-1-0.3-1.2-0.7l-0.9-1.6c-0.3-0.6-0.2-1.4,0.4-1.8l0.3-0.2c0.2-0.2,0.5-0.3,0.8-0.3h16.3
	c0.3,0,0.6,0.1,0.8,0.3l0.3,0.2C162.5,224.9,162.6,225.7,162.2,226.3L162.2,226.3z M165,226l0.8-2.9l4.8-1.1l0.3,4L165,226z"/>
<g>
	<path class="st7" d="M80.4,85.8l-4.2,1.4c0.4,0.5,0.8,1,1,1.6c0.1,0.3,0.2,0.7,0.2,1V90c0,0.2,0,0.4,0,0.7v56.2l22.6,7.3v83.8H65.3
		v2.9H103V152l-22.6-7.3V85.8z"/>
	<path class="st7" d="M41.8,103c-0.1-0.2-0.2-0.4-0.3-0.7c-0.5-1.6,0.3-3.3,1.9-3.9c0,0,0,0,0,0c0.5-0.2,1-0.2,1.5-0.1
		c-0.1-0.1-0.2-0.3-0.3-0.4l-5.7,2v28.4l2.9,0.7V103z"/>
	<rect x="15.8" y="240.8" class="st7" width="0.6" height="0.2"/>
	<polygon class="st7" points="62,237.8 19.7,237.8 19.7,220.9 19.4,221 19.4,240.8 19.7,240.8 19.7,240.9 19.4,240.9 19.4,241 
		62.3,241 62.3,220.9 62,220.8 	"/>
	<path class="st7" d="M38.8,128.3l-19.1-4.8V76l-3.5-2c0.4,1,0.5,2,0.6,3c0,0.2,0,0.4,0,0.6h0.1v118.9c0.5-0.1,1-0.1,1.5-0.1
		c0.5,0,0.9,0,1.4,0.1v-69.8L62,137.4v59.2c0.7-0.1,1.5-0.2,2.2-0.2c0.3,0,0.7,0,1,0v-61.5l-23.5-6L38.8,128.3z"/>
	<rect x="75.5" y="215.4" class="st7" width="11.3" height="22.5"/>
	<path class="st7" d="M9.8,70.3L6,68.1c1.1,1.1,1.8,2.5,1.9,4.1C8.2,71.3,8.9,70.6,9.8,70.3z"/>
	<path class="st7" d="M0.1,64.8v1.6c1.3,0,2.5,0.2,3.7,0.5L0.1,64.8z"/>
	<polygon class="st7" points="0.1,240.8 15.8,240.8 16.4,240.8 16.4,237.9 0.1,237.9 	"/>
	<rect x="35.5" y="219" class="st7" width="11.3" height="18.8"/>
	<polygon class="st7" points="25.8,143.7 25.8,161.7 36.6,161.7 36.6,152.5 28.3,152.5 28.3,150.1 	"/>
	<polygon class="st7" points="43.4,143.7 43.4,161.7 54.2,161.7 54.2,152.5 45.8,152.5 45.8,150.1 	"/>
	<polygon class="st7" points="25.8,186 36.6,186 36.6,176.8 28.3,176.8 28.3,174.5 25.8,168.1 	"/>
	<polygon class="st7" points="43.4,186 54.2,186 54.2,176.8 45.8,176.8 45.8,174.5 43.4,168.1 	"/>
	<polygon class="st7" points="44.6,107.3 44.6,125.3 55.3,125.3 55.3,116.1 47,116.1 47,113.8 	"/>
	<polygon class="st7" points="72.9,116.1 64.6,116.1 64.6,113.8 62.1,107.3 62.1,125.3 72.9,125.3 	"/>
	<path class="st7" d="M25.8,199c3,2.3,4.8,5.9,4.8,9.7c0,0.6,0,1.1-0.1,1.7h6.1v-9.2h-8.3v-2.3l-2.5-6.4V199z"/>
	<path class="st7" d="M43.4,210.5H52c-0.1-0.6-0.1-1.1-0.1-1.7c0-2.5,0.8-5,2.2-7.1v-0.4h-8.3v-2.3l-2.5-6.4V210.5z"/>
	<path class="st7" d="M71,192.4l-2.3-5.9v10.8c2.8,1.1,5,3.1,6.4,5.8h3.5v-8.4H71V192.4z"/>
	<polygon class="st7" points="84.8,203 94.7,203 94.7,194.6 87.1,194.6 87.1,192.4 84.8,186.5 	"/>
	<polygon class="st7" points="71,166.2 68.7,160.3 68.7,176.8 78.6,176.8 78.6,168.3 71,168.3 	"/>
	<polygon class="st7" points="84.8,160.3 84.8,176.8 94.7,176.8 94.7,168.3 87.1,168.3 87.1,166.2 	"/>
	<polygon class="st7" points="2.6,109.3 2.6,125.8 12.5,125.8 12.5,117.3 4.9,117.3 4.9,115.2 	"/>
	<polygon class="st7" points="2.6,83 2.6,99.5 12.5,99.5 12.5,91.1 4.9,91.1 4.9,88.9 	"/>
	<path class="st7" d="M12.5,197.9v-2.1H4.9v-2.2l-2.3-5.9v16.5h4.3C8,201.5,10,199.2,12.5,197.9z"/>
	<polygon class="st7" points="2.6,178.3 12.5,178.3 12.5,169.8 4.9,169.8 4.9,167.7 2.6,161.8 	"/>
	<polygon class="st7" points="2.6,152 12.5,152 12.5,143.6 4.9,143.6 4.9,141.4 2.6,135.5 	"/>
	<path class="st7" d="M161.6,224.3c-0.2-0.2-0.5-0.3-0.8-0.3h-16.3c-0.3,0-0.6,0.1-0.8,0.3l-0.3,0.2c-0.6,0.4-0.7,1.2-0.4,1.8
		l0.9,1.6c0.3,0.4,0.7,0.7,1.2,0.7h15c0.5,0,1-0.3,1.2-0.7l0.9-1.6c0.3-0.6,0.2-1.4-0.4-1.8L161.6,224.3z"/>
	<polygon class="st7" points="134.6,222 134.2,226 140.2,226 139.4,223.1 	"/>
	<polygon class="st7" points="170.7,222 165.9,223.1 165.1,226 171,226 	"/>
	<path class="st7" d="M163.5,213.4c-0.3-0.4-0.8-0.7-1.3-0.7h-19.1c-0.5,0-1,0.3-1.3,0.7l-2.6,3.9h26.9L163.5,213.4z"/>
</g>
<path class="st8" d="M223.5,209.4h-16.3c-0.2,0-0.4,0-0.5,0.1c0.4,0.8,0.3,1.8-0.3,2.6c0.2,0.2,0.5,0.3,0.8,0.3h16.3V210
	C223.5,209.8,223.5,209.6,223.5,209.4z"/>
<path class="st8" d="M238.8,210v2.3h11.3v-2.9h-11.4C238.8,209.6,238.8,209.8,238.8,210z"/>
<path class="st8" d="M204,202.8h-2.3c-0.4,0.4-0.9,0.7-0.9,0.9s3-0.8,4.6,0.4c0-0.3-0.1-0.6-0.3-0.8
	C204.8,203,204.4,202.8,204,202.8z"/>
<path class="st8" d="M193.6,202.8h-83.1c-0.8,0-1.5,0.7-1.5,1.5c0,0.8,0.7,1.5,1.5,1.5c0,0,0,0,0,0H192
	C192,204.5,192.6,203.4,193.6,202.8z"/>
<path class="st8" d="M194.7,204.4c0.1,0.4,0.8-0.6,2-1.6H195C194.7,203.3,194.7,203.9,194.7,204.4z"/>
<path class="st9" d="M243.2,226c0,4.6,2.7,8.7,6.9,10.4v-5.2c-3.4-1.9-4.5-6.2-2.6-9.5c0.6-1.1,1.5-2,2.6-2.6v-3.5
	C245.9,217.3,243.2,221.5,243.2,226z"/>
<path class="st9" d="M246.5,225.1c0,2.5,1.4,4.9,3.6,6.1V219C247.9,220.3,246.5,222.6,246.5,225.1z"/>
<g>
	<path class="st10" d="M77.5,90.8L41.8,103v26l23.5,5.9v61.5c1.2,0.1,2.4,0.4,3.5,0.8v-10.8h9.9l2.5,5.9v2.1h-2.5v8.4h-3.5
		c0.9,1.8,1.4,3.7,1.4,5.7c0,6.4-4.9,11.7-11.2,12.3v17H100v-83.8l-22.6-7.3V90.8z M58.1,116.1h-2.8v9.2H44.6v-18h10.8l2.8,6.4
		V116.1z M62.1,125.3v-18h10.8l2.8,6.4v2.4h-2.8v9.2H62.1z M75.6,237.9v-22.5h11.3l0,22.5H75.6z M97.3,194.6h-2.5v8.4h-9.9v-16.5
		l9.9,0l2.5,5.9V194.6z M94.7,160.3l2.5,5.9v2.1h-2.5v8.4h-9.9l0-16.5H94.7z M78.6,160.3l2.5,5.9v2.1h-2.5v8.4h-9.9v-16.5H78.6z"/>
	<path class="st10" d="M6.1,206.9c0.1-0.9,0.4-1.8,0.7-2.7H2.6v-16.5h9.9l2.6,5.9v2.2h-2.6v2.1c1.3-0.7,2.8-1.2,4.3-1.4V77.7h-0.1
		c0,0.1,0,0.2,0,0.2H0.1v160h16.3v-17.1C9.7,219.9,5.1,213.6,6.1,206.9z M2.6,83h9.9l2.6,5.9v2.2h-2.6v8.4H2.6V83z M2.6,109.3h9.9
		l2.6,5.9v2.2h-2.6v8.4H2.6V109.3z M2.6,135.5h9.9l2.6,5.9v2.1h-2.6v8.4H2.6V135.5z M2.6,161.8h9.9l2.6,5.9v2.1h-2.6v8.4H2.6V161.8z
		"/>
	<path class="st10" d="M192.5,187.8c-4.9,0-9.2,3.2-11.3,7.9c-1.4-11.6-10.1-20.5-20.8-20.5c-7.4,0-13.8,4.3-17.6,10.8
		c-2.1-3.8-6.1-6.2-10.5-6.3c-7,0-12.6,6.4-12.6,14.3c0,0.1,0,0.2,0,0.3c-2.6,0.4-4.9,1.6-6.7,3.5c-1.5,1.5-2.6,3.4-3.3,5.4
		c0.2-0.2,0.5-0.2,0.8-0.2h83.1c0.4-0.2,0.7-0.3,1.1-0.4c0.1,0,0.2,0.1,0.3,0.2c0,0,0,0.1,0,0.1c0,0,0,0,0,0h1.8
		c1.3-1.1,3.3-2.2,5.7-1c0.1,0.1,0.1,0.2,0.1,0.3c0,0,0,0.1-0.1,0.1c-0.2,0.2-0.5,0.4-0.9,0.6h2.3c0.4,0,0.8,0.2,1.1,0.5
		c0-0.4,0.1-0.8,0.1-1.3c0-1.5-0.2-3-0.6-4.4C202.8,192,198.1,187.8,192.5,187.8z"/>
	<path class="st10" d="M248.3,179.6c-0.5-0.1-1.1-0.1-1.6-0.1c-0.9,0-1.9,0.1-2.8,0.4c-6.2,1.2-11.5,5.5-13.9,11.4
		c-1.3-1.2-3-1.8-4.7-1.8c-4.3,0.1-7.7,3.8-7.5,8.1c0,0,0,0.1,0,0.1c0,0.9,0.2,1.8,0.5,2.7c-1.1-0.6-2.3-1-3.6-1
		c-4.3,0.2-7.7,3.8-7.5,8.1c0,0.7,0.1,1.3,0.2,1.9h16.1c0.2-2,1.3-3.7,3-4.7c-0.1-0.2-0.2-0.3-0.2-0.5c-0.5-1.8,2.4-2.5,2.4-2.5
		s6.1-1.9,7.9,3.5c1.3,1.1,2.1,2.6,2.3,4.3h11.4v-29.5C249.5,179.7,248.9,179.6,248.3,179.6z"/>
	<path class="st10" d="M235.3,204.4c0.2,0.1,0.5,0.3,0.7,0.4l-0.1-0.1C235.7,204.5,235.5,204.4,235.3,204.4z"/>
	<circle class="st10" cx="18.3" cy="208.7" r="9.3"/>
	<path class="st10" d="M73.5,208.7c0-5.1-4.2-9.3-9.3-9.3c-5.1,0-9.3,4.2-9.3,9.3s4.2,9.3,9.3,9.3C69.3,218,73.5,213.9,73.5,208.7z"
		/>
</g>
<g>
	<path class="st11" d="M19.7,196.5c-0.5-0.1-0.9-0.1-1.4-0.1c-6.8,0-12.3,5.5-12.3,12.3c0,6,4.4,11.2,10.4,12.1v17v2.9v0.2v3.5h3
		V241v-0.2V221h0.3c5.6-0.7,10-5,10.8-10.5c0.1-0.6,0.1-1.1,0.1-1.7C30.6,202.5,25.9,197.3,19.7,196.5z M18.3,218
		c-5.1,0-9.3-4.2-9.3-9.3c0-5.1,4.2-9.3,9.3-9.3s9.3,4.2,9.3,9.3S23.5,218,18.3,218z"/>
	<path class="st11" d="M65.3,196.5c-0.3,0-0.7,0-1,0c-0.7,0-1.5,0.1-2.2,0.2c-1.8,0.3-3.6,1.1-5.1,2.2h0c-0.9,0.7-1.7,1.5-2.4,2.3
		l-0.3,0.4c-1.5,2.1-2.2,4.5-2.2,7.1c0,0.6,0,1.1,0.1,1.7c0.7,5.3,4.8,9.5,10,10.4l0.3,0v0.1V241v3.5h3v-3.7v-2.9v-17v-1.4h0.1v1.4
		c6.3-0.6,11.1-5.9,11.1-12.3c0-2-0.5-3.9-1.4-5.7C73.2,199.3,69.5,196.8,65.3,196.5z M64.2,218C64.2,218,64.2,218,64.2,218
		c-5.1,0-9.3-4.2-9.3-9.3c0-5.1,4.2-9.3,9.3-9.3c5.1,0,9.3,4.2,9.3,9.3C73.5,213.9,69.4,218,64.2,218z"/>
	<path class="st11" d="M77.2,88.9c-0.2-0.6-0.6-1.2-1-1.6c-1.8-1.9-4.7-1.9-6.6-0.1c-0.3,0.3-0.6,0.7-0.8,1.1
		c-0.5-0.1-1.1-0.1-1.6,0c-0.9-2.3-3.5-3.4-5.8-2.6c-1,0.3-1.8,1-2.3,1.8c-1.6-0.7-3.4-0.8-5.1-0.3c-0.2,0-0.4,0.1-0.6,0.2
		c-0.4,0.1-0.7,0.3-1,0.5c-2.2,1.2-3.7,3.4-4,5.9c-1.6-0.6-3.4,0.2-4,1.8c-0.2,0.7-0.3,1.4,0,2c0.1,0.2,0.1,0.3,0.2,0.5
		c0.1,0.2,0.2,0.3,0.3,0.4c-0.5-0.1-1-0.1-1.5,0.1c-1.6,0.5-2.5,2.3-1.9,3.9c0,0,0,0,0,0c0.1,0.2,0.2,0.5,0.3,0.7l35.7-12.2v-0.1
		c0-0.2,0-0.4,0-0.7v-0.1C77.4,89.5,77.3,89.2,77.2,88.9z"/>
	<path class="st11" d="M16.8,77.6c0-0.2,0-0.4,0-0.6c0-1-0.2-2-0.6-3c-0.8-2.2-2.4-4.1-4.1-4.1c-0.8,0-1.6,0.1-2.3,0.4
		c-0.9,0.4-1.5,1.1-1.9,1.9c-0.1-1.5-0.7-3-1.8-4.1c-0.6-0.6-1.3-1-2.1-1.2c-1.2-0.4-2.5-0.6-3.7-0.5v11.5h16.6
		C16.8,77.8,16.8,77.7,16.8,77.6z"/>
</g>
<polygon class="st4" points="192.8,220.7 191.3,226.3 192.7,226.7 194,221.6 194,221 "/>
<polygon class="st4" points="204.2,226.7 205.6,226.3 204.1,220.7 202.9,221 202.9,221.6 "/>
<path class="st4" d="M206.7,209.5c-0.2-0.4-0.4-0.9-0.7-1.2c0.7-2.3,0.3-3.5-0.6-4.1c-1.6-1.1-4.6-0.1-4.6-0.4s0.4-0.6,0.9-0.9
	s0.6-0.5,0.9-0.6c0.1-0.1,0.1-0.2,0.1-0.3c0,0,0-0.1-0.1-0.1c-2.4-1.2-4.4-0.1-5.7,1c-1.2,1-1.9,2-2,1.6c-0.1-0.5,0-1.1,0.3-1.6
	c0,0,0,0,0-0.1c0.1-0.1,0-0.2-0.1-0.3c0,0-0.1,0-0.1,0c-0.4,0.1-0.8,0.2-1.1,0.4c-1,0.6-1.6,1.7-1.6,2.9c0,0.5,0,1.1,0.1,1.6
	c-3,1.6-1.2,4.6-0.8,5.3v1.6c0,2.5,1.6,4.8,4.1,5.6h-1.3v8.8h1.7v4.9h1.5v-4.9h2.5v4.9h1.5v-4.9h1.7v-8.8h-1.3c2.4-0.8,4-3,4-5.6
	v-1.6l0,0c0.3-0.2,0.5-0.4,0.7-0.6C206.9,211.3,207.1,210.3,206.7,209.5z"/>
<polygon class="st4" points="209.6,233.9 208.3,239.1 209.6,239.5 210.8,234.8 210.8,234.3 "/>
<polygon class="st4" points="220.2,239.5 221.5,239.1 220.1,233.9 218.9,234.3 218.9,234.8 "/>
<path class="st4" d="M219.1,218.9c-0.4,0-0.9,0.1-1.3,0.2c-0.1-0.1-0.3-0.3-0.5-0.4l-0.1-0.1c-2.9-2.2-7-1.6-9.2,1.3
	c-0.6,0.8-1,1.6-1.2,2.6l0,0v0.2c-0.1,0.4-0.1,0.8-0.1,1.1c0,0.4,0,0.8,0.1,1.1v6.8h3c0.6,0.6,1.2,1,2,1.3h-0.9v8.1h1.5v4.6h1.4
	v-4.6h2.3v4.6h1.4v-4.6h1.5v-8.1h-0.9c0.8-0.3,1.4-0.7,2-1.3h3v-7.9c0.1-0.3,0.1-0.6,0.1-0.9c0-2.2-1.8-4.1-4-4.1
	C219.2,218.9,219.2,218.9,219.1,218.9z"/>
<polygon class="st4" points="225,219.7 223.4,225.8 224.9,226.2 226.4,220.7 226.4,220.1 "/>
<polygon class="st4" points="237.3,226.2 238.8,225.8 237.2,219.7 235.9,220.1 235.9,220.7 "/>
<path class="st4" d="M238.8,209.4L238.8,209.4c-0.2-1.7-1-3.2-2.3-4.3c-1.7-5.4-7.9-3.5-7.9-3.5s-3,0.8-2.4,2.5
	c0.1,0.2,0.1,0.4,0.2,0.5c-1.7,1-2.8,2.8-2.9,4.7l0,0c0,0.2,0,0.4,0,0.6v2.9c0,2.7,1.8,5.1,4.3,5.9h-1.4v9.4h1.8v5.3h1.6v-5.3h2.7
	v5.3h1.6v-5.3h1.8v-9.4h-1.4c2.6-0.8,4.3-3.2,4.3-5.9V210C238.8,209.8,238.8,209.6,238.8,209.4z M235.9,204.7l0.1,0.1
	c-0.2-0.1-0.5-0.3-0.7-0.4C235.5,204.4,235.7,204.5,235.9,204.7z"/>
<rect x="0.1" y="0.1" class="st12" width="250" height="250"/>
</svg>
