<svg id="C" xmlns="http://www.w3.org/2000/svg" viewBox="0 0 250.25 250.25"><defs><style>.cls-1,.cls-13{fill:none;}.cls-2{fill:#a4c621;}.cls-3{fill:#4cac33;}.cls-4{fill:#35a8e0;}.cls-5{fill:#ffea0f;}.cls-6{fill:#4aac33;}.cls-7{fill:#0071bc;}.cls-8{fill:#74cdef;}.cls-9{fill:#666;}.cls-10{fill:#fff;}.cls-11{fill:gray;}.cls-12{fill:#51c1eb;}.cls-13{stroke:#000;stroke-miterlimit:10;stroke-width:0.25px;}</style></defs><title>AnpassaJordbruketTillTorka KVADRAT_C</title><polygon class="cls-1" points="29.91 249.88 36.58 236.5 36.58 236.5 29.91 249.88"/><polygon class="cls-1" points="250.13 246.36 250.13 246.36 249.66 249.88 250.13 246.36"/><polygon class="cls-1" points="59.87 249.88 63.48 241.88 63.48 241.88 59.87 249.88"/><polygon class="cls-1" points="42.41 249.88 46.22 241.77 46.22 241.77 42.41 249.88"/><polygon class="cls-1" points="219.2 98.25 219.2 98.25 207.7 142.6 207.7 142.6 219.2 98.25"/><polygon class="cls-1" points="221.97 87.58 221.97 87.58 220.36 93.79 220.36 93.79 221.97 87.58"/><polygon class="cls-1" points="72.16 249.88 75.51 241.95 75.51 241.95 72.16 249.88"/><polygon class="cls-1" points="68.75 193.78 100.36 126.47 100.36 126.47 68.75 193.78 68.75 193.78"/><polygon class="cls-1" points="119.84 249.88 122.56 242.25 122.56 242.25 119.84 249.88"/><polygon class="cls-1" points="133.63 104.36 110.03 160.24 110.03 160.24 133.63 104.36 133.63 104.36"/><polygon class="cls-1" points="58.78 192 58.78 192 44.61 220.41 44.61 220.41 58.78 192"/><polygon class="cls-1" points="109.16 107.74 109.05 107.97 109.05 107.97 109.16 107.74 109.16 107.74"/><polygon class="cls-1" points="59.59 140.72 51.93 154.74 51.93 154.74 59.59 140.72 59.59 140.72"/><polygon class="cls-1" points="14.95 148.92 19.86 140.87 19.86 140.87 14.95 148.92 14.95 148.92"/><polygon class="cls-1" points="88.72 131.96 63.41 182.71 63.41 182.71 88.72 131.96 88.72 131.96"/><polygon class="cls-1" points="125.02 105.48 99.69 161.63 99.69 161.63 125.02 105.48 125.02 105.48"/><polygon class="cls-1" points="151.32 161.34 176.03 91.82 176.03 91.82 151.32 161.34 151.32 161.34"/><polygon class="cls-1" points="206.65 88.68 206.09 90.99 206.65 88.68 206.65 88.68"/><polygon class="cls-1" points="209.89 249.88 226.16 172.88 226.16 172.88 209.89 249.88"/><polygon class="cls-1" points="248.88 86.65 248.88 86.65 248.58 88.39 248.58 88.39 248.88 86.65"/><polygon class="cls-1" points="179.86 249.88 207.23 144.4 207.23 144.4 179.86 249.88"/><polygon class="cls-1" points="25.33 203.43 0.13 249.57 0.13 249.57 25.33 203.43 25.33 203.43"/><polygon class="cls-1" points="220.08 249.88 248.12 90.97 248.12 90.97 220.08 249.88"/><polygon class="cls-1" points="243.5 90.78 244.36 86.71 244.36 86.71 243.5 90.78 243.5 90.78"/><polygon class="cls-1" points="241.41 100.71 241.41 100.71 241.47 100.41 241.47 100.41 241.41 100.71"/><polygon class="cls-1" points="230.64 151.68 230.64 151.68 239.14 111.44 239.14 111.44 230.64 151.68"/><path class="cls-1" d="M16.21,97.64c10.34-2.46,20.94,4.23,25,15.2.94-5,4.34-9.12,9.13-10.25A13.77,13.77,0,0,1,60.86,104a8.64,8.64,0,0,1-.35-1.46,7.83,7.83,0,0,1,6.33-9.06,7.18,7.18,0,0,1,5,1.14A19.08,19.08,0,0,1,83.94,81.36a10.19,10.19,0,0,1,2.66-.76,10.69,10.69,0,0,1,1.59-.1A18.15,18.15,0,0,1,100.33,84a10.72,10.72,0,0,1,6.39-3.41c6-.86,11.64,3.53,12.82,9.86a10.94,10.94,0,0,1,3.91.94,10.83,10.83,0,0,1,7-4.14h.16A37.42,37.42,0,0,1,134,85h0a1.32,1.32,0,0,1,1.82.47,1.33,1.33,0,0,1-.47,1.82l-.16.08-.46.21a11.83,11.83,0,0,1,7.54,6.51q3.92-.63,7.84-1.22l3.05-.47.11-.25,3.86-.56.4-.06,3.8-.52-.09.23,5-.66a2.57,2.57,0,0,1,3.06-4.11,38.72,38.72,0,0,1,3.73,2.77,2.38,2.38,0,0,1,.41.43l3.33-.41.08-.22,3.73-.42.3,0,3.68-.4-.06.19q7.64-.84,15.31-1.51l0-.12,3.62-.29.22,0,.81-.06.8-.06,1-.07.78-.06h.19l0,.09.43,0a2.66,2.66,0,0,1,.42-1.9q1.32-1.92,2.67-3.83a2.61,2.61,0,0,1,4.29,3l-.1.16-1.53,2.19c2.62-.17,5.25-.33,7.88-.46L220.75,84a2.24,2.24,0,0,1,2-3.13l.26,0,3.11.35.58.06a8.09,8.09,0,0,1,3,1l-.13-.21-.3-.5a8.15,8.15,0,0,1-.17-8.11l.29-.51,1.51-2.74h0l0,0a2.33,2.33,0,1,1-1.8-4.3l.11,0h0a29.36,29.36,0,0,1,4.7-1.26,2.21,2.21,0,0,1,.9,4.33h0c-.36.09-.7.2-1.05.3a2.16,2.16,0,0,1,1.05.89l1.63,2.68.3.5a8.14,8.14,0,0,1,.17,8.1l-.29.52-.13.25a8.15,8.15,0,0,1,2.8-.86l.58-.06L243,80.9l.26,0h0a2.24,2.24,0,0,1,2,3.13l-.28.63c1.68,0,3.35,0,5,0V0H0V110.78a13.24,13.24,0,0,1,1.6,1.41C3.75,105,9,99.34,16.21,97.64Zm225.1-31.32a1.89,1.89,0,0,1,2.1-1.66l.12,0h0a25.78,25.78,0,0,1,4.6,1.32,1.7,1.7,0,0,1-1.06,3.22h0a29,29,0,0,0-4.09-.8A1.89,1.89,0,0,1,241.31,66.32ZM217,73.5l0,0a41.29,41.29,0,0,1,3.67-3,2.51,2.51,0,0,1,3,4h0a37.75,37.75,0,0,0-3.18,2.75A2.56,2.56,0,0,1,217,73.5Zm-63.29,9.27a2.34,2.34,0,0,1,2.69-1.71A30.91,30.91,0,0,1,161,82.28h0a2.44,2.44,0,0,1-1.6,4.6l-.08,0a34.68,34.68,0,0,0-3.86-1.24h0A2.33,2.33,0,0,1,153.73,82.77Zm-11.22-1.31a33.61,33.61,0,0,1,4.57-.8h0a2,2,0,1,1,.42,4h-.17a29.46,29.46,0,0,0-4.09.37h0a1.82,1.82,0,0,1-.73-3.57Z" transform="translate(0.13 0.13)"/><polygon class="cls-1" points="239.92 249.88 245.92 213.07 245.92 213.07 239.92 249.88"/><polygon class="cls-1" points="204.62 86.56 204.62 86.56 204.65 86.47 204.62 86.56"/><polygon class="cls-1" points="248.91 194.76 249.04 193.94 249.04 193.94 248.91 194.76 248.91 194.76"/><polygon class="cls-1" points="228.59 161.38 228.59 161.38 228.79 160.41 228.79 160.41 228.59 161.38"/><polygon class="cls-2" points="102.88 103.58 100.62 108.11 100.62 108.11 102.88 103.58 102.88 103.58"/><path class="cls-2" d="M104.13,100.69l4.19-.83.69-.14,4.1-.79-.11.24q7.25-1.36,14.53-2.64l1.46-.26.12-.27,4-.69.52-.09,3.94-.66-.11.26,4.84-.77a11.83,11.83,0,0,0-7.54-6.51,37.36,37.36,0,0,0-3.37,1.64A1,1,0,0,1,130,88.8a1,1,0,0,1,.27-1.31l.34-.24h-.16a10.83,10.83,0,0,0-7,4.14,10.94,10.94,0,0,0-3.91-.94c-1.18-6.33-6.8-10.72-12.82-9.86A10.72,10.72,0,0,0,100.33,84,18.15,18.15,0,0,0,88.19,80.5a10.69,10.69,0,0,0-1.59.1,10.19,10.19,0,0,0-2.66.76A19.08,19.08,0,0,0,71.79,94.61a7.18,7.18,0,0,0-5-1.14,7.83,7.83,0,0,0-6.33,9.06,8.64,8.64,0,0,0,.35,1.46,11.07,11.07,0,0,1,4.32,5.23c4.3-1,8.65-2,13.08-3l4.38-1,.9-.2,4.28-.93c1.22-.27,2.45-.52,3.68-.78a1,1,0,0,0,0,.17h0q6.24-1.32,12.51-2.56Zm19.78-7a.25.25,0,1,1,.4.31l0,0h0c-.58.49-1.16,1-1.76,1.46C123,94.9,123.44,94.3,123.91,93.7Z" transform="translate(0.13 0.13)"/><polygon class="cls-2" points="137.6 94.96 137.6 94.96 137.61 94.95 137.6 94.96"/><polygon class="cls-2" points="127.95 98.98 127.95 98.98 125.02 105.48 125.02 105.48 127.95 98.98"/><polygon class="cls-2" points="136.52 97.53 136.52 97.53 134.58 102.11 134.58 102.11 136.52 97.53"/><polygon class="cls-2" points="109.16 107.74 109.16 107.74 111.92 101.85 111.92 101.85 109.16 107.74"/><path class="cls-3" d="M28.19,118.56l1.35-.36c1.56-.42,3.13-.84,4.72-1.25q8.28-2.19,17.07-4.37h0l4.6-1.13,1.16-.29,4.49-1.08,3.59-.85h0A11.07,11.07,0,0,0,60.86,104a13.77,13.77,0,0,0-10.55-1.4c-4.79,1.13-8.19,5.23-9.13,10.25-4-11-14.63-17.66-25-15.2C9,99.34,3.75,105,1.6,112.19A13.24,13.24,0,0,0,0,110.78v15.63q8-2.32,16-4.56Q22.07,120.17,28.19,118.56Z" transform="translate(0.13 0.13)"/><path class="cls-3" d="M92.88,241.94l-17.5-.11L72,249.75l-.1.25h17.7l.1-.25Z" transform="translate(0.13 0.13)"/><path class="cls-3" d="M136.39,97.41,134.46,102l.54-.26a1,1,0,1,1,.83,1.71l-.11,0-.07,0-2.14.73L109.9,160.12l15.82.42L152.17,95Q144.27,96.1,136.39,97.41Zm10,4.14h-.21l-3.54.39h-.11a1.3,1.3,0,0,1-.37-2.57l3.72-.67a1.43,1.43,0,0,1,.51,2.82Z" transform="translate(0.13 0.13)"/><path class="cls-3" d="M137.48,94.83q6.33-1,12.68-2-3.93.58-7.84,1.22l-4.84.77Z" transform="translate(0.13 0.13)"/><path class="cls-3" d="M188.57,123.44l-.4-.68-.06-.1a1.43,1.43,0,0,1-.07-1.27l-.11-.33,0-.1a2,2,0,0,1,1.26-2.53,1.83,1.83,0,0,1,1-.07l9-29.16q-7.69.7-15.38,1.58l-2.39,7.3c.32.43.66.86,1,1.3a2.55,2.55,0,0,1-2.72,4l-1.23,3.76a1.82,1.82,0,0,1-1.07,3.26l-16.73,51.06,1.55,0a7,7,0,0,1,6.7,8.43L149.88,229.7a15.53,15.53,0,0,1-15.23,12.5h-.55l-2.47,7.55-.08.25h18.1l.07-.25ZM181.45,112a1.74,1.74,0,0,1,2.45.07l0,.06.15.17c-.49-.94-1-1.88-1.46-2.83l-.07-.13a2.43,2.43,0,0,1,4.33-2.2l0,.08c.64,1.36,1.27,2.74,1.88,4.11a2.32,2.32,0,0,1-1.17,3.06,2.28,2.28,0,0,1-1.64.09l.45.52a1.65,1.65,0,0,1-2.45,2.22l-.09-.1-2.43-2.56-.1-.1A1.76,1.76,0,0,1,181.45,112Z" transform="translate(0.13 0.13)"/><path class="cls-3" d="M7.7,205.7,0,219.36v30.08l25.2-46.13C20.26,204.18,13.39,205.26,7.7,205.7Z" transform="translate(0.13 0.13)"/><path class="cls-3" d="M59.46,140.6c-6.33,1.14-11.76,1.52-15.68,1.07l-7.29,12.94H51.81l7.65-14Z" transform="translate(0.13 0.13)"/><path class="cls-3" d="M7.23,144.83h0Q3.51,146,0,147.06v7.55H1Z" transform="translate(0.13 0.13)"/><path class="cls-3" d="M207.11,144.27a2.19,2.19,0,0,1,.32-1.63c0-.06.1-.11.14-.17l11.51-44.34-1.3,1-.12.09a1.87,1.87,0,0,1-2.21-3l3.06-2.24a1.86,1.86,0,0,1,1.73-.26l1.61-6.2-5.55.34-5,.38a2.57,2.57,0,0,1-1.64.13l-3,.23L206,90.87v0a2.45,2.45,0,0,1,1,.22,2.54,2.54,0,0,1,1.29,3.37l0,.05-.06.12-1.87,3.94,0,.11a2.51,2.51,0,0,1-2.56,1.41l-1,4.31a2.33,2.33,0,0,1,.44,2.1l0,.11,0,.09-1.41,4.17,0,.08a2.23,2.23,0,0,1-.78,1.07l-1.58,6.58a2.18,2.18,0,0,1,0,.57.5.5,0,0,1,0,.12v.06c-.08.33-.16.65-.23,1a1.32,1.32,0,0,1,1.49-.52,1.34,1.34,0,0,1,.89,1.68.64.64,0,0,0,0,.07l0,.07c-.41,1.12-.84,2.23-1.28,3.34l0,.06a1.21,1.21,0,0,1-1.56.68,1.18,1.18,0,0,1-.72-.86l-1.56,6.48a1.13,1.13,0,0,1,.12.18.87.87,0,0,1,1.73.19s0,.06,0,.09v.05l-.77,3.52v0a.66.66,0,0,1-.79.5.62.62,0,0,1-.42-.33l-.2,1.24v0a.92.92,0,0,1-1.06.77l-.07,0-27,112.15-.06.25h12l.07-.25Zm.43-40,2.42-2.88a1.81,1.81,0,0,1,2.57-.23,1.83,1.83,0,0,1,.23,2.57l0,0-.09.11-2.31,2.64-.09.1a1.79,1.79,0,0,1-2.71-2.33Zm-5.9,9.57,1.74-3.32a1.66,1.66,0,0,1,2.94,1.55l0,.06-.05.09-1.79,3.06-.06.08a1.57,1.57,0,0,1-2.74-1.52ZM196,142.37a.16.16,0,0,1,.17.15v0h0l-.19,1.87-.13-1.88A.16.16,0,0,1,196,142.37Zm-.49.37a.17.17,0,0,1,.19.15v0l-.13,1.89-.22-1.87h0A.17.17,0,0,1,195.54,142.74Zm-1,2.73a.22.22,0,0,1,.24.2v.05l-.24,2.27-.2-2.28A.23.23,0,0,1,194.51,145.47ZM194,146a.25.25,0,0,1,.28.22v.05c-.07.76-.14,1.52-.22,2.28-.1-.76-.19-1.52-.28-2.27h0A.25.25,0,0,1,194,146Z" transform="translate(0.13 0.13)"/><path class="cls-3" d="M169.73,93.21h0l-.77-.62q-4.31.57-8.61,1.17l-2,5.38a1.73,1.73,0,0,1-1.11,3l-22,58.7,16,.42L175.91,91.7l-2,.25a2.65,2.65,0,0,1-.49.92A2.6,2.6,0,0,1,169.73,93.21Zm-.3,10.63a1.87,1.87,0,0,1-2.38,1.14h0l-.15-.06-3.3-1.21-.14,0a1.84,1.84,0,0,1,1.24-3.46l3.6,1.27A1.86,1.86,0,0,1,169.43,103.84Z" transform="translate(0.13 0.13)"/><path class="cls-3" d="M122.43,242.12,104.72,242l-2.91,7.74-.09.25h17.91l.09-.25Z" transform="translate(0.13 0.13)"/><path class="cls-3" d="M36.62,137.36h0a4.45,4.45,0,0,0-4.69-.8l-2.32.81c-3.35,1.16-6.65,2.29-9.87,3.38l-4.92,8.05,1.82,5.81h9.74l10.24-17.25Z" transform="translate(0.13 0.13)"/><path class="cls-3" d="M233,105.08a8.22,8.22,0,0,1,2.61-2.91l-2.06.23-.25,0-.3,0-.3,0-.25,0-2.06-.23A8.22,8.22,0,0,1,233,105.08Z" transform="translate(0.13 0.13)"/><path class="cls-3" d="M243.76,87.42a8,8,0,0,1-2.9,3.46l2.09-.23.26,0,.17,0,.86-4.06h-.11l-.13.29Z" transform="translate(0.13 0.13)"/><path class="cls-3" d="M219.8,153.42l-.3,0-.3,0-.25,0-2.06-.23a8.22,8.22,0,0,1,2.61,2.91,8.22,8.22,0,0,1,2.61-2.91l-2.06.23Z" transform="translate(0.13 0.13)"/><path class="cls-3" d="M241.34,100.28a5.34,5.34,0,0,1-.48.35l.42,0Z" transform="translate(0.13 0.13)"/><path class="cls-3" d="M228.67,160.28a8,8,0,0,1-1.31,1.1l1.1-.12Z" transform="translate(0.13 0.13)"/><path class="cls-3" d="M219.5,165.83a8.22,8.22,0,0,1,2.61-2.91l-2.06.23-.25,0-.3,0-.3,0-.25,0-2.06-.23A8.22,8.22,0,0,1,219.5,165.83Z" transform="translate(0.13 0.13)"/><path class="cls-3" d="M221.28,130.87l1.63,2.68.3.5a8.14,8.14,0,0,1,.17,8.1l-.29.52-.13.25a8.15,8.15,0,0,1,2.8-.86l.58-.06,3.11-.35.26,0h0a2.24,2.24,0,0,1,2,3.13l-1.25,2.87-.24.54a8,8,0,0,1-2.9,3.46l2.09-.23.26,0a2.16,2.16,0,0,1,.8.17l8.5-40.24a7.61,7.61,0,0,1-1.77.42l-.58.07-.66.08v7.37a1.5,1.5,0,0,1-1.5,1.5h-3a1.5,1.5,0,0,1-1.5-1.5v-7.37l-.66-.08-.58-.07a8,8,0,0,1-4.23-1.8l-4,20.22A2.13,2.13,0,0,1,221.28,130.87Z" transform="translate(0.13 0.13)"/><path class="cls-3" d="M226,172.76a27.25,27.25,0,0,0-3,.87h0a1.27,1.27,0,0,1-.54.08V180a1.5,1.5,0,0,1-1.5,1.5h-3a1.5,1.5,0,0,1-1.5-1.5v-7.37l-.66-.08-.58-.07a8.06,8.06,0,0,1-2.82-.87l-15.33,78.14,0,.25h12.64l0-.25Zm-12.07,5a.35.35,0,0,1,.55.43l-.06.06h0c-.65.48-1.29,1-2,1.45C213,179,213.46,178.36,214,177.71Z" transform="translate(0.13 0.13)"/><path class="cls-3" d="M233,95.33a8.22,8.22,0,0,1,2.61-2.91l-2.06.23-.25,0-.3,0-.3,0-.25,0-2.06-.23A8.22,8.22,0,0,1,233,95.33Z" transform="translate(0.13 0.13)"/><path class="cls-3" d="M63.36,241.75l-17.27-.11-3.81,8.11-.11.25H59.64l.11-.25Z" transform="translate(0.13 0.13)"/><path class="cls-3" d="M94.68,165.08a15.52,15.52,0,0,1,4.88-3.58l25.33-56.15,2.93-6.5q-8,1.4-16,2.88L109,107.61l-.1.24c3.77.36,6.24,1.44,6.88,3.29,1.28,3.69-5,9.51-15.57,15.2L68.63,193.65C79.18,182.05,89.06,171.23,94.68,165.08Z" transform="translate(0.13 0.13)"/><path class="cls-3" d="M129,96.27h0l-1.46.26Z" transform="translate(0.13 0.13)"/><path class="cls-3" d="M88.6,131.83h0c-2.7,1.12-5.54,2.2-8.48,3.22-3.37,1.18-6.69,2.2-9.89,3.08l-8.51,16.48h1.56v28L88.6,131.83Z" transform="translate(0.13 0.13)"/><path class="cls-3" d="M36.46,236.37A8.33,8.33,0,0,1,38,227.51l6.5-7.22,14.17-28.41H42.47L12.56,249.75l-.12.25H29.66l.12-.25Z" transform="translate(0.13 0.13)"/><path class="cls-3" d="M91.13,105.76c0,1.87,2,3.26,4.41,2.87,1.74-.28,3.38-.49,4.95-.64h0l2.26-4.54Q96.95,104.58,91.13,105.76Z" transform="translate(0.13 0.13)"/><path class="cls-3" d="M246.3,128.15l2.09.23a8,8,0,0,1-2.9-3.46l0,0-.53,3.54a2.21,2.21,0,0,1,1.1-.3Z" transform="translate(0.13 0.13)"/><path class="cls-3" d="M245.8,213a8.12,8.12,0,0,1-6.31-4.78l-.24-.54L238,204.76a2.24,2.24,0,0,1,2-3.13l.26,0,2.09.23a8,8,0,0,1-2.9-3.46l-.24-.54L238,195a2.24,2.24,0,0,1,2-3.13l.26,0,2.09.23a8,8,0,0,1-2.9-3.46l-.24-.54L238,185.26a2.24,2.24,0,0,1,2-3.13l.26,0,3.11.35.58.06a8.09,8.09,0,0,1,3,1l-.13-.21-.3-.5a8.15,8.15,0,0,1-.17-8.11l.29-.51,1.51-2.74a2.19,2.19,0,0,1,1.83-1.14V148.74a8.16,8.16,0,0,1-4.51-4.32l-.24-.54L244,141a2.24,2.24,0,0,1,2-3.13l.26,0,2.09.23a8,8,0,0,1-2.9-3.46l-.24-.54-.87-2-5.47,36.12a26.78,26.78,0,0,1,4,1h0a2.45,2.45,0,0,1-1.6,4.64l-.11,0a26.24,26.24,0,0,0-3-1l-11.62,76.83,0,.25h13.21l0-.25Z" transform="translate(0.13 0.13)"/><polygon class="cls-3" points="249.53 118.87 250.12 118.94 250.13 118.94 250.13 95.09 246.58 118.54 249.53 118.87"/><path class="cls-3" d="M248.92,193.81l-1.28-.14a8,8,0,0,1,1.14,1Z" transform="translate(0.13 0.13)"/><path class="cls-2" d="M220.24,93.66a1.66,1.66,0,0,1,.63.39l-.12-.29a2.24,2.24,0,0,1,2-3.13l.26,0,1.39.16a1.48,1.48,0,0,1,.26-.24,8,8,0,0,1-2.46-3.15l-.24-.54-.67-1.54c-2.63.13-5.26.29-7.88.46l-.93,1.34-.1.15a2.63,2.63,0,0,1-1.13.89l5-.38,5.55-.34h0Z" transform="translate(0.13 0.13)"/><path class="cls-2" d="M75.38,241.83l-12-.08-3.61,8-.11.25H71.93l.1-.25Z" transform="translate(0.13 0.13)"/><path class="cls-2" d="M19.74,140.75h0L13,143l1.82,5.83Z" transform="translate(0.13 0.13)"/><path class="cls-2" d="M191.75,134.29l-.18-.87v-.06a1.32,1.32,0,0,1,.85-1.52l2.74-10.29c.14-1,.27-2,.43-2.93a1.91,1.91,0,0,1,.65-1.15l1.57-5.89a2.23,2.23,0,0,1-.36-1.9l1.23-4.4a2.35,2.35,0,0,1,1.19-1.45l1.68-6.27a2.42,2.42,0,0,1,.21-.94l.09-.2,2.62-9.83,0-.15h0l0-.1-.81.06-.22,0-3.62.29,0,.12q-7.67.67-15.31,1.51l.06-.19-3.68.4-.3,0-3.73.42-.08.22-3.33.41a2.62,2.62,0,0,1,.43,2.32l2-.25h0L151.2,161.21l9.36.25,16.73-51.06a1.84,1.84,0,0,1-1.08-.29l-.12-.09-2.93-1.93L173,108a1.86,1.86,0,1,1,2.05-3.1h0l3.16,2.15.1.08,1.23-3.76a2.5,2.5,0,0,1-1.34-.86l-.13-.16c-.87-1.09-1.72-2.19-2.58-3.29l-.12-.16a2.6,2.6,0,0,1,4.12-3.18h0l1.79,2.35,2.39-7.3q7.68-.87,15.38-1.58l-9,29.16a2,2,0,0,1,1.55,1.32.75.75,0,0,1,0,.16l1.08,4.34a1.81,1.81,0,0,1-.67,1.89,1.17,1.17,0,0,1-.43.36,1.3,1.3,0,0,1-1.38-.15,1.82,1.82,0,0,1-1-1.07l0-.1-.34-1-.39-.66L149.72,249.75l-.07.25h11.29l.07-.25Z" transform="translate(0.13 0.13)"/><path class="cls-2" d="M7.23,144.83,1,154.61H11.14L8,144.58Z" transform="translate(0.13 0.13)"/><path class="cls-2" d="M220.72,96.93h0l-.13.09-1.51,1.11-11.51,44.34a2.23,2.23,0,0,1,1.72-.84l.26,0,3.11.35.58.06a8.56,8.56,0,0,1,1,.19l.56-2.5a8.08,8.08,0,0,1,.81-5.55l.29-.51.4-.73,5.82-26.28-.13-.3-1.25-2.87a2.24,2.24,0,0,1,2-3.13l.26,0,.46,0,.22-1a7.85,7.85,0,0,1-1.49-2.26l-.24-.54-.53-1.21A1.85,1.85,0,0,1,220.72,96.93Z" transform="translate(0.13 0.13)"/><path class="cls-2" d="M64,191.13a.76.76,0,0,1-.75.75H58.65L44.48,220.29c7.34-8.14,16-17.62,24.15-26.64l31.61-67.31h0a125.15,125.15,0,0,1-11.64,5.49L63.28,182.59v7.8A.74.74,0,0,1,64,191.13Z" transform="translate(0.13 0.13)"/><path class="cls-2" d="M250,246.23V222h-1.25a1.5,1.5,0,0,1-1.5-1.5v-7.37l-.66-.08L246,213l-.21,0-6,36.8,0,.25h9.75l0-.25Z" transform="translate(0.13 0.13)"/><path class="cls-2" d="M248,90.84c-.32-.06-.64-.11-.95-.18l-.13,0a1.34,1.34,0,0,1-1.06-1.58A1.35,1.35,0,0,1,247.44,88l.07,0,.94.25.31-1.73h0L249,85l0-.24H250v-.14c-1.68,0-3.35,0-5,0l-.84,2h.11l-.86,4.06a2.22,2.22,0,0,1,1.87,3.11L244,96.63l-.24.54a8,8,0,0,1-2.42,3.11l-.06.31,1.67-.19.26,0a2.24,2.24,0,0,1,2,3.13L244,106.38l-.24.54a8.09,8.09,0,0,1-4.75,4.39l-8.5,40.24a2.2,2.2,0,0,1,1.24,3l-1.25,2.87-.24.54a8,8,0,0,1-1.59,2.36l-.21,1,1-.11.26,0a2.24,2.24,0,0,1,2,3.13l-1.25,2.87-.24.54a7.8,7.8,0,0,1-1.39,2.14,1.3,1.3,0,0,1,.15.34,1.76,1.76,0,0,1-1.15,2.22l-.24.06c-.54.09-1.07.2-1.6.33l-16.27,77,0,.25h10.2l0-.25Z" transform="translate(0.13 0.13)"/><path class="cls-2" d="M46.09,241.64H44.23a8.35,8.35,0,0,1-7.77-5.26l-6.68,13.38-.12.25H42.17l.11-.25Z" transform="translate(0.13 0.13)"/><path class="cls-2" d="M249.7,203.65l-2.06-.23a8.17,8.17,0,0,1,2.36,2.5v-2.26H250Z" transform="translate(0.13 0.13)"/><path class="cls-2" d="M249.7,193.9l-.78-.09-.14.82a7.88,7.88,0,0,1,1.22,1.54v-2.26H250Z" transform="translate(0.13 0.13)"/><path class="cls-2" d="M208.66,167.49l-.16-.36-1.25-2.87a2.24,2.24,0,0,1,2-3.13l.26,0,.5,0,.22-1a8,8,0,0,1-1.53-2.3l-.24-.54-1.25-2.87a2.24,2.24,0,0,1,2-3.13l.26,0,2.09.23a8,8,0,0,1-2.9-3.46l-.24-.54-1.25-2.87a2.11,2.11,0,0,1-.14-.49L179.74,249.75l-.07.25h10.72l.05-.25Z" transform="translate(0.13 0.13)"/><path class="cls-2" d="M111.8,101.73h0q8-1.49,16-2.88h0l-2.93,6.5L99.56,161.5a15.59,15.59,0,0,1,6.58-1.48h.48l3.28.09,23.61-55.89-1.28.44h-.06a.72.72,0,0,1-.91-.45.73.73,0,0,1,.37-.88l2.83-1.37,1.93-4.57h0q7.88-1.3,15.78-2.46l-26.45,65.59,9.47.25,22-58.7h-.46l-3.5-.43h-.14a1.66,1.66,0,0,1,.33-3.3l3.79.3a1.71,1.71,0,0,1,1.09.5l2-5.38q4.3-.6,8.61-1.17c-.81-.65-1.64-1.28-2.5-1.88h0c-.07,0-.12-.11-.18-.16l-5,.66.09-.23-3.8.52-.4.06-3.86.56-.11.25-3.05.47q-6.34,1-12.68,2h0l.11-.26-3.94.66-.52.09-4,.69-.12.27h0l-1.46.26q-7.27,1.27-14.53,2.64l.11-.24-4.1.79-.69.14-4.19.83-.11.23q-6.27,1.24-12.51,2.56v.07a3.33,3.33,0,0,1-.2,1.16,3.05,3.05,0,0,0-.18,1.05h0q5.81-1.19,11.62-2.31h0L100.49,108a48,48,0,0,1,7.5-.23c.32,0,.63.06.93.09h0l.1-.24Zm13.87,6s0,0,0,0h0l-1.63.94,1.43-1.23a.18.18,0,0,1,.25,0A.17.17,0,0,1,125.67,107.74Z" transform="translate(0.13 0.13)"/><path class="cls-2" d="M134.1,242.2l-11.67-.08-2.71,7.63-.09.25h11.92l.08-.25Z" transform="translate(0.13 0.13)"/><path class="cls-2" d="M43.78,141.67c-3.56-.4-5.87-1.47-6.49-3.26a2.9,2.9,0,0,0-.67-1L26.38,154.61H36.49l7.29-12.94Z" transform="translate(0.13 0.13)"/><path class="cls-2" d="M4.27,205.89c-1.4,0-2.83,0-4.27-.06v13.53L7.7,205.7C6.49,205.79,5.34,205.86,4.27,205.89Z" transform="translate(0.13 0.13)"/><path class="cls-2" d="M207.7,86.2l-.43,0,0-.09h-.19l-.06.25-.51,2.15h0L206,90.87l.65-2.33,3-.23a2.76,2.76,0,0,1-.88-.39A2.64,2.64,0,0,1,207.7,86.2Z" transform="translate(0.13 0.13)"/><path class="cls-2" d="M104.72,242l-11.84-.07-3.15,7.81-.1.25h12.09l.09-.25Z" transform="translate(0.13 0.13)"/><path class="cls-2" d="M70.23,138.13c-3.78,1-7.4,1.86-10.77,2.47l-7.65,14h9.91l8.51-16.48Z" transform="translate(0.13 0.13)"/><path class="cls-2" d="M42.47,191.88H31.8v10.2s-2.71.55-6.6,1.23L0,249.44V250H12.44l.12-.25Z" transform="translate(0.13 0.13)"/><polygon class="cls-4" points="249.66 249.88 249.63 250.13 250.13 250.13 250.13 246.36 249.66 249.88"/><path class="cls-4" d="M238.21,172.92c-.47-.12-.93-.26-1.4-.35h0a2.29,2.29,0,0,1,.75-4.51c.46,0,.92.12,1.37.2l5.47-36.12-.38-.87a2.22,2.22,0,0,1,.94-2.83l.53-3.54-.22-.51L244,121.51a2.24,2.24,0,0,1,2-3.13l.26,0,.15,0L250,95V91.22l-2-.38L220,249.75l0,.25h6.64l0-.25Zm10-71.72a.29.29,0,0,1,.48.34l-.05.06h0c-.55.45-1.09.91-1.66,1.36C247.41,102.37,247.84,101.79,248.26,101.2Z" transform="translate(0.13 0.13)"/><path class="cls-4" d="M249.07,84.78l0,.24-.26,1.51-.31,1.73,1.55.41V84.79h-.93Z" transform="translate(0.13 0.13)"/><path class="cls-4" d="M211.64,161.38a7.94,7.94,0,0,1-1.37-1.16l-.22,1Z" transform="translate(0.13 0.13)"/><path class="cls-4" d="M215.79,142.31a8.08,8.08,0,0,1-1-2.56l-.56,2.5a8.15,8.15,0,0,1,2,.77l-.13-.21Z" transform="translate(0.13 0.13)"/><path class="cls-4" d="M212.44,171.61a8.06,8.06,0,0,1-3.7-3.94l-.08-.18-18.22,82.26-.05.25h6.68l0-.25Z" transform="translate(0.13 0.13)"/><path class="cls-4" d="M217.42,131a2.22,2.22,0,0,1,2-1.16,2.17,2.17,0,0,1,1.2.36l4-20.22a8,8,0,0,1-2.29-3l-.11-.24L216.31,133Z" transform="translate(0.13 0.13)"/><path class="cls-4" d="M225.14,100.63a8.45,8.45,0,0,1-1.41-1.2l-.22,1Z" transform="translate(0.13 0.13)"/><path class="cls-4" d="M197.76,124.55a1.7,1.7,0,0,1-1.58.43,1.68,1.68,0,0,1-1.26-1.86c.07-.53.15-1.05.23-1.57l-2.74,10.29.17-.05.27,0a.92.92,0,0,1,.61-.66,1,1,0,0,1,1,.28,1.19,1.19,0,0,1,.92-.4,1.21,1.21,0,0,1,.84.37l1.56-6.48A1.13,1.13,0,0,1,197.76,124.55Z" transform="translate(0.13 0.13)"/><path class="cls-4" d="M194.72,137.6a1.14,1.14,0,0,1-.26-.09,1,1,0,0,1-.92,1,1,1,0,0,1-1.06-.79v-.05l-.72-3.37L161,249.75l-.07.25h6.73l.06-.25Z" transform="translate(0.13 0.13)"/><path class="cls-4" d="M198.86,112.36a2.21,2.21,0,0,1-1.06-.78l-1.57,5.89a1.87,1.87,0,0,1,3.06,1.16l1.58-6.58A2.2,2.2,0,0,1,198.86,112.36Z" transform="translate(0.13 0.13)"/><path class="cls-4" d="M201.54,97.56l-1.68,6.27a2.36,2.36,0,0,1,1.68-.17,2.41,2.41,0,0,1,1.17.77l1-4.31a2.54,2.54,0,0,1-.78-.22A2.51,2.51,0,0,1,201.54,97.56Z" transform="translate(0.13 0.13)"/><path class="cls-4" d="M207,86.4l.06-.25-.78.06-1,.07-.8.06,0,.1,0,.15-2.62,9.83,1.79-4A2.54,2.54,0,0,1,206,90.9v0l.56-2.32Z" transform="translate(0.13 0.13)"/><path class="cls-5" d="M249.37,188.52l-.23-.54a6.6,6.6,0,0,0-5.32-3.92l-.58-.07-3.11-.35H240a.74.74,0,0,0-.67,1l1.26,2.87.23.54a6.6,6.6,0,0,0,5.32,3.92l.58.07,3.11.35H250V190Z" transform="translate(0.13 0.13)"/><path class="cls-6" d="M248.47,186l-1.5-2.47a8.09,8.09,0,0,0-3-1l-.58-.06-3.11-.35-.26,0a2.24,2.24,0,0,0-2,3.13l1.25,2.87.24.54a8,8,0,0,0,2.9,3.46l1,.12.58.06a8.14,8.14,0,0,1,3.65,1.36l1.28.14h0l.78.09.25,0H250v-1.5h-.13l-3.11-.35-.58-.07a6.6,6.6,0,0,1-5.32-3.92l-.23-.54-1.26-2.87a.74.74,0,0,1,.67-1h.09l3.11.35.58.07a6.6,6.6,0,0,1,5.32,3.92l.23.54L250,190V187A2.19,2.19,0,0,1,248.47,186Z" transform="translate(0.13 0.13)"/><path class="cls-5" d="M249.14,197.73a6.6,6.6,0,0,0-5.32-3.92l-.58-.07-3.11-.35H240a.74.74,0,0,0-.67,1l1.26,2.87.23.54a6.6,6.6,0,0,0,5.32,3.92l.58.07,3.11.35H250V199.7l-.63-1.43Z" transform="translate(0.13 0.13)"/><path class="cls-6" d="M248.78,194.63h0a8,8,0,0,0-1.14-1,8.14,8.14,0,0,0-3.65-1.36l-.58-.06-1-.12-2.09-.23-.26,0a2.24,2.24,0,0,0-2,3.13l1.25,2.87.24.54a8,8,0,0,0,2.9,3.46l1,.12.58.06a8.14,8.14,0,0,1,3.65,1.36l2.06.23.25,0H250v-1.5h-.13l-3.11-.35-.58-.07a6.6,6.6,0,0,1-5.32-3.92l-.23-.54-1.26-2.87a.74.74,0,0,1,.67-1h.09l3.11.35.58.07a6.6,6.6,0,0,1,5.32,3.92l.23.54.63,1.43v-3.53A7.88,7.88,0,0,0,248.78,194.63Z" transform="translate(0.13 0.13)"/><path class="cls-5" d="M249.14,207.48a6.6,6.6,0,0,0-5.32-3.92l-.58-.07-3.11-.35H240a.74.74,0,0,0-.67,1l1.26,2.87.23.54a6.6,6.6,0,0,0,5.32,3.92l.58.07,2,.23v8.71H250V209.45l-.63-1.43Z" transform="translate(0.13 0.13)"/><path class="cls-6" d="M247.64,203.42a8.14,8.14,0,0,0-3.65-1.36l-.58-.06-1-.12-2.09-.23-.26,0a2.24,2.24,0,0,0-2,3.13l1.25,2.87.24.54A8.12,8.12,0,0,0,245.8,213h0l.21,0,.58.07.66.08v7.37a1.5,1.5,0,0,0,1.5,1.5H250v-1.5h-1.25v-8.71l-2-.23-.58-.07a6.6,6.6,0,0,1-5.32-3.92l-.23-.54-1.26-2.87a.74.74,0,0,1,.67-1h.09l3.11.35.58.07a6.6,6.6,0,0,1,5.32,3.92l.23.54.63,1.43v-3.53A8.17,8.17,0,0,0,247.64,203.42Z" transform="translate(0.13 0.13)"/><path class="cls-5" d="M249.48,172.17,248,174.91l-.28.52a6.6,6.6,0,0,0,.13,6.6l.31.51,1.62,2.67a.67.67,0,0,0,.25.25v-5.93c-.33-.3-.66-.6-1-.89h0a2.61,2.61,0,0,1-.32-3.68,2.57,2.57,0,0,1,1.33-.84v-2.3A.72.72,0,0,0,249.48,172.17Z" transform="translate(0.13 0.13)"/><path class="cls-6" d="M248.17,171.45l-1.51,2.74-.29.51a8.15,8.15,0,0,0,.17,8.11l.3.5.13.21,1.5,2.47a2.19,2.19,0,0,0,1.53,1v-1.56a.67.67,0,0,1-.25-.25l-1.62-2.67-.31-.51a6.6,6.6,0,0,1-.13-6.6l.28-.52,1.51-2.74a.72.72,0,0,1,.52-.35v-1.51A2.19,2.19,0,0,0,248.17,171.45Z" transform="translate(0.13 0.13)"/><path class="cls-5" d="M249.24,120.24l-3.11-.35H246a.74.74,0,0,0-.67,1l1.26,2.87.23.54a6.58,6.58,0,0,0,3.14,3.27v-7.25a1.13,1.13,0,0,0-.18,0Z" transform="translate(0.13 0.13)"/><path class="cls-6" d="M249.41,118.75l-3-.33-.15,0-.26,0a2.24,2.24,0,0,0-2,3.13l1.25,2.87.22.51,0,0a8,8,0,0,0,2.9,3.46l1,.12.58.06h0v-1a6.58,6.58,0,0,1-3.14-3.27l-.23-.54-1.26-2.87a.74.74,0,0,1,.67-1h.09l3.11.35.58.07a1.13,1.13,0,0,1,.18,0v-1.52h0Z" transform="translate(0.13 0.13)"/><path class="cls-5" d="M249.24,130l-3.11-.35H246a.74.74,0,0,0-.67,1l1.26,2.87.23.54a6.58,6.58,0,0,0,3.14,3.27v-7.25l-.18,0Z" transform="translate(0.13 0.13)"/><path class="cls-6" d="M249.41,128.5l-1-.12-2.09-.23-.26,0a2.21,2.21,0,0,0-1.1.3,2.22,2.22,0,0,0-.94,2.83l.38.87.87,2,.24.54a8,8,0,0,0,2.9,3.46l1,.12.58.06h0v-1a6.58,6.58,0,0,1-3.14-3.27l-.23-.54-1.26-2.87a.74.74,0,0,1,.67-1h.09l3.11.35.58.07.18,0v-1.52h0Z" transform="translate(0.13 0.13)"/><path class="cls-5" d="M249.24,139.74l-3.11-.35H246a.74.74,0,0,0-.67,1l1.26,2.87.23.54a6.58,6.58,0,0,0,3.14,3.27v-7.25l-.18,0Z" transform="translate(0.13 0.13)"/><path class="cls-6" d="M249.41,138.25l-1-.12-2.09-.23-.26,0a2.24,2.24,0,0,0-2,3.13l1.25,2.87.24.54a8.16,8.16,0,0,0,4.51,4.32v-1.65a6.58,6.58,0,0,1-3.14-3.27l-.23-.54-1.26-2.87a.74.74,0,0,1,.67-1h.09l3.11.35.58.07.18,0v-1.52h0Z" transform="translate(0.13 0.13)"/><path class="cls-5" d="M228.75,89a1.79,1.79,0,0,1,2.38,2l1.49.17h.08a.68.68,0,0,1,.6,0h.08l3.11-.35.58-.07a6.93,6.93,0,0,0,.91-.16l-1.37.13h-.16a1.66,1.66,0,1,1-.33-3.31h.08l3.8-.2a1.56,1.56,0,0,1,1.54,1,6.3,6.3,0,0,0,.85-1.41l.23-.54,1.26-2.87a.74.74,0,0,0-.67-1h-.09l-3.11.35-.58.07a6.6,6.6,0,0,0-5.32,3.92l-.23.54-.88,2-.88-2-.23-.54a6.6,6.6,0,0,0-5.32-3.92l-.58-.07-3.11-.35h-.09a.74.74,0,0,0-.67,1l1.26,2.87.23.54a6.61,6.61,0,0,0,2.7,3Z" transform="translate(0.13 0.13)"/><path class="cls-6" d="M245.07,81.89a2.22,2.22,0,0,0-1.86-1h0l-.26,0-3.11.35-.58.06a8.15,8.15,0,0,0-2.8.86l-1.38,2.49a2.22,2.22,0,0,1-3.86.08l-1.5-2.47a8.09,8.09,0,0,0-3-1l-.58-.06-3.11-.35-.26,0a2.24,2.24,0,0,0-2,3.13l.58,1.33.67,1.54.24.54a8,8,0,0,0,2.46,3.15,1.46,1.46,0,0,1,.45-.27l0,0,1.13-.42a6.61,6.61,0,0,1-2.7-3l-.23-.54-1.26-2.87a.74.74,0,0,1,.67-1h.09l3.11.35.58.07a6.6,6.6,0,0,1,5.32,3.92l.23.54.88,2,.88-2,.23-.54a6.6,6.6,0,0,1,5.32-3.92l.58-.07,3.11-.35h.09a.74.74,0,0,1,.67,1l-1.26,2.87-.23.54a6.3,6.3,0,0,1-.85,1.41,1.53,1.53,0,0,1,.11.48,1.58,1.58,0,0,1-1.42,1.65h-.16l-2.09.21a6.93,6.93,0,0,1-.91.16l-.58.07-3.11.35h-.08a.68.68,0,0,0-.6,0h-.08L231.13,91a1.78,1.78,0,0,1-1,1.26l.28.17,2.06.23.25,0,.3,0,.3,0,.25,0,2.06-.23a8.14,8.14,0,0,1,3.65-1.36l.58-.06,1-.12a8,8,0,0,0,2.9-3.46l.24-.54.13-.29.84-2,.28-.63A2.23,2.23,0,0,0,245.07,81.89Z" transform="translate(0.13 0.13)"/><path class="cls-5" d="M226.65,93.63l-.16.07a1.83,1.83,0,0,1-2.37-1,2,2,0,0,1-.1-.4l-1.14-.13h-.09a.74.74,0,0,0-.67,1L223.38,96l.23.54a6.6,6.6,0,0,0,5.32,3.92l.58.07,3.11.35h.08a.68.68,0,0,1,.6,0h.08l3.11-.35.58-.07a6.6,6.6,0,0,0,5.32-3.92l.23-.54,1.26-2.87a.74.74,0,0,0-.67-1h-.09l-3.11.35-.58.07a6.6,6.6,0,0,0-5.32,3.92l-.23.54L233,99l-.88-2-.23-.54A6.57,6.57,0,0,0,228.28,93Z" transform="translate(0.13 0.13)"/><path class="cls-6" d="M243.21,90.63l-.26,0-2.09.23-1,.12-.58.06a8.14,8.14,0,0,0-3.65,1.36A8.22,8.22,0,0,0,233,95.33a8.22,8.22,0,0,0-2.61-2.91l-.28-.17-.07,0-.16.07-1.6.63a6.57,6.57,0,0,1,3.61,3.49l.23.54.88,2,.88-2,.23-.54a6.6,6.6,0,0,1,5.32-3.92l.58-.07,3.11-.35h.09a.74.74,0,0,1,.67,1L242.62,96l-.23.54a6.6,6.6,0,0,1-5.32,3.92l-.58.07-3.11.35h-.08a.68.68,0,0,0-.6,0h-.08l-3.11-.35-.58-.07a6.6,6.6,0,0,1-5.32-3.92l-.23-.54-1.26-2.87a.74.74,0,0,1,.67-1h.09l1.14.13a1.81,1.81,0,0,1,.42-1.46l-1.39-.16-.26,0a2.24,2.24,0,0,0-2,3.13l.12.29a2.16,2.16,0,0,1,.25.27,1.8,1.8,0,0,1,.35,1.1l.53,1.21.24.54a7.85,7.85,0,0,0,1.49,2.26,8.45,8.45,0,0,0,1.41,1.2l1,.12.58.06a8.14,8.14,0,0,1,3.65,1.36l2.06.23.25,0,.3,0,.3,0,.25,0,2.06-.23a8.14,8.14,0,0,1,3.65-1.36l.58-.06,1-.12a5.34,5.34,0,0,0,.48-.35h0a8,8,0,0,0,2.42-3.11l.24-.54,1.25-2.87a2.22,2.22,0,0,0-1.87-3.11h0Z" transform="translate(0.13 0.13)"/><path class="cls-5" d="M240,102.24l-.58.07a6.6,6.6,0,0,0-5.32,3.92l-.23.54-.88,2-.88-2-.23-.54a6.6,6.6,0,0,0-5.32-3.92l-.58-.07-3.11-.35h-.09a.74.74,0,0,0-.67,1l1.26,2.87.23.54a6.6,6.6,0,0,0,5.32,3.92l.58.07,2,.23v8.71h3v-8.71l2-.23.58-.07a6.6,6.6,0,0,0,5.32-3.92l.23-.54,1.26-2.87a.74.74,0,0,0-.67-1h-.09Z" transform="translate(0.13 0.13)"/><path class="cls-6" d="M240.86,100.63l-1,.12-.58.06a8.14,8.14,0,0,0-3.65,1.36,8.22,8.22,0,0,0-2.61,2.91,8.22,8.22,0,0,0-2.61-2.91,8.14,8.14,0,0,0-3.65-1.36l-.58-.06-1-.12-1.63-.18-.46,0-.26,0a2.24,2.24,0,0,0-2,3.13l1.25,2.87.13.3.11.24a8.18,8.18,0,0,0,6.52,4.81l.58.07.66.08v7.37a1.5,1.5,0,0,0,1.5,1.5h3a1.5,1.5,0,0,0,1.5-1.5v-7.37l.66-.08.58-.07a7.61,7.61,0,0,0,1.77-.42h0a8.09,8.09,0,0,0,4.75-4.39l.24-.54,1.25-2.87a2.24,2.24,0,0,0-2-3.13l-.26,0-1.67.19h0Zm3,2.28-1.26,2.87-.23.54a6.6,6.6,0,0,1-5.32,3.92l-.58.07-2,.23v8.71h-3v-8.71l-2-.23-.58-.07a6.6,6.6,0,0,1-5.32-3.92l-.23-.54-1.26-2.87a.74.74,0,0,1,.67-1h.09l3.11.35.58.07a6.6,6.6,0,0,1,5.32,3.92l.23.54.88,2,.88-2,.23-.54a6.6,6.6,0,0,1,5.32-3.92l.58-.07,3.11-.35h.09A.74.74,0,0,1,243.88,102.91Z" transform="translate(0.13 0.13)"/><path class="cls-5" d="M233.13,84.32a.73.73,0,0,0,.64-.38l1.51-2.74.28-.52a6.61,6.61,0,0,0-.13-6.61l-.31-.5-1.62-2.68a.74.74,0,0,0-1.27,0l-1.51,2.74-.28.52a6.6,6.6,0,0,0,.13,6.6l.31.51L232.5,84A.72.72,0,0,0,233.13,84.32Z" transform="translate(0.13 0.13)"/><path class="cls-6" d="M231.22,84.74a2.22,2.22,0,0,0,3.86-.08l1.38-2.49.13-.25.29-.52a8.14,8.14,0,0,0-.17-8.1l-.3-.5-1.63-2.68a2.16,2.16,0,0,0-1.05-.89,25.85,25.85,0,0,0-2.81,1h0l-1.51,2.74-.29.51a8.15,8.15,0,0,0,.17,8.11l.3.5.13.21Zm-.65-4a6.6,6.6,0,0,1-.13-6.6l.28-.52,1.51-2.74a.74.74,0,0,1,1.27,0l1.62,2.68.31.5a6.61,6.61,0,0,1,.13,6.61l-.28.52-1.51,2.74a.73.73,0,0,1-.64.38.72.72,0,0,1-.63-.36l-1.62-2.67Z" transform="translate(0.13 0.13)"/><path class="cls-5" d="M213.07,143.56l-.58-.07-3.11-.35h-.09a.74.74,0,0,0-.67,1l1.26,2.87.23.54a6.6,6.6,0,0,0,5.32,3.92l.58.07,3.11.35h.08a.68.68,0,0,1,.6,0h.08l3.11-.35.58-.07a6.6,6.6,0,0,0,5.32-3.92l.23-.54,1.26-2.87a.74.74,0,0,0-.67-1h-.09l-3.11.35-.58.07a6.6,6.6,0,0,0-5.32,3.92l-.23.54-.88,2-.88-2-.23-.54A6.6,6.6,0,0,0,213.07,143.56Z" transform="translate(0.13 0.13)"/><path class="cls-6" d="M212.66,151.75l.58.06a8.14,8.14,0,0,1,3.65,1.36l2.06.23.25,0,.3,0,.3,0,.25,0,2.06-.23a8.14,8.14,0,0,1,3.65-1.36l.58-.06,1-.12a8,8,0,0,0,2.9-3.46l.24-.54,1.25-2.87a2.24,2.24,0,0,0-2-3.13h0l-.26,0-3.11.35-.58.06a8.15,8.15,0,0,0-2.8.86l-1.38,2.49a2.22,2.22,0,0,1-3.86.08l-1.5-2.47a8.15,8.15,0,0,0-2-.77,8.56,8.56,0,0,0-1-.19l-.58-.06-3.11-.35-.26,0a2.23,2.23,0,0,0-1.72.84h0c0,.06-.1.11-.14.17a2.19,2.19,0,0,0-.32,1.63h0a2.11,2.11,0,0,0,.14.49l1.25,2.87.24.54a8,8,0,0,0,2.9,3.46Zm5.73-4.27.23.54.88,2,.88-2,.23-.54a6.6,6.6,0,0,1,5.32-3.92l.58-.07,3.11-.35h.09a.74.74,0,0,1,.67,1L229.12,147l-.23.54a6.6,6.6,0,0,1-5.32,3.92l-.58.07-3.11.35h-.08a.68.68,0,0,0-.6,0h-.08l-3.11-.35-.58-.07a6.6,6.6,0,0,1-5.32-3.92l-.23-.54-1.26-2.87a.74.74,0,0,1,.67-1h.09l3.11.35.58.07A6.6,6.6,0,0,1,218.39,147.48Z" transform="translate(0.13 0.13)"/><path class="cls-5" d="M216,161.31l3.11.35h.08a.68.68,0,0,1,.6,0h.08l3.11-.35.58-.07a6.6,6.6,0,0,0,5.32-3.92l.23-.54,1.26-2.87a.74.74,0,0,0-.67-1h-.09l-3.11.35-.58.07a6.6,6.6,0,0,0-5.32,3.92l-.23.54-.88,2-.88-2-.23-.54a6.6,6.6,0,0,0-5.32-3.92l-.58-.07-3.11-.35h-.09a.74.74,0,0,0-.67,1l1.26,2.87.23.54a6.6,6.6,0,0,0,5.32,3.92Z" transform="translate(0.13 0.13)"/><path class="cls-6" d="M229.71,151.38l-.26,0-2.09.23-1,.12-.58.06a8.14,8.14,0,0,0-3.65,1.36,8.22,8.22,0,0,0-2.61,2.91,8.22,8.22,0,0,0-2.61-2.91,8.14,8.14,0,0,0-3.65-1.36l-.58-.06-1-.12-2.09-.23-.26,0a2.24,2.24,0,0,0-2,3.13l1.25,2.87.24.54a8.13,8.13,0,0,0,2.9,3.46l1,.12.58.06a8.14,8.14,0,0,1,3.65,1.36l2.06.23.25,0,.3,0,.3,0,.25,0,2.06-.23a8.14,8.14,0,0,1,3.65-1.36l.58-.06,1-.12a8,8,0,0,0,1.31-1.1h0a8,8,0,0,0,1.59-2.36l.24-.54,1.25-2.87a2.2,2.2,0,0,0-1.24-3h0A2.16,2.16,0,0,0,229.71,151.38Zm-19.6,5.94-.23-.54-1.26-2.87a.74.74,0,0,1,.67-1h.09l3.11.35.58.07a6.6,6.6,0,0,1,5.32,3.92l.23.54.88,2,.88-2,.23-.54a6.6,6.6,0,0,1,5.32-3.92l.58-.07,3.11-.35h.09a.74.74,0,0,1,.67,1l-1.26,2.87-.23.54a6.6,6.6,0,0,1-5.32,3.92l-.58.07-3.11.35h-.08a.68.68,0,0,0-.6,0h-.08l-3.11-.35-.58-.07A6.6,6.6,0,0,1,210.11,157.32Z" transform="translate(0.13 0.13)"/><path class="cls-5" d="M226.79,169h0a1.85,1.85,0,0,1,.84,0,6.71,6.71,0,0,0,1.25-1.88l.23-.54,1.26-2.87a.74.74,0,0,0-.67-1h-.09l-3.11.35-.58.07a6.6,6.6,0,0,0-5.32,3.92l-.23.54-.88,2-.88-2-.23-.54a6.6,6.6,0,0,0-5.32-3.92l-.58-.07-3.11-.35h-.09a.74.74,0,0,0-.67,1l1.26,2.87.23.54a6.6,6.6,0,0,0,5.32,3.92l.58.07,2,.23V180h3v-8.71l.79-.09s.06-.07.11-.09A25.6,25.6,0,0,1,226.79,169Z" transform="translate(0.13 0.13)"/><path class="cls-6" d="M227.36,161.38l-1,.12-.58.06a8.14,8.14,0,0,0-3.65,1.36,8.22,8.22,0,0,0-2.61,2.91,8.22,8.22,0,0,0-2.61-2.91,8.14,8.14,0,0,0-3.65-1.36l-.58-.06-1-.12-1.59-.18-.5,0-.26,0a2.24,2.24,0,0,0-2,3.13l1.25,2.87.16.36.08.18a8.19,8.19,0,0,0,6.52,4.81l.58.07.66.08V180a1.5,1.5,0,0,0,1.5,1.5h3a1.5,1.5,0,0,0,1.5-1.5v-6.29a1.41,1.41,0,0,1-1.24-.93,1.37,1.37,0,0,1,.53-1.58l-.79.09V180h-3v-8.71l-2-.23-.58-.07a6.6,6.6,0,0,1-5.32-3.92l-.23-.54-1.26-2.87a.74.74,0,0,1,.67-1h.09l3.11.35.58.07a6.6,6.6,0,0,1,5.32,3.92l.23.54.88,2,.88-2,.23-.54a6.6,6.6,0,0,1,5.32-3.92l.58-.07,3.11-.35h.09a.74.74,0,0,1,.67,1l-1.26,2.87-.23.54a6.71,6.71,0,0,1-1.25,1.88,1.74,1.74,0,0,1,1.23.86,7.8,7.8,0,0,0,1.39-2.14l.24-.54,1.25-2.87a2.24,2.24,0,0,0-2-3.13l-.26,0-1,.11h0Z" transform="translate(0.13 0.13)"/><path class="cls-5" d="M222.06,141.43a6.61,6.61,0,0,0-.13-6.61l-.31-.5L220,131.64a.74.74,0,0,0-1.27,0l-1.51,2.74-.28.52a6.6,6.6,0,0,0,.13,6.6l.31.51,1.62,2.67a.72.72,0,0,0,.63.36.73.73,0,0,0,.64-.38l1.51-2.74Z" transform="translate(0.13 0.13)"/><path class="cls-6" d="M223.38,142.15a8.14,8.14,0,0,0-.17-8.1l-.3-.5-1.63-2.68a2.13,2.13,0,0,0-.71-.72,2.17,2.17,0,0,0-1.2-.36,2.22,2.22,0,0,0-2,1.16l-1.11,2-.4.73-.29.51a8.3,8.3,0,0,0,.17,8.11l.3.5.13.21,1.5,2.47a2.22,2.22,0,0,0,3.86-.08l1.38-2.49.13-.25Zm-3.11,2.54a.73.73,0,0,1-.64.38.72.72,0,0,1-.63-.36L217.38,142l-.31-.51a6.6,6.6,0,0,1-.13-6.6l.28-.52,1.51-2.74a.74.74,0,0,1,1.27,0l1.62,2.68.31.5a6.61,6.61,0,0,1,.13,6.61l-.28.52Z" transform="translate(0.13 0.13)"/><path class="cls-7" d="M194.1,148.56c.08-.76.15-1.52.22-2.28v-.05a.25.25,0,0,0-.5.05h0C193.91,147,194,147.8,194.1,148.56Z" transform="translate(0.13 0.13)"/><path class="cls-7" d="M194,136.69l0-.73-.05-.1,0-.06-1.09-3.44,0-.07a1,1,0,0,1,0-.53l-.27,0-.17.05a1.32,1.32,0,0,0-.85,1.52v.06l.18.87.72,3.37v.05a1,1,0,0,0,1.06.79,1,1,0,0,0,.92-1A.93.93,0,0,1,194,136.69Z" transform="translate(0.13 0.13)"/><path class="cls-7" d="M189.15,118.43a2,2,0,0,0-1.26,2.53l0,.1.11.33a1.34,1.34,0,0,1,.59-.68,1.42,1.42,0,0,1,2,.51l0,.09,1.67,3.39a1.28,1.28,0,0,1-.16,1.37,1.81,1.81,0,0,0,.67-1.89l-1.08-4.34a.75.75,0,0,0,0-.16,2,2,0,0,0-1.55-1.32A1.83,1.83,0,0,0,189.15,118.43Z" transform="translate(0.13 0.13)"/><path class="cls-7" d="M190,125.83l-1-1.73.34,1,0,.1a1.82,1.82,0,0,0,1,1.07,1.3,1.3,0,0,1-.31-.35Z" transform="translate(0.13 0.13)"/><path class="cls-7" d="M187.64,114.38a2.32,2.32,0,0,0,1.17-3.06c-.61-1.37-1.24-2.75-1.88-4.11l0-.08a2.43,2.43,0,0,0-4.33,2.2l.07.13c.48,1,1,1.89,1.46,2.83l1.9,2.18A2.28,2.28,0,0,0,187.64,114.38Z" transform="translate(0.13 0.13)"/><path class="cls-7" d="M181.79,103a2.57,2.57,0,0,0,.52-3.59c-.32-.44-.66-.87-1-1.3l-1.79-2.35h0a2.6,2.6,0,0,0-4.12,3.18l.12.16c.86,1.1,1.71,2.2,2.58,3.29l.13.16a2.5,2.5,0,0,0,1.34.86A2.54,2.54,0,0,0,181.79,103Z" transform="translate(0.13 0.13)"/><path class="cls-7" d="M169.32,86.43a2.57,2.57,0,0,0-3.06,4.11c.06,0,.11.11.18.16h0c.86.6,1.69,1.23,2.5,1.88l.77.62h0a2.6,2.6,0,0,0,3.67-.34,2.6,2.6,0,0,0,.06-3.24,2.38,2.38,0,0,0-.41-.43A38.72,38.72,0,0,0,169.32,86.43Z" transform="translate(0.13 0.13)"/><path class="cls-7" d="M155.4,85.6h0a34.68,34.68,0,0,1,3.86,1.24l.08,0a2.44,2.44,0,0,0,1.6-4.6h0a30.91,30.91,0,0,0-4.53-1.22,2.33,2.33,0,0,0-1,4.54Z" transform="translate(0.13 0.13)"/><path class="cls-7" d="M143.24,85h0a29.46,29.46,0,0,1,4.09-.37h.17a2,2,0,1,0-.42-4h0a33.61,33.61,0,0,0-4.57.8,1.82,1.82,0,0,0,.73,3.57Z" transform="translate(0.13 0.13)"/><path class="cls-7" d="M130,88.8a1,1,0,0,0,1.38.38,37.36,37.36,0,0,1,3.37-1.64l.46-.21.16-.08a1.33,1.33,0,0,0,.47-1.82,1.32,1.32,0,0,0-1.82-.47h0a37.42,37.42,0,0,0-3.4,2.29l-.34.24A1,1,0,0,0,130,88.8Z" transform="translate(0.13 0.13)"/><path class="cls-7" d="M124.27,94l0,0a.25.25,0,1,0-.4-.31c-.47.6-.94,1.2-1.4,1.81.6-.48,1.18-1,1.76-1.46Z" transform="translate(0.13 0.13)"/><path class="cls-7" d="M194.75,145.72v-.05a.22.22,0,0,0-.24-.2.23.23,0,0,0-.2.24l.2,2.28Z" transform="translate(0.13 0.13)"/><path class="cls-7" d="M194.46,131.38a1,1,0,0,1,.19.34l0,.11.69,3.68a.73.73,0,0,1-.58.84A.72.72,0,0,1,194,136l0,.73a.93.93,0,0,0,.45.82,1.14,1.14,0,0,0,.26.09l.07,0a.92.92,0,0,0,1.06-.77v0l.2-1.24a.56.56,0,0,1-.09-.38l.38-3.67h0a1.13,1.13,0,0,0-.12-.18,1.21,1.21,0,0,0-.84-.37A1.19,1.19,0,0,0,194.46,131.38Z" transform="translate(0.13 0.13)"/><path class="cls-7" d="M197.73,117.05a1.89,1.89,0,0,0-2.15,1.57c-.16,1-.29,1.95-.43,2.93-.08.52-.16,1-.23,1.57a1.68,1.68,0,0,0,1.26,1.86,1.7,1.7,0,0,0,1.58-.43,1.23,1.23,0,0,1,0-.27c.34-1.19.7-2.38,1.06-3.56a1.43,1.43,0,0,1,.19-.37c.07-.32.15-.64.23-1v-.06a.5.5,0,0,0,0-.12,2.18,2.18,0,0,0,0-.57A1.88,1.88,0,0,0,197.73,117.05Z" transform="translate(0.13 0.13)"/><path class="cls-7" d="M201.54,103.66a2.34,2.34,0,0,0-2.87,1.62l-1.23,4.4a2.23,2.23,0,0,0,.36,1.9,2.19,2.19,0,0,0,3.07.47,2.23,2.23,0,0,0,.78-1.07l0-.08,1.41-4.17,0-.09,0-.11a2.33,2.33,0,0,0-.44-2.1A2.41,2.41,0,0,0,201.54,103.66Z" transform="translate(0.13 0.13)"/><path class="cls-7" d="M203.63,92.41l-1.79,4-.09.2a2.42,2.42,0,0,0-.21.94A2.51,2.51,0,0,0,203,99.9a2.54,2.54,0,0,0,.78.22,2.51,2.51,0,0,0,2.56-1.41l0-.11,1.87-3.94.06-.12,0-.05A2.54,2.54,0,0,0,207,91.12a2.45,2.45,0,0,0-1-.22A2.54,2.54,0,0,0,203.63,92.41Z" transform="translate(0.13 0.13)"/><path class="cls-7" d="M212.42,87.29l.1-.15.93-1.34L215,83.61l.1-.16a2.61,2.61,0,0,0-4.29-3q-1.35,1.91-2.67,3.83a2.63,2.63,0,0,0,.65,3.62,2.76,2.76,0,0,0,.88.39,2.57,2.57,0,0,0,1.64-.13A2.63,2.63,0,0,0,212.42,87.29Z" transform="translate(0.13 0.13)"/><path class="cls-7" d="M220.58,77.19a37.75,37.75,0,0,1,3.18-2.75h0a2.51,2.51,0,0,0-3-4,41.29,41.29,0,0,0-3.67,3l0,0a2.56,2.56,0,0,0,3.56,3.69Z" transform="translate(0.13 0.13)"/><path class="cls-7" d="M234.78,68.93h0a2.21,2.21,0,0,0-.9-4.33,29.36,29.36,0,0,0-4.7,1.26h0l-.11,0a2.33,2.33,0,1,0,1.8,4.3l0,0a25.85,25.85,0,0,1,2.81-1C234.08,69.13,234.42,69,234.78,68.93Z" transform="translate(0.13 0.13)"/><path class="cls-7" d="M243,68.41a29,29,0,0,1,4.09.8h0A1.7,1.7,0,0,0,248.14,66a25.78,25.78,0,0,0-4.6-1.32h0l-.12,0a1.89,1.89,0,1,0-.44,3.75Z" transform="translate(0.13 0.13)"/><path class="cls-7" d="M195.6,144.81l.13-1.89v0a.17.17,0,0,0-.19-.15.17.17,0,0,0-.16.19h0Z" transform="translate(0.13 0.13)"/><path class="cls-7" d="M192.84,132.29l0,.07L194,135.8l0,.06.05.1a.72.72,0,0,0,.76.39.73.73,0,0,0,.58-.84l-.69-3.68,0-.11a1,1,0,0,0-.19-.34,1,1,0,0,0-1-.28.92.92,0,0,0-.61.66A1,1,0,0,0,192.84,132.29Z" transform="translate(0.13 0.13)"/><path class="cls-7" d="M192.3,124.7l-1.67-3.39,0-.09a1.42,1.42,0,0,0-2-.51,1.34,1.34,0,0,0-.59.68,1.43,1.43,0,0,0,.07,1.27l.06.1.4.68.39.66,1,1.73.06.1a1.31,1.31,0,0,0,1.69.5,1.17,1.17,0,0,0,.43-.36A1.28,1.28,0,0,0,192.3,124.7Z" transform="translate(0.13 0.13)"/><path class="cls-7" d="M181.48,114.55l2.43,2.56.09.1a1.65,1.65,0,0,0,2.45-2.22l-.45-.52-1.9-2.18-.15-.17,0-.06a1.74,1.74,0,0,0-2.45-.07,1.76,1.76,0,0,0-.07,2.46Z" transform="translate(0.13 0.13)"/><path class="cls-7" d="M178.74,109.61a1.84,1.84,0,0,0-.38-2.47l-.1-.08-3.16-2.15h0A1.86,1.86,0,1,0,173,108l.13.09,2.93,1.93.12.09a1.87,1.87,0,0,0,2.53-.5Z" transform="translate(0.13 0.13)"/><path class="cls-7" d="M168.29,101.47l-3.6-1.27a1.84,1.84,0,0,0-1.24,3.46l.14,0,3.3,1.21.15.06h0a1.86,1.86,0,1,0,1.24-3.51Z" transform="translate(0.13 0.13)"/><path class="cls-7" d="M157.23,98.63l-3.79-.3a1.66,1.66,0,0,0-.33,3.3h.14l3.5.43h.46a1.73,1.73,0,0,0,1.11-3A1.71,1.71,0,0,0,157.23,98.63Z" transform="translate(0.13 0.13)"/><path class="cls-7" d="M147.53,99.88a1.42,1.42,0,0,0-1.66-1.15l-3.72.67a1.3,1.3,0,0,0,.37,2.57h.11l3.54-.39h.21A1.43,1.43,0,0,0,147.53,99.88Z" transform="translate(0.13 0.13)"/><path class="cls-7" d="M135.65,103.5l.07,0,.11,0a1,1,0,1,0-.83-1.71l-.54.26h0l-2.83,1.37a.73.73,0,0,0-.37.88.72.72,0,0,0,.91.45h.06l1.28-.44h0Z" transform="translate(0.13 0.13)"/><path class="cls-7" d="M125.44,107.47,124,108.7l1.63-.94h0s0,0,0,0a.17.17,0,0,0,0-.25A.18.18,0,0,0,125.44,107.47Z" transform="translate(0.13 0.13)"/><path class="cls-7" d="M196.2,142.55h0v0a.16.16,0,0,0-.17-.15.16.16,0,0,0-.15.17l.13,1.88Z" transform="translate(0.13 0.13)"/><path class="cls-7" d="M196,135.21a.56.56,0,0,0,.09.38.62.62,0,0,0,.42.33.66.66,0,0,0,.79-.5v0l.77-3.52v-.05s0-.06,0-.09a.87.87,0,0,0-1.73-.19h0Z" transform="translate(0.13 0.13)"/><path class="cls-7" d="M197.78,124.28a1.23,1.23,0,0,0,0,.27,1.13,1.13,0,0,0,0,.32,1.18,1.18,0,0,0,.72.86,1.21,1.21,0,0,0,1.56-.68l0-.06c.44-1.11.87-2.22,1.28-3.34l0-.07a.64.64,0,0,1,0-.07,1.34,1.34,0,0,0-.89-1.68,1.32,1.32,0,0,0-1.49.52,1.43,1.43,0,0,0-.19.37C198.48,121.9,198.12,123.09,197.78,124.28Z" transform="translate(0.13 0.13)"/><path class="cls-7" d="M202.23,115.9a1.58,1.58,0,0,0,2.15-.57l.06-.08,1.79-3.06.05-.09,0-.06a1.66,1.66,0,0,0-2.94-1.55l-1.74,3.32A1.57,1.57,0,0,0,202.23,115.9Z" transform="translate(0.13 0.13)"/><path class="cls-7" d="M210.25,106.57l.09-.1,2.31-2.64.09-.11,0,0a1.83,1.83,0,0,0-.23-2.57,1.81,1.81,0,0,0-2.57.23l-2.42,2.88a1.79,1.79,0,0,0,2.71,2.33Z" transform="translate(0.13 0.13)"/><path class="cls-7" d="M220.59,97l.13-.09h0a1.85,1.85,0,0,0,.75-1.51,1.8,1.8,0,0,0-.35-1.1,2.16,2.16,0,0,0-.25-.27,1.66,1.66,0,0,0-.63-.39h0a1.86,1.86,0,0,0-1.73.26l-3.06,2.24a1.87,1.87,0,0,0,2.21,3l.12-.09,1.3-1h0Z" transform="translate(0.13 0.13)"/><path class="cls-7" d="M224.44,90.81a1.81,1.81,0,0,0-.42,1.46,2,2,0,0,0,.1.4,1.83,1.83,0,0,0,2.37,1l.16-.07,1.63-.64,1.6-.63.16-.07.07,0a1.79,1.79,0,0,0-1.36-3.3l-2.44.91-1.13.42,0,0a1.46,1.46,0,0,0-.45.27A1.48,1.48,0,0,0,224.44,90.81Z" transform="translate(0.13 0.13)"/><path class="cls-7" d="M240,87.21l-3.8.2h-.08a1.66,1.66,0,1,0,.33,3.31h.16l1.37-.13,2.09-.21h.16a1.58,1.58,0,0,0,1.42-1.65,1.53,1.53,0,0,0-.11-.48A1.56,1.56,0,0,0,240,87.21Z" transform="translate(0.13 0.13)"/><path class="cls-7" d="M248.45,88.26l-.94-.25-.07,0a1.35,1.35,0,0,0-1.58,1.07,1.34,1.34,0,0,0,1.06,1.58l.13,0c.31.07.63.12.95.18h0l2,.38V88.67l-1.55-.41Z" transform="translate(0.13 0.13)"/><path class="cls-7" d="M249,178.64h0c.34.29.67.59,1,.89v-5.41a2.57,2.57,0,0,0-1.33.84A2.61,2.61,0,0,0,249,178.64Z" transform="translate(0.13 0.13)"/><path class="cls-7" d="M235,169.85a2.29,2.29,0,0,0,1.77,2.71h0c.47.09.93.23,1.4.35a26.24,26.24,0,0,1,3,1l.11,0a2.45,2.45,0,0,0,1.6-4.64h0a26.78,26.78,0,0,0-4-1c-.45-.08-.91-.15-1.37-.2A2.29,2.29,0,0,0,235,169.85Z" transform="translate(0.13 0.13)"/><path class="cls-7" d="M227.64,169a1.85,1.85,0,0,0-.84,0h0a25.6,25.6,0,0,0-4.89,2.11c-.05,0-.07.06-.11.09a1.37,1.37,0,0,0-.53,1.58,1.41,1.41,0,0,0,1.24.93,1.27,1.27,0,0,0,.54-.08h0a27.25,27.25,0,0,1,3-.87h0c.53-.13,1.06-.24,1.6-.33l.24-.06a1.76,1.76,0,0,0,1.15-2.22,1.3,1.3,0,0,0-.15-.34A1.74,1.74,0,0,0,227.64,169Z" transform="translate(0.13 0.13)"/><path class="cls-7" d="M214.45,178.2l.06-.06a.35.35,0,0,0-.55-.43c-.5.65-1,1.29-1.48,1.95.66-.48,1.3-1,2-1.45Z" transform="translate(0.13 0.13)"/><path class="cls-7" d="M248.69,101.6l.05-.06a.29.29,0,0,0-.48-.34c-.42.59-.85,1.17-1.25,1.77.57-.45,1.11-.91,1.66-1.36Z" transform="translate(0.13 0.13)"/><path class="cls-8" d="M7.23,144.83h0l.77-.25-.9-2.9a2.63,2.63,0,0,1,5-1.57L13,143l6.74-2.22h0c3.22-1.09,6.52-2.22,9.87-3.38l2.32-.81a4.45,4.45,0,0,1,4.69.8h0a2.9,2.9,0,0,1,.67,1c.62,1.79,2.93,2.86,6.49,3.26h0c3.92.45,9.35.07,15.68-1.07h0c3.37-.61,7-1.44,10.77-2.47h0c3.2-.88,6.52-1.9,9.89-3.08,2.94-1,5.78-2.1,8.48-3.22h0a125.15,125.15,0,0,0,11.64-5.49h0c10.54-5.69,16.85-11.51,15.57-15.2-.64-1.85-3.11-2.93-6.88-3.29h0c-.3,0-.61-.07-.93-.09a48,48,0,0,0-7.5.23h0c-1.57.15-3.21.36-4.95.64-2.43.39-4.38-1-4.41-2.87h0a3.05,3.05,0,0,1,.18-1.05,3.33,3.33,0,0,0,.2-1.16v-.07h0a1,1,0,0,1,0-.17c-1.23.26-2.46.51-3.68.78l-4.28.93-.9.2-4.38,1c-4.43,1-8.78,2-13.08,3h0l-3.59.85-4.49,1.08-1.16.29-4.6,1.13h0q-8.78,2.17-17.07,4.37c-1.59.41-3.16.83-4.72,1.25l-1.35.36q-6.12,1.62-12.23,3.29-8,2.24-16,4.56v20.65q3.51-1.06,7.23-2.23ZM49,130a12,12,0,0,1-5.12-1.37s-4.33,1.61-6.86,1.61c-1.88,0-6-1.67-6-1.67a19.14,19.14,0,0,1-6.26,1.59h-.17a20.93,20.93,0,0,1-5.73-1.56s-4.48,1.75-6.37,1.75c-.37,0-.63-.06-.75-.22,0,0,4.48-.51,7.08-3.54h0a8.15,8.15,0,0,0,5.83,3.07h.26c2.56,0,4.79-1.93,6.07-3.26a9.41,9.41,0,0,0,6.07,3.26A9.9,9.9,0,0,0,44,126.75c2,2.8,6.63,2.88,7.1,2.88h0A6.33,6.33,0,0,1,49,130Zm46.5-10.5a12,12,0,0,1-5.12-1.37s-4.33,1.61-6.86,1.61c-1.88,0-6-1.67-6-1.67a19.14,19.14,0,0,1-6.26,1.59h-.17a20.93,20.93,0,0,1-5.73-1.56s-4.48,1.75-6.37,1.75c-.37,0-.63-.06-.75-.22,0,0,4.48-.51,7.08-3.54h0a8.15,8.15,0,0,0,5.83,3.07h.26c2.56,0,4.79-1.93,6.07-3.26a9.41,9.41,0,0,0,6.07,3.26,9.9,9.9,0,0,0,6.92-2.88c2,2.8,6.63,2.88,7.1,2.88h0A6.33,6.33,0,0,1,95.53,119.47Z" transform="translate(0.13 0.13)"/><path class="cls-9" d="M63.23,191.88a.76.76,0,0,0,.75-.75.74.74,0,0,0-.7-.74V191H31.8v.93H63.23Z" transform="translate(0.13 0.13)"/><path class="cls-7" d="M44,126.75a9.9,9.9,0,0,1-6.92,2.88A9.41,9.41,0,0,1,31,126.37c-1.28,1.33-3.51,3.26-6.07,3.26h-.26a8.15,8.15,0,0,1-5.83-3.07h0c-2.6,3-7.08,3.54-7.08,3.54.12.16.38.22.75.22,1.89,0,6.37-1.75,6.37-1.75a20.93,20.93,0,0,0,5.73,1.56h.17A19.14,19.14,0,0,0,31,128.54s4.13,1.67,6,1.67c2.53,0,6.86-1.61,6.86-1.61A12,12,0,0,0,49,130a6.33,6.33,0,0,0,2.1-.34h0C50.62,129.63,46,129.55,44,126.75Z" transform="translate(0.13 0.13)"/><path class="cls-7" d="M90.49,116.25a9.9,9.9,0,0,1-6.92,2.88,9.41,9.41,0,0,1-6.07-3.26c-1.28,1.33-3.51,3.26-6.07,3.26h-.26a8.15,8.15,0,0,1-5.83-3.07h0c-2.6,3-7.08,3.54-7.08,3.54.12.16.38.22.75.22,1.89,0,6.37-1.75,6.37-1.75a20.93,20.93,0,0,0,5.73,1.56h.17A19.14,19.14,0,0,0,77.54,118s4.13,1.67,6,1.67c2.53,0,6.86-1.61,6.86-1.61a12,12,0,0,0,5.12,1.37,6.33,6.33,0,0,0,2.1-.34h0C97.12,119.13,92.47,119.05,90.49,116.25Z" transform="translate(0.13 0.13)"/><path class="cls-8" d="M14.82,148.8,13,143l-.89-2.86a2.63,2.63,0,0,0-5,1.57l.9,2.9,3.14,10h5.5l-1.82-5.81Z" transform="translate(0.13 0.13)"/><path class="cls-9" d="M32,186.19a1.37,1.37,0,0,1-.15.61V191h9.51V172.51H50V191H63.28v-8.36h0v-28H0v25.93c1.45,0,2.94-.07,4.47-.07C19.65,180.47,32,183,32,186.19Zm-11.19-8.43H6.83V163.83H20.76Z" transform="translate(0.13 0.13)"/><rect class="cls-10" x="41.44" y="172.64" width="8.68" height="18.44"/><rect class="cls-10" x="6.95" y="163.95" width="13.93" height="13.93"/><path class="cls-11" d="M4.27,205.89c1.07,0,2.22-.1,3.43-.19,5.69-.44,12.56-1.52,17.5-2.39h0c3.89-.68,6.6-1.23,6.6-1.23V186.8a1.37,1.37,0,0,0,.15-.61c0-3.16-12.3-5.72-27.48-5.72-1.53,0-3,0-4.47.07v2.17c1.45,0,2.94-.07,4.47-.07,13.16,0,23.83,1.87,23.83,4.18S17.63,191,4.47,191c-1.53,0-3,0-4.47-.07v14.9C1.44,205.9,2.87,205.93,4.27,205.89Z" transform="translate(0.13 0.13)"/><path class="cls-12" d="M4.47,191c13.16,0,23.83-1.87,23.83-4.18s-10.67-4.18-23.83-4.18c-1.53,0-3,0-4.47.07v8.22C1.45,191,2.94,191,4.47,191Z" transform="translate(0.13 0.13)"/><path class="cls-8" d="M135.19,160.79l-9.47-.25-15.82-.42h0l-3.28-.09h-.48a15.59,15.59,0,0,0-6.58,1.48h0a15.52,15.52,0,0,0-4.88,3.58c-5.62,6.15-15.5,17-26.05,28.57h0c-8.2,9-16.81,18.5-24.15,26.64h0L38,227.51a8.33,8.33,0,0,0-1.52,8.86h0a8.35,8.35,0,0,0,7.77,5.26h1.86l17.27.11h0l12,.08h0l17.5.11,11.84.07,17.71.11h0l11.67.08h.55a15.53,15.53,0,0,0,15.23-12.5l18.93-59.77a7,7,0,0,0-6.7-8.43l-1.55,0-9.36-.25h0Z" transform="translate(0.13 0.13)"/><rect class="cls-13" x="0.13" y="0.13" width="250" height="250"/></svg>