<svg id="_6_rent_vatten_och_sanitet_för_alla" data-name="6 rent vatten och sanitet för alla" xmlns="http://www.w3.org/2000/svg" viewBox="0 0 160 160.01"><defs><style>.cls-1{fill:#26bde2;}.cls-2{fill:#fff;}</style></defs><title>6_Clean water and sanitation</title><rect class="cls-1" width="160" height="160.01"/><path class="cls-2" d="M24.21,46.09c5.75,0,8-3.14,8-8.14V33.19c0-5.28-2.09-7.94-6-7.94a4.66,4.66,0,0,0-4.48,2.61h0V20.92c0-2,.62-3.33,2.57-3.33s2.52,1.14,2.52,3.14v2.14h4.95V21.16c0-4.76-1.58-8.09-7.57-8.09-5.71,0-7.85,3.66-7.85,8.7V37.48c0,5,2.19,8.61,7.9,8.61M21.69,32.53c.09-1.81.85-3,2.57-3s2.56,1.14,2.56,3.23v5.62c0,2-.76,3.24-2.61,3.24s-2.52-1.24-2.52-3.24Z" transform="translate(0 0.01)"/><path class="cls-2" d="M109.55,64.7a.7.7,0,0,0-.53-.23H51a.66.66,0,0,0-.67.78l9.76,59a.68.68,0,0,0,.67.57h12l.81,9.6h-5L80.2,146.13,92,134.38h-5l.82-9.59H99.91a.67.67,0,0,0,.66-.58l9.13-59a.7.7,0,0,0-.15-.55M87.11,111.92a9.31,9.31,0,0,1-6.93,2.41,9.28,9.28,0,0,1-6.93-2.41c-4.35-4.35-2.8-9.75-1.28-12.55.93-1.75,7.61-11.78,8.19-12.63v-.07l0,0,0,0v.07c.56.85,7.25,10.88,8.18,12.63,1.52,2.8,3.07,8.2-1.28,12.55m18.41-34.81a7.15,7.15,0,0,0-5.48.33c-7.2,2.92-12.1,4-19.68,1.6-4.77-1.5-9.23-4.63-14.51-2.72-3.5,1.26-6.76,2.46-10.72,2.43L52.84,67h54.33Z" transform="translate(0 0.01)"/><path class="cls-2" d="M45.51,45.64,48,32.57h2.5L53,45.64H50.72l-.41-2.39H48l-.39,2.39Zm2.76-4.14H50l-.86-5.25h0Z" transform="translate(0 0.01)"/><polygon class="cls-2" points="55.73 37.43 55.73 45.65 53.88 45.65 53.88 32.58 56.04 32.58 58.41 40.08 58.41 32.58 60.24 32.58 60.24 45.65 58.32 45.65 55.73 37.43"/><path class="cls-2" d="M68.4,36.08v6.05c0,2-.82,3.51-3.18,3.51H61.83V32.57h3.39c2.36,0,3.18,1.48,3.18,3.51M65,43.85c.91,0,1.26-.54,1.26-1.33V35.67A1.15,1.15,0,0,0,65,34.36H64v9.49Z" transform="translate(0 0.01)"/><path class="cls-2" d="M73.31,42.83V41.07h2v1.8c0,.73.33,1.15,1.08,1.15s1-.46,1-1.15v-.51a2.38,2.38,0,0,0-1-1.85l-1.29-1.29c-1.26-1.23-1.84-2-1.84-3.49v-.44c0-1.62,1-2.88,3.09-2.88s3.07,1.08,3.07,3v1.06h-2V35.31c0-.75-.35-1.12-1-1.12a1,1,0,0,0-1,1.08v.27c0,.73.4,1.16,1,1.77l1.41,1.39c1.19,1.22,1.77,1.95,1.77,3.4v.63c0,1.79-1,3.07-3.2,3.07s-3.1-1.26-3.1-3" transform="translate(0 0.01)"/><path class="cls-2" d="M80.25,45.64l2.47-13.07h2.51l2.48,13.07H85.46l-.41-2.39H82.72l-.39,2.39ZM83,41.5h1.75l-.87-5.25h0Z" transform="translate(0 0.01)"/><polygon class="cls-2" points="90.63 37.43 90.63 45.65 88.78 45.65 88.78 32.58 90.94 32.58 93.31 40.08 93.31 32.58 95.14 32.58 95.14 45.65 93.21 45.65 90.63 37.43"/><rect class="cls-2" x="96.9" y="32.57" width="2.2" height="13.07"/><polygon class="cls-2" points="100.16 32.58 106 32.58 106 34.37 104.19 34.37 104.19 45.65 101.97 45.65 101.97 34.37 100.16 34.37 100.16 32.58"/><path class="cls-2" d="M105.48,45.64,108,32.57h2.5l2.49,13.07h-2.26l-.39-2.39H108l-.39,2.39Zm2.76-4.14H110l-.88-5.25h0Z" transform="translate(0 0.01)"/><polygon class="cls-2" points="112.25 32.58 118.09 32.58 118.09 34.37 116.28 34.37 116.28 45.65 114.06 45.65 114.06 34.37 112.25 34.37 112.25 32.58"/><rect class="cls-2" x="119.25" y="32.57" width="2.2" height="13.07"/><path class="cls-2" d="M122.89,42.27V35.94c0-2,1-3.53,3.32-3.53s3.35,1.49,3.35,3.53v6.33c0,2-1,3.53-3.35,3.53s-3.32-1.51-3.32-3.53m4.47.35v-7c0-.79-.35-1.35-1.15-1.35s-1.11.56-1.11,1.35v7c0,.79.35,1.34,1.11,1.34s1.15-.55,1.15-1.34" transform="translate(0 0.01)"/><polygon class="cls-2" points="132.85 37.43 132.85 45.65 131 45.65 131 32.58 133.15 32.58 135.53 40.08 135.53 32.58 137.36 32.58 137.36 45.65 135.43 45.65 132.85 37.43"/><path class="cls-2" d="M45.75,23V16.66c0-2.05,1-3.53,3.28-3.53s3.11,1.35,3.11,3.28V18h-2V16.23c0-.81-.27-1.27-1.06-1.27S48,15.52,48,16.31v7c0,.79.33,1.35,1.12,1.35s1.06-.5,1.06-1.27V21h2v2.25c0,1.87-.77,3.26-3.11,3.26S45.75,25,45.75,23" transform="translate(0 0.01)"/><polygon class="cls-2" points="53.52 13.29 55.72 13.29 55.72 24.57 58.34 24.57 58.34 26.36 53.52 26.36 53.52 13.29"/><polygon class="cls-2" points="59.54 13.29 64.78 13.29 64.78 15.08 61.74 15.08 61.74 18.82 63.92 18.82 63.92 20.6 61.74 20.6 61.74 24.57 64.78 24.57 64.78 26.36 59.54 26.36 59.54 13.29"/><path class="cls-2" d="M65.81,26.36l2.47-13.08h2.51l2.48,13.08H71L70.61,24H68.28l-.39,2.39Zm2.76-4.15h1.75L69.45,17h0Z" transform="translate(0 0.01)"/><polygon class="cls-2" points="76.22 18.15 76.22 26.36 74.37 26.36 74.37 13.29 76.53 13.29 78.91 20.79 78.91 13.29 80.74 13.29 80.74 26.36 78.81 26.36 76.22 18.15"/><polygon class="cls-2" points="90.15 18.28 88.92 26.36 86.85 26.36 85.1 13.29 87.22 13.29 88.24 21.58 88.26 21.58 89.36 13.29 91.15 13.29 92.37 21.58 92.39 21.58 93.39 13.29 95.24 13.29 93.55 26.36 91.46 26.36 90.17 18.28 90.15 18.28"/><path class="cls-2" d="M95.17,26.36l2.47-13.08h2.5l2.49,13.08h-2.26L100,24H97.64l-.39,2.39Zm2.75-4.15h1.76L98.81,17h0Z" transform="translate(0 0.01)"/><polygon class="cls-2" points="102.36 13.29 108.21 13.29 108.21 15.08 106.39 15.08 106.39 26.36 104.17 26.36 104.17 15.08 102.36 15.08 102.36 13.29"/><polygon class="cls-2" points="109.27 13.29 114.51 13.29 114.51 15.08 111.47 15.08 111.47 18.82 113.65 18.82 113.65 20.6 111.47 20.6 111.47 24.57 114.51 24.57 114.51 26.36 109.27 26.36 109.27 13.29"/><path class="cls-2" d="M117.91,20.36v6h-2.2V13.28h3.21c2.21,0,3,1.1,3,2.93v1.68c0,1.41-.5,2.24-1.75,2.53l2.1,5.94H120Zm0-5.28v4.07h.73a1,1,0,0,0,1.08-1.08V16.14c0-.72-.33-1.06-1.08-1.06Z" transform="translate(0 0.01)"/></svg>