<svg id="_11_hållbara_städer_och_samhållen" data-name="11 hållbara städer och samhållen" xmlns="http://www.w3.org/2000/svg" viewBox="0 0 160 160"><defs><style>.cls-1{fill:#fd9d24;}.cls-2{fill:#fff;}</style></defs><title>11_Sustainable cities and communities</title><rect class="cls-1" width="160" height="160"/><polygon class="cls-2" points="11.47 19.26 11.47 24.92 11.51 24.92 15.32 20.97 15.37 20.97 15.37 45.67 20.79 45.67 20.79 13.41 16.46 13.41 11.47 19.26"/><polygon class="cls-2" points="23.84 19.26 23.84 24.92 23.88 24.92 27.69 20.97 27.74 20.97 27.74 45.67 33.16 45.67 33.16 13.41 28.83 13.41 23.84 19.26"/><path class="cls-2" d="M26.39,121.81H50.46a.59.59,0,0,0,.44-1l0,0-12-15.49-.12-.13a.57.57,0,0,0-.43-.19.61.61,0,0,0-.39.15l-.07.08-.12.13L26.08,120.67l-.18.22a.61.61,0,0,0-.1.33.6.6,0,0,0,.59.59" transform="translate(0 0)"/><path class="cls-2" d="M50.39,124H26.27a.59.59,0,0,0-.59.59v18.87a.6.6,0,0,0,.59.59H34V132.18a.58.58,0,0,1,.59-.59h7.2a.58.58,0,0,1,.59.59v11.87h8a.6.6,0,0,0,.59-.59V124.59a.59.59,0,0,0-.59-.59" transform="translate(0 0)"/><path class="cls-2" d="M133.73,119.05H109.86a.58.58,0,0,0-.58.57v24.1a.57.57,0,0,0,.58.57h23.87a.57.57,0,0,0,.59-.57v-24.1a.58.58,0,0,0-.59-.57m-13.06,15.74a.58.58,0,0,1-.58.57H113a.58.58,0,0,1-.59-.57v-4.33a.57.57,0,0,1,.59-.57h7.13a.57.57,0,0,1,.58.57Zm0-8a.58.58,0,0,1-.58.57H113a.58.58,0,0,1-.59-.57v-4.34a.57.57,0,0,1,.59-.56h7.13a.57.57,0,0,1,.58.56Zm10.9,8a.58.58,0,0,1-.58.57h-7.13a.58.58,0,0,1-.59-.57v-4.33a.57.57,0,0,1,.59-.57H131a.57.57,0,0,1,.58.57Zm0-8a.58.58,0,0,1-.58.57h-7.13a.58.58,0,0,1-.59-.57v-4.34a.57.57,0,0,1,.59-.56H131a.57.57,0,0,1,.58.56Z" transform="translate(0 0)"/><path class="cls-2" d="M78.25,63.11H54.89a.57.57,0,0,0-.57.57v79.83a.58.58,0,0,0,.57.57H78.25a.59.59,0,0,0,.58-.57V63.68a.58.58,0,0,0-.58-.57M64.36,135a.31.31,0,0,1-.31.3H58.7a.31.31,0,0,1-.31-.3v-6a.31.31,0,0,1,.31-.31h5.35a.31.31,0,0,1,.31.31Zm0-13.69a.3.3,0,0,1-.31.3H58.7a.3.3,0,0,1-.31-.3v-6a.31.31,0,0,1,.31-.31h5.35a.31.31,0,0,1,.31.31Zm0-13.69a.31.31,0,0,1-.31.31H58.7a.31.31,0,0,1-.31-.31v-6a.31.31,0,0,1,.31-.31h5.35a.31.31,0,0,1,.31.31Zm0-13.69a.31.31,0,0,1-.31.31H58.7a.31.31,0,0,1-.31-.31V88a.3.3,0,0,1,.31-.3h5.35a.3.3,0,0,1,.31.3Zm0-13.68a.3.3,0,0,1-.31.3H58.7a.3.3,0,0,1-.31-.3v-6A.31.31,0,0,1,58.7,74h5.35a.31.31,0,0,1,.31.31ZM74.84,135a.3.3,0,0,1-.3.3H69.19a.31.31,0,0,1-.31-.3v-6a.31.31,0,0,1,.31-.31h5.35a.3.3,0,0,1,.3.31Zm0-13.69a.29.29,0,0,1-.3.3H69.19a.3.3,0,0,1-.31-.3v-6a.31.31,0,0,1,.31-.31h5.35a.3.3,0,0,1,.3.31Zm0-13.69a.3.3,0,0,1-.3.31H69.19a.31.31,0,0,1-.31-.31v-6a.31.31,0,0,1,.31-.31h5.35a.3.3,0,0,1,.3.31Zm0-13.69a.3.3,0,0,1-.3.31H69.19a.31.31,0,0,1-.31-.31V88a.3.3,0,0,1,.31-.3h5.35a.29.29,0,0,1,.3.3Zm0-13.68a.29.29,0,0,1-.3.3H69.19a.3.3,0,0,1-.31-.3v-6a.31.31,0,0,1,.31-.31h5.35a.3.3,0,0,1,.3.31Z" transform="translate(0 0)"/><rect class="cls-2" x="109.31" y="111.35" width="24.98" height="5.77" rx="0.48"/><path class="cls-2" d="M106.46,78.18a.6.6,0,0,0-.58-.44.58.58,0,0,0-.34.11l0,0-.2.25-23,29.12-.11.14a.67.67,0,0,0-.2.45v35.79a.58.58,0,0,0,.57.57H106a.58.58,0,0,0,.57-.57V78.42a.53.53,0,0,0-.06-.24M96.8,94l.16-.21c1.57-2,4.22-5.27,5.51-6.85l.17-.21a.69.69,0,0,1,.51-.24.65.65,0,0,1,.64.54v7.36a.65.65,0,0,1-.63.66H97.3a.65.65,0,0,1-.63-.66A.68.68,0,0,1,96.8,94m-3.63,40.78a.57.57,0,0,1-.57.57h-7a.57.57,0,0,1-.57-.57v-4.35a.57.57,0,0,1,.57-.57h7a.57.57,0,0,1,.57.57Zm0-8a.57.57,0,0,1-.57.57h-7a.57.57,0,0,1-.57-.57v-4.35a.58.58,0,0,1,.57-.58h7a.58.58,0,0,1,.57.58Zm0-8a.58.58,0,0,1-.57.57h-7a.58.58,0,0,1-.57-.57v-4.36a.58.58,0,0,1,.57-.57h7a.58.58,0,0,1,.57.57Zm0-17.64v9.6a.58.58,0,0,1-.58.57h-7a.58.58,0,0,1-.58-.57v-1.21a.78.78,0,0,1,0-.22l0-.06a.35.35,0,0,1,0-.08l.06-.09c.89-1.27,4.91-6.22,6.6-8.29l.17-.2a.65.65,0,0,1,.51-.25.67.67,0,0,1,.64.54Zm10.62,33.74a.57.57,0,0,1-.57.57h-7a.57.57,0,0,1-.58-.57v-4.35a.57.57,0,0,1,.58-.57h7a.57.57,0,0,1,.57.57Zm0-8a.57.57,0,0,1-.57.57h-7a.57.57,0,0,1-.58-.57v-4.35a.58.58,0,0,1,.58-.58h7a.58.58,0,0,1,.57.58Zm0-8a.58.58,0,0,1-.57.57h-7a.58.58,0,0,1-.58-.57v-4.36a.58.58,0,0,1,.58-.57h7a.58.58,0,0,1,.57.57Zm0-8.05a.58.58,0,0,1-.57.57h-7a.58.58,0,0,1-.58-.57v-4.36a.57.57,0,0,1,.58-.57h7a.57.57,0,0,1,.57.57Zm0-8a.58.58,0,0,1-.57.57h-7a.58.58,0,0,1-.58-.57V98.22a.58.58,0,0,1,.58-.58h7a.58.58,0,0,1,.57.58Z" transform="translate(0 0)"/><path class="cls-2" d="M43.7,23.64V21.89h2v1.79c0,.73.32,1.16,1.08,1.16s1-.46,1-1.16v-.5a2.36,2.36,0,0,0-1-1.85L45.55,20c-1.25-1.24-1.83-2-1.83-3.49V16.1c0-1.62,1-2.87,3.09-2.87s3.06,1.08,3.06,3v1.06h-2V16.12c0-.75-.35-1.12-1-1.12a1,1,0,0,0-1,1.08v.27c0,.74.4,1.16,1,1.78l1.4,1.39c1.2,1.21,1.78,1.94,1.78,3.39v.64c0,1.79-1,3.06-3.2,3.06s-3.11-1.25-3.11-3" transform="translate(0 0)"/><path class="cls-2" d="M57.36,13.39v9.89c0,2-.87,3.33-3.11,3.33S51,25.3,51,23.28V13.39h2.2v10.1c0,.77.31,1.29,1.08,1.29s1.08-.52,1.08-1.29V13.39Z" transform="translate(0 0)"/><path class="cls-2" d="M58.48,23.64V21.89h2v1.79c0,.73.33,1.16,1.08,1.16s1-.46,1-1.16v-.5a2.35,2.35,0,0,0-1-1.85L60.33,20c-1.25-1.24-1.83-2-1.83-3.49V16.1c0-1.62.94-2.87,3.08-2.87s3.07,1.08,3.07,3v1.06h-2V16.12c0-.75-.34-1.12-1-1.12a1,1,0,0,0-1,1.08v.27c0,.74.41,1.16,1,1.78L63,19.52c1.19,1.21,1.77,1.94,1.77,3.39v.64c0,1.79-1,3.06-3.2,3.06s-3.1-1.25-3.1-3" transform="translate(0 0)"/><polygon class="cls-2" points="65.31 13.39 71.15 13.39 71.15 15.18 69.33 15.18 69.33 26.46 67.12 26.46 67.12 15.18 65.31 15.18 65.31 13.39"/><path class="cls-2" d="M70.75,26.46l2.46-13.07h2.51l2.49,13.07H76l-.4-2.39H73.21l-.38,2.39Zm2.75-4.15h1.76l-.87-5.24h0Z" transform="translate(0 0)"/><rect class="cls-2" x="79.09" y="13.39" width="2.2" height="13.07"/><polygon class="cls-2" points="84.4 18.25 84.4 26.46 82.55 26.46 82.55 13.39 84.71 13.39 87.08 20.89 87.08 13.39 88.91 13.39 88.91 26.46 86.98 26.46 84.4 18.25"/><path class="cls-2" d="M89.63,26.46,92.1,13.39h2.5l2.49,13.07H94.83l-.4-2.39H92.1l-.39,2.39Zm2.76-4.15h1.75l-.87-5.24h0Z" transform="translate(0 0)"/><path class="cls-2" d="M97.79,13.39H101c2.2,0,2.93,1,2.93,2.87v1.33a1.91,1.91,0,0,1-1.31,2.08,2,2,0,0,1,1.64,2.18v1.74c0,1.85-.83,2.87-3,2.87H97.79ZM100,18.9h.78a.93.93,0,0,0,1-1.06v-1.6a.93.93,0,0,0-1.06-1.06H100Zm0,1.68v4.09h1A1,1,0,0,0,102,23.61v-2c0-.7-.33-1.06-1.1-1.06Z" transform="translate(0 0)"/><polygon class="cls-2" points="105.14 13.39 107.33 13.39 107.33 24.67 109.96 24.67 109.96 26.46 105.14 26.46 105.14 13.39"/><polygon class="cls-2" points="110.77 13.39 116.01 13.39 116.01 15.18 112.97 15.18 112.97 18.92 115.14 18.92 115.14 20.7 112.97 20.7 112.97 24.67 116.01 24.67 116.01 26.46 110.77 26.46 110.77 13.39"/><path class="cls-2" d="M119.72,23.08V16.76c0-2,1-3.53,3.28-3.53s3.1,1.35,3.1,3.28v1.54h-2V16.34c0-.81-.27-1.28-1.07-1.28s-1.12.56-1.12,1.35v7c0,.79.33,1.35,1.12,1.35s1.07-.5,1.07-1.27V21.1h2v2.25c0,1.88-.77,3.26-3.1,3.26s-3.28-1.5-3.28-3.53" transform="translate(0 0)"/><rect class="cls-2" x="127.12" y="13.39" width="2.2" height="13.07"/><polygon class="cls-2" points="130.15 13.39 136 13.39 136 15.18 134.18 15.18 134.18 26.46 131.97 26.46 131.97 15.18 130.15 15.18 130.15 13.39"/><rect class="cls-2" x="136.86" y="13.39" width="2.2" height="13.07"/><polygon class="cls-2" points="140.2 13.39 145.45 13.39 145.45 15.18 142.4 15.18 142.4 18.92 144.58 18.92 144.58 20.7 142.4 20.7 142.4 24.67 145.45 24.67 145.45 26.46 140.2 26.46 140.2 13.39"/><path class="cls-2" d="M146.05,23.64V21.89h2v1.79c0,.73.33,1.16,1.08,1.16s1-.46,1-1.16v-.5a2.38,2.38,0,0,0-1-1.85L147.9,20c-1.26-1.24-1.83-2-1.83-3.49V16.1c0-1.62.94-2.87,3.08-2.87s3.07,1.08,3.07,3v1.06h-2V16.12c0-.75-.35-1.12-1-1.12a1,1,0,0,0-1,1.08v.27c0,.74.4,1.16,1,1.78l1.41,1.39c1.19,1.21,1.77,1.94,1.77,3.39v.64c0,1.79-1,3.06-3.2,3.06s-3.1-1.25-3.1-3" transform="translate(0 0)"/><path class="cls-2" d="M43.74,45.67l2.47-13.08h2.5L51.2,45.67H49l-.41-2.39H46.21l-.39,2.39Zm2.76-4.15h1.75l-.87-5.24h0Z" transform="translate(0 0)"/><polygon class="cls-2" points="53.92 37.45 53.92 45.67 52.07 45.67 52.07 32.6 54.23 32.6 56.6 40.1 56.6 32.6 58.44 32.6 58.44 45.67 56.51 45.67 53.92 37.45"/><path class="cls-2" d="M66.23,36.1v6.06c0,2-.83,3.51-3.18,3.51h-3.4V32.59h3.4c2.35,0,3.18,1.49,3.18,3.51m-3.45,7.77c.9,0,1.25-.54,1.25-1.33V35.7a1.15,1.15,0,0,0-1.25-1.31h-.93v9.48Z" transform="translate(0 0)"/><path class="cls-2" d="M69.43,42.29V36c0-2,1-3.53,3.28-3.53s3.1,1.35,3.1,3.28v1.54h-2V35.54c0-.81-.27-1.27-1.06-1.27s-1.12.56-1.12,1.35v7c0,.79.33,1.35,1.12,1.35s1.06-.5,1.06-1.27V40.31h2v2.25c0,1.87-.77,3.26-3.1,3.26s-3.28-1.5-3.28-3.53" transform="translate(0 0)"/><path class="cls-2" d="M77,42.29V36c0-2,1-3.53,3.32-3.53s3.34,1.48,3.34,3.53v6.32c0,2-1,3.53-3.34,3.53S77,44.32,77,42.29m4.46.35v-7c0-.79-.35-1.35-1.14-1.35s-1.12.56-1.12,1.35v7c0,.79.35,1.35,1.12,1.35s1.14-.56,1.14-1.35" transform="translate(0 0)"/><polygon class="cls-2" points="90.9 37.19 90.84 37.19 89.36 45.67 88.33 45.67 86.69 37.19 86.66 37.19 86.66 45.67 84.84 45.67 84.84 32.6 87.41 32.6 88.83 39.96 88.85 39.96 90.13 32.6 92.9 32.6 92.9 45.67 90.9 45.67 90.9 37.19"/><polygon class="cls-2" points="100.18 37.19 100.12 37.19 98.64 45.67 97.61 45.67 95.97 37.19 95.93 37.19 95.93 45.67 94.12 45.67 94.12 32.6 96.69 32.6 98.11 39.96 98.13 39.96 99.41 32.6 102.18 32.6 102.18 45.67 100.18 45.67 100.18 37.19"/><path class="cls-2" d="M109.78,32.59v9.9c0,2-.87,3.33-3.1,3.33s-3.28-1.31-3.28-3.33v-9.9h2.2V42.7c0,.77.31,1.29,1.08,1.29s1.08-.52,1.08-1.29V32.59Z" transform="translate(0 0)"/><polygon class="cls-2" points="112.85 37.45 112.85 45.67 111 45.67 111 32.6 113.16 32.6 115.53 40.1 115.53 32.6 117.36 32.6 117.36 45.67 115.44 45.67 112.85 37.45"/><rect class="cls-2" x="118.58" y="32.6" width="2.2" height="13.07"/><polygon class="cls-2" points="121.74 32.6 127.58 32.6 127.58 34.39 125.77 34.39 125.77 45.67 123.56 45.67 123.56 34.39 121.74 34.39 121.74 32.6"/><rect class="cls-2" x="128.57" y="32.6" width="2.2" height="13.07"/><polygon class="cls-2" points="132 32.6 137.25 32.6 137.25 34.39 134.2 34.39 134.2 38.13 136.38 38.13 136.38 39.9 134.2 39.9 134.2 43.88 137.25 43.88 137.25 45.67 132 45.67 132 32.6"/><path class="cls-2" d="M138.18,42.85V41.1h2v1.79c0,.73.33,1.16,1.08,1.16s1-.46,1-1.16v-.5a2.36,2.36,0,0,0-1-1.85L140,39.25c-1.26-1.24-1.83-2-1.83-3.49v-.45c0-1.62.94-2.87,3.08-2.87s3.07,1.08,3.07,3v1.06h-2V35.33c0-.75-.35-1.12-1-1.12a1,1,0,0,0-1,1.08v.27c0,.74.4,1.16,1,1.78l1.41,1.38c1.19,1.22,1.77,2,1.77,3.4v.64c0,1.79-1,3.06-3.2,3.06s-3.1-1.25-3.1-3" transform="translate(0 0)"/></svg>