<svg id="_7_hållbar_energi_för_alla" data-name="7 hållbar energi för alla" xmlns="http://www.w3.org/2000/svg" viewBox="0 0 160 160"><defs><style>.cls-1{fill:#fcc30b;}.cls-2{fill:#fff;}</style></defs><title>7_Affordable and clean energy v1</title><rect class="cls-1" width="160" height="160"/><polygon class="cls-2" points="16.41 17.83 24.79 17.83 17.55 45.67 22.93 45.67 30.02 18.41 30.02 13.41 16.41 13.41 16.41 17.83"/><path class="cls-2" d="M45.37,26.46l2.47-13.07h2.5l2.49,13.07H50.58l-.41-2.39H47.84l-.39,2.39Zm2.76-4.14h1.75L49,17.07h0Z" transform="translate(0 0)"/><polygon class="cls-2" points="53.64 13.39 58.79 13.39 58.79 15.19 55.84 15.19 55.84 18.93 58.04 18.93 58.04 20.7 55.84 20.7 55.84 26.46 53.64 26.46 53.64 13.39"/><polygon class="cls-2" points="59.66 13.39 64.81 13.39 64.81 15.19 61.86 15.19 61.86 18.93 64.06 18.93 64.06 20.7 61.86 20.7 61.86 26.46 59.66 26.46 59.66 13.39"/><path class="cls-2" d="M65.49,23.09V16.76c0-2,1-3.52,3.31-3.52s3.34,1.48,3.34,3.52v6.33c0,2-1,3.53-3.34,3.53s-3.31-1.51-3.31-3.53m4.45.35v-7c0-.79-.35-1.35-1.14-1.35s-1.11.56-1.11,1.35v7c0,.79.34,1.35,1.11,1.35s1.14-.56,1.14-1.35" transform="translate(0 0)"/><path class="cls-2" d="M75.5,20.47v6H73.3V13.39h3.2c2.22,0,3,1.1,3,2.93V18c0,1.41-.5,2.24-1.76,2.52l2.1,5.94H77.56Zm0-5.29v4.07h.73a1,1,0,0,0,1.08-1.08V16.25c0-.72-.33-1.07-1.08-1.07Z" transform="translate(0 0)"/><path class="cls-2" d="M87.2,16.9V23c0,2-.82,3.5-3.18,3.5H80.63V13.39H84c2.36,0,3.18,1.49,3.18,3.51m-3.45,7.77c.91,0,1.26-.54,1.26-1.33V16.49a1.15,1.15,0,0,0-1.26-1.31h-.92v9.49Z" transform="translate(0 0)"/><path class="cls-2" d="M87.73,26.46,90.2,13.39h2.5l2.49,13.07H92.93l-.4-2.39H90.2l-.39,2.39Zm2.75-4.14h1.76l-.87-5.25h0Z" transform="translate(0 0)"/><path class="cls-2" d="M96,13.39h3.18c2.2,0,2.93,1,2.93,2.87v1.33a1.91,1.91,0,0,1-1.31,2.09,2,2,0,0,1,1.64,2.18v1.73c0,1.85-.83,2.87-3,2.87H96Zm2.2,5.52H99a.93.93,0,0,0,1-1.06v-1.6A.93.93,0,0,0,99,15.18H98.2Zm0,1.67v4.09h1a.94.94,0,0,0,1.08-1.06v-2c0-.69-.32-1.06-1.1-1.06Z" transform="translate(0 0)"/><polygon class="cls-2" points="103.45 13.39 105.64 13.39 105.64 24.67 108.27 24.67 108.27 26.46 103.45 26.46 103.45 13.39"/><polygon class="cls-2" points="109.17 13.39 114.42 13.39 114.42 15.19 111.37 15.19 111.37 18.93 113.55 18.93 113.55 20.7 111.37 20.7 111.37 24.67 114.42 24.67 114.42 26.46 109.17 26.46 109.17 13.39"/><path class="cls-2" d="M117.08,26.46l2.47-13.07h2.51l2.49,13.07h-2.26l-.41-2.39h-2.33l-.38,2.39Zm2.76-4.14h1.76l-.87-5.25h0Z" transform="translate(0 0)"/><polygon class="cls-2" points="127.21 18.25 127.21 26.46 125.36 26.46 125.36 13.39 127.52 13.39 129.89 20.89 129.89 13.39 131.72 13.39 131.72 26.46 129.79 26.46 127.21 18.25"/><path class="cls-2" d="M139.45,16.9V23c0,2-.82,3.5-3.18,3.5h-3.39V13.39h3.39c2.36,0,3.18,1.49,3.18,3.51M136,24.67c.91,0,1.26-.54,1.26-1.33V16.49A1.15,1.15,0,0,0,136,15.18h-.92v9.49Z" transform="translate(0 0)"/><path class="cls-2" d="M45.7,42.29V36c0-2,1-3.51,3.26-3.51s3.09,1.34,3.09,3.26v1.53h-2V35.57c0-.8-.26-1.26-1-1.26s-1.11.55-1.11,1.34v7c0,.78.32,1.34,1.11,1.34s1-.5,1-1.27V40.32h2v2.24c0,1.86-.77,3.24-3.09,3.24s-3.26-1.49-3.26-3.51" transform="translate(0 0)"/><polygon class="cls-2" points="53.43 32.64 55.62 32.64 55.62 43.87 58.23 43.87 58.23 45.65 53.43 45.65 53.43 32.64"/><polygon class="cls-2" points="59.42 32.64 64.64 32.64 64.64 34.42 61.61 34.42 61.61 38.15 63.77 38.15 63.77 39.91 61.61 39.91 61.61 43.87 64.64 43.87 64.64 45.65 59.42 45.65 59.42 32.64"/><path class="cls-2" d="M65.65,45.65l2.46-13h2.5l2.47,13H70.84l-.41-2.38H68.11l-.38,2.38Zm2.75-4.13h1.75l-.87-5.22h0Z" transform="translate(0 0)"/><polygon class="cls-2" points="76.02 37.48 76.02 45.65 74.17 45.65 74.17 32.64 76.32 32.64 78.69 40.11 78.69 32.64 80.51 32.64 80.51 45.65 78.59 45.65 76.02 37.48"/><polygon class="cls-2" points="86.36 32.64 91.58 32.64 91.58 34.42 88.55 34.42 88.55 38.15 90.72 38.15 90.72 39.91 88.55 39.91 88.55 43.87 91.58 43.87 91.58 45.65 86.36 45.65 86.36 32.64"/><polygon class="cls-2" points="94.73 37.48 94.73 45.65 92.88 45.65 92.88 32.64 95.03 32.64 97.39 40.11 97.39 32.64 99.22 32.64 99.22 45.65 97.3 45.65 94.73 37.48"/><polygon class="cls-2" points="100.64 32.64 105.86 32.64 105.86 34.42 102.82 34.42 102.82 38.15 104.99 38.15 104.99 39.91 102.82 39.91 102.82 43.87 105.86 43.87 105.86 45.65 100.64 45.65 100.64 32.64"/><path class="cls-2" d="M109.37,39.68v6h-2.19v-13h3.19c2.2,0,3,1.09,3,2.91v1.68c0,1.4-.5,2.22-1.75,2.51l2.09,5.91h-2.3Zm0-5.26v4h.73a.94.94,0,0,0,1.07-1.07V35.48c0-.71-.32-1.06-1.07-1.06Z" transform="translate(0 0)"/><path class="cls-2" d="M118.06,38.7h3.11v6.95H119.6V44.23a2,2,0,0,1-2.1,1.57c-1.88,0-2.74-1.49-2.74-3.51V36c0-2,1-3.51,3.28-3.51s3.13,1.34,3.13,3.26V36.9h-2V35.57c0-.8-.3-1.26-1.09-1.26s-1.13.56-1.13,1.34v7c0,.78.32,1.34,1.07,1.34s1.08-.4,1.08-1.25v-2.3h-1Z" transform="translate(0 0)"/><polygon class="cls-2" points="126.83 40.7 126.83 45.65 124.64 45.65 124.64 40.7 122.2 32.64 124.49 32.64 125.81 37.57 125.83 37.57 127.16 32.64 129.25 32.64 126.83 40.7"/><path class="cls-2" d="M80.21,141.58a2,2,0,0,0,1.92-1.8V129.51a1.93,1.93,0,0,0-3.85,0v10.27a2,2,0,0,0,1.93,1.8" transform="translate(0 0)"/><path class="cls-2" d="M80,77.52A23.45,23.45,0,1,0,103.44,101,23.44,23.44,0,0,0,80,77.52m-1.74,9.26a1.74,1.74,0,0,1,3.48,0v8a1.74,1.74,0,0,1-3.48,0ZM80,113a12.2,12.2,0,0,1-3.63-23.85v4.54a8,8,0,1,0,7.23,0V89.13A12.2,12.2,0,0,1,80,113" transform="translate(0 0)"/><path class="cls-2" d="M53.08,100.76a2,2,0,0,0-1.81-1.92H41a1.93,1.93,0,0,0,0,3.86H51.27a2,2,0,0,0,1.81-1.94" transform="translate(0 0)"/><path class="cls-2" d="M120.81,100.76a2,2,0,0,0-1.8-1.92H108.74a1.93,1.93,0,0,0,0,3.86H119a2,2,0,0,0,1.8-1.94" transform="translate(0 0)"/><path class="cls-2" d="M80,73.84A2,2,0,0,0,81.93,72V61.77a1.93,1.93,0,0,0-3.86,0V72A2,2,0,0,0,80,73.84" transform="translate(0 0)"/><path class="cls-2" d="M56.63,87.39a2,2,0,0,0-.6-2.56l-8.92-5.1a2,2,0,0,0-2.53.76,2,2,0,0,0,.62,2.58l8.91,5.1a2,2,0,0,0,2.52-.78" transform="translate(0 0)"/><path class="cls-2" d="M115.42,121a2,2,0,0,0-.61-2.57l-8.91-5.1a1.93,1.93,0,0,0-1.91,3.35l8.91,5.1a2,2,0,0,0,2.52-.78" transform="translate(0 0)"/><path class="cls-2" d="M93.38,77.4a2,2,0,0,0,2.56-.61l5.1-8.91A1.93,1.93,0,0,0,97.7,66l-5.11,8.91a2,2,0,0,0,.79,2.52" transform="translate(0 0)"/><path class="cls-2" d="M59.73,136.19a2,2,0,0,0,2.57-.61l5.1-8.91a1.93,1.93,0,0,0-3.35-1.92L59,133.66a2,2,0,0,0,.78,2.53" transform="translate(0 0)"/><path class="cls-2" d="M66.58,77.43a2,2,0,0,0,.77-2.53L62.23,66a1.93,1.93,0,0,0-3.34,1.92L64,76.83a2,2,0,0,0,2.57.6" transform="translate(0 0)"/><path class="cls-2" d="M100.35,136.14a2,2,0,0,0,.77-2.52L96,124.72a1.93,1.93,0,0,0-3.34,1.92l5.12,8.91a2,2,0,0,0,2.57.59" transform="translate(0 0)"/><path class="cls-2" d="M103.34,87.35a2,2,0,0,0,2.52.77l8.9-5.12a1.93,1.93,0,0,0-1.92-3.34l-8.9,5.12a2,2,0,0,0-.6,2.57" transform="translate(0 0)"/><path class="cls-2" d="M44.62,121.12a2,2,0,0,0,2.53.76l8.9-5.11a1.93,1.93,0,0,0-1.92-3.35l-8.91,5.12a2,2,0,0,0-.6,2.58" transform="translate(0 0)"/></svg>