<svg id="_3_god_h채lsa_och_v채lbefinnande" data-name="3 god h채lsa och v채lbefinnande" xmlns="http://www.w3.org/2000/svg" viewBox="0 0 160 160"><defs><style>.cls-1{fill:#4c9f38;}.cls-2{fill:#fff;}</style></defs><title>3_Good health and wellbeing v1</title><rect class="cls-1" width="160" height="160"/><path class="cls-2" d="M22.83,46.1c5.48,0,7.85-2.9,7.85-7.37V34c0-2.95-1.28-4.86-4-5.47a5.18,5.18,0,0,0,3.71-5.24v-2.8c0-4.57-2.19-7.38-7.19-7.38-5.61,0-7.56,3.33-7.56,8.09V24h4.94V20.74c0-2,.62-3.14,2.34-3.14s2.33,1.14,2.33,2.9V24c0,1.71-1.14,2.61-2.9,2.61H20.31v4.14h2.28c1.91,0,2.67.91,2.67,2.62v5.33c0,1.71-.76,2.9-2.43,2.9-1.85,0-2.52-1.24-2.52-3.14V33.83H15.36v4.23c0,4.9,1.95,8,7.47,8" transform="translate(0 0)"/><path class="cls-2" d="M133.64,100c0-4.51-2.89-8.16-7.26-8.16-2.19,0-4.83,2.4-6.26,3.87-1.44-1.47-3.9-3.87-6.09-3.87-4.38,0-7.44,3.65-7.44,8.15a8.24,8.24,0,0,0,2.32,5.77L120.13,117l11.2-11.23h0a8.24,8.24,0,0,0,2.32-5.76" transform="translate(0 0)"/><path class="cls-2" d="M85.89,135.34h-.12a1.86,1.86,0,0,1-1.7-1.53l-5.69-33.18-8.64,16a1.83,1.83,0,0,1-1.94.94A1.86,1.86,0,0,1,66.3,116L62.64,90.41l-6.71,15a1.83,1.83,0,0,1-1.68,1.1h-26a1.85,1.85,0,0,1,0-3.69H53.06l8.81-19.8a1.85,1.85,0,0,1,3.51.49L69.16,110l8.51-15.78a1.84,1.84,0,0,1,3.43.56l5.28,30.74L105.61,61.6a1.84,1.84,0,0,1,3.42-.27l10.12,21a1.84,1.84,0,0,1-3.32,1.6L107.77,67.2,87.65,134a1.83,1.83,0,0,1-1.76,1.31" transform="translate(0 0)"/><path class="cls-2" d="M49,19.49h3.12v7H50.55V25a2,2,0,0,1-2.1,1.58c-1.89,0-2.76-1.5-2.76-3.52V16.77c0-2,1-3.53,3.3-3.53s3.14,1.35,3.14,3.28v1.16h-2V16.35c0-.81-.31-1.28-1.1-1.28s-1.14.56-1.14,1.35v7c0,.79.33,1.35,1.08,1.35s1.08-.4,1.08-1.25V21.22H49Z" transform="translate(0 0)"/><path class="cls-2" d="M53.58,23.1V16.77c0-2,1-3.53,3.32-3.53s3.33,1.49,3.33,3.53V23.1c0,2-1,3.52-3.33,3.52s-3.32-1.5-3.32-3.52m4.46.34v-7c0-.79-.35-1.35-1.14-1.35s-1.12.56-1.12,1.35v7c0,.79.35,1.35,1.12,1.35S58,24.23,58,23.44" transform="translate(0 0)"/><path class="cls-2" d="M61.68,23.1V16.77c0-2,1-3.53,3.32-3.53s3.33,1.49,3.33,3.53V23.1c0,2-1,3.52-3.33,3.52s-3.32-1.5-3.32-3.52m4.46.34v-7c0-.79-.35-1.35-1.14-1.35s-1.12.56-1.12,1.35v7c0,.79.35,1.35,1.12,1.35s1.14-.56,1.14-1.35" transform="translate(0 0)"/><path class="cls-2" d="M76.36,16.91V23c0,2-.83,3.51-3.18,3.51h-3.4V13.4h3.4c2.35,0,3.18,1.48,3.18,3.51m-3.45,7.77c.9,0,1.25-.54,1.25-1.33V16.5a1.15,1.15,0,0,0-1.25-1.31H72v9.49Z" transform="translate(0 0)"/><polygon class="cls-2" points="85.12 20.71 83 20.71 83 26.47 80.8 26.47 80.8 13.4 83 13.4 83 18.93 85.12 18.93 85.12 13.4 87.33 13.4 87.33 26.47 85.12 26.47 85.12 20.71"/><polygon class="cls-2" points="88.88 13.4 94.13 13.4 94.13 15.19 91.08 15.19 91.08 18.93 93.26 18.93 93.26 20.71 91.08 20.71 91.08 24.68 94.13 24.68 94.13 26.47 88.88 26.47 88.88 13.4"/><path class="cls-2" d="M95.15,26.47,97.62,13.4h2.51l2.48,13.07h-2.25L100,24.08H97.62l-.39,2.39Zm2.76-4.15h1.75l-.87-5.24h0Z" transform="translate(0 0)"/><polygon class="cls-2" points="103.71 13.4 105.91 13.4 105.91 24.68 108.53 24.68 108.53 26.47 103.71 26.47 103.71 13.4"/><polygon class="cls-2" points="108.23 13.4 114.07 13.4 114.07 15.19 112.26 15.19 112.26 26.47 110.04 26.47 110.04 15.19 108.23 15.19 108.23 13.4"/><polygon class="cls-2" points="119.61 20.71 117.48 20.71 117.48 26.47 115.29 26.47 115.29 13.4 117.48 13.4 117.48 18.93 119.61 18.93 119.61 13.4 121.82 13.4 121.82 26.47 119.61 26.47 119.61 20.71"/><path class="cls-2" d="M45.36,45.65l2.47-13.08h2.51l2.48,13.08H50.57l-.41-2.39H47.83l-.39,2.39Zm2.76-4.15h1.75L49,36.26h0Z" transform="translate(0 0)"/><polygon class="cls-2" points="55.58 37.44 55.58 45.65 53.73 45.65 53.73 32.58 55.89 32.58 58.26 40.08 58.26 32.58 60.09 32.58 60.09 45.65 58.17 45.65 55.58 37.44"/><path class="cls-2" d="M68.22,36.08v6.06c0,2-.83,3.51-3.19,3.51H61.64V32.57H65c2.36,0,3.19,1.49,3.19,3.51m-3.46,7.77c.91,0,1.26-.54,1.26-1.33V35.68a1.15,1.15,0,0,0-1.26-1.31h-.92v9.48Z" transform="translate(0 0)"/><polygon class="cls-2" points="76.63 37.57 75.39 45.65 73.33 45.65 71.58 32.58 73.7 32.58 74.72 40.87 74.74 40.87 75.84 32.58 77.63 32.58 78.84 40.87 78.86 40.87 79.87 32.58 81.72 32.58 80.02 45.65 77.94 45.65 76.65 37.57 76.63 37.57"/><polygon class="cls-2" points="82.86 32.58 88.1 32.58 88.1 34.37 85.06 34.37 85.06 38.11 87.24 38.11 87.24 39.88 85.06 39.88 85.06 43.86 88.1 43.86 88.1 45.65 82.86 45.65 82.86 32.58"/><polygon class="cls-2" points="89.47 32.58 91.67 32.58 91.67 43.86 94.3 43.86 94.3 45.65 89.47 45.65 89.47 32.58"/><polygon class="cls-2" points="95.49 32.58 97.69 32.58 97.69 43.86 100.31 43.86 100.31 45.65 95.49 45.65 95.49 32.58"/><rect class="cls-2" x="100.03" y="37.92" width="3.09" height="1.78"/><path class="cls-2" d="M104.42,32.57h3.18c2.2,0,2.94,1,2.94,2.88v1.33a1.9,1.9,0,0,1-1.32,2.08A2,2,0,0,1,110.87,41v1.73c0,1.85-.83,2.88-3,2.88h-3.42Zm2.2,5.52h.77a.92.92,0,0,0,1-1.06v-1.6c0-.72-.32-1.06-1.06-1.06h-.75Zm0,1.68v4.08h1a.94.94,0,0,0,1.08-1.06v-2c0-.7-.33-1.06-1.1-1.06Z" transform="translate(0 0)"/><polygon class="cls-2" points="112.16 32.58 117.4 32.58 117.4 34.37 114.36 34.37 114.36 38.11 116.54 38.11 116.54 39.88 114.36 39.88 114.36 43.86 117.4 43.86 117.4 45.65 112.16 45.65 112.16 32.58"/><rect class="cls-2" x="118.77" y="32.58" width="2.2" height="13.07"/><polygon class="cls-2" points="124.39 37.44 124.39 45.65 122.54 45.65 122.54 32.58 124.7 32.58 127.07 40.08 127.07 32.58 128.9 32.58 128.9 45.65 126.97 45.65 124.39 37.44"/><path class="cls-2" d="M133.76,38.67h3.13v7h-1.58V44.22a2,2,0,0,1-2.11,1.58c-1.89,0-2.75-1.5-2.75-3.53V36c0-2.05,1-3.53,3.29-3.53s3.15,1.35,3.15,3.28v1.15h-2V35.52c0-.81-.31-1.27-1.1-1.27s-1.14.56-1.14,1.35v7c0,.79.33,1.35,1.08,1.35s1.08-.41,1.08-1.25V40.4h-1Z" transform="translate(0 0)"/></svg>