<svg xmlns="http://www.w3.org/2000/svg" id="Lager_1" data-name="Lager 1" viewBox="0 0 58 58">
    <defs>
        <style>
            .cls-1{fill:none;}.cls-2{fill:#ffbe00;}.cls-3,.cls-5,.cls-6{fill:none;stroke:#000;stroke-miterlimit:10;}.cls-3,.cls-6{stroke-linecap:round;}.cls-4{fill:#fdeb1b;}.cls-5{stroke-width:1.24px;}.cls-6{stroke-width:0.62px;}
        </style>
    </defs>
    <title>
        Wallet
    </title>
    <rect width="58" height="58" class="cls-1"/>
    <rect width="46.64" height="27.64" x="5.43" y="9.99" class="cls-2"/>
    <path d="M50.89,11.17V36.45H6.61V11.17H50.89m2.36-2.36h-49v30h49v-30Z"/>
    <rect width="14.5" height="8" x="39.75" y="19.81" class="cls-2" rx="0.5"/>
    <path d="M53.75,20.31v7H40.25v-7h13.5m0-1H40.25a1,1,0,0,0-1,1v7a1,1,0,0,0,1,1h13.5a1,1,0,0,0,1-1v-7a1,1,0,0,0-1-1Z"/>
    <circle cx="44.75" cy="23.81" r="1.5" class="cls-3"/>
    <path d="M20.22,48.19c-.92,0-1.84,0-2.75-.06A34.75,34.75,0,0,1,8,46.72c-.46-.15-1.87-.62-2.13-1.17a3.72,3.72,0,0,1-.05-1c0-.2,0-.39,0-.55q0-.95,0-1.89a1.82,1.82,0,0,1,.11-.72A1.18,1.18,0,0,1,6.34,41a8.76,8.76,0,0,1,2.44-.85,41,41,0,0,1,6.87-.85c1.43-.07,2.83-.11,4.18-.11a63.33,63.33,0,0,1,7.71.45,20.68,20.68,0,0,1,4.71,1c.67.24,1,.5,1.17.78a2,2,0,0,1,.1.76c0,.7,0,1.41,0,2.12a3.68,3.68,0,0,1-.14,1.12.93.93,0,0,1,0,.1,2.85,2.85,0,0,1-1.6,1,35,35,0,0,1-11.53,1.63Z" class="cls-4"/>
    <path d="M19.84,40.23a61.35,61.35,0,0,1,7.58.44,20.33,20.33,0,0,1,4.48,1,3.17,3.17,0,0,1,.6.28c0,.11,0,.27,0,.35,0,.69,0,1.38,0,2.07a3.15,3.15,0,0,1-.07.77s-.2.22-1,.5a34,34,0,0,1-11.22,1.58c-.85,0-1.73,0-2.7,0a33.59,33.59,0,0,1-9.24-1.37,5.66,5.66,0,0,1-1.5-.64c0-.16,0-.38,0-.53s0-.42,0-.6q0-.91,0-1.83a1.94,1.94,0,0,1,0-.22l0,0A8.24,8.24,0,0,1,9,41.16a40.09,40.09,0,0,1,6.7-.82c1.41-.08,2.8-.11,4.14-.11m0-2c-1.42,0-2.83,0-4.24.12a40.68,40.68,0,0,0-7,.87,9.52,9.52,0,0,0-2.71,1,2.11,2.11,0,0,0-.84.75,2.58,2.58,0,0,0-.24,1.2c0,.65,0,1.3,0,2A5.6,5.6,0,0,0,4.9,46c.43.91,1.86,1.41,2.74,1.7a35.1,35.1,0,0,0,9.79,1.46c.93,0,1.86,0,2.78,0a36.56,36.56,0,0,0,11.87-1.68A3.57,3.57,0,0,0,34.24,46a.82.82,0,0,0,.09-.19,4.09,4.09,0,0,0,.22-1.48c0-.73,0-1.45,0-2.17a3.1,3.1,0,0,0-.18-1.14,2.82,2.82,0,0,0-1.75-1.32,21.8,21.8,0,0,0-4.93-1.07,64.14,64.14,0,0,0-7.83-.46Z"/>
    <path d="M19.52,39.23c9.09,0,13.68,1.43,13.77,2.25-.07.38-.92.87-2.41,1.33A36.61,36.61,0,0,1,22,44.13l-.59,0h-.5l-1.4,0-1.39,0h-.5l-.6,0a36.61,36.61,0,0,1-8.87-1.32c-1.49-.46-2.34-1-2.4-1.33.08-.82,4.68-2.25,13.76-2.25Z" class="cls-5"/>
    <line x1="8.11" x2="8.11" y1="42.92" y2="46.88" class="cls-6"/>
    <line x1="11.74" x2="11.74" y1="43.62" y2="48.25" class="cls-6"/>
    <line x1="15.93" x2="15.93" y1="44.1" y2="48.69" class="cls-6"/>
    <line x1="20.56" x2="20.56" y1="44.19" y2="48.69" class="cls-6"/>
    <line x1="25.54" x2="25.54" y1="43.93" y2="48.42" class="cls-6"/>
    <line x1="27.54" x2="27.54" y1="43.58" y2="48.08" class="cls-6"/>
    <path d="M26.41,42c-.92,0-1.83,0-2.74-.06a34,34,0,0,1-9.52-1.41c-.46-.15-1.88-.62-2.14-1.17a3.74,3.74,0,0,1,0-1c0-.2,0-.38,0-.54q0-.94,0-1.89a1.85,1.85,0,0,1,.1-.73,1.43,1.43,0,0,1,.47-.38A9,9,0,0,1,15,34a40,40,0,0,1,6.88-.85C23.28,33.06,24.69,33,26,33a63.17,63.17,0,0,1,7.7.45,21.23,21.23,0,0,1,4.71,1c.67.24,1,.5,1.17.78a2.5,2.5,0,0,1,.1.76c0,.71,0,1.41,0,2.12a3.34,3.34,0,0,1-.15,1.12l0,.1a2.8,2.8,0,0,1-1.6,1A35.07,35.07,0,0,1,26.41,42Z" class="cls-4"/>
    <path d="M26,34a63.48,63.48,0,0,1,7.58.44,20.45,20.45,0,0,1,4.48,1,3.17,3.17,0,0,1,.6.28c0,.11,0,.27,0,.35,0,.69,0,1.39,0,2.08a3.7,3.7,0,0,1-.07.76c0,.05-.2.22-1,.51A34.26,34.26,0,0,1,26.41,41c-.85,0-1.74,0-2.7,0a34,34,0,0,1-9.24-1.36,5.71,5.71,0,0,1-1.5-.65c0-.16,0-.38,0-.52s0-.43,0-.6c0-.61,0-1.23,0-1.84a1.35,1.35,0,0,0,0-.22l.06,0A7.91,7.91,0,0,1,15.2,35a40,40,0,0,1,6.7-.82C23.31,34.07,24.7,34,26,34m0-2c-1.42,0-2.83,0-4.25.12a41.68,41.68,0,0,0-7,.87A9.69,9.69,0,0,0,12,34a2.08,2.08,0,0,0-.83.75,2.46,2.46,0,0,0-.24,1.2q0,1,0,2a5.84,5.84,0,0,0,.14,1.92c.43.91,1.86,1.41,2.74,1.7a35.1,35.1,0,0,0,9.79,1.46c.93,0,1.85.06,2.78.06a36.56,36.56,0,0,0,11.87-1.69,3.58,3.58,0,0,0,2.16-1.47l.09-.19a4.31,4.31,0,0,0,.21-1.48c0-.72,0-1.45,0-2.17a2.94,2.94,0,0,0-.19-1.14,2.87,2.87,0,0,0-1.74-1.32,22.32,22.32,0,0,0-4.94-1.07A63.86,63.86,0,0,0,26,32Z"/>
    <path d="M25.72,33c9.08,0,13.68,1.42,13.76,2.24-.06.38-.91.87-2.41,1.33a36.5,36.5,0,0,1-8.86,1.33l-.6,0h-.49c-.46,0-.92,0-1.4,0s-.94,0-1.4,0h-.5l-.59,0a36.52,36.52,0,0,1-8.87-1.33c-1.49-.46-2.34-1-2.41-1.33C12,34.46,16.63,33,25.72,33Z" class="cls-5"/>
    <line x1="14.3" x2="14.3" y1="36.72" y2="40.68" class="cls-6"/>
    <line x1="17.94" x2="17.94" y1="37.42" y2="42.05" class="cls-6"/>
    <line x1="22.13" x2="22.13" y1="37.9" y2="42.49" class="cls-6"/>
    <line x1="26.76" x2="26.76" y1="37.99" y2="42.49" class="cls-6"/>
    <line x1="31.73" x2="31.73" y1="37.73" y2="42.23" class="cls-6"/>
    <line x1="33.74" x2="33.74" y1="37.38" y2="41.88" class="cls-6"/>
</svg>
