<svg id="Lager_1" data-name="Lager 1" xmlns="http://www.w3.org/2000/svg" viewBox="0 0 58 38.78"><defs><style>.cls-1{fill:#fdeb1b;}.cls-2,.cls-3{fill:none;stroke:#000;stroke-miterlimit:10;}.cls-2{stroke-width:2px;}.cls-3{stroke-linecap:round;}</style></defs><title>Ikon Pengar</title><path class="cls-1" d="M25.92,48.14c-1.4,0-2.85,0-4.44-.09A55.89,55.89,0,0,1,6,45.76c-1-.32-3.18-1-3.66-2.09a5.55,5.55,0,0,1-.11-1.75c0-.31,0-.6,0-.85,0-1,0-2,0-3.07a3,3,0,0,1,.22-1.34,2.44,2.44,0,0,1,.88-.75,14.42,14.42,0,0,1,4-1.41,64.83,64.83,0,0,1,11.13-1.37c2.31-.13,4.58-.19,6.77-.19a103.49,103.49,0,0,1,12.46.73,34.37,34.37,0,0,1,7.67,1.66,3.66,3.66,0,0,1,2.1,1.46,3.77,3.77,0,0,1,.19,1.36c0,1.13,0,2.29,0,3.44a5.75,5.75,0,0,1-.25,1.94,1.14,1.14,0,0,1-.09.19,4.79,4.79,0,0,1-2.78,1.78c-5.27,1.8-11.22,2.64-18.71,2.64Z" transform="translate(-1 -10.61)"/><path d="M25.31,34.19a100.73,100.73,0,0,1,12.3.72A33.67,33.67,0,0,1,45,36.5c1.23.46,1.38.78,1.38.79a3.47,3.47,0,0,1,.09.9c0,1.12,0,2.26,0,3.38a4.84,4.84,0,0,1-.16,1.5l0,.07c-.3.56-1.64,1-2.09,1.17-5.14,1.76-10.95,2.58-18.31,2.58-1.38,0-2.81,0-4.38-.09A54.85,54.85,0,0,1,6.44,44.57c-2.12-.7-2.73-1.16-2.91-1.39a9.8,9.8,0,0,1,0-1.22c0-.34,0-.66,0-.93,0-1,0-2,0-3a3.9,3.9,0,0,1,.06-.76A2.2,2.2,0,0,1,4,37a13.51,13.51,0,0,1,3.68-1.27,64.43,64.43,0,0,1,10.93-1.35c2.28-.12,4.54-.18,6.7-.18m0-2.5c-2.28,0-4.56.07-6.83.19a67.58,67.58,0,0,0-11.35,1.4,15.35,15.35,0,0,0-4.38,1.55A3.43,3.43,0,0,0,1.4,36,4.1,4.1,0,0,0,1,38C1,39,1,40.06,1,41.11a8.91,8.91,0,0,0,.22,3.1c.69,1.47,3,2.27,4.4,2.74A57.15,57.15,0,0,0,21.44,49.3c1.48.06,3,.09,4.47.09A59,59,0,0,0,45,46.68a5.82,5.82,0,0,0,3.49-2.37c0-.11.1-.21.14-.31A6.63,6.63,0,0,0,49,41.61c0-1.16,0-2.33,0-3.5a4.84,4.84,0,0,0-.3-1.82,4.54,4.54,0,0,0-2.81-2.13,35.26,35.26,0,0,0-7.95-1.73,104.2,104.2,0,0,0-12.61-.74Z" transform="translate(-1 -10.61)"/><path class="cls-2" d="M24.8,33.34c14.63,0,22,2.3,22.18,3.62-.11.61-1.48,1.4-3.89,2.14a59.31,59.31,0,0,1-14.28,2.14l-1,0-.8,0c-.74,0-1.48,0-2.25,0s-1.52,0-2.25,0l-.81,0-1,0A59.31,59.31,0,0,1,6.5,39.1C4.09,38.36,2.73,37.57,2.62,37c.14-1.32,7.54-3.62,22.18-3.62Z" transform="translate(-1 -10.61)"/><line class="cls-3" x1="5.41" y1="28.67" x2="5.41" y2="35.05"/><line class="cls-3" x1="11.27" y1="29.8" x2="11.27" y2="37.26"/><line class="cls-3" x1="18.02" y1="30.57" x2="18.02" y2="37.96"/><line class="cls-3" x1="25.47" y1="30.71" x2="25.47" y2="37.96"/><line class="cls-3" x1="33.49" y1="30.29" x2="33.49" y2="37.54"/><line class="cls-3" x1="36.72" y1="29.73" x2="36.72" y2="36.98"/><path class="cls-1" d="M35.9,38.15c-1.4,0-2.85,0-4.43-.08A56.24,56.24,0,0,1,16,35.77c-.87-.28-3.18-1.05-3.67-2.08a5.92,5.92,0,0,1-.11-1.75c0-.31,0-.61,0-.86,0-1,0-2,0-3.06a3.26,3.26,0,0,1,.22-1.35,2.46,2.46,0,0,1,.89-.74,14.39,14.39,0,0,1,4-1.42,65.84,65.84,0,0,1,11.14-1.37c2.3-.12,4.58-.18,6.76-.18a103.54,103.54,0,0,1,12.46.72,34.94,34.94,0,0,1,7.67,1.66c.75.28,1.79.73,2.11,1.46a4,4,0,0,1,.19,1.36c0,1.13,0,2.29,0,3.45a5.56,5.56,0,0,1-.26,1.94.66.66,0,0,1-.09.19,4.79,4.79,0,0,1-2.78,1.77c-5.27,1.8-11.22,2.64-18.71,2.64Z" transform="translate(-1 -10.61)"/><path d="M35.29,24.21a103.12,103.12,0,0,1,12.31.71A33,33,0,0,1,55,26.52c1.23.45,1.38.77,1.39.78a4,4,0,0,1,.09.9c0,1.12,0,2.26,0,3.38a5.07,5.07,0,0,1-.17,1.5l0,.07c-.3.57-1.64,1-2.08,1.18-5.14,1.76-11,2.57-18.31,2.57-1.39,0-2.82,0-4.39-.08a54.9,54.9,0,0,1-15.09-2.23c-2.11-.7-2.73-1.17-2.9-1.4a9.7,9.7,0,0,1,0-1.22c0-.33,0-.65,0-.92,0-1,0-2,0-3a6.49,6.49,0,0,1,.06-.75A2.09,2.09,0,0,1,14,27a13.6,13.6,0,0,1,3.69-1.28,64.28,64.28,0,0,1,10.92-1.34c2.29-.12,4.54-.18,6.7-.18m0-2.5c-2.28,0-4.55.06-6.83.18a67.71,67.71,0,0,0-11.35,1.4,16.1,16.1,0,0,0-4.38,1.55,3.53,3.53,0,0,0-1.35,1.22A4.15,4.15,0,0,0,11,28c0,1.05,0,2.1,0,3.14a9.4,9.4,0,0,0,.22,3.1c.7,1.47,3,2.27,4.41,2.74a56.77,56.77,0,0,0,15.78,2.36c1.49,0,3,.08,4.48.08A58.73,58.73,0,0,0,55,36.69a5.78,5.78,0,0,0,3.48-2.37,1.73,1.73,0,0,0,.14-.31A6.58,6.58,0,0,0,59,31.63c0-1.17,0-2.34,0-3.5a4.92,4.92,0,0,0-.3-1.83,4.6,4.6,0,0,0-2.81-2.13,35.34,35.34,0,0,0-8-1.73,104.08,104.08,0,0,0-12.61-.73Z" transform="translate(-1 -10.61)"/><path class="cls-2" d="M34.78,23.36c14.64,0,22,2.3,22.18,3.62-.11.6-1.47,1.39-3.88,2.14A59.4,59.4,0,0,1,38.8,31.25l-1,0-.81,0q-1.1,0-2.25,0c-.77,0-1.51,0-2.25,0l-.8,0-1,0a59.32,59.32,0,0,1-14.28-2.13c-2.41-.75-3.78-1.54-3.88-2.14.14-1.32,7.54-3.62,22.17-3.62Z" transform="translate(-1 -10.61)"/><line class="cls-3" x1="15.39" y1="18.69" x2="15.39" y2="25.07"/><line class="cls-3" x1="21.25" y1="19.81" x2="21.25" y2="27.27"/><line class="cls-3" x1="28" y1="20.59" x2="28" y2="27.97"/><line class="cls-3" x1="35.46" y1="20.73" x2="35.46" y2="27.97"/><line class="cls-3" x1="43.47" y1="20.3" x2="43.47" y2="27.55"/><line class="cls-3" x1="46.71" y1="19.74" x2="46.71" y2="26.99"/><path class="cls-1" d="M30.35,27.06c-1.4,0-2.85,0-4.43-.09a55.89,55.89,0,0,1-15.44-2.29c-.87-.29-3.18-1.05-3.67-2.09a6.22,6.22,0,0,1-.11-1.75c0-.31,0-.6,0-.85,0-1,0-2,0-3.07a3,3,0,0,1,.22-1.34,2.36,2.36,0,0,1,.88-.75,14.47,14.47,0,0,1,4-1.41A64.82,64.82,0,0,1,23,12.05c2.31-.13,4.58-.19,6.77-.19a103.2,103.2,0,0,1,12.45.73,34.57,34.57,0,0,1,7.68,1.66A3.66,3.66,0,0,1,52,15.71a3.93,3.93,0,0,1,.19,1.36c0,1.16,0,2.31,0,3.44a5.75,5.75,0,0,1-.25,1.94l-.09.19a4.82,4.82,0,0,1-2.78,1.78c-5.28,1.8-11.23,2.64-18.72,2.64Z" transform="translate(-1 -10.61)"/><path d="M29.75,13.11a100.85,100.85,0,0,1,12.3.72,33.47,33.47,0,0,1,7.39,1.59c1.23.46,1.39.78,1.39.79a4,4,0,0,1,.09.9c0,1.12,0,2.26,0,3.38a5.53,5.53,0,0,1-.16,1.5.25.25,0,0,1,0,.07c-.29.56-1.64,1-2.08,1.17-5.14,1.76-11,2.58-18.31,2.58-1.38,0-2.82,0-4.38-.09a54.79,54.79,0,0,1-15.09-2.23C8.76,22.79,8.14,22.33,8,22.1a12,12,0,0,1,0-1.22c0-.34,0-.66,0-.93,0-1,0-2,0-3A3.9,3.9,0,0,1,8,16.2a2,2,0,0,1,.41-.29,13.57,13.57,0,0,1,3.69-1.27,64.16,64.16,0,0,1,10.93-1.35c2.28-.12,4.53-.18,6.7-.18m0-2.5c-2.28,0-4.56.07-6.84.19a67.47,67.47,0,0,0-11.34,1.4,15.24,15.24,0,0,0-4.38,1.55A3.43,3.43,0,0,0,5.84,15a4,4,0,0,0-.38,1.93c0,1.05,0,2.09,0,3.14a9.42,9.42,0,0,0,.22,3.1c.7,1.47,3,2.27,4.41,2.74a57.14,57.14,0,0,0,15.78,2.35c1.49.06,3,.09,4.48.09A59,59,0,0,0,49.47,25.6,5.88,5.88,0,0,0,53,23.23c0-.11.1-.21.14-.31a6.85,6.85,0,0,0,.34-2.39c0-1.16,0-2.33,0-3.5a4.84,4.84,0,0,0-.3-1.82,4.57,4.57,0,0,0-2.81-2.13,35.26,35.26,0,0,0-8-1.73,104.32,104.32,0,0,0-12.61-.74Z" transform="translate(-1 -10.61)"/><path class="cls-2" d="M29.24,12.26c14.63,0,22,2.3,22.17,3.62-.11.61-1.47,1.4-3.88,2.14a59.31,59.31,0,0,1-14.28,2.14l-1,0-.8,0c-.74,0-1.49,0-2.25,0s-1.52,0-2.25,0l-.81,0-1,0A59.31,59.31,0,0,1,10.94,18c-2.41-.74-3.78-1.53-3.88-2.14.14-1.32,7.54-3.62,22.18-3.62Z" transform="translate(-1 -10.61)"/><line class="cls-3" x1="9.85" y1="7.59" x2="9.85" y2="13.97"/><line class="cls-3" x1="15.71" y1="8.72" x2="15.71" y2="16.18"/><line class="cls-3" x1="22.46" y1="9.49" x2="22.46" y2="16.88"/><line class="cls-3" x1="29.91" y1="9.63" x2="29.91" y2="16.88"/><line class="cls-3" x1="37.93" y1="9.21" x2="37.93" y2="16.46"/><line class="cls-3" x1="41.16" y1="8.65" x2="41.16" y2="15.89"/></svg>