<svg id="_15_ekosystem_och_biologisk_mångfald" data-name="15 ekosystem och biologisk mångfald" xmlns="http://www.w3.org/2000/svg" viewBox="0 0 160 160"><defs><style>.cls-1{fill:#56c02b;}.cls-2{fill:#fff;}</style></defs><title>15_Life on land v1</title><rect class="cls-1" width="160" height="160"/><polygon class="cls-2" points="11.71 19.25 11.71 24.91 11.76 24.91 15.57 20.96 15.62 20.96 15.62 45.65 21.04 45.65 21.04 13.39 16.71 13.39 11.71 19.25"/><path class="cls-2" d="M33.94,23.62c-2.15,0-3.71.76-4.57,2.24h-.05v-8h9.33V13.39H24.37V31.57h4.95v-.72c0-1.9.86-3,2.38-3S34,29.05,34,30.81v7.8c0,1.71-.62,2.9-2.28,2.9-1.86,0-2.52-1.24-2.52-3.14v-4H24.28V38c0,4.9,1.95,8,7.47,8s7.7-2.9,7.7-7.37v-7.9c0-5.09-2.61-7.14-5.51-7.14" transform="translate(0 0)"/><path class="cls-2" d="M62.35,108.18h4.71a.35.35,0,0,1,.35.35v11.65a.36.36,0,0,1-.36.36H62.35a.35.35,0,0,1-.35-.35V108.54A.35.35,0,0,1,62.35,108.18Z"/><path class="cls-2" d="M118.85,125.54H41.15a.37.37,0,0,0-.36.36v4.76a.35.35,0,0,0,.36.34h77.7a.35.35,0,0,0,.35-.34V125.9a.36.36,0,0,0-.35-.36" transform="translate(0 0)"/><path class="cls-2" d="M118.85,135H41.15a.36.36,0,0,0-.36.35v4.76a.36.36,0,0,0,.36.35h77.7a.35.35,0,0,0,.35-.35v-4.76a.35.35,0,0,0-.35-.35" transform="translate(0 0)"/><path class="cls-2" d="M104.06,95.28a11.49,11.49,0,0,0-6.72-2.53A9,9,0,0,0,91.1,95.4a.69.69,0,0,0-.21.49v.42a.68.68,0,0,0,.22.53.62.62,0,0,0,.55.13.42.42,0,0,0,.15,0,1.06,1.06,0,0,0,.39-.24A6.17,6.17,0,0,1,95.31,96a11.75,11.75,0,0,1,8,3.35l.08.07a.94.94,0,0,0,1.33,0l.06-.07a11.8,11.8,0,0,1,8-3.36,6.22,6.22,0,0,1,3.12.65,1.08,1.08,0,0,0,.43.26,1,1,0,0,0,.45,0,.68.68,0,0,0,.49-.65V96a.63.63,0,0,0-.21-.48,9,9,0,0,0-6.31-2.72,11.43,11.43,0,0,0-6.71,2.53" transform="translate(0 0)"/><path class="cls-2" d="M99.24,64.32a.65.65,0,0,0-.34.4l-.08.27a.65.65,0,0,0,.58.84.33.33,0,0,0,.1,0,.82.82,0,0,0,.38-.09,1.71,1.71,0,0,1,.47,0,6.73,6.73,0,0,1,5.55,3.62l0,0a.75.75,0,0,0,.49.4,1,1,0,0,0,.25,0,.81.81,0,0,0,.39-.1l0,0a7.73,7.73,0,0,1,3.47-.86A5.3,5.3,0,0,1,114.12,70a.91.91,0,0,0,.26.29,1.51,1.51,0,0,0,.26.12l.11,0h.07a.67.67,0,0,0,.31-.07.66.66,0,0,0,.33-.4l.06-.23a.58.58,0,0,0,0-.19.6.6,0,0,0-.09-.33A5.85,5.85,0,0,0,110.19,66a8.4,8.4,0,0,0-2.8.52,6.8,6.8,0,0,0-5.24-2.93,6.48,6.48,0,0,0-2.91.74" transform="translate(0 0)"/><path class="cls-2" d="M82.82,76.27l0,.35a.62.62,0,0,0,.31.52.64.64,0,0,0,.52.08l.11,0a.86.86,0,0,0,.34-.25,5.66,5.66,0,0,1,3-.67,9.61,9.61,0,0,1,6.15,2.32l.05,0a.9.9,0,0,0,.6.23h0a.93.93,0,0,0,.62-.29l0-.06a9.34,9.34,0,0,1,6.81-3.15,4.67,4.67,0,0,1,2,.37.9.9,0,0,0,.4.21,1,1,0,0,0,.28,0l.17,0a.67.67,0,0,0,.44-.67l0-.3a.68.68,0,0,0-.23-.46,7.65,7.65,0,0,0-5-2A9.25,9.25,0,0,0,93.7,75a9.65,9.65,0,0,0-5.18-1.72A7.41,7.41,0,0,0,83,75.77a.77.77,0,0,0-.18.5" transform="translate(0 0)"/><path class="cls-2" d="M43.51,82.51a8.42,8.42,0,0,1,8.42-8.43c.18,0,.36,0,.54,0a11.39,11.39,0,1,1,21.6,5.83A12.73,12.73,0,0,1,71.3,105.1l-17-.1a9,9,0,0,1-6.56-15.19,8.38,8.38,0,0,1-4.24-7.3" transform="translate(0 0)"/><polygon class="cls-2" points="51.13 13.4 53.33 13.4 53.33 24.68 55.95 24.68 55.95 26.47 51.13 26.47 51.13 13.4"/><rect class="cls-2" x="57.15" y="13.4" width="2.2" height="13.07"/><polygon class="cls-2" points="61 13.4 66.15 13.4 66.15 15.19 63.2 15.19 63.2 18.93 65.4 18.93 65.4 20.71 63.2 20.71 63.2 26.47 61 26.47 61 13.4"/><polygon class="cls-2" points="67.29 13.4 72.54 13.4 72.54 15.19 69.49 15.19 69.49 18.93 71.67 18.93 71.67 20.71 69.49 20.71 69.49 24.68 72.54 24.68 72.54 26.47 67.29 26.47 67.29 13.4"/><path class="cls-2" d="M51.11,42.31V36c0-2,1-3.53,3.32-3.53s3.34,1.49,3.34,3.53v6.33c0,2-1,3.53-3.34,3.53s-3.32-1.51-3.32-3.53m4.46.34v-7c0-.79-.35-1.35-1.14-1.35s-1.12.56-1.12,1.35v7c0,.8.35,1.35,1.12,1.35s1.14-.55,1.14-1.35" transform="translate(0 0)"/><polygon class="cls-2" points="60.83 37.47 60.83 45.69 58.98 45.69 58.98 32.61 61.14 32.61 63.52 40.11 63.52 32.61 65.35 32.61 65.35 45.69 63.42 45.69 60.83 37.47"/><polygon class="cls-2" points="70.09 32.61 72.29 32.61 72.29 43.89 74.91 43.89 74.91 45.68 70.09 45.68 70.09 32.61"/><path class="cls-2" d="M75.51,45.68,78,32.61h2.51L83,45.68H80.72l-.41-2.39H78l-.38,2.39Zm2.76-4.14H80l-.87-5.25h0Z" transform="translate(0 0)"/><polygon class="cls-2" points="85.72 37.47 85.72 45.69 83.86 45.69 83.86 32.61 86.02 32.61 88.4 40.11 88.4 32.61 90.23 32.61 90.23 45.69 88.3 45.69 85.72 37.47"/><path class="cls-2" d="M98.21,36.12v6.05c0,2-.83,3.51-3.18,3.51H91.64V32.61H95c2.35,0,3.18,1.48,3.18,3.51m-3.45,7.77c.91,0,1.26-.54,1.26-1.33V35.71a1.15,1.15,0,0,0-1.26-1.31h-.92v9.49Z" transform="translate(0 0)"/></svg>