<svg id="Lager_1" data-name="Lager 1" xmlns="http://www.w3.org/2000/svg" viewBox="0 0 57.15 50.19"><defs><style>.cls-1{fill:#fdeb1b;}.cls-2{fill:#fff;stroke-linejoin:round;stroke-width:1.5px;}.cls-2,.cls-3,.cls-4{stroke:#000;}.cls-2,.cls-4{stroke-linecap:round;}.cls-3,.cls-4{fill:none;stroke-miterlimit:10;}.cls-3{stroke-width:1.36px;}.cls-4{stroke-width:0.75px;}</style></defs><title>Skatteintäkter</title><circle class="cls-1" cx="43.65" cy="13.5" r="12.5"/><path d="M44.5,9A11.5,11.5,0,1,1,33,20.5,11.51,11.51,0,0,1,44.5,9m0-2A13.5,13.5,0,1,0,58,20.5,13.49,13.49,0,0,0,44.5,7Z" transform="translate(-0.85 -7)"/><path class="cls-2" d="M1.6,48.64l10.8-7.46a2.19,2.19,0,0,1,1-.29L21,40.35a7.44,7.44,0,0,0,4.71-2.15l1.87-1.86L28,36l6.17-3.89L40,28.47a2.34,2.34,0,0,0,.67-.66l.37-.57a2.22,2.22,0,0,0-.24-2.73l-.12-.12A2.18,2.18,0,0,0,39,23.7l-12.2,3.9a2.3,2.3,0,0,1-1.05.32l-.5,0A2.21,2.21,0,0,1,23.1,26.5,2.17,2.17,0,0,1,23,25.24l1.6-7a2.23,2.23,0,0,1,1.27-1.53l2-.88a2.36,2.36,0,0,1,.94-.19l2.29.05a2.32,2.32,0,0,1,.64.11l.55.18c1.2-2,1.74-3.88,3.68-4.95L28.66,8.64A2.17,2.17,0,0,0,27,8.76L15.6,14.23a2.21,2.21,0,0,0-1,.88L8.2,26.24a2.25,2.25,0,0,1-.71.76,52.11,52.11,0,0,0-5.76,5.25" transform="translate(-0.85 -7)"/><path class="cls-1" d="M35.54,56.19c-1,0-2,0-3,0A38.13,38.13,0,0,1,22.1,54.59c-.57-.19-2.09-.7-2.4-1.34a4.26,4.26,0,0,1-.06-1.12c0-.21,0-.41,0-.59,0-.69,0-1.38,0-2.07a2.14,2.14,0,0,1,.13-.84,1.41,1.41,0,0,1,.55-.45A9.39,9.39,0,0,1,23,47.24a44.59,44.59,0,0,1,7.54-.93c1.56-.09,3.1-.13,4.58-.13a71.25,71.25,0,0,1,8.44.49,23.93,23.93,0,0,1,5.17,1.12c.48.18,1.15.47,1.34.91a2.6,2.6,0,0,1,.12.87c0,.78,0,1.55,0,2.33a3.45,3.45,0,0,1-.16,1.26.61.61,0,0,1,0,.12,3.19,3.19,0,0,1-1.8,1.13,38.49,38.49,0,0,1-12.66,1.78Z" transform="translate(-0.85 -7)"/><path d="M35.13,47.18a67.2,67.2,0,0,1,8.32.49,22.09,22.09,0,0,1,4.95,1.06,2.62,2.62,0,0,1,.77.39,4,4,0,0,1,0,.48c0,.76,0,1.53,0,2.28a4,4,0,0,1-.1.93c0,.08-.26.31-1.25.65a37.51,37.51,0,0,1-12.33,1.73c-.93,0-1.9,0-3,0a37.32,37.32,0,0,1-10.16-1.5,5.69,5.69,0,0,1-1.78-.8c0-.19,0-.49,0-.68s0-.46,0-.65c0-.67,0-1.34,0-2,0-.07,0-.24,0-.36l.16-.1a9.06,9.06,0,0,1,2.41-.83,44.74,44.74,0,0,1,7.37-.91c1.54-.08,3.07-.12,4.53-.12m0-2c-1.55,0-3.09,0-4.64.13a45.39,45.39,0,0,0-7.7.95,10.31,10.31,0,0,0-3,1.05,2.37,2.37,0,0,0-.92.83,2.73,2.73,0,0,0-.26,1.3c0,.71,0,1.42,0,2.13a6.18,6.18,0,0,0,.15,2.11c.47,1,2,1.54,3,1.86A38.67,38.67,0,0,0,32.5,57.13c1,0,2,.06,3,.06a39.76,39.76,0,0,0,13-1.84,3.87,3.87,0,0,0,2.36-1.61,1,1,0,0,0,.1-.21,4.37,4.37,0,0,0,.23-1.61c0-.8,0-1.59,0-2.38A3.26,3.26,0,0,0,51,48.3a3.15,3.15,0,0,0-1.91-1.45,24.77,24.77,0,0,0-5.4-1.17,70,70,0,0,0-8.56-.5Z" transform="translate(-0.85 -7)"/><path class="cls-3" d="M34.78,46.3c9.94,0,15,1.56,15.06,2.46-.08.41-1,1-2.64,1.45a40,40,0,0,1-9.69,1.45l-.65,0h-.55l-1.53,0-1.52,0h-.55l-.65,0a40.11,40.11,0,0,1-9.7-1.45c-1.63-.5-2.56-1-2.63-1.45.09-.9,5.12-2.46,15.05-2.46Z" transform="translate(-0.85 -7)"/><line class="cls-4" x1="21.45" y1="43.33" x2="21.45" y2="47.67"/><line class="cls-4" x1="25.43" y1="44.1" x2="25.43" y2="49.16"/><line class="cls-4" x1="30.01" y1="44.62" x2="30.01" y2="49.64"/><line class="cls-4" x1="35.07" y1="44.72" x2="35.07" y2="49.64"/><line class="cls-4" x1="40.52" y1="44.43" x2="40.52" y2="49.35"/><line class="cls-4" x1="42.71" y1="44.05" x2="42.71" y2="48.97"/><path class="cls-1" d="M42.31,49.42c-1,0-2,0-3-.06a38.18,38.18,0,0,1-10.44-1.55c-.57-.19-2.1-.69-2.4-1.34a3.87,3.87,0,0,1-.06-1.12,5.6,5.6,0,0,0,0-.58c0-.7,0-1.39,0-2.08a2.11,2.11,0,0,1,.13-.84,1.45,1.45,0,0,1,.54-.45,9.76,9.76,0,0,1,2.7-.94,44.49,44.49,0,0,1,7.53-.93c1.56-.08,3.11-.13,4.58-.13a69.19,69.19,0,0,1,8.45.5A22.91,22.91,0,0,1,55.52,41c.48.17,1.15.46,1.34.9a2.69,2.69,0,0,1,.12.87c0,.78,0,1.56,0,2.33a3.45,3.45,0,0,1-.16,1.26l0,.12A3.19,3.19,0,0,1,55,47.63a38.39,38.39,0,0,1-12.66,1.79Z" transform="translate(-0.85 -7)"/><path d="M41.91,40.4a68.91,68.91,0,0,1,8.31.49,22.54,22.54,0,0,1,5,1.06,2.77,2.77,0,0,1,.78.39,4,4,0,0,1,0,.48c0,.76,0,1.53,0,2.28a3.13,3.13,0,0,1-.1.93c0,.09-.25.32-1.24.65a37.27,37.27,0,0,1-12.33,1.74c-.94,0-1.91,0-3-.06a37.38,37.38,0,0,1-10.16-1.5,5.44,5.44,0,0,1-1.77-.8c0-.18,0-.48,0-.68s0-.46,0-.64c0-.67,0-1.35,0-2,0-.07,0-.24,0-.36l.15-.09A8.92,8.92,0,0,1,30,41.43a43.8,43.8,0,0,1,7.37-.9c1.54-.09,3.07-.13,4.53-.13m0-2c-1.55,0-3.1.05-4.64.13a46.17,46.17,0,0,0-7.7.95,10.79,10.79,0,0,0-3,1.05,2.35,2.35,0,0,0-.91.83,2.77,2.77,0,0,0-.26,1.31c0,.71,0,1.42,0,2.13a6.13,6.13,0,0,0,.14,2.1c.48,1,2,1.54,3,1.86a38.68,38.68,0,0,0,10.71,1.6c1,0,2,.06,3,.06a40,40,0,0,0,13-1.84A4,4,0,0,0,57.66,47a2,2,0,0,0,.1-.21A4.64,4.64,0,0,0,58,45.14c0-.79,0-1.59,0-2.38a3.26,3.26,0,0,0-.2-1.24,3.1,3.1,0,0,0-1.91-1.44,24.34,24.34,0,0,0-5.4-1.18,72,72,0,0,0-8.56-.5Z" transform="translate(-0.85 -7)"/><path class="cls-3" d="M41.56,39.52c9.94,0,15,1.57,15.06,2.46-.08.41-1,1-2.64,1.46a40.61,40.61,0,0,1-9.69,1.44l-.66,0h-.54c-.5,0-1,0-1.53,0s-1,0-1.52,0h-.55l-.65,0a40.63,40.63,0,0,1-9.7-1.44c-1.63-.51-2.56-1-2.63-1.46.09-.89,5.12-2.46,15.05-2.46Z" transform="translate(-0.85 -7)"/><line class="cls-4" x1="28.23" y1="36.56" x2="28.23" y2="40.89"/><line class="cls-4" x1="32.21" y1="37.32" x2="32.21" y2="42.38"/><line class="cls-4" x1="36.79" y1="37.85" x2="36.79" y2="42.86"/><line class="cls-4" x1="41.85" y1="37.94" x2="41.85" y2="42.86"/><line class="cls-4" x1="47.29" y1="37.65" x2="47.29" y2="42.57"/><line class="cls-4" x1="49.49" y1="37.27" x2="49.49" y2="42.19"/></svg>